<svg xmlns="http://www.w3.org/2000/svg" viewBox="0 0 228.13 972"><defs><style>.cls-1{fill:#06c;}.cls-2{opacity:0.25;}.cls-3,.cls-5,.cls-6{fill:#fff;}.cls-4,.cls-5,.cls-6{fill-rule:evenodd;}.cls-5,.cls-6{stroke:#231f20;stroke-miterlimit:2.61;}.cls-5{stroke-width:1.66px;}.cls-6{stroke-width:0.18px;}.cls-7{fill:#065082;}.cls-8{fill:#206e91;}.cls-9{fill:#1a7eaa;}.cls-10,.cls-12{fill:none;}.cls-10,.cls-11{stroke:#000;stroke-linejoin:round;}.cls-10,.cls-11,.cls-12{stroke-linecap:round;}.cls-10{stroke-width:6px;}.cls-11{stroke-width:3px;}.cls-12{stroke:#fff;stroke-miterlimit:10;}</style></defs><title>cap-info</title><g id="Layer_2" data-name="Layer 2"><g id="poster"><g id="bg"><rect id="_1" data-name="1" class="cls-1" x="0.13" width="228" height="972"/><rect id="shade1" class="cls-2" y="310" width="227" height="102"/><rect id="shade2" class="cls-2" y="679" width="227" height="184"/></g><g id="stats-cap"><g id="bars"><rect class="cls-3" x="20.62" y="110.86" width="187.31" height="24.04"/><rect x="20.28" y="110.65" width="119.71" height="24.04"/><path class="cls-3" d="M24.66,127.3a3,3,0,0,1-.66-2.09v-.64h1.67v.77c0,.73.3,1.09.91,1.09a.87.87,0,0,0,.68-.26,1.26,1.26,0,0,0,.23-.86,2.32,2.32,0,0,0-.32-1.24A5.86,5.86,0,0,0,26,122.78,6.79,6.79,0,0,1,24.47,121a3.54,3.54,0,0,1-.44-1.76,2.94,2.94,0,0,1,.68-2.06,2.53,2.53,0,0,1,1.95-.73,2.48,2.48,0,0,1,1.92.73,3.09,3.09,0,0,1,.65,2.1v.46H27.56v-.58a1.3,1.3,0,0,0-.23-.84.81.81,0,0,0-.65-.26c-.59,0-.88.36-.88,1.07a2.18,2.18,0,0,0,.32,1.14,6.29,6.29,0,0,0,1.2,1.28,6.61,6.61,0,0,1,1.52,1.75,3.84,3.84,0,0,1,.42,1.84,3,3,0,0,1-.68,2.12,2.58,2.58,0,0,1-2,.73A2.46,2.46,0,0,1,24.66,127.3Z"/><path class="cls-3" d="M31.65,118.26H29.8v-1.6h5.45v1.6H33.41v9.61H31.65Z"/><path class="cls-3" d="M36.1,116.66h2.61a2.71,2.71,0,0,1,2,.63,2.66,2.66,0,0,1,.63,1.95v.69a2.11,2.11,0,0,1-1.16,2.21v0a1.4,1.4,0,0,1,.91.78,4.12,4.12,0,0,1,.26,1.59v2q0,.48,0,.78a2,2,0,0,0,.16.58H39.74a2.13,2.13,0,0,1-.13-.51,8.2,8.2,0,0,1,0-.86v-2.06a1.7,1.7,0,0,0-.25-1.07,1.07,1.07,0,0,0-.86-.3h-.61v4.8H36.1Zm2.4,4.8a1.07,1.07,0,0,0,.8-.27,1.3,1.3,0,0,0,.26-.91v-.87a1.46,1.46,0,0,0-.21-.88.85.85,0,0,0-.69-.27h-.8v3.2Z"/><path class="cls-3" d="M42.56,116.66h4.81v1.6h-3v3h2.42v1.61H44.32v3.44h3v1.6H42.56Z"/><path class="cls-3" d="M48.38,116.66h2.21l1.71,6.71h0v-6.71h1.57v11.21H52.1L50,119.68h0v8.19H48.38Z"/><path class="cls-3" d="M55.76,127.3a3,3,0,0,1-.67-2.09v-5.89a3,3,0,0,1,.67-2.1,3,3,0,0,1,3.92,0,3,3,0,0,1,.67,2.1v1H58.68V119.2c0-.73-.3-1.1-.91-1.1s-.92.37-.92,1.1v6.14c0,.73.31,1.09.92,1.09s.91-.36.91-1.09v-2.19H57.8v-1.61h2.55v3.67a3,3,0,0,1-.67,2.09,3,3,0,0,1-3.92,0Z"/><path class="cls-3" d="M62.86,118.26H61v-1.6h5.45v1.6H64.63v9.61H62.86Z"/><path class="cls-3" d="M67.32,116.66h1.76v4.56H71v-4.56h1.77v11.21H71v-5H69.08v5H67.32Z"/><rect class="cls-3" x="20.62" y="147.93" width="187.31" height="24.04"/><rect x="20.28" y="147.71" width="145.71" height="24.04"/><path class="cls-3" d="M24.66,164.37a3,3,0,0,1-.66-2.1v-.64h1.67v.77c0,.73.3,1.09.91,1.09a.87.87,0,0,0,.68-.26,1.26,1.26,0,0,0,.23-.86,2.32,2.32,0,0,0-.32-1.24A5.86,5.86,0,0,0,26,159.84a6.79,6.79,0,0,1-1.52-1.74,3.53,3.53,0,0,1-.44-1.75,2.91,2.91,0,0,1,.68-2.06,2.5,2.5,0,0,1,1.95-.73,2.44,2.44,0,0,1,1.92.73,3,3,0,0,1,.65,2.09v.46H27.56v-.57a1.31,1.31,0,0,0-.23-.85.81.81,0,0,0-.65-.26c-.59,0-.88.36-.88,1.07a2.18,2.18,0,0,0,.32,1.14,6.29,6.29,0,0,0,1.2,1.28,6.61,6.61,0,0,1,1.52,1.75,3.84,3.84,0,0,1,.42,1.84,3,3,0,0,1-.68,2.12,2.59,2.59,0,0,1-2,.74A2.5,2.5,0,0,1,24.66,164.37Z"/><path class="cls-3" d="M30.27,153.72h2.59a2.55,2.55,0,0,1,2,.7,2.92,2.92,0,0,1,.66,2.07v1.11a2.91,2.91,0,0,1-.66,2.06,2.55,2.55,0,0,1-2,.71H32v4.57H30.27Zm2.59,5.05a.8.8,0,0,0,.65-.25,1.16,1.16,0,0,0,.22-.81v-1.33a1.18,1.18,0,0,0-.22-.82.82.82,0,0,0-.65-.24H32v3.45Z"/><path class="cls-3" d="M36.45,153.72h4.81v1.6h-3v3h2.42v1.61H38.22v3.44h3v1.61H36.45Z"/><path class="cls-3" d="M42.27,153.72h4.81v1.6H44v3h2.42v1.61H44v3.44h3v1.61H42.27Z"/><path class="cls-3" d="M48.09,153.72h2.69a2.56,2.56,0,0,1,2,.7,2.92,2.92,0,0,1,.66,2.07v5.67a2.92,2.92,0,0,1-.66,2.07,2.56,2.56,0,0,1-2,.71H48.09Zm2.66,9.61a.83.83,0,0,0,.66-.25,1.2,1.2,0,0,0,.24-.84v-5.83a1.18,1.18,0,0,0-.24-.83.84.84,0,0,0-.66-.26h-.9v8Z"/><rect class="cls-3" x="20.62" y="184.99" width="187.31" height="24.04"/><rect x="20.28" y="184.77" width="187.71" height="24.04"/><path class="cls-3" d="M24.66,201.43a3,3,0,0,1-.66-2.09v-.64h1.67v.76c0,.73.3,1.09.91,1.09a.83.83,0,0,0,.68-.26,1.26,1.26,0,0,0,.23-.86,2.32,2.32,0,0,0-.32-1.24A5.86,5.86,0,0,0,26,196.9a6.79,6.79,0,0,1-1.52-1.74,3.53,3.53,0,0,1-.44-1.75,2.91,2.91,0,0,1,.68-2.06,2.5,2.5,0,0,1,1.95-.73,2.44,2.44,0,0,1,1.92.73,3,3,0,0,1,.65,2.09v.46H27.56v-.57a1.26,1.26,0,0,0-.23-.84.79.79,0,0,0-.65-.27c-.59,0-.88.36-.88,1.07a2.18,2.18,0,0,0,.32,1.14,6.29,6.29,0,0,0,1.2,1.28,6.77,6.77,0,0,1,1.52,1.75,3.87,3.87,0,0,1,.42,1.84,3,3,0,0,1-.68,2.12,2.59,2.59,0,0,1-2,.74A2.5,2.5,0,0,1,24.66,201.43Z"/><path class="cls-3" d="M31.65,192.38H29.8v-1.6h5.45v1.6H33.41V202H31.65Z"/><path class="cls-3" d="M36.1,190.78h2.61a2.71,2.71,0,0,1,2,.63,2.66,2.66,0,0,1,.63,2v.69a2.11,2.11,0,0,1-1.16,2.21v0a1.39,1.39,0,0,1,.91.79,4,4,0,0,1,.26,1.58v2c0,.33,0,.58,0,.78a2.16,2.16,0,0,0,.16.59H39.74a2.2,2.2,0,0,1-.13-.52,8.07,8.07,0,0,1,0-.86v-2.05a1.73,1.73,0,0,0-.25-1.08,1.07,1.07,0,0,0-.86-.3h-.61V202H36.1Zm2.4,4.81a1,1,0,0,0,.8-.28,1.3,1.3,0,0,0,.26-.91v-.87a1.48,1.48,0,0,0-.21-.88.85.85,0,0,0-.69-.27h-.8v3.21Z"/><path class="cls-3" d="M43.92,190.78h2.39L48.14,202H46.37l-.32-2.23v0h-2l-.32,2.2H42.09Zm1.92,7.5-.78-5.55h0l-.77,5.55Z"/><path class="cls-3" d="M49.63,192.38H47.78v-1.6h5.45v1.6H51.39V202H49.63Z"/><path class="cls-3" d="M54.08,190.78h4.81v1.6h-3v3h2.42V197H55.84v3.44h3V202H54.08Z"/><path class="cls-3" d="M60.44,201.43a3,3,0,0,1-.67-2.09v-5.9a3,3,0,0,1,.67-2.09,3,3,0,0,1,3.92,0,3,3,0,0,1,.67,2.09v1H63.36v-1.07c0-.74-.3-1.11-.91-1.11s-.92.37-.92,1.11v6.13c0,.73.31,1.09.92,1.09s.91-.36.91-1.09v-2.19h-.88v-1.6H65v3.67a3,3,0,0,1-.67,2.09,3,3,0,0,1-3.92,0Z"/><path class="cls-3" d="M67.54,197.22l-2.13-6.44h1.88l1.2,4.12h0l1.2-4.12h1.72l-2.13,6.44V202H67.54Z"/><rect class="cls-3" x="20.62" y="222.05" width="187.31" height="24.04"/><rect x="20.28" y="221.83" width="187.71" height="24.04"/><path class="cls-3" d="M24.3,227.84H27a2.61,2.61,0,0,1,2,.7,2.94,2.94,0,0,1,.66,2.07v5.68a2.91,2.91,0,0,1-.66,2.06,2.58,2.58,0,0,1-2,.71H24.3ZM27,237.46a.85.85,0,0,0,.66-.26,1.19,1.19,0,0,0,.23-.83v-5.84a1.19,1.19,0,0,0-.23-.83.85.85,0,0,0-.66-.26h-.9v8Z"/><path class="cls-3" d="M30.81,227.84h4.81v1.6h-3v3H35V234H32.57v3.45h3v1.6H30.81Z"/><path class="cls-3" d="M36.63,227.84h4.66v1.6h-2.9v3.13h2.28v1.6H38.39v4.89H36.63Z"/><path class="cls-3" d="M42.14,227.84H47v1.6h-3v3h2.42V234H43.91v3.45h3v1.6H42.14Z"/><path class="cls-3" d="M48,227.84h2.21l1.72,6.71h0v-6.71h1.57v11.22H51.68l-2.12-8.19h0v8.19H48Z"/><path class="cls-3" d="M55.36,238.5a2.87,2.87,0,0,1-.67-2v-6a2.87,2.87,0,0,1,.67-2,2.48,2.48,0,0,1,1.93-.72,2.51,2.51,0,0,1,1.93.72,2.91,2.91,0,0,1,.66,2v1.18H58.22v-1.3c0-.69-.3-1-.88-1s-.89.35-.89,1v6.27c0,.68.3,1,.89,1s.88-.35.88-1v-1.71h1.66v1.58a2.91,2.91,0,0,1-.66,2,2.51,2.51,0,0,1-1.93.72A2.48,2.48,0,0,1,55.36,238.5Z"/><path class="cls-3" d="M60.94,227.84h4.81v1.6h-3v3h2.42V234H62.7v3.45h3v1.6H60.94Z"/><rect class="cls-3" x="20.62" y="259.11" width="187.31" height="24.04"/><rect x="20.28" y="258.89" width="173.71" height="24.04"/><path class="cls-3" d="M24.66,275.55a3,3,0,0,1-.66-2.09v-.64h1.67v.77c0,.72.3,1.09.91,1.09a.84.84,0,0,0,.68-.27,1.24,1.24,0,0,0,.23-.85,2.35,2.35,0,0,0-.32-1.25A6.34,6.34,0,0,0,26,271a6.79,6.79,0,0,1-1.52-1.74,3.5,3.5,0,0,1-.44-1.75,2.92,2.92,0,0,1,.68-2.06,2.5,2.5,0,0,1,1.95-.73,2.44,2.44,0,0,1,1.92.73,3.06,3.06,0,0,1,.65,2.09V268H27.56v-.58a1.26,1.26,0,0,0-.23-.84.79.79,0,0,0-.65-.27c-.59,0-.88.36-.88,1.08a2.23,2.23,0,0,0,.32,1.14,6.29,6.29,0,0,0,1.2,1.28,6.6,6.6,0,0,1,1.52,1.74,3.89,3.89,0,0,1,.42,1.85,3,3,0,0,1-.68,2.11,2.59,2.59,0,0,1-2,.74A2.46,2.46,0,0,1,24.66,275.55Z"/><path class="cls-3" d="M30.27,264.9H32v4.73l2.24-4.73H36L33.94,269l2.13,7.1H34.23l-1.49-5L32,272.55v3.57H30.27Z"/><path class="cls-3" d="M36.9,264.9h1.76v11.22H36.9Z"/><path class="cls-3" d="M40,264.9h1.76v9.62h2.9v1.6H40Z"/><path class="cls-3" d="M45.49,264.9h1.76v9.62h2.91v1.6H45.49Z"/></g><g id="weapon"><path class="cls-3" d="M21.36,331.13h3.81l1.77,19.37H27l1.87-19.37H33.2l1.87,19.37h.07l1.77-19.37h3.42l-2.56,25.2H32.84l-1.8-17H31l-1.8,17H23.91Z"/><path class="cls-3" d="M42.34,331.13h10.8v3.6H46.3v6.66h5.44V345H46.3v7.74h6.84v3.6H42.34Z"/><path class="cls-3" d="M58.47,331.13h5.36l4.11,25.2H64l-.72-5v.07h-4.5L58,356.33H54.37ZM62.79,348,61,335.52H61L59.23,348Z"/><path class="cls-3" d="M69.85,331.13h5.83a5.8,5.8,0,0,1,4.43,1.58,6.62,6.62,0,0,1,1.47,4.65v2.48a6.62,6.62,0,0,1-1.47,4.65,5.8,5.8,0,0,1-4.43,1.58H73.81v10.26h-4Zm5.83,11.34a1.87,1.87,0,0,0,1.46-.54,2.76,2.76,0,0,0,.48-1.84v-3a2.76,2.76,0,0,0-.48-1.84,1.87,1.87,0,0,0-1.46-.54H73.81v7.74Z"/><path class="cls-3" d="M85,355a6.59,6.59,0,0,1-1.55-4.68V337.11A6.59,6.59,0,0,1,85,332.43a6.83,6.83,0,0,1,8.93,0,6.59,6.59,0,0,1,1.55,4.68v13.24A6.59,6.59,0,0,1,93.93,355,6.83,6.83,0,0,1,85,355Zm6.52-4.42V336.85c0-1.65-.69-2.48-2-2.48s-2.06.83-2.06,2.48v13.76c0,1.65.69,2.48,2.06,2.48S91.52,352.26,91.52,350.61Z"/><path class="cls-3" d="M98.14,331.13h5L107,346.21H107V331.13h3.53v25.2h-4.07l-4.75-18.4h-.07v18.4H98.14Z"/><path class="cls-4" d="M144.17,325.37c17.2-2.83,20.65,10.6,7.69,30s-37.4,37.43-54.61,40.26-20.65-10.59-7.7-30,37.41-37.42,54.62-40.26Z"/><path class="cls-5" d="M140.08,331.49c14.21-2.34,17.06,8.75,6.36,24.77s-30.89,30.9-45.1,33.24S84.28,380.76,95,364.74s30.89-30.91,45.1-33.25Z"/><path class="cls-4" d="M135.77,338c11-1.82,13.26,6.8,4.94,19.25s-24,24-35.06,25.85-13.26-6.8-4.94-19.26,24-24,35.06-25.84Z"/><polygon class="cls-6" points="104.47 374.25 114.96 362.67 111.71 356.9 121.67 355.26 131.28 344.8 127.62 354.28 137.81 352.61 125.1 361 120.76 371.35 117.04 366.11 104.47 374.25 104.47 374.25"/><path class="cls-4" d="M127.71,384.68l9.06-6.19s39.52,5.17,50.8-17.55C187.57,360.94,182.67,390.56,127.71,384.68Z"/><path class="cls-4" d="M141,376.3l6.32-6.48s19,6.74,40.27-8.88C187.57,360.94,183.82,379.38,141,376.3Z"/><path class="cls-4" d="M148.68,366.76l4.53-6.3s7.91,9.65,34.79,1.1C188,361.56,167.4,373.23,148.68,366.76Z"/></g><g id="personality"><path class="cls-3" d="M21.94,433.05h5.35a5.3,5.3,0,0,1,4.05,1.45,6,6,0,0,1,1.36,4.26V441a6,6,0,0,1-1.36,4.26,5.3,5.3,0,0,1-4.05,1.45H25.57v9.4H21.94Zm5.35,10.4a1.7,1.7,0,0,0,1.33-.5,2.49,2.49,0,0,0,.45-1.68v-2.74a2.49,2.49,0,0,0-.45-1.68,1.7,1.7,0,0,0-1.33-.5H25.57v7.1Z"/><path class="cls-3" d="M34.68,433.05h9.9v3.3H38.31v6.11h5v3.3h-5v7.09h6.27v3.3h-9.9Z"/><path class="cls-3" d="M46.66,433.05H52a5.57,5.57,0,0,1,4.1,1.31,5.53,5.53,0,0,1,1.28,4v1.42q0,3.58-2.37,4.55v.07A2.81,2.81,0,0,1,56.9,446a8.06,8.06,0,0,1,.55,3.27v4.06c0,.66,0,1.19.06,1.6a4.29,4.29,0,0,0,.33,1.2H54.15a5.08,5.08,0,0,1-.27-1,17.53,17.53,0,0,1-.06-1.78v-4.23a3.61,3.61,0,0,0-.51-2.21,2.17,2.17,0,0,0-1.77-.63H50.29v9.9H46.66Zm5,9.9a2.15,2.15,0,0,0,1.63-.56,2.66,2.66,0,0,0,.54-1.88v-1.78a2.94,2.94,0,0,0-.44-1.82,1.7,1.7,0,0,0-1.4-.56H50.29V443Z"/><path class="cls-3" d="M60.68,455a6.21,6.21,0,0,1-1.35-4.3v-1.32h3.43v1.58c0,1.5.63,2.24,1.88,2.24a1.77,1.77,0,0,0,1.4-.54,2.64,2.64,0,0,0,.48-1.77,4.87,4.87,0,0,0-.66-2.55,12,12,0,0,0-2.44-2.66,14.64,14.64,0,0,1-3.14-3.58,7.36,7.36,0,0,1-.89-3.62,6.07,6.07,0,0,1,1.39-4.24,5.21,5.21,0,0,1,4-1.5,5,5,0,0,1,3.94,1.5,6.3,6.3,0,0,1,1.34,4.31v1H66.65V438.3a2.63,2.63,0,0,0-.46-1.73,1.69,1.69,0,0,0-1.35-.55c-1.21,0-1.82.74-1.82,2.21a4.4,4.4,0,0,0,.68,2.35,13.17,13.17,0,0,0,2.46,2.64,13.59,13.59,0,0,1,3.13,3.59,7.92,7.92,0,0,1,.86,3.8,6.2,6.2,0,0,1-1.4,4.35,5.25,5.25,0,0,1-4.08,1.52A5.09,5.09,0,0,1,60.68,455Z"/><path class="cls-3" d="M73.39,455A6,6,0,0,1,72,450.68V438.53a6,6,0,0,1,1.42-4.29,6.26,6.26,0,0,1,8.18,0A6,6,0,0,1,83,438.53v12.15A6,6,0,0,1,81.57,455a6.26,6.26,0,0,1-8.18,0Zm6-4V438.3c0-1.52-.63-2.28-1.88-2.28s-1.88.76-1.88,2.28v12.61c0,1.51.62,2.27,1.88,2.27S79.36,452.42,79.36,450.91Z"/><path class="cls-3" d="M85.43,433.05H90l3.54,13.83h.06V433.05h3.23v23.1H93.09l-4.36-16.86h-.07v16.86H85.43Z"/><path class="cls-3" d="M102.33,433.05h4.91l3.76,23.1h-3.63l-.66-4.58v.06h-4.12l-.66,4.52H98.56Zm4,15.45-1.62-11.42h-.07L103,448.5Z"/><path class="cls-3" d="M112.75,433.05h3.63v19.8h6v3.3h-9.61Z"/><path class="cls-3" d="M124.1,433.05h3.63v23.1H124.1Z"/><path class="cls-3" d="M133.28,436.35h-3.8v-3.3H140.7v3.3h-3.79v19.8h-3.63Z"/><path class="cls-3" d="M145.92,446.32l-4.39-13.27h3.86l2.47,8.48h.07l2.47-8.48h3.54l-4.39,13.27v9.83h-3.63Z"/><circle class="cls-7" cx="111" cy="564" r="89"/><path class="cls-8" d="M112.5,564,90.63,477.82C52.12,487.94,25,523.54,25,564c0,48.82,39.5,89,87.5,89S200,612.82,200,564Z"/><path class="cls-9" d="M109,565,69.84,644.92A89.06,89.06,0,0,0,109,654c48.82,0,89-40.18,89-89Z"/><path class="cls-3" d="M49.2,564.8v-1.4a2,2,0,0,0,.51.06.9.9,0,0,0,.68-.23,1,1,0,0,0,.23-.71V555h1.54v7.48a2.57,2.57,0,0,1-.55,1.79,2.24,2.24,0,0,1-1.69.59A3.73,3.73,0,0,1,49.2,564.8Z"/><path class="cls-3" d="M53.8,564.3a2.54,2.54,0,0,1-.59-1.82V555h1.54v7.59a1.1,1.1,0,0,0,.2.73.75.75,0,0,0,.58.22.73.73,0,0,0,.58-.22,1,1,0,0,0,.21-.73V555H57.8v7.48a2.59,2.59,0,0,1-.59,1.82,2.59,2.59,0,0,1-3.41,0Z"/><path class="cls-3" d="M59.2,564.3a2.63,2.63,0,0,1-.57-1.82v-.56h1.45v.67c0,.63.27.95.8.95a.78.78,0,0,0,.6-.23,1.14,1.14,0,0,0,.2-.75,2.12,2.12,0,0,0-.28-1.08,5,5,0,0,0-1-1.13A6.31,6.31,0,0,1,59,558.83a3.1,3.1,0,0,1-.38-1.53,2.55,2.55,0,0,1,.59-1.8,2.19,2.19,0,0,1,1.71-.64,2.09,2.09,0,0,1,1.67.64,2.64,2.64,0,0,1,.57,1.83v.4H61.73v-.5a1.15,1.15,0,0,0-.19-.74.72.72,0,0,0-.58-.23c-.51,0-.77.31-.77.94a1.84,1.84,0,0,0,.29,1,5.26,5.26,0,0,0,1,1.12,5.57,5.57,0,0,1,1.33,1.53,3.3,3.3,0,0,1,.37,1.61,2.62,2.62,0,0,1-.6,1.85,2.22,2.22,0,0,1-1.73.64A2.14,2.14,0,0,1,59.2,564.3Z"/><path class="cls-3" d="M65.3,556.4H63.69V555h4.76v1.4H66.84v8.4H65.3Z"/><path class="cls-3" d="M69.2,555h1.54v9.8H69.2Z"/><path class="cls-3" d="M72.37,564.31a2.51,2.51,0,0,1-.58-1.78v-5.26a2.51,2.51,0,0,1,.58-1.78,2.17,2.17,0,0,1,1.68-.63,2.19,2.19,0,0,1,1.69.63,2.51,2.51,0,0,1,.58,1.78v1H74.87v-1.14c0-.6-.26-.91-.77-.91s-.77.31-.77.91v5.48c0,.59.25.89.77.89s.77-.3.77-.89v-1.5h1.45v1.38a2.51,2.51,0,0,1-.58,1.78,2.19,2.19,0,0,1-1.69.63A2.17,2.17,0,0,1,72.37,564.31Z"/><path class="cls-3" d="M77.25,555h4.2v1.4H78.79V559H80.9v1.4H78.79v3h2.66v1.4h-4.2Z"/><path class="cls-3" d="M128.86,526.3a2.63,2.63,0,0,1-.57-1.82v-.56h1.45v.67c0,.63.27.95.8.95a.78.78,0,0,0,.6-.23,1.14,1.14,0,0,0,.2-.75,2,2,0,0,0-.28-1.08,5,5,0,0,0-1-1.13,6.54,6.54,0,0,1-1.33-1.52,3.09,3.09,0,0,1-.37-1.53,2.55,2.55,0,0,1,.58-1.8,2.22,2.22,0,0,1,1.71-.64,2.12,2.12,0,0,1,1.68.64,2.69,2.69,0,0,1,.56,1.83v.4H131.4v-.5a1.15,1.15,0,0,0-.2-.74.72.72,0,0,0-.57-.23c-.52,0-.77.31-.77.94a1.83,1.83,0,0,0,.28,1,5.1,5.1,0,0,0,1.05,1.12,5.94,5.94,0,0,1,1.33,1.53,3.41,3.41,0,0,1,.36,1.61,2.67,2.67,0,0,1-.59,1.85,2.25,2.25,0,0,1-1.73.64A2.17,2.17,0,0,1,128.86,526.3Z"/><path class="cls-3" d="M134.25,526.3a2.58,2.58,0,0,1-.6-1.82v-5.15a2.56,2.56,0,0,1,.6-1.82,2.64,2.64,0,0,1,3.47,0,2.52,2.52,0,0,1,.61,1.82v5.15a2.54,2.54,0,0,1-.61,1.82,2.67,2.67,0,0,1-3.47,0Zm2.54-1.72v-5.35c0-.65-.27-1-.8-1s-.8.32-.8,1v5.35c0,.64.27,1,.8,1S136.79,525.22,136.79,524.58Z"/><path class="cls-3" d="M139.36,517h1.54v8.4h2.54v1.4h-4.08Z"/><path class="cls-3" d="M144.18,517h2.35a2.23,2.23,0,0,1,1.72.62,2.51,2.51,0,0,1,.58,1.8v5a2.54,2.54,0,0,1-.58,1.81,2.23,2.23,0,0,1-1.72.61h-2.35Zm2.32,8.4a.73.73,0,0,0,.58-.22,1,1,0,0,0,.21-.73v-5.1a1,1,0,0,0-.21-.72.74.74,0,0,0-.58-.23h-.78v7Z"/><path class="cls-3" d="M149.86,517h1.54v9.8h-1.54Z"/><path class="cls-3" d="M152.55,517h4.2v1.4h-2.66V521h2.11v1.4h-2.11v3h2.66v1.4h-4.2Z"/><path class="cls-3" d="M157.63,517h2.28a2,2,0,0,1,2.29,2.26v.6c0,1-.34,1.66-1,1.93v0a1.2,1.2,0,0,1,.79.68,3.56,3.56,0,0,1,.23,1.39v1.72a6.13,6.13,0,0,0,0,.68,1.62,1.62,0,0,0,.14.51h-1.57a2.1,2.1,0,0,1-.11-.45,6.22,6.22,0,0,1,0-.75v-1.79a1.47,1.47,0,0,0-.22-.94.9.9,0,0,0-.75-.27h-.53v4.2h-1.54Zm2.1,4.2a.94.94,0,0,0,.7-.24,1.13,1.13,0,0,0,.23-.79v-.76a1.28,1.28,0,0,0-.19-.77.73.73,0,0,0-.6-.24h-.7v2.8Z"/><path class="cls-3" d="M121.55,606h1.54v8.4h2.54v1.4h-4.08Z"/><path class="cls-3" d="M126.37,606h1.54v9.8h-1.54Z"/><path class="cls-3" d="M129.06,606h2.32a2.4,2.4,0,0,1,1.74.55,2.37,2.37,0,0,1,.54,1.71v.39a2.75,2.75,0,0,1-.24,1.23,1.41,1.41,0,0,1-.75.69v0c.77.27,1.15.95,1.15,2v.84a2.09,2.09,0,0,1-2.34,2.32h-2.42Zm2.14,4a.9.9,0,0,0,.69-.24,1.08,1.08,0,0,0,.23-.79v-.55a1.28,1.28,0,0,0-.18-.77.73.73,0,0,0-.6-.24h-.74V610Zm.28,4.41a.75.75,0,0,0,.6-.22,1.09,1.09,0,0,0,.2-.74v-.86a1.43,1.43,0,0,0-.23-.93,1,1,0,0,0-.77-.26h-.68v3Z"/><path class="cls-3" d="M134.71,606h4.2v1.4h-2.66V610h2.12v1.4h-2.12v3h2.66v1.4h-4.2Z"/><path class="cls-3" d="M139.8,606h2.28a2.38,2.38,0,0,1,1.73.55,2.33,2.33,0,0,1,.55,1.71v.6c0,1-.34,1.66-1,1.93v0a1.18,1.18,0,0,1,.79.68,3.38,3.38,0,0,1,.23,1.39v1.72a6.13,6.13,0,0,0,0,.68,1.94,1.94,0,0,0,.14.51H143a2.93,2.93,0,0,1-.11-.45,6.22,6.22,0,0,1,0-.75v-1.79a1.55,1.55,0,0,0-.21-.94.93.93,0,0,0-.75-.27h-.53v4.2H139.8Zm2.1,4.2a.92.92,0,0,0,.69-.24,1.13,1.13,0,0,0,.23-.79v-.76a1.21,1.21,0,0,0-.19-.77.69.69,0,0,0-.59-.24h-.7v2.8Z"/><path class="cls-3" d="M146.61,607.4H145V606h4.76v1.4h-1.61v8.4h-1.54Z"/><path class="cls-3" d="M152,611.63,150.11,606h1.64l1.05,3.6h0l1-3.6h1.5l-1.86,5.63v4.17H152Z"/></g><g id="frenemies"><line class="cls-10" x1="20" y1="843" x2="208" y2="843"/><rect class="cls-11" x="143" y="730" width="50.5" height="111"/><path class="cls-3" d="M24.69,831.2v-4.65h1.6v2.89h3.12v-2.27H31v2.27h4.88v1.76Z"/><path class="cls-3" d="M24.69,825.7v-2.61a2.67,2.67,0,0,1,.63-2,2.66,2.66,0,0,1,1.95-.63H28a2.1,2.1,0,0,1,2.2,1.15h0a1.39,1.39,0,0,1,.79-.9,3.85,3.85,0,0,1,1.58-.26h2a5.57,5.57,0,0,0,.78,0,1.8,1.8,0,0,0,.58-.16v1.8a2.67,2.67,0,0,1-.51.12,5.67,5.67,0,0,1-.86,0H32.47a1.77,1.77,0,0,0-1.07.24,1,1,0,0,0-.31.86v.61h4.8v1.76Zm4.8-2.4a1,1,0,0,0-.27-.79,1.27,1.27,0,0,0-.91-.27h-.87a1.39,1.39,0,0,0-.88.22.81.81,0,0,0-.27.68v.8h3.2Z"/><path class="cls-3" d="M24.69,819.25v-1.76h11.2v1.76Z"/><path class="cls-3" d="M24.69,816.18v-4.8h1.6v3h3V812h1.6v2.42h3.44v-3h1.6v4.8Z"/><path class="cls-3" d="M24.69,810.37v-2.21l6.71-1.71v0H24.69v-1.57h11.2v1.81l-8.17,2.11v0h8.17v1.57Z"/><path class="cls-3" d="M24.69,803.54v-2.69a2.58,2.58,0,0,1,.71-2,2.92,2.92,0,0,1,2.06-.65h5.66a3,3,0,0,1,2.07.65,2.57,2.57,0,0,1,.7,2v2.69Zm9.6-2.66a.82.82,0,0,0-.26-.66,1.18,1.18,0,0,0-.83-.23H27.38a1.18,1.18,0,0,0-.83.23.85.85,0,0,0-.26.66v.9h8Z"/><path class="cls-3" d="M35.32,796.69a3,3,0,0,1-2.09.66H32.6v-1.67h.76c.73,0,1.09-.3,1.09-.91a.88.88,0,0,0-.26-.68,1.32,1.32,0,0,0-.86-.23,2.41,2.41,0,0,0-1.24.32,5.86,5.86,0,0,0-1.29,1.18,6.94,6.94,0,0,1-1.73,1.52,3.54,3.54,0,0,1-1.76.44,2.9,2.9,0,0,1-2-.68,2.5,2.5,0,0,1-.73-1.95,2.41,2.41,0,0,1,.73-1.91,3,3,0,0,1,2.09-.65h.46v1.66h-.58a1.25,1.25,0,0,0-.83.23.81.81,0,0,0-.27.66c0,.58.36.87,1.07.87a2.09,2.09,0,0,0,1.14-.32A6.49,6.49,0,0,0,29.62,794a6.41,6.41,0,0,1,1.74-1.52,3.87,3.87,0,0,1,1.84-.42,3,3,0,0,1,2.11.68,2.52,2.52,0,0,1,.74,2A2.45,2.45,0,0,1,35.32,796.69Z"/><path class="cls-3" d="M24.69,788.53V786l8-1.12v0l-8-1.12v-2.51h11.2v1.66H27.41v0l8.48,1.28v1.47L27.41,787v0h8.48v1.53Z"/><path class="cls-3" d="M24.69,778.56v-2.38l11.2-1.82v1.76l-2.22.32h0v2l2.19.32v1.63Zm7.49-1.92-5.54.79v0l5.54.77Z"/><path class="cls-3" d="M24.69,773.51v-2.69a2.58,2.58,0,0,1,.71-2,2.92,2.92,0,0,1,2.06-.65h5.66a3,3,0,0,1,2.07.65,2.57,2.57,0,0,1,.7,2v2.69Zm9.6-2.66a.8.8,0,0,0-.26-.66,1.18,1.18,0,0,0-.83-.23H27.38a1.18,1.18,0,0,0-.83.23.84.84,0,0,0-.26.66v.9h8Z"/><path class="cls-3" d="M24.69,767v-4.8h1.6v3h3v-2.41h1.6v2.41h3.44v-3h1.6V767Z"/><path class="cls-3" d="M121.69,831.2v-4.8h1.6v3h3V827h1.6v2.41h3.44v-3h1.6v4.8Z"/><path class="cls-3" d="M121.69,825.39v-2.2l6.71-1.72v0h-6.71v-1.56h11.2v1.8l-8.17,2.11v0h8.17v1.56Z"/><path class="cls-3" d="M121.69,818.56v-4.8h1.6v3h3v-2.41h1.6v2.41h3.44v-3h1.6v4.8Z"/><path class="cls-3" d="M121.69,812.76v-2.52l8-1.12v0l-8-1.12v-2.51h11.2v1.66h-8.48v0l8.48,1.28v1.47l-8.48,1.28v0h8.48v1.54Z"/><path class="cls-3" d="M121.69,804.15v-1.76h11.2v1.76Z"/><path class="cls-3" d="M121.69,801.08v-4.8h1.6v3h3V796.9h1.6v2.42h3.44v-3h1.6v4.8Z"/><path class="cls-3" d="M132.32,794.88a3,3,0,0,1-2.09.66h-.63v-1.66h.76c.73,0,1.09-.31,1.09-.92a.9.9,0,0,0-.26-.68,1.32,1.32,0,0,0-.86-.23,2.41,2.41,0,0,0-1.24.32,5.7,5.7,0,0,0-1.29,1.19,7.38,7.38,0,0,1-1.73,1.52,3.64,3.64,0,0,1-1.76.43,2.94,2.94,0,0,1-2-.67,2.52,2.52,0,0,1-.73-2,2.41,2.41,0,0,1,.73-1.91,3,3,0,0,1,2.09-.65h.46V792h-.58a1.25,1.25,0,0,0-.83.22.81.81,0,0,0-.27.66c0,.59.36.88,1.07.88a2.1,2.1,0,0,0,1.14-.33,6.49,6.49,0,0,0,1.28-1.19,6.41,6.41,0,0,1,1.74-1.52,3.87,3.87,0,0,1,1.84-.42,3,3,0,0,1,2.11.68,2.54,2.54,0,0,1,.74,2A2.44,2.44,0,0,1,132.32,794.88Z"/><path class="cls-3" d="M121.69,786.72v-2.51l8-1.12v0l-8-1.12v-2.51h11.2v1.66h-8.48v0l8.48,1.28v1.48l-8.48,1.28v0h8.48v1.53Z"/><path class="cls-3" d="M121.69,776.76v-2.39l11.2-1.82v1.76l-2.22.32h0v2l2.19.32v1.63Zm7.49-1.92-5.54.78v0l5.54.77Z"/><path class="cls-3" d="M121.69,771.7V769a2.58,2.58,0,0,1,.71-2,2.92,2.92,0,0,1,2.06-.65h5.66a3,3,0,0,1,2.07.65,2.57,2.57,0,0,1,.7,2v2.69Zm9.6-2.66a.83.83,0,0,0-.26-.66,1.23,1.23,0,0,0-.83-.23h-5.82a1.23,1.23,0,0,0-.83.23.87.87,0,0,0-.26.66v.9h8Z"/><path class="cls-3" d="M121.69,765.21V760.4h1.6v3h3V761h1.6v2.41h3.44v-3h1.6v4.81Z"/><rect class="cls-11" x="48.26" y="734.5" width="50.5" height="108.5"/><path d="M180.62,712.22h-6v-2.7h8.91v2.59l-4.65,16.31h-3Z"/><path d="M185.56,726.37a8.46,8.46,0,0,1,.65-3.47,12.13,12.13,0,0,1,2.32-3.2,13.91,13.91,0,0,0,2.28-3,5.52,5.52,0,0,0,.64-2.59,2.74,2.74,0,0,0-.39-1.69,1.43,1.43,0,0,0-1.15-.47c-1,0-1.54.62-1.54,1.86v2h-2.81V714a5,5,0,0,1,1.14-3.52,5,5,0,0,1,6.58,0,5,5,0,0,1,1.14,3.52,7.46,7.46,0,0,1-.83,3.38,16.22,16.22,0,0,1-2.84,3.78,11.4,11.4,0,0,0-1.79,2.28,4.07,4.07,0,0,0-.45,1.88v.4h5.64v2.7h-8.59Z"/><path d="M87.62,717.22h-6v-2.7h8.91v2.59l-4.65,16.31h-3Z"/><path d="M96.77,719h-3.1v-2.1a7.49,7.49,0,0,0,2-.22,2.59,2.59,0,0,0,1.23-.71,4.73,4.73,0,0,0,.81-1.45h2v18.9h-3Z"/></g><g id="strength-weakness"><line class="cls-12" x1="112" y1="887.21" x2="111.5" y2="937.71"/><path class="cls-3" d="M24.07,901.1a2.67,2.67,0,0,1-.57-1.83v-.56H25v.67c0,.64.26,1,.79,1a.75.75,0,0,0,.6-.23,1.14,1.14,0,0,0,.2-.75,2,2,0,0,0-.28-1.08,5.24,5.24,0,0,0-1-1.13,6.54,6.54,0,0,1-1.33-1.52,3.09,3.09,0,0,1-.37-1.53,2.56,2.56,0,0,1,.58-1.8,2.25,2.25,0,0,1,1.71-.64,2.16,2.16,0,0,1,1.68.64,2.71,2.71,0,0,1,.56,1.83v.4H26.61V894a1.15,1.15,0,0,0-.2-.74.72.72,0,0,0-.57-.23c-.52,0-.77.32-.77.94a1.81,1.81,0,0,0,.28,1,5.1,5.1,0,0,0,1,1.12,6.11,6.11,0,0,1,1.33,1.53,3.44,3.44,0,0,1,.36,1.61,2.67,2.67,0,0,1-.59,1.85,2.25,2.25,0,0,1-1.73.64A2.2,2.2,0,0,1,24.07,901.1Z"/><path class="cls-3" d="M29,891.79h4.2v1.4H30.51v2.59h2.12v1.4H30.51v3h2.66v1.4H29Z"/><path class="cls-3" d="M34.54,901.1a2.5,2.5,0,0,1-.58-1.77v-5.27a2.53,2.53,0,0,1,.58-1.78,2.57,2.57,0,0,1,3.37,0,2.53,2.53,0,0,1,.58,1.78v1H37V894c0-.6-.26-.91-.77-.91s-.77.31-.77.91v5.48c0,.59.25.89.77.89s.77-.3.77-.89v-1.5h1.45v1.39a2.5,2.5,0,0,1-.58,1.77,2.57,2.57,0,0,1-3.37,0Z"/><path class="cls-3" d="M39.42,891.79H41.7a2.33,2.33,0,0,1,1.73.56,2.3,2.3,0,0,1,.55,1.7v.6c0,1-.34,1.66-1,1.93v0a1.17,1.17,0,0,1,.79.69,3.3,3.3,0,0,1,.23,1.38v1.72a6.13,6.13,0,0,0,0,.68,1.75,1.75,0,0,0,.14.51H42.59a2.68,2.68,0,0,1-.11-.45,6.11,6.11,0,0,1,0-.75V898.6a1.57,1.57,0,0,0-.21-.94.93.93,0,0,0-.75-.27H41v4.2H39.42Zm2.1,4.2a1,1,0,0,0,.69-.23,1.16,1.16,0,0,0,.23-.8v-.76a1.23,1.23,0,0,0-.19-.77.69.69,0,0,0-.59-.24H41V896Z"/><path class="cls-3" d="M45.06,891.79h4.2v1.4H46.6v2.59h2.11v1.4H46.6v3h2.66v1.4h-4.2Z"/><path class="cls-3" d="M51.34,893.19H49.73v-1.4H54.5v1.4H52.88v8.4H51.34Z"/><path class="cls-3" d="M57.78,901.1a2.67,2.67,0,0,1-.57-1.83v-.56h1.46v.67c0,.64.26,1,.79,1a.74.74,0,0,0,.6-.23,1.14,1.14,0,0,0,.2-.75,2,2,0,0,0-.28-1.08,5.14,5.14,0,0,0-1-1.13,6.1,6.1,0,0,1-1.33-1.52,3,3,0,0,1-.38-1.53,2.57,2.57,0,0,1,.59-1.8,2.22,2.22,0,0,1,1.7-.64,2.16,2.16,0,0,1,1.68.64,2.66,2.66,0,0,1,.56,1.83v.4H60.32V894a1.15,1.15,0,0,0-.2-.74.72.72,0,0,0-.57-.23c-.51,0-.77.32-.77.94a1.74,1.74,0,0,0,.29,1,5,5,0,0,0,1,1.12,5.91,5.91,0,0,1,1.33,1.53,3.44,3.44,0,0,1,.36,1.61,2.67,2.67,0,0,1-.59,1.85,2.25,2.25,0,0,1-1.73.64A2.2,2.2,0,0,1,57.78,901.1Z"/><path class="cls-3" d="M63.89,893.19H62.28v-1.4H67v1.4H65.43v8.4H63.89Z"/><path class="cls-3" d="M67.78,891.79h2.28a2,2,0,0,1,2.29,2.26v.6c0,1-.34,1.66-1,1.93v0a1.21,1.21,0,0,1,.79.69,3.47,3.47,0,0,1,.23,1.38v1.72a6.13,6.13,0,0,0,0,.68,1.49,1.49,0,0,0,.14.51H71a2,2,0,0,1-.11-.45,6.11,6.11,0,0,1,0-.75V898.6a1.49,1.49,0,0,0-.22-.94.9.9,0,0,0-.75-.27h-.53v4.2H67.78Zm2.1,4.2a.94.94,0,0,0,.69-.23,1.11,1.11,0,0,0,.24-.8v-.76a1.3,1.3,0,0,0-.19-.77.73.73,0,0,0-.6-.24h-.7V896Z"/><path class="cls-3" d="M73.42,891.79h4.2v1.4H75v2.59h2.12v1.4H75v3h2.66v1.4h-4.2Z"/><path class="cls-3" d="M78.51,891.79h1.93l1.5,5.87h0v-5.87h1.37v9.8H81.75l-1.84-7.15h0v7.15H78.51Z"/><path class="cls-3" d="M85,901.1a2.63,2.63,0,0,1-.59-1.83v-5.15a2.61,2.61,0,0,1,.59-1.83,2.22,2.22,0,0,1,1.71-.64,2.25,2.25,0,0,1,1.71.64,2.61,2.61,0,0,1,.58,1.83V895H87.51V894c0-.64-.27-1-.8-1s-.8.33-.8,1v5.36c0,.64.27,1,.8,1s.8-.31.8-1v-1.92h-.77v-1.4H89v3.21a2.63,2.63,0,0,1-.58,1.83,2.25,2.25,0,0,1-1.71.63A2.22,2.22,0,0,1,85,901.1Z"/><path class="cls-3" d="M91.16,893.19H89.55v-1.4h4.76v1.4H92.7v8.4H91.16Z"/><path class="cls-3" d="M95.05,891.79h1.54v4h1.66v-4h1.54v9.8H98.25v-4.41H96.59v4.41H95.05Z"/><path class="cls-3" d="M100.93,894.77h1.49v1.49h-1.49Zm0,5.34h1.49v1.48h-1.49Z"/><path class="cls-3" d="M22.79,905.79h4.07v1.4H24.33v2.73h2v1.4h-2v4.27H22.79Z"/><path class="cls-3" d="M28.34,905.79h2.09l1.6,9.8H30.49l-.28-1.94v0H28.46l-.28,1.91H26.75ZM30,912.35l-.68-4.85h0l-.67,4.85Z"/><path class="cls-3" d="M32.77,905.79h1.54v9.8H32.77Z"/><path class="cls-3" d="M36.66,907.19H35.05v-1.4h4.76v1.4H38.2v8.4H36.66Z"/><path class="cls-3" d="M40.55,905.79h1.54v4h1.65v-4h1.54v9.8H43.74v-4.41H42.09v4.41H40.55Z"/><path class="cls-3" d="M48.67,905.79h1.54v9.8H48.67Z"/><path class="cls-3" d="M51.36,905.79h1.93l1.5,5.87h0v-5.87h1.37v9.8H54.61l-1.85-7.15h0v7.15H51.36Z"/><path class="cls-3" d="M59.58,905.79h1.54v4h1.65v-4h1.54v9.8H62.77v-4.41H61.12v4.41H59.58Z"/><path class="cls-3" d="M66,915.1a2.63,2.63,0,0,1-.59-1.83v-7.48h1.54v7.59a1.1,1.1,0,0,0,.2.73.76.76,0,0,0,.59.22.75.75,0,0,0,.58-.22,1.1,1.1,0,0,0,.2-.73v-7.59H70v7.48a2.63,2.63,0,0,1-.58,1.83,2.25,2.25,0,0,1-1.71.63A2.22,2.22,0,0,1,66,915.1Z"/><path class="cls-3" d="M71.09,905.79h2.19l1,7h0l1-7h2.2v9.8H76v-7.42h0l-1.12,7.42H73.58l-1.12-7.42h0v7.42H71.09Z"/><path class="cls-3" d="M79.81,905.79h2.08l1.6,9.8H82l-.28-1.94v0H79.92l-.28,1.91H78.21Zm1.68,6.56-.69-4.85h0l-.67,4.85Z"/><path class="cls-3" d="M84.23,905.79h1.93l1.5,5.87h0v-5.87h1.37v9.8H87.48l-1.85-7.15h0v7.15H84.23Z"/><path class="cls-3" d="M90.21,905.79h1.54v9.8H90.21Z"/><path class="cls-3" d="M94.1,907.19H92.49v-1.4h4.76v1.4H95.64v8.4H94.1Z"/><path class="cls-3" d="M99.46,911.42l-1.86-5.63h1.64l1.05,3.6h0l1.05-3.6h1.49L101,911.42v4.17H99.46Z"/><path class="cls-3" d="M123,901.1a2.63,2.63,0,0,1-.58-1.83v-.56h1.46v.67c0,.64.26,1,.8,1a.71.71,0,0,0,.59-.23,1.09,1.09,0,0,0,.2-.75,2,2,0,0,0-.28-1.08,5.14,5.14,0,0,0-1-1.13,6.1,6.1,0,0,1-1.33-1.52,3.1,3.1,0,0,1-.38-1.53,2.57,2.57,0,0,1,.59-1.8,2.22,2.22,0,0,1,1.71-.64,2.15,2.15,0,0,1,1.67.64,2.66,2.66,0,0,1,.57,1.83v.4h-1.46V894a1.15,1.15,0,0,0-.2-.74.72.72,0,0,0-.57-.23c-.51,0-.77.32-.77.94a1.82,1.82,0,0,0,.29,1,5.26,5.26,0,0,0,1,1.12,5.91,5.91,0,0,1,1.33,1.53,3.44,3.44,0,0,1,.36,1.61,2.62,2.62,0,0,1-.59,1.85,2.23,2.23,0,0,1-1.73.64A2.16,2.16,0,0,1,123,901.1Z"/><path class="cls-3" d="M127.86,891.79h4.2v1.4H129.4v2.59h2.11v1.4H129.4v3h2.66v1.4h-4.2Z"/><path class="cls-3" d="M133.42,901.1a2.5,2.5,0,0,1-.58-1.77v-5.27a2.53,2.53,0,0,1,.58-1.78,2.19,2.19,0,0,1,1.69-.63,2.17,2.17,0,0,1,1.68.63,2.53,2.53,0,0,1,.59,1.78v1h-1.46V894c0-.6-.26-.91-.77-.91s-.77.31-.77.91v5.48c0,.59.26.89.77.89s.77-.3.77-.89v-1.5h1.46v1.39a2.51,2.51,0,0,1-.59,1.77,2.17,2.17,0,0,1-1.68.63A2.19,2.19,0,0,1,133.42,901.1Z"/><path class="cls-3" d="M138.3,891.79h2.28a2,2,0,0,1,2.28,2.26v.6c0,1-.33,1.66-1,1.93v0a1.21,1.21,0,0,1,.79.69,3.47,3.47,0,0,1,.23,1.38v1.72a6.13,6.13,0,0,0,0,.68,1.29,1.29,0,0,0,.14.51h-1.57a1.56,1.56,0,0,1-.11-.45,6.11,6.11,0,0,1,0-.75V898.6a1.49,1.49,0,0,0-.22-.94.9.9,0,0,0-.75-.27h-.53v4.2H138.3Zm2.1,4.2a.94.94,0,0,0,.69-.23,1.11,1.11,0,0,0,.23-.8v-.76a1.23,1.23,0,0,0-.19-.77.69.69,0,0,0-.59-.24h-.7V896Z"/><path class="cls-3" d="M143.94,891.79h4.2v1.4h-2.66v2.59h2.12v1.4h-2.12v3h2.66v1.4h-4.2Z"/><path class="cls-3" d="M150.23,893.19h-1.61v-1.4h4.76v1.4h-1.61v8.4h-1.54Z"/><path class="cls-3" d="M156,891.79h1.48l.69,7.54h0l.73-7.54h1.68l.73,7.54h0l.68-7.54h1.33l-1,9.8h-1.92l-.7-6.61h0l-.7,6.61h-2Z"/><path class="cls-3" d="M164.16,891.79h4.2v1.4H165.7v2.59h2.11v1.4H165.7v3h2.66v1.4h-4.2Z"/><path class="cls-3" d="M170.43,891.79h2.09l1.59,9.8h-1.54l-.28-1.94v0h-1.75l-.28,1.91h-1.43Zm1.68,6.56-.69-4.85h0l-.68,4.85Z"/><path class="cls-3" d="M174.85,891.79h1.54v4.13l2-4.13h1.54l-1.83,3.6,1.86,6.2h-1.61l-1.3-4.37-.62,1.25v3.12h-1.54Z"/><path class="cls-3" d="M180.65,891.79h1.93l1.5,5.87h0v-5.87h1.37v9.8H183.9l-1.85-7.15h0v7.15h-1.37Z"/><path class="cls-3" d="M186.63,891.79h4.2v1.4h-2.66v2.59h2.11v1.4h-2.11v3h2.66v1.4h-4.2Z"/><path class="cls-3" d="M192,901.1a2.67,2.67,0,0,1-.57-1.83v-.56h1.46v.67c0,.64.26,1,.8,1a.73.73,0,0,0,.59-.23,1.09,1.09,0,0,0,.2-.75,2,2,0,0,0-.28-1.08,5.14,5.14,0,0,0-1-1.13,6.1,6.1,0,0,1-1.33-1.52,3,3,0,0,1-.38-1.53,2.57,2.57,0,0,1,.59-1.8,2.22,2.22,0,0,1,1.7-.64,2.16,2.16,0,0,1,1.68.64,2.66,2.66,0,0,1,.57,1.83v.4h-1.46V894a1.15,1.15,0,0,0-.2-.74.72.72,0,0,0-.57-.23c-.51,0-.77.32-.77.94a1.74,1.74,0,0,0,.29,1,5.26,5.26,0,0,0,1,1.12,5.91,5.91,0,0,1,1.33,1.53,3.44,3.44,0,0,1,.36,1.61,2.67,2.67,0,0,1-.59,1.85,2.23,2.23,0,0,1-1.73.64A2.2,2.2,0,0,1,192,901.1Z"/><path class="cls-3" d="M197.25,901.1a2.67,2.67,0,0,1-.57-1.83v-.56h1.46v.67c0,.64.26,1,.79,1a.75.75,0,0,0,.6-.23,1.14,1.14,0,0,0,.2-.75,2,2,0,0,0-.28-1.08,5.41,5.41,0,0,0-1-1.13,6.39,6.39,0,0,1-1.34-1.52,3.09,3.09,0,0,1-.37-1.53,2.56,2.56,0,0,1,.58-1.8,2.25,2.25,0,0,1,1.71-.64,2.16,2.16,0,0,1,1.68.64,2.71,2.71,0,0,1,.56,1.83v.4h-1.45V894a1.15,1.15,0,0,0-.2-.74.72.72,0,0,0-.57-.23c-.52,0-.77.32-.77.94a1.81,1.81,0,0,0,.28,1,5.36,5.36,0,0,0,1.05,1.12,6.11,6.11,0,0,1,1.33,1.53,3.44,3.44,0,0,1,.36,1.61,2.67,2.67,0,0,1-.59,1.85,2.25,2.25,0,0,1-1.73.64A2.2,2.2,0,0,1,197.25,901.1Z"/><path class="cls-3" d="M202.15,894.77h1.49v1.49h-1.49Zm0,5.34h1.49v1.48h-1.49Z"/><path class="cls-3" d="M122.65,905.79h4.07v1.4h-2.53v2.73h2v1.4h-2v4.27h-1.54Z"/><path class="cls-3" d="M128.21,905.79h2.08l1.6,9.8h-1.54l-.28-1.94v0h-1.75l-.28,1.91h-1.43Zm1.68,6.56-.69-4.85h0l-.67,4.85Z"/><path class="cls-3" d="M132.63,905.79h1.54v9.8h-1.54Z"/><path class="cls-3" d="M136.52,907.19h-1.61v-1.4h4.76v1.4h-1.61v8.4h-1.54Z"/><path class="cls-3" d="M140.41,905.79H142v4h1.66v-4h1.54v9.8h-1.54v-4.41H142v4.41h-1.54Z"/><path class="cls-3" d="M148.53,905.79h1.54v9.8h-1.54Z"/><path class="cls-3" d="M151.22,905.79h1.93l1.5,5.87h0v-5.87h1.37v9.8h-1.58l-1.85-7.15h0v7.15h-1.37Z"/><path class="cls-3" d="M159.44,905.79H161v4h1.65v-4h1.54v9.8h-1.54v-4.41H161v4.41h-1.54Z"/><path class="cls-3" d="M165.85,915.1a2.63,2.63,0,0,1-.59-1.83v-7.48h1.54v7.59a1,1,0,0,0,.21.73.72.72,0,0,0,.58.22.75.75,0,0,0,.58-.22,1.1,1.1,0,0,0,.2-.73v-7.59h1.48v7.48a2.63,2.63,0,0,1-.58,1.83,2.64,2.64,0,0,1-3.42,0Z"/><path class="cls-3" d="M171,905.79h2.2l1,7h0l1-7h2.2v9.8h-1.45v-7.42h0l-1.12,7.42h-1.29l-1.12-7.42h0v7.42H171Z"/><path class="cls-3" d="M179.67,905.79h2.08l1.6,9.8h-1.54l-.28-1.94v0h-1.75l-.28,1.91h-1.43Zm1.68,6.56-.69-4.85h0l-.67,4.85Z"/><path class="cls-3" d="M184.09,905.79H186l1.5,5.87h0v-5.87h1.37v9.8h-1.58l-1.85-7.15h0v7.15h-1.37Z"/><path class="cls-3" d="M190.07,905.79h1.54v9.8h-1.54Z"/><path class="cls-3" d="M194,907.19h-1.61v-1.4h4.76v1.4H195.5v8.4H194Z"/><path class="cls-3" d="M199.32,911.42l-1.86-5.63h1.64l1.05,3.6h0l1-3.6h1.5l-1.87,5.63v4.17h-1.54Z"/></g></g></g></g></svg>