<svg xmlns="http://www.w3.org/2000/svg" viewBox="0 0 160.24 160.24"><defs><style>.cls-1,.cls-2,.cls-3{fill-rule:evenodd;}.cls-2,.cls-3{fill:#fff;stroke:#231f20;stroke-miterlimit:2.61;}.cls-2{stroke-width:1.66px;}.cls-3{stroke-width:0.18px;}</style></defs><title>Asset 1</title><g id="Layer_2" data-name="Layer 2"><g id="poster"><g id="symbols"><path class="cls-1" d="M80.12,0A80.12,80.12,0,1,1,0,80.12,80.12,80.12,0,0,1,80.12,0Z"/><path class="cls-2" d="M80.12,14A66.17,66.17,0,1,1,14,80.12,66.18,66.18,0,0,1,80.12,14Z"/><path class="cls-1" d="M80.12,28.68A51.44,51.44,0,1,1,28.68,80.12,51.44,51.44,0,0,1,80.12,28.68Z"/><polygon class="cls-3" points="59.72 108.5 67.7 83.25 47.19 67.11 72.79 67.11 80.36 44.35 88.1 67.11 114.3 67.11 93.78 83.25 101.23 107.97 80.36 92.95 59.72 108.5 59.72 108.5"/></g></g></g></svg>