<svg xmlns="http://www.w3.org/2000/svg" viewBox="0 0 228.71 972"><defs><style>.cls-1{fill:#a3509e;}.cls-2{opacity:0.25;}.cls-3{fill:#fff;}.cls-4{fill:#823c84;}.cls-5{fill:#b56db4;}.cls-6{fill:#85579b;}.cls-7,.cls-9{fill:none;}.cls-7,.cls-8{stroke:#000;stroke-linejoin:round;}.cls-7,.cls-8,.cls-9{stroke-linecap:round;}.cls-7{stroke-width:6px;}.cls-8{stroke-width:3px;}.cls-9{stroke:#fff;stroke-miterlimit:10;}</style></defs><title>hawkeye-info</title><g id="Layer_2" data-name="Layer 2"><g id="poster"><g id="bg"><rect id="_4" data-name="4" class="cls-1" width="228" height="972"/><rect id="shade1" class="cls-2" x="1.71" y="310" width="227" height="102"/><rect id="shade2" class="cls-2" x="0.71" y="679" width="227" height="184"/></g><g id="stats-hawkeye"><g id="stats"><rect class="cls-3" x="23.35" y="110.86" width="187.31" height="24.04"/><rect x="23" y="110.65" width="115.71" height="24.04"/><path class="cls-3" d="M27.38,127.3a3,3,0,0,1-.65-2.09v-.64h1.66v.77c0,.73.31,1.09.92,1.09a.88.88,0,0,0,.68-.26,1.32,1.32,0,0,0,.23-.86,2.41,2.41,0,0,0-.32-1.24,5.7,5.7,0,0,0-1.19-1.29A7.21,7.21,0,0,1,27.19,121a3.53,3.53,0,0,1-.43-1.76,2.94,2.94,0,0,1,.67-2.06,2.56,2.56,0,0,1,2-.73,2.44,2.44,0,0,1,1.91.73,3.09,3.09,0,0,1,.65,2.1v.46H30.28v-.58a1.3,1.3,0,0,0-.22-.84.84.84,0,0,0-.66-.26c-.59,0-.88.36-.88,1.07a2.1,2.1,0,0,0,.33,1.14A6.49,6.49,0,0,0,30,121.59a6.68,6.68,0,0,1,1.53,1.75,4,4,0,0,1,.41,1.84,3,3,0,0,1-.68,2.12,2.55,2.55,0,0,1-2,.73A2.48,2.48,0,0,1,27.38,127.3Z"/><path class="cls-3" d="M34.37,118.26H32.53v-1.6H38v1.6H36.13v9.61H34.37Z"/><path class="cls-3" d="M38.83,116.66h2.61a2.25,2.25,0,0,1,2.61,2.58v.69c0,1.16-.38,1.9-1.15,2.21v0a1.38,1.38,0,0,1,.9.78,3.92,3.92,0,0,1,.27,1.59v2q0,.48,0,.78a1.73,1.73,0,0,0,.16.58h-1.8a2.67,2.67,0,0,1-.12-.51,5.67,5.67,0,0,1,0-.86v-2.06a1.77,1.77,0,0,0-.24-1.07,1.08,1.08,0,0,0-.86-.3h-.61v4.8H38.83Zm2.4,4.8a1,1,0,0,0,.79-.27,1.25,1.25,0,0,0,.27-.91v-.87a1.39,1.39,0,0,0-.22-.88.81.81,0,0,0-.68-.27h-.8v3.2Z"/><path class="cls-3" d="M45.28,116.66h4.81v1.6h-3v3h2.42v1.61H47.05v3.44h3v1.6H45.28Z"/><path class="cls-3" d="M51.1,116.66h2.21L55,123.37h0v-6.71h1.57v11.21H54.82l-2.11-8.19h0v8.19H51.1Z"/><path class="cls-3" d="M58.49,127.3a3,3,0,0,1-.67-2.09v-5.89a3,3,0,0,1,.67-2.1,3,3,0,0,1,3.91,0,3,3,0,0,1,.67,2.1v1H61.41V119.2c0-.73-.31-1.1-.92-1.1s-.91.37-.91,1.1v6.14c0,.73.3,1.09.91,1.09s.92-.36.92-1.09v-2.19h-.88v-1.61h2.54v3.67a3,3,0,0,1-.67,2.09,3,3,0,0,1-3.91,0Z"/><path class="cls-3" d="M65.59,118.26H63.75v-1.6H69.2v1.6H67.35v9.61H65.59Z"/><path class="cls-3" d="M70.05,116.66h1.76v4.56H73.7v-4.56h1.76v11.21H73.7v-5H71.81v5H70.05Z"/><rect class="cls-3" x="23.35" y="147.93" width="187.31" height="24.04"/><rect x="23" y="147.71" width="140.71" height="24.04"/><path class="cls-3" d="M27.38,164.37a3.09,3.09,0,0,1-.65-2.1v-.64h1.66v.77c0,.73.31,1.09.92,1.09a.88.88,0,0,0,.68-.26,1.32,1.32,0,0,0,.23-.86,2.41,2.41,0,0,0-.32-1.24,5.7,5.7,0,0,0-1.19-1.29,7.21,7.21,0,0,1-1.52-1.74,3.52,3.52,0,0,1-.43-1.75,2.9,2.9,0,0,1,.67-2.06,2.52,2.52,0,0,1,2-.73,2.41,2.41,0,0,1,1.91.73,3,3,0,0,1,.65,2.09v.46H30.28v-.57a1.31,1.31,0,0,0-.22-.85.84.84,0,0,0-.66-.26c-.59,0-.88.36-.88,1.07a2.1,2.1,0,0,0,.33,1.14A6.49,6.49,0,0,0,30,158.65a6.68,6.68,0,0,1,1.53,1.75,4,4,0,0,1,.41,1.84,3,3,0,0,1-.68,2.12,2.56,2.56,0,0,1-2,.74A2.51,2.51,0,0,1,27.38,164.37Z"/><path class="cls-3" d="M33,153.72h2.6a2.56,2.56,0,0,1,2,.7,2.92,2.92,0,0,1,.66,2.07v1.11a2.91,2.91,0,0,1-.66,2.06,2.56,2.56,0,0,1-2,.71h-.83v4.57H33Zm2.6,5.05a.81.81,0,0,0,.65-.25,1.21,1.21,0,0,0,.21-.81v-1.33a1.24,1.24,0,0,0-.21-.82.84.84,0,0,0-.65-.24h-.83v3.45Z"/><path class="cls-3" d="M39.18,153.72H44v1.6H40.94v3h2.42v1.61H40.94v3.44H44v1.61H39.18Z"/><path class="cls-3" d="M45,153.72h4.8v1.6h-3v3h2.42v1.61H46.76v3.44h3v1.61H45Z"/><path class="cls-3" d="M50.81,153.72h2.7a2.57,2.57,0,0,1,2,.7,2.92,2.92,0,0,1,.65,2.07v5.67a2.92,2.92,0,0,1-.65,2.07,2.58,2.58,0,0,1-2,.71h-2.7Zm2.66,9.61a.87.87,0,0,0,.67-.25,1.26,1.26,0,0,0,.23-.84v-5.83a1.23,1.23,0,0,0-.23-.83.87.87,0,0,0-.67-.26h-.89v8Z"/><rect class="cls-3" x="23.35" y="184.99" width="187.31" height="24.04"/><rect x="23" y="184.77" width="140.71" height="24.04"/><path class="cls-3" d="M27.38,201.43a3.06,3.06,0,0,1-.65-2.09v-.64h1.66v.76c0,.73.31,1.09.92,1.09a.85.85,0,0,0,.68-.26,1.32,1.32,0,0,0,.23-.86,2.41,2.41,0,0,0-.32-1.24,5.7,5.7,0,0,0-1.19-1.29,7.21,7.21,0,0,1-1.52-1.74,3.52,3.52,0,0,1-.43-1.75,2.9,2.9,0,0,1,.67-2.06,2.52,2.52,0,0,1,2-.73,2.41,2.41,0,0,1,1.91.73,3,3,0,0,1,.65,2.09v.46H30.28v-.57a1.26,1.26,0,0,0-.22-.84.81.81,0,0,0-.66-.27c-.59,0-.88.36-.88,1.07a2.1,2.1,0,0,0,.33,1.14A6.49,6.49,0,0,0,30,195.71a6.84,6.84,0,0,1,1.53,1.75A4,4,0,0,1,32,199.3a3,3,0,0,1-.68,2.12,2.56,2.56,0,0,1-2,.74A2.51,2.51,0,0,1,27.38,201.43Z"/><path class="cls-3" d="M34.37,192.38H32.53v-1.6H38v1.6H36.13V202H34.37Z"/><path class="cls-3" d="M38.83,190.78h2.61a2.25,2.25,0,0,1,2.61,2.58v.69c0,1.16-.38,1.9-1.15,2.21v0a1.37,1.37,0,0,1,.9.79,3.84,3.84,0,0,1,.27,1.58v2c0,.33,0,.58,0,.78a1.86,1.86,0,0,0,.16.59h-1.8a2.76,2.76,0,0,1-.12-.52,5.59,5.59,0,0,1,0-.86v-2.05a1.81,1.81,0,0,0-.24-1.08,1.08,1.08,0,0,0-.86-.3h-.61V202H38.83Zm2.4,4.81a1,1,0,0,0,.79-.28,1.25,1.25,0,0,0,.27-.91v-.87a1.41,1.41,0,0,0-.22-.88.81.81,0,0,0-.68-.27h-.8v3.21Z"/><path class="cls-3" d="M46.65,190.78H49L50.86,202H49.1l-.32-2.23v0h-2l-.33,2.2H44.82Zm1.92,7.5-.79-5.55h0L47,198.28Z"/><path class="cls-3" d="M52.35,192.38H50.51v-1.6H56v1.6H54.12V202H52.35Z"/><path class="cls-3" d="M56.81,190.78h4.81v1.6h-3v3H61V197H58.57v3.44h3V202H56.81Z"/><path class="cls-3" d="M63.17,201.43a3,3,0,0,1-.67-2.09v-5.9a3,3,0,0,1,.67-2.09,3,3,0,0,1,3.91,0,3,3,0,0,1,.67,2.09v1H66.09v-1.07c0-.74-.31-1.11-.92-1.11s-.91.37-.91,1.11v6.13c0,.73.3,1.09.91,1.09s.92-.36.92-1.09v-2.19h-.88v-1.6h2.54v3.67a3,3,0,0,1-.67,2.09,3,3,0,0,1-3.91,0Z"/><path class="cls-3" d="M70.27,197.22l-2.13-6.44H70l1.21,4.12h0l1.2-4.12h1.71L72,197.22V202H70.27Z"/><rect class="cls-3" x="23.35" y="222.05" width="187.31" height="24.04"/><rect x="23" y="221.83" width="127.71" height="24.04"/><path class="cls-3" d="M27,227.84h2.69a2.58,2.58,0,0,1,2,.7,2.94,2.94,0,0,1,.66,2.07v5.68a2.91,2.91,0,0,1-.66,2.06,2.55,2.55,0,0,1-2,.71H27Zm2.66,9.62a.87.87,0,0,0,.67-.26,1.25,1.25,0,0,0,.23-.83v-5.84a1.25,1.25,0,0,0-.23-.83.87.87,0,0,0-.67-.26h-.9v8Z"/><path class="cls-3" d="M33.54,227.84h4.81v1.6H35.3v3h2.42V234H35.3v3.45h3.05v1.6H33.54Z"/><path class="cls-3" d="M39.35,227.84H44v1.6h-2.9v3.13h2.27v1.6H41.12v4.89H39.35Z"/><path class="cls-3" d="M44.87,227.84h4.81v1.6h-3v3h2.42V234H46.63v3.45h3v1.6H44.87Z"/><path class="cls-3" d="M50.69,227.84H52.9l1.71,6.71h0v-6.71h1.57v11.22H54.4l-2.11-8.19h0v8.19H50.69Z"/><path class="cls-3" d="M58.08,238.5a2.91,2.91,0,0,1-.66-2v-6a2.91,2.91,0,0,1,.66-2,2.95,2.95,0,0,1,3.86,0,2.87,2.87,0,0,1,.67,2v1.18H60.94v-1.3c0-.69-.29-1-.88-1s-.88.35-.88,1v6.27c0,.68.29,1,.88,1s.88-.35.88-1v-1.71h1.67v1.58a2.87,2.87,0,0,1-.67,2,2.95,2.95,0,0,1-3.86,0Z"/><path class="cls-3" d="M63.67,227.84h4.8v1.6h-3v3h2.42V234H65.43v3.45h3v1.6h-4.8Z"/><rect class="cls-3" x="23.35" y="259.11" width="187.31" height="24.04"/><rect x="23" y="258.89" width="187.71" height="24.04"/><path class="cls-3" d="M27.38,275.55a3.06,3.06,0,0,1-.65-2.09v-.64h1.66v.77c0,.72.31,1.09.92,1.09a.85.85,0,0,0,.68-.27,1.29,1.29,0,0,0,.23-.85,2.45,2.45,0,0,0-.32-1.25A6.16,6.16,0,0,0,28.71,271a7.21,7.21,0,0,1-1.52-1.74,3.49,3.49,0,0,1-.43-1.75,2.92,2.92,0,0,1,.67-2.06,2.52,2.52,0,0,1,2-.73,2.41,2.41,0,0,1,1.91.73,3.06,3.06,0,0,1,.65,2.09V268H30.28v-.58a1.26,1.26,0,0,0-.22-.84.81.81,0,0,0-.66-.27c-.59,0-.88.36-.88,1.08a2.15,2.15,0,0,0,.33,1.14A6.49,6.49,0,0,0,30,269.84a6.66,6.66,0,0,1,1.53,1.74,4,4,0,0,1,.41,1.85,3,3,0,0,1-.68,2.11,2.56,2.56,0,0,1-2,.74A2.48,2.48,0,0,1,27.38,275.55Z"/><path class="cls-3" d="M33,264.9h1.77v4.73L37,264.9h1.76L36.66,269l2.13,7.1H37l-1.49-5-.7,1.43v3.57H33Z"/><path class="cls-3" d="M39.63,264.9h1.76v11.22H39.63Z"/><path class="cls-3" d="M42.7,264.9h1.77v9.62h2.9v1.6H42.7Z"/><path class="cls-3" d="M48.22,264.9H50v9.62h2.9v1.6H48.22Z"/></g><g id="weapon"><polygon points="10.62 361.49 46.66 354.73 82.69 347.98 82.69 361.49 82.69 375 46.66 368.24 10.62 361.49"/><path class="cls-3" d="M24.05,331.13h3.82l1.76,19.37h.07l1.87-19.37h4.32l1.88,19.37h.07l1.76-19.37H43l-2.55,25.2H35.53l-1.8-17h-.07l-1.8,17H26.61Z"/><path class="cls-3" d="M45,331.13h10.8v3.6H49v6.66h5.43V345H49v7.74h6.84v3.6H45Z"/><path class="cls-3" d="M61.17,331.13h5.36l4.1,25.2h-4l-.72-5v.07h-4.5l-.72,4.93H57.06ZM65.49,348l-1.77-12.46h-.07L61.92,348Z"/><path class="cls-3" d="M72.54,331.13h5.83a5.78,5.78,0,0,1,4.43,1.58,6.62,6.62,0,0,1,1.48,4.65v2.48a6.62,6.62,0,0,1-1.48,4.65,5.78,5.78,0,0,1-4.43,1.58H76.5v10.26h-4Zm5.83,11.34a1.86,1.86,0,0,0,1.46-.54,2.7,2.7,0,0,0,.49-1.84v-3a2.7,2.7,0,0,0-.49-1.84,1.86,1.86,0,0,0-1.46-.54H76.5v7.74Z"/><path class="cls-3" d="M87.7,355a6.55,6.55,0,0,1-1.55-4.68V337.11a6.55,6.55,0,0,1,1.55-4.68,6.82,6.82,0,0,1,8.92,0,6.55,6.55,0,0,1,1.55,4.68v13.24A6.55,6.55,0,0,1,96.62,355a6.82,6.82,0,0,1-8.92,0Zm6.51-4.42V336.85c0-1.65-.68-2.48-2-2.48s-2,.83-2,2.48v13.76c0,1.65.68,2.48,2,2.48S94.21,352.26,94.21,350.61Z"/><path class="cls-3" d="M100.84,331.13h5l3.86,15.08h.07V331.13h3.53v25.2h-4.07l-4.75-18.4h-.08v18.4h-3.52Z"/><polygon points="214.69 346 196.39 346 187.24 360.5 196.39 375 214.69 375 204.38 361.56 214.69 346"/><polygon points="195.36 346 182.47 346 173.32 360.5 182.47 375 195.36 375 185.05 361.56 195.36 346"/><polygon points="179.9 346 167.01 346 157.86 360.5 167.01 375 179.9 375 169.59 361.56 179.9 346"/><rect x="82.69" y="357" width="117" height="9"/></g><g id="personality"><path class="cls-3" d="M23,433.05h5.35a5.3,5.3,0,0,1,4,1.45,6,6,0,0,1,1.36,4.26V441a6,6,0,0,1-1.36,4.26,5.3,5.3,0,0,1-4,1.45H26.6v9.4H23Zm5.35,10.4a1.69,1.69,0,0,0,1.33-.5,2.49,2.49,0,0,0,.45-1.68v-2.74a2.49,2.49,0,0,0-.45-1.68,1.69,1.69,0,0,0-1.33-.5H26.6v7.1Z"/><path class="cls-3" d="M35.71,433.05h9.9v3.3H39.34v6.11h5v3.3h-5v7.09h6.27v3.3h-9.9Z"/><path class="cls-3" d="M47.69,433.05h5.38a5.56,5.56,0,0,1,4.09,1.31,5.49,5.49,0,0,1,1.28,4v1.42q0,3.58-2.37,4.55v.07A2.81,2.81,0,0,1,57.93,446a8.06,8.06,0,0,1,.55,3.27v4.06c0,.66,0,1.19.06,1.6a4.29,4.29,0,0,0,.33,1.2H55.18a5.81,5.81,0,0,1-.27-1,17.53,17.53,0,0,1-.06-1.78v-4.23a3.61,3.61,0,0,0-.51-2.21,2.17,2.17,0,0,0-1.77-.63H51.32v9.9H47.69Zm5,9.9a2.15,2.15,0,0,0,1.63-.56,2.66,2.66,0,0,0,.54-1.88v-1.78a2.94,2.94,0,0,0-.44-1.82,1.7,1.7,0,0,0-1.4-.56H51.32V443Z"/><path class="cls-3" d="M61.71,455a6.21,6.21,0,0,1-1.35-4.3v-1.32h3.43v1.58c0,1.5.63,2.24,1.88,2.24a1.77,1.77,0,0,0,1.4-.54,2.64,2.64,0,0,0,.48-1.77,4.87,4.87,0,0,0-.66-2.55,12,12,0,0,0-2.44-2.66,14.36,14.36,0,0,1-3.13-3.58,7.25,7.25,0,0,1-.9-3.62,6.07,6.07,0,0,1,1.39-4.24,5.21,5.21,0,0,1,4-1.5,5,5,0,0,1,3.94,1.5,6.3,6.3,0,0,1,1.34,4.31v1H67.68V438.3a2.63,2.63,0,0,0-.46-1.73,1.69,1.69,0,0,0-1.35-.55c-1.21,0-1.82.74-1.82,2.21a4.4,4.4,0,0,0,.68,2.35,13.17,13.17,0,0,0,2.46,2.64,13.59,13.59,0,0,1,3.13,3.59,7.92,7.92,0,0,1,.86,3.8,6.2,6.2,0,0,1-1.4,4.35,5.25,5.25,0,0,1-4.08,1.52A5.09,5.09,0,0,1,61.71,455Z"/><path class="cls-3" d="M74.42,455A6,6,0,0,1,73,450.68V438.53a6,6,0,0,1,1.42-4.29,6.26,6.26,0,0,1,8.18,0A6,6,0,0,1,84,438.53v12.15A6,6,0,0,1,82.6,455a6.26,6.26,0,0,1-8.18,0Zm6-4V438.3c0-1.52-.63-2.28-1.88-2.28s-1.88.76-1.88,2.28v12.61c0,1.51.62,2.27,1.88,2.27S80.39,452.42,80.39,450.91Z"/><path class="cls-3" d="M86.46,433.05H91l3.54,13.83h.06V433.05h3.24v23.1H94.12l-4.36-16.86h-.07v16.86H86.46Z"/><path class="cls-3" d="M103.36,433.05h4.91l3.76,23.1H108.4l-.66-4.58v.06h-4.12l-.66,4.52H99.59Zm4,15.45-1.62-11.42h-.07l-1.58,11.42Z"/><path class="cls-3" d="M113.78,433.05h3.63v19.8h6v3.3h-9.61Z"/><path class="cls-3" d="M125.14,433.05h3.63v23.1h-3.63Z"/><path class="cls-3" d="M134.31,436.35h-3.8v-3.3h11.22v3.3h-3.79v19.8h-3.63Z"/><path class="cls-3" d="M147,446.32l-4.39-13.27h3.86l2.47,8.48H149l2.48-8.48H155l-4.39,13.27v9.83H147Z"/><circle class="cls-4" cx="113.03" cy="564" r="89"/><path class="cls-5" d="M111.53,562l-87.37,4.89C26.7,613.8,65.34,651,111.53,651c48,0,87.5-40.18,87.5-89a90.73,90.73,0,0,0-2.67-21.83Z"/><path class="cls-6" d="M111,563l87.11-18.23a89,89,0,0,0-151.7-43Z"/><path class="cls-3" d="M44.12,548.59a2.51,2.51,0,0,1-.58-1.78v-5.26a2.51,2.51,0,0,1,.58-1.78,2.19,2.19,0,0,1,1.69-.63,2.17,2.17,0,0,1,1.68.63,2.51,2.51,0,0,1,.58,1.78v1H46.62v-1.13c0-.61-.26-.91-.77-.91s-.77.3-.77.91v5.47c0,.6.26.9.77.9s.77-.3.77-.9v-1.5h1.45v1.39a2.51,2.51,0,0,1-.58,1.78,2.17,2.17,0,0,1-1.68.63A2.19,2.19,0,0,1,44.12,548.59Z"/><path class="cls-3" d="M49.52,548.57a2.52,2.52,0,0,1-.61-1.82V541.6a2.54,2.54,0,0,1,.61-1.82,2.67,2.67,0,0,1,3.47,0,2.58,2.58,0,0,1,.6,1.82v5.15a2.56,2.56,0,0,1-.6,1.82,2.64,2.64,0,0,1-3.47,0Zm2.53-1.72V541.5c0-.64-.27-1-.8-1s-.8.32-.8,1v5.35c0,.65.27,1,.8,1S52.05,547.5,52.05,546.85Z"/><path class="cls-3" d="M55.11,548.59a2.51,2.51,0,0,1-.58-1.78v-5.26a2.51,2.51,0,0,1,.58-1.78,2.19,2.19,0,0,1,1.69-.63,2.17,2.17,0,0,1,1.68.63,2.51,2.51,0,0,1,.58,1.78v1H57.61v-1.13c0-.61-.26-.91-.77-.91s-.77.3-.77.91v5.47c0,.6.26.9.77.9s.77-.3.77-.9v-1.5h1.45v1.39a2.51,2.51,0,0,1-.58,1.78,2.17,2.17,0,0,1-1.68.63A2.19,2.19,0,0,1,55.11,548.59Z"/><path class="cls-3" d="M60,539.28h1.54v4.13l2-4.13H65l-1.84,3.6,1.87,6.2H63.45l-1.31-4.37L61.53,546v3.12H60Z"/><path class="cls-3" d="M67.2,544.91l-1.86-5.63H67l1,3.6h0l1-3.6h1.5l-1.86,5.63v4.17H67.2Z"/><path class="cls-3" d="M110.94,525.58a2.64,2.64,0,0,1-.57-1.83v-.56h1.46v.68c0,.63.26,1,.79,1a.77.77,0,0,0,.6-.23,1.18,1.18,0,0,0,.2-.75,2.08,2.08,0,0,0-.28-1.09,4.92,4.92,0,0,0-1-1.12,6.1,6.1,0,0,1-1.33-1.52,3.06,3.06,0,0,1-.38-1.54,2.5,2.5,0,0,1,.59-1.79,2.18,2.18,0,0,1,1.7-.64,2.12,2.12,0,0,1,1.68.64,2.63,2.63,0,0,1,.56,1.82V519h-1.45v-.51a1.12,1.12,0,0,0-.2-.73.72.72,0,0,0-.57-.23c-.51,0-.77.31-.77.94a1.78,1.78,0,0,0,.29,1,5.23,5.23,0,0,0,1,1.12,5.75,5.75,0,0,1,1.33,1.53,3.39,3.39,0,0,1,.36,1.61,2.64,2.64,0,0,1-.59,1.84,2.25,2.25,0,0,1-1.73.65A2.17,2.17,0,0,1,110.94,525.58Z"/><path class="cls-3" d="M117,516.28h2.09l1.59,9.8h-1.54l-.28-2v0H117.1l-.28,1.92H115.4Zm1.68,6.55L118,518h0l-.67,4.84Z"/><path class="cls-3" d="M121.42,516.28h2.28a2,2,0,0,1,2.28,2.25v.6c0,1-.34,1.67-1,1.94v0a1.19,1.19,0,0,1,.79.69,3.37,3.37,0,0,1,.24,1.39v1.72a6.65,6.65,0,0,0,0,.68,1.94,1.94,0,0,0,.14.51h-1.57a2.93,2.93,0,0,1-.11-.45,7,7,0,0,1,0-.76v-1.79a1.56,1.56,0,0,0-.22-.94,1,1,0,0,0-.75-.26H123v4.2h-1.54Zm2.1,4.2a.9.9,0,0,0,.69-.24,1.14,1.14,0,0,0,.23-.8v-.75a1.21,1.21,0,0,0-.19-.77.69.69,0,0,0-.59-.24H123v2.8Z"/><path class="cls-3" d="M127.54,525.59a2.51,2.51,0,0,1-.58-1.78v-5.26a2.51,2.51,0,0,1,.58-1.78,2.58,2.58,0,0,1,3.38,0,2.56,2.56,0,0,1,.58,1.78v1H130v-1.13c0-.61-.26-.91-.77-.91s-.77.3-.77.91v5.47c0,.6.26.9.77.9s.77-.3.77-.9v-1.5h1.46v1.39a2.56,2.56,0,0,1-.58,1.78,2.58,2.58,0,0,1-3.38,0Z"/><path class="cls-3" d="M133.61,516.28h2.09l1.59,9.8h-1.54l-.28-2v0h-1.75l-.28,1.92H132Zm1.68,6.55L134.6,518h0l-.68,4.84Z"/><path class="cls-3" d="M138.3,525.58a2.64,2.64,0,0,1-.57-1.83v-.56h1.45v.68c0,.63.27,1,.8,1a.78.78,0,0,0,.6-.23,1.18,1.18,0,0,0,.2-.75,2.18,2.18,0,0,0-.28-1.09,5,5,0,0,0-1-1.12,6.31,6.31,0,0,1-1.33-1.52,3.17,3.17,0,0,1-.38-1.54,2.54,2.54,0,0,1,.59-1.79,2.19,2.19,0,0,1,1.71-.64,2.1,2.1,0,0,1,1.67.64,2.63,2.63,0,0,1,.57,1.82V519h-1.46v-.51a1.12,1.12,0,0,0-.19-.73.72.72,0,0,0-.58-.23c-.51,0-.77.31-.77.94a1.87,1.87,0,0,0,.29,1,5.51,5.51,0,0,0,1,1.12,5.57,5.57,0,0,1,1.33,1.53,3.27,3.27,0,0,1,.37,1.61,2.6,2.6,0,0,1-.6,1.84,2.22,2.22,0,0,1-1.73.65A2.14,2.14,0,0,1,138.3,525.58Z"/><path class="cls-3" d="M143.2,516.28h2.2l1,7h0l1-7h2.19v9.8h-1.45v-7.42h0L147,526.08h-1.29l-1.12-7.42h0v7.42H143.2Z"/><path class="cls-3" d="M104.64,597.28h1.54v8.4h2.53v1.4h-4.07Z"/><path class="cls-3" d="M109.89,606.57a2.52,2.52,0,0,1-.61-1.82V599.6a2.54,2.54,0,0,1,.61-1.82,2.67,2.67,0,0,1,3.47,0,2.58,2.58,0,0,1,.6,1.82v5.15a2.56,2.56,0,0,1-.6,1.82,2.64,2.64,0,0,1-3.47,0Zm2.53-1.72V599.5c0-.64-.27-1-.8-1s-.8.32-.8,1v5.35c0,.65.27,1,.8,1S112.42,605.5,112.42,604.85Z"/><path class="cls-3" d="M116.16,602.91l-1.86-5.63h1.63l1.06,3.6h0l1-3.6h1.5l-1.86,5.63v4.17h-1.54Z"/><path class="cls-3" d="M120.81,597.28h2.08l1.6,9.8H123l-.28-2v0h-1.75l-.28,1.92h-1.43Zm1.68,6.55L121.8,599h0l-.67,4.84Z"/><path class="cls-3" d="M125.23,597.28h1.54v8.4h2.53v1.4h-4.07Z"/><path class="cls-3" d="M130.16,598.68h-1.61v-1.4h4.76v1.4H131.7v8.4h-1.54Z"/><path class="cls-3" d="M135.52,602.91l-1.86-5.63h1.64l1,3.6h0l1-3.6h1.5l-1.86,5.63v4.17h-1.54Z"/></g><g id="frenemies_copy_2" data-name="frenemies copy 2"><line class="cls-7" x1="21.71" y1="843" x2="209.71" y2="843"/><rect class="cls-8" x="144.71" y="783.5" width="50.5" height="57.5"/><path class="cls-3" d="M26.4,831.2v-4.65H28v2.89h3.12v-2.27h1.6v2.27H37.6v1.76Z"/><path class="cls-3" d="M26.4,825.7v-2.61a2.67,2.67,0,0,1,.63-2,2.69,2.69,0,0,1,1.95-.63h.69a2.12,2.12,0,0,1,2.21,1.15h0a1.38,1.38,0,0,1,.78-.9,3.91,3.91,0,0,1,1.59-.26h2a5.57,5.57,0,0,0,.78,0,1.73,1.73,0,0,0,.58-.16v1.8a2.67,2.67,0,0,1-.51.12,5.67,5.67,0,0,1-.86,0h-2a1.77,1.77,0,0,0-1.07.24,1.08,1.08,0,0,0-.31.86v.61h4.8v1.76Zm4.8-2.4a1,1,0,0,0-.27-.79,1.25,1.25,0,0,0-.91-.27h-.86a1.37,1.37,0,0,0-.88.22.79.79,0,0,0-.28.68v.8h3.2Z"/><path class="cls-3" d="M26.4,819.25v-1.76H37.6v1.76Z"/><path class="cls-3" d="M26.4,816.18v-4.8H28v3h3V812h1.6v2.42H36v-3h1.6v4.8Z"/><path class="cls-3" d="M26.4,810.37v-2.21l6.71-1.71v0H26.4v-1.57H37.6v1.81l-8.17,2.11v0H37.6v1.57Z"/><path class="cls-3" d="M26.4,803.54v-2.69a2.58,2.58,0,0,1,.71-2,2.94,2.94,0,0,1,2.06-.65h5.67a3,3,0,0,1,2.06.65,2.57,2.57,0,0,1,.7,2v2.69Zm9.6-2.66a.85.85,0,0,0-.25-.66,1.21,1.21,0,0,0-.84-.23H29.09a1.19,1.19,0,0,0-.83.23.85.85,0,0,0-.26.66v.9h8Z"/><path class="cls-3" d="M37,796.69a3,3,0,0,1-2.08.66h-.64v-1.67h.76c.73,0,1.09-.3,1.09-.91a.88.88,0,0,0-.26-.68,1.32,1.32,0,0,0-.86-.23,2.41,2.41,0,0,0-1.24.32,6.08,6.08,0,0,0-1.28,1.18,6.79,6.79,0,0,1-1.74,1.52,3.53,3.53,0,0,1-1.75.44,2.92,2.92,0,0,1-2.06-.68,2.53,2.53,0,0,1-.73-1.95,2.44,2.44,0,0,1,.73-1.91,3.06,3.06,0,0,1,2.09-.65h.46v1.66H29a1.26,1.26,0,0,0-.84.23.81.81,0,0,0-.27.66c0,.58.36.87,1.07.87a2.09,2.09,0,0,0,1.14-.32A6.49,6.49,0,0,0,31.33,794a6.41,6.41,0,0,1,1.74-1.52,3.87,3.87,0,0,1,1.84-.42,3,3,0,0,1,2.12.68,2.55,2.55,0,0,1,.73,2A2.45,2.45,0,0,1,37,796.69Z"/><path class="cls-3" d="M26.4,788.53V786l8-1.12v0l-8-1.12v-2.51H37.6v1.66H29.12v0l8.48,1.28v1.47L29.12,787v0H37.6v1.53Z"/><path class="cls-3" d="M26.4,778.56v-2.38l11.2-1.82v1.76l-2.22.32h0v2l2.19.32v1.63Zm7.49-1.92-5.53.79v0l5.53.77Z"/><path class="cls-3" d="M26.4,773.51v-2.69a2.58,2.58,0,0,1,.71-2,2.94,2.94,0,0,1,2.06-.65h5.67a3,3,0,0,1,2.06.65,2.57,2.57,0,0,1,.7,2v2.69Zm9.6-2.66a.83.83,0,0,0-.25-.66,1.21,1.21,0,0,0-.84-.23H29.09a1.19,1.19,0,0,0-.83.23.84.84,0,0,0-.26.66v.9h8Z"/><path class="cls-3" d="M26.4,767v-4.8H28v3h3v-2.41h1.6v2.41H36v-3h1.6V767Z"/><path class="cls-3" d="M123.4,831.2v-4.8H125v3h3V827h1.6v2.41H133v-3h1.6v4.8Z"/><path class="cls-3" d="M123.4,825.39v-2.2l6.71-1.72v0H123.4v-1.56h11.2v1.8l-8.17,2.11v0h8.17v1.56Z"/><path class="cls-3" d="M123.4,818.56v-4.8H125v3h3v-2.41h1.6v2.41H133v-3h1.6v4.8Z"/><path class="cls-3" d="M123.4,812.76v-2.52l8-1.12v0l-8-1.12v-2.51h11.2v1.66h-8.48v0l8.48,1.28v1.47l-8.48,1.28v0h8.48v1.54Z"/><path class="cls-3" d="M123.4,804.15v-1.76h11.2v1.76Z"/><path class="cls-3" d="M123.4,801.08v-4.8H125v3h3V796.9h1.6v2.42H133v-3h1.6v4.8Z"/><path class="cls-3" d="M134,794.88a3,3,0,0,1-2.08.66h-.64v-1.66h.76c.73,0,1.09-.31,1.09-.92a.9.9,0,0,0-.26-.68,1.32,1.32,0,0,0-.86-.23,2.41,2.41,0,0,0-1.24.32,5.92,5.92,0,0,0-1.28,1.19,7.21,7.21,0,0,1-1.74,1.52,3.63,3.63,0,0,1-1.75.43,3,3,0,0,1-2.06-.67,2.56,2.56,0,0,1-.73-2A2.44,2.44,0,0,1,124,791a3.06,3.06,0,0,1,2.09-.65h.46V792H126a1.26,1.26,0,0,0-.84.22.81.81,0,0,0-.27.66c0,.59.36.88,1.07.88a2.1,2.1,0,0,0,1.14-.33,6.49,6.49,0,0,0,1.28-1.19,6.41,6.41,0,0,1,1.74-1.52,3.87,3.87,0,0,1,1.84-.42A3,3,0,0,1,134,791a2.57,2.57,0,0,1,.73,2A2.44,2.44,0,0,1,134,794.88Z"/><path class="cls-3" d="M123.4,786.72v-2.51l8-1.12v0l-8-1.12v-2.51h11.2v1.66h-8.48v0l8.48,1.28v1.48l-8.48,1.28v0h8.48v1.53Z"/><path class="cls-3" d="M123.4,776.76v-2.39l11.2-1.82v1.76l-2.22.32h0v2l2.19.32v1.63Zm7.49-1.92-5.53.78v0l5.53.77Z"/><path class="cls-3" d="M123.4,771.7V769a2.58,2.58,0,0,1,.71-2,2.94,2.94,0,0,1,2.06-.65h5.67a3,3,0,0,1,2.06.65,2.57,2.57,0,0,1,.7,2v2.69ZM133,769a.86.86,0,0,0-.25-.66,1.26,1.26,0,0,0-.84-.23h-5.82a1.25,1.25,0,0,0-.83.23.87.87,0,0,0-.26.66v.9h8Z"/><path class="cls-3" d="M123.4,765.21V760.4H125v3h3V761h1.6v2.41H133v-3h1.6v4.81Z"/><rect class="cls-8" x="49.97" y="772.5" width="50.5" height="70.5"/><path d="M178.47,780.37a8.46,8.46,0,0,1,.65-3.47,12.13,12.13,0,0,1,2.32-3.2,14.35,14.35,0,0,0,2.29-3,5.63,5.63,0,0,0,.63-2.59,2.74,2.74,0,0,0-.39-1.69,1.41,1.41,0,0,0-1.15-.47c-1,0-1.54.62-1.54,1.86v2h-2.81V768a5,5,0,0,1,1.14-3.52,5,5,0,0,1,6.59,0,5,5,0,0,1,1.13,3.52,7.45,7.45,0,0,1-.82,3.38,16.6,16.6,0,0,1-2.85,3.78,11.27,11.27,0,0,0-1.78,2.28,4,4,0,0,0-.46,1.88v.4h5.64v2.7h-8.59Z"/><path d="M193.49,768h-3.11v-2.1a7.49,7.49,0,0,0,2-.22,2.59,2.59,0,0,0,1.23-.71,4.73,4.73,0,0,0,.81-1.45h2v18.9h-3Z"/><path d="M83.47,768.37a8.46,8.46,0,0,1,.65-3.47,12.13,12.13,0,0,1,2.32-3.2,14.35,14.35,0,0,0,2.29-3,5.63,5.63,0,0,0,.63-2.59,2.74,2.74,0,0,0-.39-1.69,1.41,1.41,0,0,0-1.15-.47c-1,0-1.54.62-1.54,1.86v2H83.47V756a5,5,0,0,1,1.14-3.52,5,5,0,0,1,6.59,0A5,5,0,0,1,92.33,756a7.45,7.45,0,0,1-.82,3.38,16.6,16.6,0,0,1-2.85,3.78,11.27,11.27,0,0,0-1.78,2.28,4,4,0,0,0-.46,1.88v.4h5.64v2.7H83.47Z"/><path d="M100.13,754.22h-6v-2.7h8.91v2.59l-4.64,16.31h-3Z"/></g><g id="strength-weakness"><line class="cls-9" x1="113.67" y1="887.46" x2="113.67" y2="937.46"/><path class="cls-3" d="M25.74,901.35a2.67,2.67,0,0,1-.57-1.83V899h1.45v.67c0,.64.27,1,.8,1a.75.75,0,0,0,.6-.23,1.14,1.14,0,0,0,.2-.75,2,2,0,0,0-.28-1.08,5.24,5.24,0,0,0-1-1.13,6.54,6.54,0,0,1-1.33-1.52,3.09,3.09,0,0,1-.37-1.53,2.56,2.56,0,0,1,.58-1.8,2.25,2.25,0,0,1,1.71-.64,2.16,2.16,0,0,1,1.68.64,2.71,2.71,0,0,1,.56,1.83v.4H28.28v-.5a1.15,1.15,0,0,0-.2-.74.72.72,0,0,0-.57-.23c-.52,0-.77.32-.77.94a1.81,1.81,0,0,0,.28,1,5.1,5.1,0,0,0,1.05,1.12,6.11,6.11,0,0,1,1.33,1.53,3.44,3.44,0,0,1,.36,1.61,2.67,2.67,0,0,1-.59,1.85,2.25,2.25,0,0,1-1.73.64A2.18,2.18,0,0,1,25.74,901.35Z"/><path class="cls-3" d="M30.64,892h4.2v1.4H32.18V896H34.3v1.4H32.18v3h2.66v1.4h-4.2Z"/><path class="cls-3" d="M36.21,901.35a2.5,2.5,0,0,1-.58-1.77v-5.27a2.53,2.53,0,0,1,.58-1.78,2.57,2.57,0,0,1,3.37,0,2.53,2.53,0,0,1,.58,1.78v1H38.71v-1.14c0-.6-.26-.91-.77-.91s-.77.31-.77.91v5.48c0,.59.25.89.77.89s.77-.3.77-.89v-1.5h1.45v1.39a2.5,2.5,0,0,1-.58,1.77,2.57,2.57,0,0,1-3.37,0Z"/><path class="cls-3" d="M41.09,892h2.28a2.33,2.33,0,0,1,1.73.56,2.3,2.3,0,0,1,.55,1.7v.6c0,1-.34,1.66-1,1.93v0a1.17,1.17,0,0,1,.79.69,3.3,3.3,0,0,1,.23,1.38v1.72a6.13,6.13,0,0,0,0,.68,1.75,1.75,0,0,0,.14.51H44.26a2.68,2.68,0,0,1-.11-.45,6.11,6.11,0,0,1,0-.75v-1.79a1.57,1.57,0,0,0-.21-.94.93.93,0,0,0-.75-.27h-.53v4.2H41.09Zm2.1,4.2a1,1,0,0,0,.69-.23,1.16,1.16,0,0,0,.23-.8v-.76a1.23,1.23,0,0,0-.19-.77.69.69,0,0,0-.59-.24h-.7v2.8Z"/><path class="cls-3" d="M46.73,892h4.2v1.4H48.27V896h2.11v1.4H48.27v3h2.66v1.4h-4.2Z"/><path class="cls-3" d="M53,893.44H51.4V892h4.76v1.4H54.55v8.4H53Z"/><path class="cls-3" d="M59.45,901.35a2.67,2.67,0,0,1-.57-1.83V899h1.46v.67c0,.64.26,1,.79,1a.74.74,0,0,0,.6-.23,1.09,1.09,0,0,0,.2-.75,2,2,0,0,0-.28-1.08,5.14,5.14,0,0,0-1-1.13,6.1,6.1,0,0,1-1.33-1.52,3,3,0,0,1-.38-1.53,2.57,2.57,0,0,1,.59-1.8,2.22,2.22,0,0,1,1.7-.64,2.16,2.16,0,0,1,1.68.64,2.66,2.66,0,0,1,.57,1.83v.4H62v-.5a1.15,1.15,0,0,0-.2-.74.72.72,0,0,0-.57-.23c-.52,0-.77.32-.77.94a1.74,1.74,0,0,0,.29,1,5.26,5.26,0,0,0,1,1.12,5.91,5.91,0,0,1,1.33,1.53,3.44,3.44,0,0,1,.36,1.61,2.67,2.67,0,0,1-.59,1.85,2.25,2.25,0,0,1-1.73.64A2.2,2.2,0,0,1,59.45,901.35Z"/><path class="cls-3" d="M65.56,893.44H64V892h4.76v1.4H67.1v8.4H65.56Z"/><path class="cls-3" d="M69.45,892h2.28A2,2,0,0,1,74,894.3v.6c0,1-.34,1.66-1,1.93v0a1.21,1.21,0,0,1,.79.69,3.47,3.47,0,0,1,.23,1.38v1.72a6.13,6.13,0,0,0,0,.68,1.49,1.49,0,0,0,.14.51H72.63a1.56,1.56,0,0,1-.11-.45,6.11,6.11,0,0,1,0-.75v-1.79a1.49,1.49,0,0,0-.22-.94.9.9,0,0,0-.75-.27H71v4.2H69.45Zm2.1,4.2a.94.94,0,0,0,.69-.23,1.11,1.11,0,0,0,.23-.8v-.76a1.3,1.3,0,0,0-.18-.77.73.73,0,0,0-.6-.24H71v2.8Z"/><path class="cls-3" d="M75.09,892h4.2v1.4H76.63V896h2.12v1.4H76.63v3h2.66v1.4h-4.2Z"/><path class="cls-3" d="M80.18,892h1.93l1.5,5.87h0V892H85v9.8H83.42l-1.85-7.15h0v7.15H80.18Z"/><path class="cls-3" d="M86.63,901.35a2.63,2.63,0,0,1-.59-1.83v-5.15a2.61,2.61,0,0,1,.59-1.83,2.59,2.59,0,0,1,3.41,0,2.57,2.57,0,0,1,.59,1.83v.84H89.18v-.94c0-.64-.27-1-.8-1s-.8.33-.8,1v5.36c0,.64.27,1,.8,1s.8-.31.8-1v-1.92h-.77v-1.4h2.22v3.21a2.58,2.58,0,0,1-.59,1.83,2.62,2.62,0,0,1-3.41,0Z"/><path class="cls-3" d="M92.83,893.44H91.22V892H96v1.4H94.37v8.4H92.83Z"/><path class="cls-3" d="M96.72,892h1.54v4h1.65v-4h1.54v9.8H99.91v-4.41H98.26v4.41H96.72Z"/><path class="cls-3" d="M102.6,895h1.49v1.49H102.6Zm0,5.34h1.49v1.48H102.6Z"/><path class="cls-3" d="M36.72,906H39a2,2,0,0,1,2.28,2.26v.39a2.75,2.75,0,0,1-.24,1.23,1.41,1.41,0,0,1-.75.69v0c.77.26,1.15.94,1.15,2v.84a2.09,2.09,0,0,1-2.34,2.32H36.72Zm2.14,4a.94.94,0,0,0,.69-.23,1.11,1.11,0,0,0,.23-.8v-.55a1.3,1.3,0,0,0-.18-.77.73.73,0,0,0-.6-.24h-.74V910Zm.28,4.41a.78.78,0,0,0,.6-.21,1.14,1.14,0,0,0,.2-.75v-.86a1.45,1.45,0,0,0-.23-.93,1,1,0,0,0-.76-.26h-.69v3Z"/><path class="cls-3" d="M42.87,915.34a2.54,2.54,0,0,1-.61-1.82v-5.15a2.52,2.52,0,0,1,.61-1.82,2.24,2.24,0,0,1,1.73-.65,2.26,2.26,0,0,1,1.74.65,2.56,2.56,0,0,1,.6,1.82v5.15a2.58,2.58,0,0,1-.6,1.82,2.26,2.26,0,0,1-1.74.64A2.23,2.23,0,0,1,42.87,915.34Zm2.53-1.72v-5.35c0-.64-.27-1-.8-1s-.8.33-.8,1v5.35c0,.64.27,1,.8,1S45.4,914.26,45.4,913.62Z"/><path class="cls-3" d="M47.61,906h1.48l.69,7.54h0l.73-7.54h1.68l.73,7.54h0l.69-7.54H55l-1,9.8H52.08l-.7-6.61h0l-.7,6.61h-2Z"/><path class="cls-3" d="M59.2,906h2.09l1.59,9.8H61.34l-.28-1.94v0H59.31L59,915.84H57.61Zm1.68,6.56-.68-4.85h0l-.67,4.85Z"/><path class="cls-3" d="M63.63,906h1.93l1.5,5.87h0V906h1.38v9.8H66.87L65,908.69h0v7.15H63.63Z"/><path class="cls-3" d="M69.6,906H72a2.26,2.26,0,0,1,1.72.62,2.57,2.57,0,0,1,.57,1.81v4.95a2.59,2.59,0,0,1-.57,1.81,2.26,2.26,0,0,1-1.72.61H69.6Zm2.33,8.4a.75.75,0,0,0,.58-.22,1.1,1.1,0,0,0,.2-.73v-5.1a1.09,1.09,0,0,0-.2-.72.75.75,0,0,0-.58-.23h-.79v7Z"/><path class="cls-3" d="M78.72,906H80.8l1.6,9.8H80.86l-.28-1.94v0H78.83l-.28,1.91H77.12Zm1.68,6.56-.69-4.85h0L79,912.6Z"/><path class="cls-3" d="M83.14,906h2.28a2,2,0,0,1,2.29,2.26v.6c0,1-.34,1.66-1,1.93v0a1.21,1.21,0,0,1,.79.69,3.47,3.47,0,0,1,.23,1.38v1.72a6.13,6.13,0,0,0,0,.68,1.49,1.49,0,0,0,.14.51H86.32a2,2,0,0,1-.11-.45,6.11,6.11,0,0,1,0-.75v-1.79a1.49,1.49,0,0,0-.22-.94.9.9,0,0,0-.75-.27h-.53v4.2H83.14Zm2.1,4.2a1,1,0,0,0,.7-.23,1.16,1.16,0,0,0,.23-.8v-.76a1.3,1.3,0,0,0-.19-.77.73.73,0,0,0-.6-.24h-.7v2.8Z"/><path class="cls-3" d="M88.78,906h2.29a2.33,2.33,0,0,1,1.73.56,2.3,2.3,0,0,1,.55,1.7v.6c0,1-.34,1.66-1,1.93v0a1.19,1.19,0,0,1,.79.69,3.47,3.47,0,0,1,.23,1.38v1.72a6.13,6.13,0,0,0,0,.68,1.49,1.49,0,0,0,.14.51H92a2.68,2.68,0,0,1-.11-.45,6.11,6.11,0,0,1,0-.75v-1.79a1.57,1.57,0,0,0-.21-.94.93.93,0,0,0-.75-.27h-.54v4.2H88.78Zm2.1,4.2a1,1,0,0,0,.7-.23,1.16,1.16,0,0,0,.23-.8v-.76a1.3,1.3,0,0,0-.19-.77.73.73,0,0,0-.6-.24h-.7v2.8Z"/><path class="cls-3" d="M94.92,915.34a2.54,2.54,0,0,1-.61-1.82v-5.15a2.52,2.52,0,0,1,.61-1.82,2.64,2.64,0,0,1,3.47,0,2.56,2.56,0,0,1,.6,1.82v5.15a2.58,2.58,0,0,1-.6,1.82,2.67,2.67,0,0,1-3.47,0Zm2.53-1.72v-5.35c0-.64-.27-1-.8-1s-.8.33-.8,1v5.35c0,.64.27,1,.8,1S97.45,914.26,97.45,913.62Z"/><path class="cls-3" d="M100.33,915.35a2.67,2.67,0,0,1-.57-1.83V913h1.46v.67c0,.64.26,1,.79,1a.74.74,0,0,0,.6-.23,1.14,1.14,0,0,0,.2-.75,2,2,0,0,0-.28-1.08,5.14,5.14,0,0,0-1-1.13,6.1,6.1,0,0,1-1.33-1.52,3,3,0,0,1-.38-1.53,2.52,2.52,0,0,1,.59-1.8,2.22,2.22,0,0,1,1.7-.64,2.16,2.16,0,0,1,1.68.64,2.71,2.71,0,0,1,.56,1.83v.4h-1.45v-.5a1.15,1.15,0,0,0-.2-.74.72.72,0,0,0-.57-.23c-.52,0-.77.32-.77.94a1.74,1.74,0,0,0,.29,1,5,5,0,0,0,1,1.12,6.11,6.11,0,0,1,1.33,1.53,3.44,3.44,0,0,1,.36,1.61,2.67,2.67,0,0,1-.59,1.85A2.25,2.25,0,0,1,102,916,2.2,2.2,0,0,1,100.33,915.35Z"/><path class="cls-3" d="M124.62,901.35a2.67,2.67,0,0,1-.57-1.83V899h1.46v.67c0,.64.26,1,.79,1a.74.74,0,0,0,.6-.23,1.14,1.14,0,0,0,.2-.75,2,2,0,0,0-.28-1.08,5.14,5.14,0,0,0-1-1.13,6.1,6.1,0,0,1-1.33-1.52,3,3,0,0,1-.38-1.53,2.57,2.57,0,0,1,.59-1.8,2.22,2.22,0,0,1,1.7-.64,2.16,2.16,0,0,1,1.68.64,2.66,2.66,0,0,1,.57,1.83v.4h-1.46v-.5a1.15,1.15,0,0,0-.2-.74.72.72,0,0,0-.57-.23c-.51,0-.77.32-.77.94a1.74,1.74,0,0,0,.29,1,5.26,5.26,0,0,0,1,1.12,5.91,5.91,0,0,1,1.33,1.53,3.44,3.44,0,0,1,.36,1.61,2.62,2.62,0,0,1-.59,1.85,2.25,2.25,0,0,1-1.73.64A2.2,2.2,0,0,1,124.62,901.35Z"/><path class="cls-3" d="M129.53,892h4.19v1.4h-2.66V896h2.12v1.4h-2.12v3h2.66v1.4h-4.19Z"/><path class="cls-3" d="M135.09,901.35a2.5,2.5,0,0,1-.58-1.77v-5.27a2.53,2.53,0,0,1,.58-1.78,2.19,2.19,0,0,1,1.69-.63,2.17,2.17,0,0,1,1.68.63,2.53,2.53,0,0,1,.58,1.78v1h-1.45v-1.14c0-.6-.26-.91-.77-.91s-.77.31-.77.91v5.48c0,.59.26.89.77.89s.77-.3.77-.89v-1.5H139v1.39a2.5,2.5,0,0,1-.58,1.77,2.17,2.17,0,0,1-1.68.63A2.19,2.19,0,0,1,135.09,901.35Z"/><path class="cls-3" d="M140,892h2.28a2.38,2.38,0,0,1,1.74.56,2.34,2.34,0,0,1,.54,1.7v.6c0,1-.33,1.66-1,1.93v0a1.21,1.21,0,0,1,.79.69,3.47,3.47,0,0,1,.23,1.38v1.72c0,.28,0,.51,0,.68a1.75,1.75,0,0,0,.14.51h-1.56a2,2,0,0,1-.12-.45c0-.13,0-.39,0-.75v-1.79a1.56,1.56,0,0,0-.22-.94.91.91,0,0,0-.75-.27h-.53v4.2H140Zm2.1,4.2a.94.94,0,0,0,.69-.23,1.11,1.11,0,0,0,.23-.8v-.76a1.23,1.23,0,0,0-.19-.77.69.69,0,0,0-.59-.24h-.7v2.8Z"/><path class="cls-3" d="M145.61,892h4.2v1.4h-2.66V896h2.12v1.4h-2.12v3h2.66v1.4h-4.2Z"/><path class="cls-3" d="M151.9,893.44h-1.61V892h4.76v1.4h-1.61v8.4H151.9Z"/><path class="cls-3" d="M157.66,892h1.49l.68,7.54h0l.73-7.54h1.68l.73,7.54h0l.68-7.54H165l-1,9.8h-1.92l-.7-6.61h0l-.7,6.61h-2Z"/><path class="cls-3" d="M165.83,892H170v1.4h-2.66V896h2.11v1.4h-2.11v3H170v1.4h-4.2Z"/><path class="cls-3" d="M172.1,892h2.09l1.59,9.8h-1.54L174,899.9v0h-1.75l-.28,1.91H170.5Zm1.68,6.56-.69-4.85h0l-.67,4.85Z"/><path class="cls-3" d="M176.52,892h1.54v4.13l2-4.13h1.54l-1.83,3.6,1.86,6.2H180l-1.3-4.37-.62,1.25v3.12h-1.54Z"/><path class="cls-3" d="M182.32,892h1.93l1.5,5.87h0V892h1.37v9.8h-1.58l-1.85-7.15h0v7.15h-1.37Z"/><path class="cls-3" d="M188.3,892h4.2v1.4h-2.66V896H192v1.4h-2.11v3h2.66v1.4h-4.2Z"/><path class="cls-3" d="M193.71,901.35a2.67,2.67,0,0,1-.57-1.83V899h1.46v.67c0,.64.26,1,.79,1a.74.74,0,0,0,.6-.23,1.14,1.14,0,0,0,.2-.75,2,2,0,0,0-.28-1.08,5.14,5.14,0,0,0-1-1.13,6.1,6.1,0,0,1-1.33-1.52,3,3,0,0,1-.38-1.53,2.57,2.57,0,0,1,.59-1.8,2.22,2.22,0,0,1,1.7-.64,2.16,2.16,0,0,1,1.68.64,2.66,2.66,0,0,1,.56,1.83v.4h-1.45v-.5a1.15,1.15,0,0,0-.2-.74.72.72,0,0,0-.57-.23c-.52,0-.77.32-.77.94a1.74,1.74,0,0,0,.29,1,5,5,0,0,0,1,1.12,6.11,6.11,0,0,1,1.33,1.53,3.44,3.44,0,0,1,.36,1.61,2.67,2.67,0,0,1-.59,1.85,2.25,2.25,0,0,1-1.73.64A2.2,2.2,0,0,1,193.71,901.35Z"/><path class="cls-3" d="M198.92,901.35a2.67,2.67,0,0,1-.57-1.83V899h1.45v.67c0,.64.27,1,.8,1a.75.75,0,0,0,.6-.23,1.14,1.14,0,0,0,.2-.75,2,2,0,0,0-.28-1.08,5.24,5.24,0,0,0-1-1.13,6.54,6.54,0,0,1-1.33-1.52,3.09,3.09,0,0,1-.37-1.53,2.56,2.56,0,0,1,.58-1.8,2.25,2.25,0,0,1,1.71-.64,2.16,2.16,0,0,1,1.68.64,2.71,2.71,0,0,1,.56,1.83v.4h-1.45v-.5a1.15,1.15,0,0,0-.2-.74.72.72,0,0,0-.57-.23c-.52,0-.77.32-.77.94a1.81,1.81,0,0,0,.28,1,5.1,5.1,0,0,0,1.05,1.12,6.11,6.11,0,0,1,1.33,1.53,3.44,3.44,0,0,1,.36,1.61,2.67,2.67,0,0,1-.59,1.85,2.25,2.25,0,0,1-1.73.64A2.18,2.18,0,0,1,198.92,901.35Z"/><path class="cls-3" d="M203.82,895h1.49v1.49h-1.49Zm0,5.34h1.49v1.48h-1.49Z"/><path class="cls-3" d="M124.32,906h2.28a2.33,2.33,0,0,1,1.73.56,2.3,2.3,0,0,1,.55,1.7v.6c0,1-.34,1.66-1,1.93v0a1.17,1.17,0,0,1,.79.69,3.3,3.3,0,0,1,.23,1.38v1.72a6.13,6.13,0,0,0,0,.68,1.75,1.75,0,0,0,.14.51h-1.57a2.68,2.68,0,0,1-.11-.45,6.81,6.81,0,0,1,0-.75v-1.79a1.56,1.56,0,0,0-.22-.94.93.93,0,0,0-.75-.27h-.53v4.2h-1.54Zm2.1,4.2a1,1,0,0,0,.69-.23,1.16,1.16,0,0,0,.23-.8v-.76a1.23,1.23,0,0,0-.19-.77.69.69,0,0,0-.59-.24h-.7v2.8Z"/><path class="cls-3" d="M130.49,915.35a2.63,2.63,0,0,1-.59-1.83V906h1.54v7.59a1,1,0,0,0,.21.73.72.72,0,0,0,.58.22.75.75,0,0,0,.58-.22,1.1,1.1,0,0,0,.2-.73V906h1.48v7.48a2.63,2.63,0,0,1-.58,1.83,2.64,2.64,0,0,1-3.42,0Z"/><path class="cls-3" d="M135.59,906h1.93l1.5,5.87h0V906h1.38v9.8h-1.59L137,908.69h0v7.15h-1.37Z"/><path class="cls-3" d="M141.87,915.35a2.67,2.67,0,0,1-.57-1.83V913h1.46v.67c0,.64.26,1,.79,1a.75.75,0,0,0,.6-.23,1.14,1.14,0,0,0,.2-.75,2,2,0,0,0-.28-1.08,5.24,5.24,0,0,0-1-1.13,6.54,6.54,0,0,1-1.33-1.52,3.09,3.09,0,0,1-.37-1.53,2.56,2.56,0,0,1,.58-1.8,2.25,2.25,0,0,1,1.71-.64,2.16,2.16,0,0,1,1.68.64,2.71,2.71,0,0,1,.56,1.83v.4h-1.45v-.5a1.15,1.15,0,0,0-.2-.74.72.72,0,0,0-.57-.23c-.52,0-.77.32-.77.94a1.81,1.81,0,0,0,.28,1,5.36,5.36,0,0,0,1,1.12,6.11,6.11,0,0,1,1.33,1.53,3.44,3.44,0,0,1,.36,1.61,2.67,2.67,0,0,1-.59,1.85,2.25,2.25,0,0,1-1.73.64A2.2,2.2,0,0,1,141.87,915.35Z"/><path class="cls-3" d="M149.5,915.34a2.58,2.58,0,0,1-.6-1.82v-5.15a2.56,2.56,0,0,1,.6-1.82,2.64,2.64,0,0,1,3.47,0,2.52,2.52,0,0,1,.61,1.82v5.15a2.54,2.54,0,0,1-.61,1.82,2.67,2.67,0,0,1-3.47,0Zm2.54-1.72v-5.35c0-.64-.27-1-.8-1s-.8.33-.8,1v5.35c0,.64.27,1,.8,1S152,914.26,152,913.62Z"/><path class="cls-3" d="M155.14,915.35a2.63,2.63,0,0,1-.58-1.83V906h1.54v7.59a1,1,0,0,0,.2.73.75.75,0,0,0,.58.22.73.73,0,0,0,.58-.22,1,1,0,0,0,.2-.73V906h1.49v7.48a2.63,2.63,0,0,1-.59,1.83,2.22,2.22,0,0,1-1.71.63A2.25,2.25,0,0,1,155.14,915.35Z"/><path class="cls-3" d="M161.45,907.44h-1.62V906h4.77v1.4H163v8.4h-1.53Z"/><path class="cls-3" d="M168.07,915.34a2.58,2.58,0,0,1-.61-1.82v-5.15a2.56,2.56,0,0,1,.61-1.82,2.64,2.64,0,0,1,3.47,0,2.56,2.56,0,0,1,.6,1.82v5.15a2.58,2.58,0,0,1-.6,1.82,2.67,2.67,0,0,1-3.47,0Zm2.53-1.72v-5.35c0-.64-.27-1-.8-1s-.8.33-.8,1v5.35c0,.64.27,1,.8,1S170.6,914.26,170.6,913.62Z"/><path class="cls-3" d="M173.18,906h4.07v1.4h-2.53v2.73h2v1.4h-2v4.27h-1.54Z"/><path class="cls-3" d="M125.51,920h2.08l1.6,9.8h-1.54l-.28-1.94v0h-1.75l-.28,1.91h-1.43Zm1.68,6.56-.69-4.85h0l-.67,4.85Z"/><path class="cls-3" d="M129.93,920h2.28a2,2,0,0,1,2.28,2.26v.6c0,1-.33,1.66-1,1.93v0a1.21,1.21,0,0,1,.79.69,3.47,3.47,0,0,1,.23,1.38v1.72a6.13,6.13,0,0,0,0,.68,1.49,1.49,0,0,0,.14.51h-1.57a2,2,0,0,1-.11-.45,6.11,6.11,0,0,1,0-.75v-1.79a1.49,1.49,0,0,0-.22-.94.9.9,0,0,0-.75-.27h-.53v4.2h-1.54Zm2.1,4.2a.94.94,0,0,0,.69-.23,1.11,1.11,0,0,0,.23-.8v-.76a1.3,1.3,0,0,0-.18-.77.73.73,0,0,0-.6-.24h-.7v2.8Z"/><path class="cls-3" d="M135.57,920h2.29a2,2,0,0,1,2.28,2.26v.6c0,1-.34,1.66-1,1.93v0a1.19,1.19,0,0,1,.79.69,3.47,3.47,0,0,1,.23,1.38v1.72a6.13,6.13,0,0,0,0,.68,1.49,1.49,0,0,0,.14.51h-1.57a2.68,2.68,0,0,1-.11-.45,6.11,6.11,0,0,1,0-.75v-1.79a1.49,1.49,0,0,0-.22-.94.9.9,0,0,0-.75-.27h-.53v4.2h-1.54Zm2.1,4.2a1,1,0,0,0,.7-.23,1.16,1.16,0,0,0,.23-.8v-.76a1.3,1.3,0,0,0-.19-.77.73.73,0,0,0-.6-.24h-.7v2.8Z"/><path class="cls-3" d="M141.7,929.34a2.58,2.58,0,0,1-.6-1.82v-5.15a2.56,2.56,0,0,1,.6-1.82,2.29,2.29,0,0,1,1.74-.65,2.26,2.26,0,0,1,1.74.65,2.56,2.56,0,0,1,.6,1.82v5.15a2.58,2.58,0,0,1-.6,1.82,2.26,2.26,0,0,1-1.74.64A2.29,2.29,0,0,1,141.7,929.34Zm2.54-1.72v-5.35c0-.64-.27-1-.8-1s-.8.33-.8,1v5.35c0,.64.27,1,.8,1S144.24,928.26,144.24,927.62Z"/><path class="cls-3" d="M146.45,920h1.49l.68,7.54h0l.73-7.54h1.68l.72,7.54h0l.69-7.54h1.33l-1,9.8h-1.92l-.7-6.61h0l-.7,6.61h-2Z"/><path class="cls-3" d="M154.92,929.35a2.67,2.67,0,0,1-.57-1.83V927h1.45v.67c0,.64.27,1,.8,1a.75.75,0,0,0,.6-.23,1.14,1.14,0,0,0,.2-.75,2,2,0,0,0-.28-1.08,5.24,5.24,0,0,0-1-1.13,6.31,6.31,0,0,1-1.33-1.52,3.1,3.1,0,0,1-.38-1.53,2.57,2.57,0,0,1,.59-1.8,2.24,2.24,0,0,1,1.71-.64,2.12,2.12,0,0,1,1.67.64,2.66,2.66,0,0,1,.57,1.83v.4h-1.46v-.5a1.15,1.15,0,0,0-.19-.74.72.72,0,0,0-.57-.23c-.52,0-.78.32-.78.94a1.82,1.82,0,0,0,.29,1,5.26,5.26,0,0,0,1,1.12,5.72,5.72,0,0,1,1.33,1.53,3.33,3.33,0,0,1,.37,1.61,2.62,2.62,0,0,1-.6,1.85,2.21,2.21,0,0,1-1.72.64A2.18,2.18,0,0,1,154.92,929.35Z"/></g></g></g></g></svg>