<svg xmlns="http://www.w3.org/2000/svg" viewBox="0 0 172 172"><defs><style>.cls-1{fill:#fff;}</style></defs><title>Asset 6</title><g id="Layer_2" data-name="Layer 2"><g id="poster"><g id="symbols"><circle cx="86" cy="86" r="86"/><circle class="cls-1" cx="86" cy="86" r="72.53"/><path d="M40.84,44s26-33,69-15,35,63,35,63-4,33-37,45-57-7-57-7l10.5-1.5-17-12,5-24-17-3h16l1-3h-10l9-3-4-21,12-16Z"/><polygon class="cls-1" points="47.34 63.5 62.34 41.5 78.34 31.5 97.34 31.5 102.34 35.5 104.34 57.5 101.34 70.5 82.27 72.64 74.34 51.5 74.34 59.5 71.34 59.5 76.34 65.5 73.34 85.5 63.34 88.5 71.34 89.5 74.34 109.5 76.34 112.5 80.34 126.5 86.34 130.5 71.34 132.5 49.34 115.5 52.34 91.5 57.34 91.5 53.34 87.5 47.34 63.5"/><polygon class="cls-1" points="104.34 42.5 123.34 41.5 127.34 49.5 129.34 63.5 105.34 63.5 106.34 57.5 104.34 42.5"/><polygon class="cls-1" points="105.34 66.5 132.34 66.5 134.34 79.5 131.34 93.5 92.34 92.5 76.34 87.5 78.34 70.5 80.34 75.5 104.34 73.5 105.34 66.5"/><polygon class="cls-1" points="74.34 91.5 77.34 90.5 92.34 95.5 127.34 97.5 122.34 115.5 92.34 115.5 76.34 108.5 74.34 91.5"/><polygon class="cls-1" points="79.34 112.5 83.34 126.5 95.34 129.5 110.34 127.5 117.34 119.5 92.34 117.5 79.34 112.5"/></g></g></g></svg>