<svg xmlns="http://www.w3.org/2000/svg" viewBox="0 0 228.92 972"><defs><style>.cls-1{fill:#0da84c;}.cls-2{opacity:0.25;}.cls-3{fill:#fff;}.cls-4{fill:#3eb56e;}.cls-5{fill:#0b873d;}.cls-6{fill:#12c65b;}.cls-7,.cls-9{fill:none;}.cls-7,.cls-8{stroke:#000;stroke-linejoin:round;}.cls-7,.cls-8,.cls-9{stroke-linecap:round;}.cls-7{stroke-width:6px;}.cls-8{stroke-width:3px;}.cls-9{stroke:#fff;stroke-miterlimit:10;}</style></defs><title>hulk-info</title><g id="Layer_2" data-name="Layer 2"><g id="poster"><g id="bg"><rect id="_6" data-name="6" class="cls-1" width="228" height="972"/><rect id="shade1" class="cls-2" x="1.92" y="310" width="227" height="102"/><rect id="shade2" class="cls-2" x="0.92" y="679" width="227" height="184"/></g><g id="stats-hulk"><g id="stats"><rect class="cls-3" x="25.55" y="110.86" width="187.31" height="24.04"/><rect x="25.21" y="110.65" width="187.71" height="24.04"/><path class="cls-3" d="M29.59,127.3a3,3,0,0,1-.66-2.09v-.64H30.6v.77c0,.73.3,1.09.91,1.09a.87.87,0,0,0,.68-.26,1.26,1.26,0,0,0,.24-.86,2.41,2.41,0,0,0-.32-1.24,6,6,0,0,0-1.19-1.29A7,7,0,0,1,29.4,121a3.54,3.54,0,0,1-.44-1.76,2.94,2.94,0,0,1,.68-2.06,2.55,2.55,0,0,1,1.95-.73,2.45,2.45,0,0,1,1.92.73,3.09,3.09,0,0,1,.65,2.1v.46H32.49v-.58a1.3,1.3,0,0,0-.22-.84.84.84,0,0,0-.66-.26c-.59,0-.88.36-.88,1.07a2.1,2.1,0,0,0,.33,1.14,6.19,6.19,0,0,0,1.19,1.28,6.43,6.43,0,0,1,1.52,1.75,3.84,3.84,0,0,1,.42,1.84,3,3,0,0,1-.68,2.12,2.58,2.58,0,0,1-2,.73A2.46,2.46,0,0,1,29.59,127.3Z"/><path class="cls-3" d="M36.58,118.26H34.73v-1.6h5.45v1.6H38.34v9.61H36.58Z"/><path class="cls-3" d="M41,116.66h2.62a2.69,2.69,0,0,1,2,.63,2.66,2.66,0,0,1,.63,1.95v.69a2.11,2.11,0,0,1-1.16,2.21v0A1.4,1.4,0,0,1,46,123a3.94,3.94,0,0,1,.26,1.59v2a5.57,5.57,0,0,0,0,.78,1.73,1.73,0,0,0,.16.58h-1.8a2.73,2.73,0,0,1-.13-.51,8.2,8.2,0,0,1,0-.86v-2.06a1.7,1.7,0,0,0-.25-1.07,1.05,1.05,0,0,0-.86-.3h-.6v4.8H41Zm2.41,4.8a1.07,1.07,0,0,0,.79-.27,1.25,1.25,0,0,0,.26-.91v-.87a1.46,1.46,0,0,0-.21-.88.83.83,0,0,0-.68-.27h-.8v3.2Z"/><path class="cls-3" d="M47.49,116.66H52.3v1.6h-3v3h2.42v1.61H49.25v3.44h3v1.6H47.49Z"/><path class="cls-3" d="M53.31,116.66h2.21l1.72,6.71h0v-6.71h1.57v11.21H57l-2.12-8.19h0v8.19H53.31Z"/><path class="cls-3" d="M60.7,127.3a3,3,0,0,1-.68-2.09v-5.89a3,3,0,0,1,.68-2.1,3,3,0,0,1,3.91,0,3,3,0,0,1,.67,2.1v1H63.61V119.2c0-.73-.3-1.1-.91-1.1s-.91.37-.91,1.1v6.14c0,.73.3,1.09.91,1.09s.91-.36.91-1.09v-2.19h-.88v-1.61h2.55v3.67a3,3,0,0,1-.67,2.09,3,3,0,0,1-3.91,0Z"/><path class="cls-3" d="M67.8,118.26H66v-1.6H71.4v1.6H69.56v9.61H67.8Z"/><path class="cls-3" d="M72.25,116.66H74v4.56h1.9v-4.56h1.76v11.21H75.91v-5H74v5H72.25Z"/><rect class="cls-3" x="25.55" y="147.93" width="187.31" height="24.04"/><rect x="25.21" y="147.71" width="97.71" height="24.04"/><path class="cls-3" d="M29.59,164.37a3,3,0,0,1-.66-2.1v-.64H30.6v.77c0,.73.3,1.09.91,1.09a.87.87,0,0,0,.68-.26,1.26,1.26,0,0,0,.24-.86,2.41,2.41,0,0,0-.32-1.24,6,6,0,0,0-1.19-1.29,7,7,0,0,1-1.52-1.74,3.53,3.53,0,0,1-.44-1.75,2.91,2.91,0,0,1,.68-2.06,2.51,2.51,0,0,1,1.95-.73,2.42,2.42,0,0,1,1.92.73,3,3,0,0,1,.65,2.09v.46H32.49v-.57a1.31,1.31,0,0,0-.22-.85.84.84,0,0,0-.66-.26c-.59,0-.88.36-.88,1.07a2.1,2.1,0,0,0,.33,1.14,6.19,6.19,0,0,0,1.19,1.28,6.43,6.43,0,0,1,1.52,1.75,3.84,3.84,0,0,1,.42,1.84,3,3,0,0,1-.68,2.12,2.59,2.59,0,0,1-2,.74A2.5,2.5,0,0,1,29.59,164.37Z"/><path class="cls-3" d="M35.2,153.72h2.6a2.57,2.57,0,0,1,2,.7,3,3,0,0,1,.65,2.07v1.11a3,3,0,0,1-.65,2.06,2.58,2.58,0,0,1-2,.71H37v4.57H35.2Zm2.6,5.05a.79.79,0,0,0,.64-.25,1.16,1.16,0,0,0,.22-.81v-1.33a1.18,1.18,0,0,0-.22-.82.82.82,0,0,0-.64-.24H37v3.45Z"/><path class="cls-3" d="M41.39,153.72h4.8v1.6h-3v3h2.42v1.61H43.15v3.44h3v1.61h-4.8Z"/><path class="cls-3" d="M47.2,153.72H52v1.6H49v3h2.42v1.61H49v3.44h3v1.61H47.2Z"/><path class="cls-3" d="M53,153.72h2.69a2.55,2.55,0,0,1,2,.7,2.92,2.92,0,0,1,.66,2.07v5.67a2.92,2.92,0,0,1-.66,2.07,2.55,2.55,0,0,1-2,.71H53Zm2.66,9.61a.87.87,0,0,0,.67-.25,1.26,1.26,0,0,0,.23-.84v-5.83a1.23,1.23,0,0,0-.23-.83.87.87,0,0,0-.67-.26h-.9v8Z"/><rect class="cls-3" x="25.55" y="184.99" width="187.31" height="24.04"/><rect x="25.21" y="184.77" width="81.71" height="24.04"/><path class="cls-3" d="M29.59,201.43a3,3,0,0,1-.66-2.09v-.64H30.6v.76c0,.73.3,1.09.91,1.09a.83.83,0,0,0,.68-.26,1.26,1.26,0,0,0,.24-.86,2.41,2.41,0,0,0-.32-1.24,6,6,0,0,0-1.19-1.29,7,7,0,0,1-1.52-1.74,3.53,3.53,0,0,1-.44-1.75,2.91,2.91,0,0,1,.68-2.06,2.51,2.51,0,0,1,1.95-.73,2.42,2.42,0,0,1,1.92.73,3,3,0,0,1,.65,2.09v.46H32.49v-.57a1.26,1.26,0,0,0-.22-.84.81.81,0,0,0-.66-.27c-.59,0-.88.36-.88,1.07a2.1,2.1,0,0,0,.33,1.14,6.19,6.19,0,0,0,1.19,1.28,6.58,6.58,0,0,1,1.52,1.75,3.87,3.87,0,0,1,.42,1.84,3,3,0,0,1-.68,2.12,2.59,2.59,0,0,1-2,.74A2.5,2.5,0,0,1,29.59,201.43Z"/><path class="cls-3" d="M36.58,192.38H34.73v-1.6h5.45v1.6H38.34V202H36.58Z"/><path class="cls-3" d="M41,190.78h2.62a2.69,2.69,0,0,1,2,.63,2.66,2.66,0,0,1,.63,2v.69a2.11,2.11,0,0,1-1.16,2.21v0a1.39,1.39,0,0,1,.91.79,3.85,3.85,0,0,1,.26,1.58v2a5.48,5.48,0,0,0,0,.78,1.86,1.86,0,0,0,.16.59h-1.8a2.82,2.82,0,0,1-.13-.52,8.07,8.07,0,0,1,0-.86v-2.05a1.73,1.73,0,0,0-.25-1.08,1.05,1.05,0,0,0-.86-.3h-.6V202H41Zm2.41,4.81a1,1,0,0,0,.79-.28,1.25,1.25,0,0,0,.26-.91v-.87a1.48,1.48,0,0,0-.21-.88.83.83,0,0,0-.68-.27h-.8v3.21Z"/><path class="cls-3" d="M48.85,190.78h2.39L53.07,202H51.31L51,199.77v0H49l-.32,2.2H47Zm1.93,7.5L50,192.73h0l-.77,5.55Z"/><path class="cls-3" d="M54.56,192.38H52.72v-1.6h5.44v1.6H56.32V202H54.56Z"/><path class="cls-3" d="M59,190.78h4.81v1.6h-3v3H63.2V197H60.78v3.44h3V202H59Z"/><path class="cls-3" d="M65.38,201.43a3,3,0,0,1-.68-2.09v-5.9a3,3,0,0,1,.68-2.09,3,3,0,0,1,3.91,0,3,3,0,0,1,.67,2.09v1H68.29v-1.07c0-.74-.3-1.11-.91-1.11s-.91.37-.91,1.11v6.13c0,.73.3,1.09.91,1.09s.91-.36.91-1.09v-2.19h-.88v-1.6H70v3.67a3,3,0,0,1-.67,2.09,3,3,0,0,1-3.91,0Z"/><path class="cls-3" d="M72.48,197.22l-2.13-6.44h1.87l1.2,4.12h0l1.21-4.12h1.71l-2.13,6.44V202H72.48Z"/><rect class="cls-3" x="25.55" y="222.05" width="187.31" height="24.04"/><rect x="25.21" y="221.83" width="174.71" height="24.04"/><path class="cls-3" d="M29.24,227.84h2.69a2.6,2.6,0,0,1,2,.7,2.94,2.94,0,0,1,.66,2.07v5.68a2.91,2.91,0,0,1-.66,2.06,2.56,2.56,0,0,1-2,.71H29.24Zm2.66,9.62a.84.84,0,0,0,.66-.26,1.19,1.19,0,0,0,.24-.83v-5.84a1.19,1.19,0,0,0-.24-.83.84.84,0,0,0-.66-.26H31v8Z"/><path class="cls-3" d="M35.74,227.84h4.81v1.6h-3v3h2.42V234H37.51v3.45h3v1.6H35.74Z"/><path class="cls-3" d="M41.56,227.84h4.67v1.6H43.32v3.13H45.6v1.6H43.32v4.89H41.56Z"/><path class="cls-3" d="M47.07,227.84h4.81v1.6h-3v3h2.42V234H48.84v3.45h3v1.6H47.07Z"/><path class="cls-3" d="M52.89,227.84H55.1l1.72,6.71h0v-6.71h1.57v11.22H56.61l-2.12-8.19h0v8.19H52.89Z"/><path class="cls-3" d="M60.29,238.5a2.87,2.87,0,0,1-.67-2v-6a2.87,2.87,0,0,1,.67-2,2.95,2.95,0,0,1,3.86,0,2.91,2.91,0,0,1,.67,2v1.18H63.15v-1.3c0-.69-.3-1-.88-1s-.88.35-.88,1v6.27c0,.68.29,1,.88,1s.88-.35.88-1v-1.71h1.67v1.58a2.91,2.91,0,0,1-.67,2,2.95,2.95,0,0,1-3.86,0Z"/><path class="cls-3" d="M65.87,227.84h4.81v1.6h-3v3h2.42V234H67.64v3.45h3v1.6H65.87Z"/><rect class="cls-3" x="25.55" y="259.11" width="187.31" height="24.04"/><rect x="25.21" y="258.89" width="103.71" height="24.04"/><path class="cls-3" d="M29.59,275.55a3,3,0,0,1-.66-2.09v-.64H30.6v.77c0,.72.3,1.09.91,1.09a.84.84,0,0,0,.68-.27,1.23,1.23,0,0,0,.24-.85,2.45,2.45,0,0,0-.32-1.25A6.45,6.45,0,0,0,30.92,271a7,7,0,0,1-1.52-1.74,3.5,3.5,0,0,1-.44-1.75,2.92,2.92,0,0,1,.68-2.06,2.51,2.51,0,0,1,1.95-.73,2.42,2.42,0,0,1,1.92.73,3.06,3.06,0,0,1,.65,2.09V268H32.49v-.58a1.26,1.26,0,0,0-.22-.84.81.81,0,0,0-.66-.27c-.59,0-.88.36-.88,1.08a2.15,2.15,0,0,0,.33,1.14,6.19,6.19,0,0,0,1.19,1.28,6.41,6.41,0,0,1,1.52,1.74,3.89,3.89,0,0,1,.42,1.85,3,3,0,0,1-.68,2.11,2.59,2.59,0,0,1-2,.74A2.46,2.46,0,0,1,29.59,275.55Z"/><path class="cls-3" d="M35.2,264.9H37v4.73l2.25-4.73H41L38.87,269l2.13,7.1H39.16l-1.49-5L37,272.55v3.57H35.2Z"/><path class="cls-3" d="M41.83,264.9H43.6v11.22H41.83Z"/><path class="cls-3" d="M44.91,264.9h1.76v9.62h2.9v1.6H44.91Z"/><path class="cls-3" d="M50.42,264.9h1.77v9.62h2.9v1.6H50.42Z"/></g><g id="weapon"><path d="M210.46,350.53a8.85,8.85,0,0,1,1.77,4.36,6.66,6.66,0,0,0,.05,1.56,11.32,11.32,0,0,1-3.64,7.22c0,.07-.12.11-.07.21a5.57,5.57,0,0,0-1.22.92c-.9.41-2,1.37-3,1.28-1-2.11-.66-5.54-3.23-5.13,0,1.14,1.32,1.52,1.77,2.51a7.08,7.08,0,0,1,.41,1.43c-.13.05-.09.19-.08.32-1.76,2-3.12,4.18-5.19,6.05,1.22-.43,2.08-1.42,3.13-2s2.1-1.39,3.28-2.18a31.18,31.18,0,0,1,4.9-2.86c0,.13.12.05.18.08a1.85,1.85,0,0,1,.32,1.74c-.19,1.25-1.93,2.88-2.81,3.78l-.82.29c-.9,0-1.17-1.19-2-1.22a5.08,5.08,0,0,1-.37,5.42,2.82,2.82,0,0,1-.44.64,10.75,10.75,0,0,1-.91,1.18l-.49.51c-.33.37-.72.67-1,1a1.26,1.26,0,0,1-1.2.53,4,4,0,0,0-1-.13c-.86.07-1.8.39-2.77.47-.1,0-.24-.07-.33-.06s-.26.13-.37.13a3.44,3.44,0,0,1-1.08-.28,11,11,0,0,0-2.06-4.59c-.18-.27-.3-.51-.53-.91a4.29,4.29,0,0,1-.72-1.41c0-.21,0-.43-.07-.78a3.6,3.6,0,0,1,.1-1.14,3,3,0,0,1,.32-1.25c6-1.66,5.22-6.23,9.15-8.78l.31-.3,2.14-.77c-.88.09-2,.58-2.67.3a13.15,13.15,0,0,0,.53-1.53,5.48,5.48,0,0,0-2.45,2.79,2.86,2.86,0,0,0-.5,1.18,30.45,30.45,0,0,1-1.78,3.21.69.69,0,0,0-.14.33,18.76,18.76,0,0,1-1.88,1.78,14.41,14.41,0,0,1-2.48,1c-1.52-.42-2.58-1.75-3.39-3.55a10.61,10.61,0,0,1,.6-8.07c-.92.13-2.09,1-2.87.6-.18-.15-.28-.47-.5-.53l-.16-.42a12.63,12.63,0,0,1-2.24-5.1,4.78,4.78,0,0,1-.09-.82c0-.09.11-.16.12-.24s-.11-.21-.11-.29a4.91,4.91,0,0,1,.14-.63,4.49,4.49,0,0,1,1.56-2.66c-.48-.38-.83-.06-1.18.43s-.63,1.28-1.78,1.35c-.17-.11-.24-.43-.44-.5-1.15-1.87-1.69-4.25-.86-5.7-1.63-.58-2.62-2.39-3.32-4.76.39-.5,1-.91,1.22-1.49-.19-.06-.33.2-.41.3l-.41.15c-2.28,2.25,1.51,6.79,1.88,9.94,0,.07-.08.14-.08.22,0,.32.1.47,0,.73a14.35,14.35,0,0,0-5.05,2.58c0,.25.25-.05.26.15,1.52-.39,3.19-1.36,4.71-1.51a6.69,6.69,0,0,1,2.54,2.33c1.56,3.67-4.78,6.39-8.57,6.65a7.14,7.14,0,0,1-.93.15c-.08,0-.12-.12-.2-.12s-.29.1-.44.06c-.54-.14-.84-.86-1.28-1.11a10.66,10.66,0,0,1-1.19-2.76,9.93,9.93,0,0,1,.16-3.4c.29-.43.4-.93.64-1.37-.18-.18-.4.07-.48.22-.51.16-.66.46-1.23.59a7,7,0,0,1-.69-.19,4.94,4.94,0,0,1-1-3.11c0-.27.26-.48.16-.72a13.84,13.84,0,0,0,1.76-4,1.11,1.11,0,0,0-1-.08c-.51-.23-1.22-.24-1.55-.87a18.53,18.53,0,0,1-.53-1.91,1.83,1.83,0,0,0,0-.9c.19-.46.37-.94.57-1.4a11.57,11.57,0,0,1,1.25-1.11c.46-.26,1-.39,1.51-.69-.19-1-1.65-.52-1.48-1.52.24-1.38,3.55-1.8,2.35-3.8-.27.09-.27.35-.39.52a15,15,0,0,0-1.91,2.7c-.05.13,0,.3-.11.41-.63.1-.92-.45-1.35-.75a2.59,2.59,0,0,1-.24-1.24c.1-.13.24-.24.15-.44a5.26,5.26,0,0,1,1.43-1.61c0-.1.19-.11.12-.23a9.05,9.05,0,0,1,3.63-1.5c.09,0,.21,0,.32,0a1.57,1.57,0,0,1,.47,0c.29.06,1.15.25,1.23.55a1.74,1.74,0,0,1-.35.75c-.36.41-1,.67-1.08,1.15a3.68,3.68,0,0,1,2.18,1c1,1.45,1.36,3.94,2.52,5,.18-.08.13-.25.1-.42.59-1.29,1.46-2.46,1.93-3.79-.78.24-.91,1.28-2.06,1.26-1.09-1.86-1.37-4.15-.5-5.53-.1-.24-.42-.06-.58-.17a1.49,1.49,0,0,1-1.67-.07c-.57-1.39.22-2.2.55-3.2l.09,0c.38,0,.8.06,1.26.07a10.33,10.33,0,0,0,1.25,0c.11,0,.24-.14.36-.14s.19.1.29.09.25-.12.37-.13.15.11.24.1.25-.12.36-.13.22.08.34.07.25-.11.36-.13a8.65,8.65,0,0,1,1.2.05,11.79,11.79,0,0,1,1.19,0c.11,0,.29.1.52.15a6.38,6.38,0,0,1,.91.24s0,.14.06.17.34,0,.45.12a4.2,4.2,0,0,1,.64.63c.18.31.07.48.08.78-.28.18-.54.36-.84.54,1.09.31,2.89-.24,3.21,1.18.13.62-.39,1.12,0,1.94s1.38,1.07,1.86,1.86c.14.24.22.54.41.85,2.88.12,5.9.72,6.78,4.24a12.82,12.82,0,0,0-2.26.9c1.09,1.17,3.61-.42,5.31-.43a10.65,10.65,0,0,0-1.73-1.24,3.39,3.39,0,0,0-.88-.59,7.68,7.68,0,0,0-1.08-1c-.17-.45-.91-.79-.61-1.26.21,0,.46,0,.56.28,1.77.8,3.74,1.18,5.44,2.09.18.25.42.39.67.71,0,.05.15,0,.18.08a3.52,3.52,0,0,1,.78,2.57.64.64,0,0,1,0,.52,26.78,26.78,0,0,0-2.92.91,6.32,6.32,0,0,0-3.33,3.2,7.36,7.36,0,0,0-.05,2.16c1.21-1.85,1.5-4.09,4.78-5.06.52.08,1.25-.23,1.73,0,.31-.21,0-.68,0-1s.14-.6.24-.89l.54-.2c1.46.29,1.56,2.69,1.75,4-5.56,1.52-4.82,5.92-9.85,7.55-1.4-2.15-2.05-5.45-3.32-7.81-.38-.69-.93-1.17-1.22-1.8-.08,0-.11-.11-.23-.07a6,6,0,0,0-1.54-1.58c.21-1.05,2-1.46,2.3-2.45,0-.2-.22-.05-.27-.19-.83.29-1.49,1.77-2.52,1.29-.14-.07-.17-.2-.35-.4-1.21-1.28-3-4.07-2.58-6A9.26,9.26,0,0,1,180,326.3c-.19.65.44,1.26.72,1.56.09.1.14.28.24.38a7.93,7.93,0,0,0,.74.64,3.11,3.11,0,0,0,1.11.65,1.34,1.34,0,0,0,.78.44,5.28,5.28,0,0,1,.24,1.24c1.19,4.9,4.43,7.14,6.67,10.23a11.23,11.23,0,0,1,1.62,4.51c0,.24,0,.53,0,.77a4.34,4.34,0,0,0,0,.76c.1.3.64.65.94,1s.32.61.57,1a11.82,11.82,0,0,1,1.63,3.95,8.29,8.29,0,0,0-2.08,5.65c.23-.12.16-.52.24-.75a9.62,9.62,0,0,1,3.46-4.11c0-.12.25-.11.17-.25,1-.61,1.91-1.26,2.82-1.92a2.34,2.34,0,0,0,1-.6c-.65.14-1.4.21-2,.29a28,28,0,0,0-3,.84c-.39-.75-.64-1.75-1-2.59a6.33,6.33,0,0,1,1.47-.92,11.52,11.52,0,0,0,2.25-1.9.25.25,0,0,0,.08-.22,7.26,7.26,0,0,0,1.59-1.86c.91-.91,1.75-1.86,2.72-2.74.47-.13.52-.43,1-.55a2.28,2.28,0,0,1,1.07-.62,6.37,6.37,0,0,0,.65.09.21.21,0,0,0,.27.19,10,10,0,0,1,1.17,3.25,28.45,28.45,0,0,0-5,5.89,10.69,10.69,0,0,0,2.23-1.66l.27-.1a15.32,15.32,0,0,0,2.46-2.74,2.66,2.66,0,0,1,.27-.71c.07-.2.08-.54.39-.62a4.06,4.06,0,0,1,1.55,2.73c0,.25-.1.51.06.74-.17,0,0,.15-.15.15a7.26,7.26,0,0,1-.84,3,9.59,9.59,0,0,1-.51,1.57c0,.57-.14,1.11-.17,1.68.37.69,0,.89-.51,1.32a2.88,2.88,0,0,1-.5.47c-.1,0-.27.06-.36.13s-.14.21-.22.26c-1,.63-2.22,1-3,1.4.76,0,1.64-.25,2.36-.18l.5,1.39a.49.49,0,0,0,.11-.56,6.9,6.9,0,0,1,3.38-3.79c-.37-.17-.59-.6-.89-.87-.52-1.82.79-2.86.76-4.47C209.73,349.67,210.19,350.21,210.46,350.53Zm-9.27,23.91c.33-.43.86-.78.73-1.4a10.87,10.87,0,0,0-3.8.75c-1.07.38-2.29.89-2.43,1.83A8.23,8.23,0,0,0,201.19,374.44Zm-13.47-23.11c.89-.74,2.77-1.26,2.26-2.48C188.69,349.43,187.64,350.29,187.72,351.33Zm-4.28-12.18c-.11-.16.28-.1.11-.28s-.38.12-.56.16c-.6-.2-.53-1.42-1-1.74l-.27.09c-.29.92-.6,2.58.47,3.31C182.05,339.94,182.68,339.52,183.44,339.15Zm-8.67,2.65c-.11-.25-.45-.06-.6-.22-.32-.59.05-.89.16-1.29a13.37,13.37,0,0,1-2.09,1.22c-.85.68-2.6,1.16-2.29,2.21.23-.12.14-.37.21-.55.26-.16.38-.41.67-.58a7.47,7.47,0,0,1,2.4-.62A3.75,3.75,0,0,0,174.77,341.8Zm-3.09-3.57c-.42-1.35.33-2.21-.22-3.63-.9.3-.76,1-1,1.61.16,0,.25.17.39.23s.11.5.17.76S171.27,338.41,171.68,338.23Z"/><path d="M212,360.88c.69,1.36.37,2.6.45,3.84-.22.79-.33,1.64-.5,2.46a25.54,25.54,0,0,1-1.35,3c-.2,0-.05.17-.25.18-.18.6-.88,1-1.2,1.53-.27,0-.34.26-.53.38a9.83,9.83,0,0,1-2.6.94c0-.08-.06-.07-.12-.06-.11-.64.19-1.12-.32-2a19.91,19.91,0,0,0,2.25-1.05c2.81-2.39,2.64-6,3.83-9.1C211.83,360.86,211.88,361,212,360.88Z"/><path d="M197.06,330.2a14.67,14.67,0,0,1,1.93,2.35c-3.88,1.18-4.36-4.78-7.57-5.14,0,0,0,.12-.1.14.83,1.16,2.49,1.47,2.7,3.36-2.91.33-5.38-.19-6.65-3-.05-.13.12-.16,0-.3.26-.06.39-.27.63-.41a6.77,6.77,0,0,1,3.14-.85A9.51,9.51,0,0,1,197.06,330.2Z"/><path d="M210.1,372c.27.45-.4,1-.71,1.45s-.54.77-.81,1.19c-.11.18-.11.31-.29.49a4.74,4.74,0,0,0-.38.52c-.12.17-.25.37-.33.5s-.43.66-.64.94-.87.9-1.22,1.35c0,.05,0,.17-.07.21s-.32.17-.38.23a2.88,2.88,0,0,1-.66.62c-.12.08-.14.24-.24.33a13.74,13.74,0,0,1-1.84,1.33c-.22.13-.76.3-.94.53a6.28,6.28,0,0,0-1.58.76,19.21,19.21,0,0,1-3.42.94c-.58-1.66-2.72-2.42-2.07-4.31a8.39,8.39,0,0,0,2.75.21,17.19,17.19,0,0,0,6.14-2.4c0,.09.09.05.17,0,0,1.85-2.19,2.79-3.53,4.08.36.18.85-.22,1.2-.38a6.78,6.78,0,0,0,1-.65c.08-.05.2-.05.27-.1a8.8,8.8,0,0,0,.74-.65,6.41,6.41,0,0,0,2.1-4.61,19.22,19.22,0,0,0,2.19-.79A25.44,25.44,0,0,1,210.1,372Z"/><path d="M188.89,324.37c.09.35.33.41.39.81a2.34,2.34,0,0,1-1.37.92,1.91,1.91,0,0,1-.48.08,3.79,3.79,0,0,1-2.69-1.46,1.9,1.9,0,0,1-.11-1.58l.09,0c.91,0,1.68.31,2.56.37A16.94,16.94,0,0,1,188.89,324.37Z"/><path d="M201.92,373c.13.62-.4,1-.73,1.4a8.23,8.23,0,0,1-5.5,1.18c.14-.94,1.36-1.45,2.43-1.83A10.87,10.87,0,0,1,201.92,373Z"/><path d="M190,348.85c.51,1.22-1.37,1.74-2.26,2.48C187.64,350.29,188.69,349.43,190,348.85Z"/><path d="M183.55,338.87c.17.18-.22.12-.11.28-.76.37-1.39.79-1.24,1.54-1.07-.73-.76-2.39-.47-3.31l.27-.09c.46.32.39,1.54,1,1.74C183.17,339,183.42,338.81,183.55,338.87Z"/><path d="M188.69,365.61a10.49,10.49,0,0,1,1.11,4.22,1.92,1.92,0,0,1-.81.48c-2.54.89-3.59-1.72-5.85-1.52l-1.32.48a13,13,0,0,0-6.44-4.45,11.73,11.73,0,0,0-1.51-.31,5.23,5.23,0,0,0-1.27-.11c-.07,0-.15-.12-.2-.12s-.18.09-.27.09c-.29,0-.77-.12-1.13-.11-.16,0-.32.07-.48.07a6.77,6.77,0,0,0-.78,0c-.29,0-.49.2-.74.07-1.15.21-2.36.54-3.47.68-1.13.53-1,1.59-1.87,2.25,1.21-.24,2.76-1.46,4.15-1.5a9.12,9.12,0,0,1,2.49-.51c.36,0,1-.05,1.13.12.33.48-.49.93-.41,1.43.19,0,.39-.27.55-.34,2.27-1.16,4.09-.23,5.6.27.22.28.62.36.91.53a2.73,2.73,0,0,0,.95.47.8.8,0,0,0,.32.31c1.22.8,2.5,1.42,3.75,2.13a9,9,0,0,0,4.59.87c.12,0,.31,0,.42,0a13,13,0,0,1,1.48-.34l1.65,4.6a8.18,8.18,0,0,1-5.58,3.53,9.4,9.4,0,0,1-1.84,0c-.08,0-.1-.1-.19-.11-.45-.09-1.2-.06-1.66-.18-.15,0-.24-.24-.41-.13.18.74,1.36.17,1.67.92a2.79,2.79,0,0,1,0,.82,1.24,1.24,0,0,1-.87.12l-.37.14a5.46,5.46,0,0,1-4.47-1.26.81.81,0,0,0-.39-.52c-.18-.33-.22-.92-.49-1.06-.23.08-.11.37-.07.5.13.54.7,1.2.62,1.73-3.73,1.23-6.71,1-8.12-2.22-.18.44-.38,1-1.2,1.09a.47.47,0,0,0-.45-.12,22,22,0,0,1-3.19-2.57c-.2-.08-.5-.15-.48-.45.59-.25.89.06,1.45-.14,0,.16.16,0,.15.14a16.37,16.37,0,0,1,2.9.05l.37-.13a10.15,10.15,0,0,0,2.17-.11c-1.94-1.05-5.34.71-6.73-1.39.14-.42.58-.71.91-1.05,3.12-1.47,4.25.87,6.69.69.86.94-.16,2.52,1.05,3.06.69-.61.39-1.65-.06-2.74.23-.35.53-.21.8-.2s.55-.1.75-.08.53.13.79.19c2.39.58,4.7,2.45,7.52,2.16.4,0,.79-.19,1.2-.24.39-.41-.38-1.15-.21-1.59a1,1,0,0,0,.33-.36c-.06-.21-.38.07-.49-.07-.53.49-1.44.82-2,1.3a6.7,6.7,0,0,1-1.44.42,9.92,9.92,0,0,1-3.83-2.48c-.37-.46-.5-1.12-.9-1.63,0-.63-.4-1.4-.45-2.12-.07,0-.13.05-.16,0-1.14.55.49,1.84.43,2.9-4.55,2.46-6.39-.89-8.48-3.38-.16.05-.09.2-.21.27.2.94.85,1.63.88,2.44l-3.52,1.27c-.8-1.3-2.19-1.48-2.82-3.13a8.89,8.89,0,0,1,2.84-2.26,3.46,3.46,0,0,1-4.27-1.13c-.43-1.26-1.15-2.64-.64-3.49,2.16-1.11,3.82-2.43,6-3.54.2.46-.14.68,0,1.11.69-1.37,1-2.9,2.81-3.78a1,1,0,0,1,1.05-.38c1.63-.4,2.64.39,3.63,1.22,2.05-.64,4-1.56,5.93-2,.2-.05.44,0,.65-.05a7.4,7.4,0,0,1,2.92-.05,5.07,5.07,0,0,1,3.87,4.61,2.08,2.08,0,0,1-1.49.87,10.34,10.34,0,0,0,1.33.67c.29.18.45.54.83.6a17.28,17.28,0,0,1,2.16,2.7Z"/><path d="M192.3,378.78c.54.1,1.29.58,1.21,1.34s-1.3,1.61-1.59,2.19c-.25.07-.4.18-.44.35a2.13,2.13,0,0,0,1.28-.46c.81-.16,1.61-.3,2.08.2a3.23,3.23,0,0,1-1.37,3.49c-3.09,1.62-6.3,1.52-9.27,2-.11-.17.07-.21,0-.34,2.94-2.07,7.36-.77,9.79-3.29-.66-.37-1.52.16-2.39.53a23.12,23.12,0,0,1-2.28.82c-.18-.11-.22-.47-.38-.63-.18,0-.25-.18-.48-.07-.06-.07,0-.31-.19-.21a3.06,3.06,0,0,1,.31-2.16,3,3,0,0,1,.53-.82C190.07,380.79,191.65,379.85,192.3,378.78Z"/><path d="M191.38,375.78c1.4,1,.59,2.39-.38,3.24-.41.36-.73.54-1.17.9-.08.06-.1.19-.17.25-.27.2-.59.28-.8.48s-.06.18-.13.23-.22.05-.32.12c-.54.37-.74,1-1.12,1.31-.15.36-.17.79-.31,1.16-1.94.41-4.28,1.58-6,1.59-.52-1.7-2.58-.44-3-2.29-1,.17-1.92.31-2.88.46,0-.14-.23.07-.24-.1l-.36.13c-.9-.1-1.8-.2-2.69-.32-.77-.28-1.54-.57-2.31-.83a14.62,14.62,0,0,0-1.79-1.12c-.2-.44-.8-.48-.86-.93,0-.05,0-.09,0-.1.35-.27.82-.18,1.23-.3.12.14.33.13.55.08,2.35.83,5.18,2.88,8.61.48.61.17,1.2.92,1.87,1.33a2.57,2.57,0,0,0,1.35.46,6.4,6.4,0,0,0,1.3-.7,15.46,15.46,0,0,1,3-.94c.77-.2,1.52-.57,2.32-.74,2.31-.48,4.13-2.06,4.1-3.76Z"/><path d="M174.17,341.58c.15.16.49,0,.6.22a3.75,3.75,0,0,1-1.54.17,7.47,7.47,0,0,0-2.4.62c-.29.17-.41.42-.67.58-.07.18,0,.43-.21.55-.31-1.05,1.44-1.53,2.29-2.21a13.37,13.37,0,0,0,2.09-1.22C174.22,340.69,173.85,341,174.17,341.58Z"/><path d="M171.46,334.6c.55,1.42-.2,2.28.22,3.63-.41.18-.58-.63-.68-1s0-.59-.17-.76-.23-.21-.39-.23C170.7,335.64,170.56,334.9,171.46,334.6Z"/><path d="M166.14,332.85c.07.17-.26.65-.37.84s-.31.59-.43.82c-.32.69-.46,1.22-.66,1.72a14.25,14.25,0,0,0-.13,2.38,8.36,8.36,0,0,0,.76,2.11c.27.44.75.75.81,1.23a4.77,4.77,0,0,0-1,2.61c0,.11.11.21.12.34s-.1.22-.09.31a6.77,6.77,0,0,0,.7,2.23c.24.5.36,1,.66,1.57.14.25.31.44.51.82.29.55.85.94.91,1.53-.56.24-.9.07-1.36.11a3.87,3.87,0,0,1,2.77,3.82,8.31,8.31,0,0,0-2.92.47c-2.28,1.14-3.07,3.48-5.35,4.6l-1.59.57a.24.24,0,0,0-.25-.1c-.36-1-1-1.41-1.3-2.49.14-.29-.13-.76.09-1,.51-.16.71.71,1.29.58a1.71,1.71,0,0,0,.74-.65,9.79,9.79,0,0,0,.95-2.1l.41-.14c.55.21.83,1,1.76.46-.61-1.75-3.32-.08-4.88-.25a5.22,5.22,0,0,1-.7-3.37,2.89,2.89,0,0,1,1.69-2.46,2.5,2.5,0,0,1,1.86.28c-.79-3.47-.32-6.42,3-8.17-.45-.36-1.64.4-2.51.62s-1.09-.2-1.2-1.19a2.25,2.25,0,0,1,.09-.61c0-.12-.12-.23-.12-.33,0-.26.22-.47.11-.71-.31.15-.27.43-.32.69l-.37.13a1.18,1.18,0,0,1-.29-.52c-.21-.85.81-2.36,1.54-2.88a6.35,6.35,0,0,1,.74-.37c.72-1.87.16-4.29,3.18-5.19.2.39,0,.6,0,.94a1.9,1.9,0,0,0,.73.6C165.9,332.75,166.06,332.68,166.14,332.85Z"/><path d="M183.75,385.35l.12.33a9.11,9.11,0,0,1-5.2,1l0-.13a6.38,6.38,0,0,1-4.3-2.22c0-.15-.17-.36-.12-.48a6.34,6.34,0,0,1,3-.21c.13.1.24.22.46.13,1,.54,2.16.88,3.19,1.42.51.07,1,.18,1.49.28l.28-.1c0,.15.16,0,.15.13A3.56,3.56,0,0,1,183.75,385.35Z"/><path d="M159.63,342.1a.23.23,0,0,0,.18.22c.29,2.33,1.52,5.24-1.6,6C157.9,346.06,156.88,343.18,159.63,342.1Z"/><path d="M56.92,376a36.48,36.48,0,0,1-1-21s-8-12,0-11,6.75-4,5.38,5-1.38,4-1.38,4,12,16,9,25c0,0,4-10,19-1,0,0,9-13,20-9s3,18,3,18-23,13-49,4h0Z"/><path class="cls-3" d="M24.27,331.13h3.82l1.76,19.37h.08l1.87-19.37h4.32L38,350.5h.07l1.77-19.37h3.42l-2.56,25.2H35.76l-1.8-17h-.07l-1.8,17H26.83Z"/><path class="cls-3" d="M45.26,331.13h10.8v3.6H49.22v6.66h5.44V345H49.22v7.74h6.84v3.6H45.26Z"/><path class="cls-3" d="M61.39,331.13h5.36l4.11,25.2h-4l-.72-5v.07h-4.5L61,356.33H57.29ZM65.71,348,64,335.52h-.08L62.15,348Z"/><path class="cls-3" d="M72.77,331.13H78.6A5.8,5.8,0,0,1,83,332.71a6.62,6.62,0,0,1,1.47,4.65v2.48A6.62,6.62,0,0,1,83,344.49a5.8,5.8,0,0,1-4.43,1.58H76.73v10.26h-4Zm5.83,11.34a1.89,1.89,0,0,0,1.46-.54,2.76,2.76,0,0,0,.48-1.84v-3a2.76,2.76,0,0,0-.48-1.84,1.89,1.89,0,0,0-1.46-.54H76.73v7.74Z"/><path class="cls-3" d="M87.92,355a6.59,6.59,0,0,1-1.55-4.68V337.11a6.59,6.59,0,0,1,1.55-4.68,6.83,6.83,0,0,1,8.93,0,6.59,6.59,0,0,1,1.55,4.68v13.24A6.59,6.59,0,0,1,96.85,355a6.83,6.83,0,0,1-8.93,0Zm6.52-4.42V336.85c0-1.65-.69-2.48-2-2.48s-2.06.83-2.06,2.48v13.76c0,1.65.69,2.48,2.06,2.48S94.44,352.26,94.44,350.61Z"/><path class="cls-3" d="M101.06,331.13h5l3.85,15.08H110V331.13h3.53v25.2h-4.07l-4.75-18.4h-.07v18.4h-3.53Z"/><rect x="130.92" y="354" width="5" height="24"/><rect x="120.92" y="363" width="25" height="5"/></g><g id="personality"><path class="cls-3" d="M27.86,433.05H33.2a5.31,5.31,0,0,1,4.06,1.45,6.05,6.05,0,0,1,1.36,4.26V441a6.05,6.05,0,0,1-1.36,4.26,5.31,5.31,0,0,1-4.06,1.45H31.49v9.4H27.86Zm5.34,10.4a1.71,1.71,0,0,0,1.34-.5,2.49,2.49,0,0,0,.45-1.68v-2.74a2.49,2.49,0,0,0-.45-1.68,1.71,1.71,0,0,0-1.34-.5H31.49v7.1Z"/><path class="cls-3" d="M40.6,433.05h9.9v3.3H44.23v6.11h5v3.3h-5v7.09H50.5v3.3H40.6Z"/><path class="cls-3" d="M52.57,433.05H58a5.57,5.57,0,0,1,4.1,1.31,5.53,5.53,0,0,1,1.28,4v1.42q0,3.58-2.37,4.55v.07A2.81,2.81,0,0,1,62.82,446a8.24,8.24,0,0,1,.55,3.27v4.06c0,.66,0,1.19.06,1.6a4.29,4.29,0,0,0,.33,1.2H60.07a5.08,5.08,0,0,1-.27-1,17.53,17.53,0,0,1-.06-1.78v-4.23a3.6,3.6,0,0,0-.52-2.21,2.15,2.15,0,0,0-1.76-.63H56.2v9.9H52.57Zm5,9.9a2.16,2.16,0,0,0,1.64-.56,2.66,2.66,0,0,0,.54-1.88v-1.78a3,3,0,0,0-.44-1.82,1.71,1.71,0,0,0-1.41-.56H56.2V443Z"/><path class="cls-3" d="M66.6,455a6.21,6.21,0,0,1-1.35-4.3v-1.32h3.43v1.58c0,1.5.63,2.24,1.88,2.24a1.78,1.78,0,0,0,1.4-.54,2.64,2.64,0,0,0,.48-1.77,4.87,4.87,0,0,0-.66-2.55,12,12,0,0,0-2.44-2.66,14.64,14.64,0,0,1-3.14-3.58,7.36,7.36,0,0,1-.89-3.62,6,6,0,0,1,1.39-4.24,5.19,5.19,0,0,1,4-1.5,5,5,0,0,1,4,1.5A6.3,6.3,0,0,1,76,438.53v1H72.57V438.3a2.63,2.63,0,0,0-.46-1.73,1.69,1.69,0,0,0-1.35-.55c-1.21,0-1.82.74-1.82,2.21a4.4,4.4,0,0,0,.68,2.35,13.17,13.17,0,0,0,2.46,2.64,13.59,13.59,0,0,1,3.13,3.59,8,8,0,0,1,.86,3.8,6.2,6.2,0,0,1-1.4,4.35,5.27,5.27,0,0,1-4.08,1.52A5.09,5.09,0,0,1,66.6,455Z"/><path class="cls-3" d="M79.3,455a6.06,6.06,0,0,1-1.42-4.28V438.53a6.07,6.07,0,0,1,1.42-4.29,6.28,6.28,0,0,1,8.19,0,6.07,6.07,0,0,1,1.42,4.29v12.15A6.06,6.06,0,0,1,87.49,455a6.28,6.28,0,0,1-8.19,0Zm6-4V438.3c0-1.52-.63-2.28-1.88-2.28s-1.88.76-1.88,2.28v12.61c0,1.51.62,2.27,1.88,2.27S85.28,452.42,85.28,450.91Z"/><path class="cls-3" d="M91.35,433.05H95.9l3.53,13.83h.07V433.05h3.23v23.1H99l-4.35-16.86h-.07v16.86H91.35Z"/><path class="cls-3" d="M108.24,433.05h4.92l3.76,23.1h-3.63l-.66-4.58v.06h-4.12l-.66,4.52h-3.37Zm4,15.45-1.61-11.42h-.07l-1.58,11.42Z"/><path class="cls-3" d="M118.67,433.05h3.63v19.8h6v3.3h-9.6Z"/><path class="cls-3" d="M130,433.05h3.63v23.1H130Z"/><path class="cls-3" d="M139.2,436.35h-3.8v-3.3h11.22v3.3h-3.79v19.8H139.2Z"/><path class="cls-3" d="M151.84,446.32l-4.39-13.27h3.86l2.47,8.48h.07l2.47-8.48h3.53l-4.38,13.27v9.83h-3.63Z"/><circle class="cls-4" cx="113.92" cy="565" r="89"/><path class="cls-5" d="M112.42,565l-87.19,7.45C29,618.31,67.18,654,112.42,654c48,0,87.5-40.18,87.5-89Z"/><path class="cls-6" d="M111.92,566l54.6,70.28A89,89,0,0,0,200.92,566c0-48.82-40.18-89-89-89a89.05,89.05,0,0,0-67.38,30.85Z"/><path class="cls-3" d="M134.55,527.61h2.28a2,2,0,0,1,2.28,2.25v.6c0,1-.33,1.66-1,1.93v0a1.21,1.21,0,0,1,.79.69,3.51,3.51,0,0,1,.23,1.38v1.72a6,6,0,0,0,0,.68,1.39,1.39,0,0,0,.14.52h-1.57a1.64,1.64,0,0,1-.11-.45,6.3,6.3,0,0,1,0-.76v-1.79a1.49,1.49,0,0,0-.22-.94.9.9,0,0,0-.75-.26h-.53v4.2h-1.54Zm2.1,4.2a.9.9,0,0,0,.69-.24,1.11,1.11,0,0,0,.23-.8V530a1.3,1.3,0,0,0-.18-.77.73.73,0,0,0-.6-.24h-.7v2.81Z"/><path class="cls-3" d="M141.38,527.61h2.09l1.59,9.8h-1.54l-.28-1.95v0h-1.75l-.28,1.92h-1.42Zm1.68,6.55-.68-4.85h0l-.67,4.85Z"/><path class="cls-3" d="M146.25,536.91a2.61,2.61,0,0,1-.58-1.83v-5.15a2.63,2.63,0,0,1,.58-1.83,2.6,2.6,0,0,1,3.42,0,2.63,2.63,0,0,1,.59,1.83v.84H148.8v-.94c0-.64-.26-1-.8-1s-.79.32-.79,1v5.36c0,.64.26,1,.79,1s.8-.32.8-1v-1.91H148v-1.4h2.23v3.2a2.61,2.61,0,0,1-.59,1.83,2.64,2.64,0,0,1-3.42,0Z"/><path class="cls-3" d="M151.25,527.61h4.2V529h-2.66v2.6h2.12V533h-2.12v3h2.66v1.41h-4.2Z"/><path class="cls-3" d="M34.55,546.61H36.9a2.23,2.23,0,0,1,1.72.61A2.52,2.52,0,0,1,39.2,549v5a2.52,2.52,0,0,1-.58,1.81,2.23,2.23,0,0,1-1.72.62H34.55ZM36.87,555a.72.72,0,0,0,.58-.22,1,1,0,0,0,.21-.73V549a1,1,0,0,0-.21-.73.72.72,0,0,0-.58-.23h-.78v7Z"/><path class="cls-3" d="M40.23,546.61h4.2V548H41.77v2.6h2.12V552H41.77v3h2.66v1.41h-4.2Z"/><path class="cls-3" d="M45.32,546.61h2.26a2.27,2.27,0,0,1,1.73.61,2.57,2.57,0,0,1,.57,1.81v1a2.57,2.57,0,0,1-.57,1.81,2.27,2.27,0,0,1-1.73.62h-.72v4H45.32ZM47.58,551a.71.71,0,0,0,.57-.21,1.05,1.05,0,0,0,.19-.72v-1.16a1.07,1.07,0,0,0-.19-.72.75.75,0,0,0-.57-.21h-.72v3Z"/><path class="cls-3" d="M50.72,546.61H53a2,2,0,0,1,2.28,2.25v.6c0,1-.33,1.66-1,1.93v0a1.21,1.21,0,0,1,.79.69,3.51,3.51,0,0,1,.23,1.38v1.72a6,6,0,0,0,0,.68,1.39,1.39,0,0,0,.14.52H53.9a1.64,1.64,0,0,1-.11-.45,6.3,6.3,0,0,1,0-.76v-1.79a1.49,1.49,0,0,0-.22-.94.9.9,0,0,0-.75-.26h-.53v4.2H50.72Zm2.1,4.2a.9.9,0,0,0,.69-.24,1.11,1.11,0,0,0,.23-.8V549a1.3,1.3,0,0,0-.18-.77A.73.73,0,0,0,53,548h-.7v2.81Z"/><path class="cls-3" d="M56.36,546.61h4.2V548H57.9v2.6H60V552H57.9v3h2.66v1.41h-4.2Z"/><path class="cls-3" d="M61.78,555.91a2.66,2.66,0,0,1-.57-1.83v-.56h1.45v.67c0,.64.27,1,.8,1a.75.75,0,0,0,.6-.24,1.13,1.13,0,0,0,.2-.74,2.13,2.13,0,0,0-.28-1.09,5.24,5.24,0,0,0-1-1.13,6.13,6.13,0,0,1-1.33-1.52,3.1,3.1,0,0,1-.38-1.53,2.58,2.58,0,0,1,.59-1.8,2.22,2.22,0,0,1,1.71-.64,2.13,2.13,0,0,1,1.67.64,2.67,2.67,0,0,1,.57,1.83v.4H64.31v-.5a1.12,1.12,0,0,0-.19-.73.69.69,0,0,0-.58-.23c-.51,0-.77.31-.77.93a1.88,1.88,0,0,0,.29,1,5.51,5.51,0,0,0,1,1.12,5.71,5.71,0,0,1,1.33,1.52,3.33,3.33,0,0,1,.37,1.61,2.61,2.61,0,0,1-.6,1.85,2.22,2.22,0,0,1-1.73.64A2.17,2.17,0,0,1,61.78,555.91Z"/><path class="cls-3" d="M67,555.91a2.61,2.61,0,0,1-.58-1.83v-.56h1.46v.67c0,.64.27,1,.8,1a.72.72,0,0,0,.59-.24,1.07,1.07,0,0,0,.21-.74,2.13,2.13,0,0,0-.28-1.09,5.52,5.52,0,0,0-1-1.13,5.93,5.93,0,0,1-1.33-1.52,3.1,3.1,0,0,1-.38-1.53,2.58,2.58,0,0,1,.59-1.8,2.22,2.22,0,0,1,1.71-.64,2.15,2.15,0,0,1,1.67.64,2.67,2.67,0,0,1,.57,1.83v.4H69.52v-.5a1.06,1.06,0,0,0-.2-.73.69.69,0,0,0-.57-.23c-.51,0-.77.31-.77.93a1.88,1.88,0,0,0,.29,1,5.51,5.51,0,0,0,1,1.12,5.89,5.89,0,0,1,1.33,1.52,3.44,3.44,0,0,1,.37,1.61,2.61,2.61,0,0,1-.6,1.85,2.23,2.23,0,0,1-1.73.64A2.16,2.16,0,0,1,67,555.91Z"/><path class="cls-3" d="M71.89,546.61h4.2V548H73.43v2.6h2.11V552H73.43v3h2.66v1.41h-4.2Z"/><path class="cls-3" d="M77,546.61h2.35a2.23,2.23,0,0,1,1.72.61,2.52,2.52,0,0,1,.58,1.81v5a2.52,2.52,0,0,1-.58,1.81,2.23,2.23,0,0,1-1.72.62H77ZM79.29,555a.72.72,0,0,0,.58-.22,1,1,0,0,0,.21-.73V549a1,1,0,0,0-.21-.73.72.72,0,0,0-.58-.23h-.78v7Z"/><path class="cls-3" d="M60.55,604.61h1.54v9.8H60.55Z"/><path class="cls-3" d="M63.24,604.61h1.93l1.5,5.86h0v-5.86h1.37v9.8H66.49l-1.85-7.16h0v7.16H63.24Z"/><path class="cls-3" d="M70.42,606H68.81v-1.39h4.76V606H72v8.41H70.42Z"/><path class="cls-3" d="M74.31,604.61h4.2V606H75.85v2.6H78V610H75.85v3h2.66v1.41h-4.2Z"/><path class="cls-3" d="M79.39,604.61h1.54V613h2.54v1.41H79.39Z"/><path class="cls-3" d="M84.21,604.61h1.54V613h2.53v1.41H84.21Z"/><path class="cls-3" d="M89,604.61h1.54v9.8H89Z"/><path class="cls-3" d="M92.19,613.91a2.61,2.61,0,0,1-.59-1.83v-5.15a2.63,2.63,0,0,1,.59-1.83,2.22,2.22,0,0,1,1.71-.64,2.25,2.25,0,0,1,1.71.64,2.63,2.63,0,0,1,.58,1.83v.84H94.74v-.94c0-.64-.27-1-.8-1s-.8.32-.8,1v5.36c0,.64.27,1,.8,1s.8-.32.8-1v-1.91H94v-1.4h2.22v3.2a2.61,2.61,0,0,1-.58,1.83,2.25,2.25,0,0,1-1.71.63A2.22,2.22,0,0,1,92.19,613.91Z"/><path class="cls-3" d="M97.19,604.61h4.2V606H98.73v2.6h2.11V610H98.73v3h2.66v1.41h-4.2Z"/><path class="cls-3" d="M102.27,604.61h1.93l1.5,5.86h0v-5.86h1.37v9.8h-1.58l-1.85-7.16h0v7.16h-1.37Z"/><path class="cls-3" d="M108.73,613.92a2.53,2.53,0,0,1-.58-1.78v-5.27a2.5,2.5,0,0,1,.58-1.77,2.16,2.16,0,0,1,1.69-.64,2.14,2.14,0,0,1,1.68.64,2.5,2.5,0,0,1,.58,1.77v1h-1.45v-1.13c0-.61-.26-.91-.77-.91s-.77.3-.77.91v5.47c0,.6.25.9.77.9s.77-.3.77-.9v-1.5h1.45v1.39a2.53,2.53,0,0,1-.58,1.78,2.2,2.2,0,0,1-1.68.62A2.22,2.22,0,0,1,108.73,613.92Z"/><path class="cls-3" d="M113.61,604.61h4.2V606h-2.66v2.6h2.11V610h-2.11v3h2.66v1.41h-4.2Z"/></g><g id="frenemies"><line class="cls-7" x1="22.92" y1="843" x2="210.92" y2="843"/><rect class="cls-8" x="145.92" y="760.5" width="50.5" height="80.5"/><path class="cls-3" d="M27.61,831.2v-4.65h1.6v2.89h3.12v-2.27h1.6v2.27h4.88v1.76Z"/><path class="cls-3" d="M27.61,825.7v-2.61a2.67,2.67,0,0,1,.63-2,2.66,2.66,0,0,1,2-.63h.68c1.17,0,1.9.39,2.21,1.15h0a1.39,1.39,0,0,1,.79-.9,3.85,3.85,0,0,1,1.58-.26h2a5.57,5.57,0,0,0,.78,0,1.8,1.8,0,0,0,.58-.16v1.8a2.67,2.67,0,0,1-.51.12,5.74,5.74,0,0,1-.87,0h-2a1.81,1.81,0,0,0-1.08.24,1.08,1.08,0,0,0-.3.86v.61h4.8v1.76Zm4.8-2.4a1,1,0,0,0-.27-.79,1.27,1.27,0,0,0-.91-.27h-.87a1.39,1.39,0,0,0-.88.22.81.81,0,0,0-.27.68v.8h3.2Z"/><path class="cls-3" d="M27.61,819.25v-1.76h11.2v1.76Z"/><path class="cls-3" d="M27.61,816.18v-4.8h1.6v3h3V812h1.6v2.42h3.44v-3h1.6v4.8Z"/><path class="cls-3" d="M27.61,810.37v-2.21l6.7-1.71v0h-6.7v-1.57h11.2v1.81l-8.18,2.11v0h8.18v1.57Z"/><path class="cls-3" d="M27.61,803.54v-2.69a2.57,2.57,0,0,1,.7-2,3,3,0,0,1,2.07-.65H36a3,3,0,0,1,2.07.65,2.57,2.57,0,0,1,.7,2v2.69Zm9.6-2.66a.85.85,0,0,0-.26-.66,1.18,1.18,0,0,0-.83-.23H30.3a1.18,1.18,0,0,0-.83.23.85.85,0,0,0-.26.66v.9h8Z"/><path class="cls-3" d="M38.24,796.69a3,3,0,0,1-2.09.66h-.64v-1.67h.77c.73,0,1.09-.3,1.09-.91a.88.88,0,0,0-.26-.68,1.34,1.34,0,0,0-.86-.23,2.41,2.41,0,0,0-1.24.32,5.86,5.86,0,0,0-1.29,1.18A6.94,6.94,0,0,1,32,796.88a3.56,3.56,0,0,1-1.76.44,2.9,2.9,0,0,1-2.05-.68,2.5,2.5,0,0,1-.73-1.95,2.41,2.41,0,0,1,.73-1.91,3,3,0,0,1,2.09-.65h.46v1.66h-.58a1.3,1.3,0,0,0-.84.23.84.84,0,0,0-.26.66c0,.58.36.87,1.07.87a2.09,2.09,0,0,0,1.14-.32A6.49,6.49,0,0,0,32.54,794a6.41,6.41,0,0,1,1.74-1.52,3.84,3.84,0,0,1,1.84-.42,3,3,0,0,1,2.11.68,2.56,2.56,0,0,1,.74,2A2.45,2.45,0,0,1,38.24,796.69Z"/><path class="cls-3" d="M27.61,788.53V786l8-1.12v0l-8-1.12v-2.51h11.2v1.66H30.33v0l8.48,1.28v1.47L30.33,787v0h8.48v1.53Z"/><path class="cls-3" d="M27.61,778.56v-2.38l11.2-1.82v1.76l-2.22.32h0v2l2.19.32v1.63Zm7.49-1.92-5.54.79v0l5.54.77Z"/><path class="cls-3" d="M27.61,773.51v-2.69a2.57,2.57,0,0,1,.7-2,3,3,0,0,1,2.07-.65H36a3,3,0,0,1,2.07.65,2.57,2.57,0,0,1,.7,2v2.69Zm9.6-2.66a.84.84,0,0,0-.26-.66,1.18,1.18,0,0,0-.83-.23H30.3a1.18,1.18,0,0,0-.83.23.84.84,0,0,0-.26.66v.9h8Z"/><path class="cls-3" d="M27.61,767v-4.8h1.6v3h3v-2.41h1.6v2.41h3.44v-3h1.6V767Z"/><path class="cls-3" d="M124.61,831.2v-4.8h1.6v3h3V827h1.6v2.41h3.44v-3h1.6v4.8Z"/><path class="cls-3" d="M124.61,825.39v-2.2l6.7-1.72v0h-6.7v-1.56h11.2v1.8l-8.18,2.11v0h8.18v1.56Z"/><path class="cls-3" d="M124.61,818.56v-4.8h1.6v3h3v-2.41h1.6v2.41h3.44v-3h1.6v4.8Z"/><path class="cls-3" d="M124.61,812.76v-2.52l8-1.12v0l-8-1.12v-2.51h11.2v1.66h-8.48v0l8.48,1.28v1.47l-8.48,1.28v0h8.48v1.54Z"/><path class="cls-3" d="M124.61,804.15v-1.76h11.2v1.76Z"/><path class="cls-3" d="M124.61,801.08v-4.8h1.6v3h3V796.9h1.6v2.42h3.44v-3h1.6v4.8Z"/><path class="cls-3" d="M135.24,794.88a3,3,0,0,1-2.09.66h-.64v-1.66h.77c.73,0,1.09-.31,1.09-.92a.9.9,0,0,0-.26-.68,1.34,1.34,0,0,0-.86-.23,2.41,2.41,0,0,0-1.24.32,5.7,5.7,0,0,0-1.29,1.19,7.38,7.38,0,0,1-1.73,1.52,3.67,3.67,0,0,1-1.76.43,2.94,2.94,0,0,1-2-.67,2.52,2.52,0,0,1-.73-2,2.41,2.41,0,0,1,.73-1.91,3,3,0,0,1,2.09-.65h.46V792h-.58a1.3,1.3,0,0,0-.84.22.84.84,0,0,0-.26.66c0,.59.36.88,1.07.88a2.1,2.1,0,0,0,1.14-.33,6.49,6.49,0,0,0,1.28-1.19,6.41,6.41,0,0,1,1.74-1.52,3.84,3.84,0,0,1,1.84-.42,3,3,0,0,1,2.11.68,2.57,2.57,0,0,1,.74,2A2.44,2.44,0,0,1,135.24,794.88Z"/><path class="cls-3" d="M124.61,786.72v-2.51l8-1.12v0l-8-1.12v-2.51h11.2v1.66h-8.48v0l8.48,1.28v1.48l-8.48,1.28v0h8.48v1.53Z"/><path class="cls-3" d="M124.61,776.76v-2.39l11.2-1.82v1.76l-2.22.32h0v2l2.19.32v1.63Zm7.49-1.92-5.54.78v0l5.54.77Z"/><path class="cls-3" d="M124.61,771.7V769a2.57,2.57,0,0,1,.7-2,3,3,0,0,1,2.07-.65H133a3,3,0,0,1,2.07.65,2.57,2.57,0,0,1,.7,2v2.69Zm9.6-2.66a.87.87,0,0,0-.26-.66,1.23,1.23,0,0,0-.83-.23H127.3a1.23,1.23,0,0,0-.83.23.87.87,0,0,0-.26.66v.9h8Z"/><path class="cls-3" d="M124.61,765.21V760.4h1.6v3h3V761h1.6v2.41h3.44v-3h1.6v4.81Z"/><rect class="cls-8" x="51.18" y="770.5" width="50.5" height="72.5"/><path d="M186.7,755H181v-2.7l5.4-12.77h3.24v12.77h1.41V755h-1.41v3.43h-3Zm0-2.7v-7.37h0l-2.92,7.37Z"/><path d="M198.34,742.22h-6v-2.7h8.91v2.59l-4.65,16.31h-3Z"/><path d="M87.68,766.37a8.46,8.46,0,0,1,.65-3.47,11.9,11.9,0,0,1,2.32-3.2,13.91,13.91,0,0,0,2.28-3,5.52,5.52,0,0,0,.64-2.59,2.74,2.74,0,0,0-.39-1.69A1.44,1.44,0,0,0,92,752c-1,0-1.54.62-1.54,1.86v2H87.68V754a5,5,0,0,1,1.14-3.52,5,5,0,0,1,6.58,0A5,5,0,0,1,96.54,754a7.46,7.46,0,0,1-.83,3.38,16.31,16.31,0,0,1-2.85,3.78,11.65,11.65,0,0,0-1.78,2.28,4.08,4.08,0,0,0-.46,1.88v.4h5.65v2.7H87.68Z"/><path d="M104.34,752.22h-6v-2.7h8.91v2.59l-4.65,16.31h-3Z"/></g><g id="strength-weakness"><line class="cls-9" x1="115.42" y1="887.46" x2="115.42" y2="937.46"/><path class="cls-3" d="M27.49,901.35a2.67,2.67,0,0,1-.57-1.83V899h1.45v.67c0,.64.27,1,.8,1a.75.75,0,0,0,.6-.23,1.14,1.14,0,0,0,.2-.75,2,2,0,0,0-.28-1.08,5.24,5.24,0,0,0-1-1.13,6.31,6.31,0,0,1-1.33-1.52,3.09,3.09,0,0,1-.37-1.53,2.56,2.56,0,0,1,.58-1.8,2.24,2.24,0,0,1,1.71-.64,2.12,2.12,0,0,1,1.67.64,2.66,2.66,0,0,1,.57,1.83v.4H30v-.5a1.15,1.15,0,0,0-.2-.74.72.72,0,0,0-.57-.23c-.52,0-.77.32-.77.94a1.81,1.81,0,0,0,.28,1,5.1,5.1,0,0,0,1.05,1.12,6.11,6.11,0,0,1,1.33,1.53,3.44,3.44,0,0,1,.36,1.61,2.62,2.62,0,0,1-.6,1.85,2.21,2.21,0,0,1-1.72.64A2.18,2.18,0,0,1,27.49,901.35Z"/><path class="cls-3" d="M32.39,892h4.2v1.4H33.93V896h2.12v1.4H33.93v3h2.66v1.4h-4.2Z"/><path class="cls-3" d="M38,901.35a2.5,2.5,0,0,1-.58-1.77v-5.27a2.53,2.53,0,0,1,.58-1.78,2.17,2.17,0,0,1,1.68-.63,2.19,2.19,0,0,1,1.69.63,2.53,2.53,0,0,1,.58,1.78v1H40.46v-1.14c0-.6-.26-.91-.77-.91s-.77.31-.77.91v5.48c0,.59.25.89.77.89s.77-.3.77-.89v-1.5h1.45v1.39a2.5,2.5,0,0,1-.58,1.77,2.19,2.19,0,0,1-1.69.63A2.17,2.17,0,0,1,38,901.35Z"/><path class="cls-3" d="M42.84,892h2.28a2.33,2.33,0,0,1,1.73.56,2.3,2.3,0,0,1,.55,1.7v.6c0,1-.34,1.66-1,1.93v0a1.19,1.19,0,0,1,.79.69,3.3,3.3,0,0,1,.23,1.38v1.72a6.13,6.13,0,0,0,0,.68,1.75,1.75,0,0,0,.14.51H46a2.68,2.68,0,0,1-.11-.45,6.11,6.11,0,0,1,0-.75v-1.79a1.57,1.57,0,0,0-.21-.94.93.93,0,0,0-.75-.27h-.53v4.2H42.84Zm2.1,4.2a1,1,0,0,0,.69-.23,1.16,1.16,0,0,0,.23-.8v-.76a1.23,1.23,0,0,0-.19-.77.71.71,0,0,0-.6-.24h-.69v2.8Z"/><path class="cls-3" d="M48.48,892h4.2v1.4H50V896h2.11v1.4H50v3h2.66v1.4h-4.2Z"/><path class="cls-3" d="M54.76,893.44H53.15V892h4.76v1.4H56.3v8.4H54.76Z"/><path class="cls-3" d="M61.2,901.35a2.67,2.67,0,0,1-.57-1.83V899h1.46v.67c0,.64.26,1,.79,1a.74.74,0,0,0,.6-.23,1.14,1.14,0,0,0,.2-.75,2,2,0,0,0-.28-1.08,5.41,5.41,0,0,0-1-1.13A6.1,6.1,0,0,1,61,895.87a3,3,0,0,1-.38-1.53,2.56,2.56,0,0,1,.58-1.8A2.25,2.25,0,0,1,63,891.9a2.16,2.16,0,0,1,1.68.64,2.71,2.71,0,0,1,.56,1.83v.4H63.74v-.5a1.15,1.15,0,0,0-.2-.74.72.72,0,0,0-.57-.23c-.52,0-.77.32-.77.94a1.74,1.74,0,0,0,.29,1,5,5,0,0,0,1,1.12,6.11,6.11,0,0,1,1.33,1.53,3.44,3.44,0,0,1,.36,1.61,2.67,2.67,0,0,1-.59,1.85,2.25,2.25,0,0,1-1.73.64A2.2,2.2,0,0,1,61.2,901.35Z"/><path class="cls-3" d="M67.31,893.44H65.7V892h4.76v1.4H68.85v8.4H67.31Z"/><path class="cls-3" d="M71.2,892h2.28a2,2,0,0,1,2.28,2.26v.6c0,1-.33,1.66-1,1.93v0a1.21,1.21,0,0,1,.79.69,3.47,3.47,0,0,1,.23,1.38v1.72a6.13,6.13,0,0,0,0,.68,1.29,1.29,0,0,0,.14.51H74.38a1.56,1.56,0,0,1-.11-.45,6.11,6.11,0,0,1,0-.75v-1.79a1.56,1.56,0,0,0-.22-.94.9.9,0,0,0-.75-.27h-.53v4.2H71.2Zm2.1,4.2A.94.94,0,0,0,74,896a1.11,1.11,0,0,0,.23-.8v-.76a1.23,1.23,0,0,0-.19-.77.69.69,0,0,0-.59-.24h-.7v2.8Z"/><path class="cls-3" d="M76.84,892H81v1.4H78.38V896H80.5v1.4H78.38v3H81v1.4h-4.2Z"/><path class="cls-3" d="M81.92,892h1.94l1.49,5.87h0V892h1.37v9.8H85.17l-1.85-7.15h0v7.15H81.92Z"/><path class="cls-3" d="M88.38,901.35a2.63,2.63,0,0,1-.59-1.83v-5.15a2.61,2.61,0,0,1,.59-1.83,2.59,2.59,0,0,1,3.41,0,2.57,2.57,0,0,1,.59,1.83v.84H90.93v-.94c0-.64-.27-1-.8-1s-.8.33-.8,1v5.36c0,.64.27,1,.8,1s.8-.31.8-1v-1.92h-.77v-1.4h2.22v3.21a2.58,2.58,0,0,1-.59,1.83,2.62,2.62,0,0,1-3.41,0Z"/><path class="cls-3" d="M94.58,893.44H93V892h4.76v1.4H96.12v8.4H94.58Z"/><path class="cls-3" d="M98.47,892H100v4h1.65v-4h1.54v9.8h-1.54v-4.41H100v4.41H98.47Z"/><path class="cls-3" d="M104.35,895h1.49v1.49h-1.49Zm0,5.34h1.49v1.48h-1.49Z"/><path class="cls-3" d="M40.79,907.44H39.18V906h4.76v1.4H42.33v8.4H40.79Z"/><path class="cls-3" d="M45.22,915.35a2.58,2.58,0,0,1-.59-1.83V906h1.54v7.59a1.1,1.1,0,0,0,.2.73.75.75,0,0,0,.58.22.73.73,0,0,0,.58-.22,1,1,0,0,0,.21-.73V906h1.48v7.48a2.63,2.63,0,0,1-.59,1.83,2.62,2.62,0,0,1-3.41,0Z"/><path class="cls-3" d="M50.31,906h2.28a2,2,0,0,1,2.29,2.26v.6c0,1-.34,1.66-1,1.93v0a1.21,1.21,0,0,1,.79.69,3.47,3.47,0,0,1,.23,1.38v1.72a6.13,6.13,0,0,0,0,.68,1.49,1.49,0,0,0,.14.51H53.49a2,2,0,0,1-.11-.45,6.11,6.11,0,0,1,0-.75v-1.79a1.49,1.49,0,0,0-.22-.94.9.9,0,0,0-.75-.27h-.53v4.2H50.31Zm2.1,4.2a1,1,0,0,0,.7-.23,1.16,1.16,0,0,0,.23-.8v-.76a1.3,1.3,0,0,0-.19-.77.73.73,0,0,0-.6-.24h-.7v2.8Z"/><path class="cls-3" d="M56,906h1.94l1.49,5.87h0V906h1.37v9.8H59.2l-1.85-7.15h0v7.15H56Z"/><path class="cls-3" d="M62.24,915.35a2.67,2.67,0,0,1-.57-1.83V913h1.45v.67c0,.64.27,1,.8,1a.75.75,0,0,0,.6-.23,1.14,1.14,0,0,0,.2-.75,2.12,2.12,0,0,0-.28-1.08,5.24,5.24,0,0,0-1-1.13,6.31,6.31,0,0,1-1.33-1.52,3.1,3.1,0,0,1-.38-1.53,2.57,2.57,0,0,1,.59-1.8A2.22,2.22,0,0,1,64,905.9a2.13,2.13,0,0,1,1.67.64,2.66,2.66,0,0,1,.57,1.83v.4H64.77v-.5a1.15,1.15,0,0,0-.19-.74.72.72,0,0,0-.58-.23c-.51,0-.77.32-.77.94a1.82,1.82,0,0,0,.29,1,5.26,5.26,0,0,0,1,1.12,5.72,5.72,0,0,1,1.33,1.53,3.33,3.33,0,0,1,.37,1.61,2.62,2.62,0,0,1-.6,1.85,2.22,2.22,0,0,1-1.73.64A2.17,2.17,0,0,1,62.24,915.35Z"/><path class="cls-3" d="M69.38,906h1.54v9.8H69.38Z"/><path class="cls-3" d="M72.07,906H74l1.5,5.87h0V906H76.9v9.8H75.32l-1.85-7.15h0v7.15H72.07Z"/><path class="cls-3" d="M79.25,907.44H77.64V906H82.4v1.4H80.79v8.4H79.25Z"/><path class="cls-3" d="M83.58,915.34a2.54,2.54,0,0,1-.61-1.82v-5.15a2.52,2.52,0,0,1,.61-1.82,2.64,2.64,0,0,1,3.47,0,2.56,2.56,0,0,1,.6,1.82v5.15a2.58,2.58,0,0,1-.6,1.82,2.67,2.67,0,0,1-3.47,0Zm2.53-1.72v-5.35c0-.64-.27-1-.8-1s-.8.33-.8,1v5.35c0,.64.27,1,.8,1S86.11,914.26,86.11,913.62Z"/><path class="cls-3" d="M92.13,907.44H90.52V906h4.76v1.4H93.67v8.4H92.13Z"/><path class="cls-3" d="M96,906h1.54v4h1.65v-4h1.54v9.8H99.21v-4.41H97.56v4.41H96Z"/><path class="cls-3" d="M101.9,906h4.2v1.4h-2.66V910h2.12v1.4h-2.12v3h2.66v1.4h-4.2Z"/><path class="cls-3" d="M84.86,920H86.4v4h1.66v-4h1.53v9.8H88.06v-4.41H86.4v4.41H84.86Z"/><path class="cls-3" d="M91.27,929.35a2.63,2.63,0,0,1-.58-1.83V920h1.54v7.59a1,1,0,0,0,.2.73.75.75,0,0,0,.58.22.73.73,0,0,0,.58-.22,1,1,0,0,0,.2-.73V920h1.49v7.48a2.63,2.63,0,0,1-.59,1.83A2.22,2.22,0,0,1,93,930,2.25,2.25,0,0,1,91.27,929.35Z"/><path class="cls-3" d="M96.37,920h1.54v8.4h2.53v1.4H96.37Z"/><path class="cls-3" d="M101.19,920h1.54v4.13l2-4.13h1.54l-1.84,3.6,1.86,6.2h-1.6l-1.31-4.37-.61,1.25v3.12h-1.54Z"/><path class="cls-3" d="M126.37,901.35a2.67,2.67,0,0,1-.57-1.83V899h1.46v.67c0,.64.26,1,.79,1a.74.74,0,0,0,.6-.23,1.14,1.14,0,0,0,.2-.75,2,2,0,0,0-.28-1.08,5.14,5.14,0,0,0-1-1.13,6.1,6.1,0,0,1-1.33-1.52,3,3,0,0,1-.38-1.53,2.52,2.52,0,0,1,.59-1.8,2.22,2.22,0,0,1,1.7-.64,2.16,2.16,0,0,1,1.68.64,2.71,2.71,0,0,1,.56,1.83v.4h-1.45v-.5a1.15,1.15,0,0,0-.2-.74.72.72,0,0,0-.57-.23c-.52,0-.77.32-.77.94a1.81,1.81,0,0,0,.28,1,5.36,5.36,0,0,0,1,1.12,6.11,6.11,0,0,1,1.33,1.53,3.44,3.44,0,0,1,.36,1.61,2.67,2.67,0,0,1-.59,1.85,2.25,2.25,0,0,1-1.73.64A2.2,2.2,0,0,1,126.37,901.35Z"/><path class="cls-3" d="M131.27,892h4.2v1.4h-2.66V896h2.12v1.4h-2.12v3h2.66v1.4h-4.2Z"/><path class="cls-3" d="M136.84,901.35a2.5,2.5,0,0,1-.58-1.77v-5.27a2.53,2.53,0,0,1,.58-1.78,2.57,2.57,0,0,1,3.37,0,2.53,2.53,0,0,1,.58,1.78v1h-1.45v-1.14c0-.6-.26-.91-.77-.91s-.77.31-.77.91v5.48c0,.59.25.89.77.89s.77-.3.77-.89v-1.5h1.45v1.39a2.5,2.5,0,0,1-.58,1.77,2.57,2.57,0,0,1-3.37,0Z"/><path class="cls-3" d="M141.72,892H144a2.38,2.38,0,0,1,1.74.56,2.34,2.34,0,0,1,.54,1.7v.6c0,1-.33,1.66-1,1.93v0a1.2,1.2,0,0,1,.8.69,3.47,3.47,0,0,1,.23,1.38v1.72c0,.28,0,.51,0,.68a1.75,1.75,0,0,0,.14.51H144.9a2,2,0,0,1-.12-.45,6.81,6.81,0,0,1,0-.75v-1.79a1.56,1.56,0,0,0-.22-.94.93.93,0,0,0-.75-.27h-.53v4.2h-1.54Zm2.1,4.2a.94.94,0,0,0,.69-.23,1.16,1.16,0,0,0,.23-.8v-.76a1.23,1.23,0,0,0-.19-.77.69.69,0,0,0-.59-.24h-.7v2.8Z"/><path class="cls-3" d="M147.36,892h4.2v1.4H148.9V896H151v1.4H148.9v3h2.66v1.4h-4.2Z"/><path class="cls-3" d="M153.65,893.44H152V892h4.76v1.4h-1.61v8.4h-1.54Z"/><path class="cls-3" d="M159.41,892h1.49l.68,7.54h0l.73-7.54H164l.73,7.54h0l.68-7.54h1.33l-1,9.8h-1.92l-.7-6.61h0l-.7,6.61h-2Z"/><path class="cls-3" d="M167.58,892h4.2v1.4h-2.66V896h2.11v1.4h-2.11v3h2.66v1.4h-4.2Z"/><path class="cls-3" d="M173.85,892h2.08l1.6,9.8H176l-.28-1.94v0H174l-.28,1.91h-1.43Zm1.68,6.56-.69-4.85h0l-.67,4.85Z"/><path class="cls-3" d="M178.27,892h1.54v4.13l2-4.13h1.54l-1.83,3.6,1.86,6.2h-1.61l-1.3-4.37-.62,1.25v3.12h-1.54Z"/><path class="cls-3" d="M184.07,892H186l1.5,5.87h0V892h1.37v9.8h-1.58l-1.85-7.15h0v7.15h-1.37Z"/><path class="cls-3" d="M190.05,892h4.19v1.4h-2.66V896h2.12v1.4h-2.12v3h2.66v1.4h-4.19Z"/><path class="cls-3" d="M195.46,901.35a2.67,2.67,0,0,1-.57-1.83V899h1.46v.67c0,.64.26,1,.79,1a.75.75,0,0,0,.6-.23,1.14,1.14,0,0,0,.2-.75,2,2,0,0,0-.28-1.08,5.41,5.41,0,0,0-1-1.13,6.1,6.1,0,0,1-1.33-1.52,3,3,0,0,1-.38-1.53,2.56,2.56,0,0,1,.58-1.8,2.25,2.25,0,0,1,1.71-.64,2.16,2.16,0,0,1,1.68.64,2.71,2.71,0,0,1,.56,1.83v.4H198v-.5a1.15,1.15,0,0,0-.2-.74.72.72,0,0,0-.57-.23c-.52,0-.77.32-.77.94a1.81,1.81,0,0,0,.28,1,5.36,5.36,0,0,0,1,1.12,6.11,6.11,0,0,1,1.33,1.53,3.44,3.44,0,0,1,.36,1.61,2.67,2.67,0,0,1-.59,1.85,2.25,2.25,0,0,1-1.73.64A2.2,2.2,0,0,1,195.46,901.35Z"/><path class="cls-3" d="M200.67,901.35a2.67,2.67,0,0,1-.57-1.83V899h1.45v.67c0,.64.27,1,.8,1a.75.75,0,0,0,.6-.23,1.14,1.14,0,0,0,.2-.75,2,2,0,0,0-.28-1.08,5.24,5.24,0,0,0-1-1.13,6.31,6.31,0,0,1-1.33-1.52,3.09,3.09,0,0,1-.37-1.53,2.56,2.56,0,0,1,.58-1.8,2.24,2.24,0,0,1,1.71-.64,2.12,2.12,0,0,1,1.67.64,2.66,2.66,0,0,1,.57,1.83v.4h-1.45v-.5a1.15,1.15,0,0,0-.2-.74.72.72,0,0,0-.57-.23c-.52,0-.78.32-.78.94a1.82,1.82,0,0,0,.29,1,5.26,5.26,0,0,0,1,1.12,5.72,5.72,0,0,1,1.33,1.53,3.33,3.33,0,0,1,.37,1.61,2.62,2.62,0,0,1-.6,1.85,2.21,2.21,0,0,1-1.72.64A2.18,2.18,0,0,1,200.67,901.35Z"/><path class="cls-3" d="M205.57,895h1.49v1.49h-1.49Zm0,5.34h1.49v1.48h-1.49Z"/><path class="cls-3" d="M126.07,906h2.35a2.25,2.25,0,0,1,1.72.62,2.57,2.57,0,0,1,.57,1.81v4.95a2.59,2.59,0,0,1-.57,1.81,2.24,2.24,0,0,1-1.72.61h-2.35Zm2.32,8.4a.73.73,0,0,0,.58-.22,1,1,0,0,0,.2-.73v-5.1a1,1,0,0,0-.2-.72.74.74,0,0,0-.58-.23h-.78v7Z"/><path class="cls-3" d="M132.24,915.34a2.58,2.58,0,0,1-.6-1.82v-5.15a2.56,2.56,0,0,1,.6-1.82,2.64,2.64,0,0,1,3.47,0,2.56,2.56,0,0,1,.6,1.82v5.15a2.58,2.58,0,0,1-.6,1.82,2.67,2.67,0,0,1-3.47,0Zm2.53-1.72v-5.35c0-.64-.26-1-.79-1s-.8.33-.8,1v5.35c0,.64.26,1,.8,1S134.77,914.26,134.77,913.62Z"/><path class="cls-3" d="M137.35,906h4.2v1.4h-2.66V910H141v1.4h-2.11v3h2.66v1.4h-4.2Z"/><path class="cls-3" d="M142.77,915.35a2.68,2.68,0,0,1-.58-1.83V913h1.46v.67c0,.64.27,1,.8,1a.71.71,0,0,0,.59-.23,1.08,1.08,0,0,0,.21-.75,2.12,2.12,0,0,0-.28-1.08,5.52,5.52,0,0,0-1-1.13,6.31,6.31,0,0,1-1.33-1.52,3.1,3.1,0,0,1-.38-1.53,2.57,2.57,0,0,1,.59-1.8,2.22,2.22,0,0,1,1.71-.64,2.15,2.15,0,0,1,1.67.64,2.66,2.66,0,0,1,.57,1.83v.4H145.3v-.5a1.15,1.15,0,0,0-.19-.74.74.74,0,0,0-.58-.23c-.51,0-.77.32-.77.94a1.82,1.82,0,0,0,.29,1,5.26,5.26,0,0,0,1,1.12,5.72,5.72,0,0,1,1.33,1.53,3.44,3.44,0,0,1,.37,1.61,2.62,2.62,0,0,1-.6,1.85,2.23,2.23,0,0,1-1.73.64A2.17,2.17,0,0,1,142.77,915.35Z"/><path class="cls-3" d="M147.67,906h1.93l1.5,5.87h0V906h1.37v9.8h-1.58l-1.85-7.15h0v7.15h-1.37Z"/><path class="cls-3" d="M154.15,907.53h-.5V906h1.48v1.33l-.85,1.84h-.72Z"/><path class="cls-3" d="M157.62,907.44H156V906h4.76v1.4h-1.61v8.4h-1.54Z"/><path class="cls-3" d="M165,907.44h-1.61V906h4.76v1.4H166.5v8.4H165Z"/><path class="cls-3" d="M169.38,915.35a2.63,2.63,0,0,1-.59-1.83V906h1.54v7.59a1,1,0,0,0,.21.73.73.73,0,0,0,.58.22.75.75,0,0,0,.58-.22,1.1,1.1,0,0,0,.2-.73V906h1.49v7.48a2.63,2.63,0,0,1-.59,1.83,2.64,2.64,0,0,1-3.42,0Z"/><path class="cls-3" d="M174.48,906h2.28a2.38,2.38,0,0,1,1.74.56,2.34,2.34,0,0,1,.54,1.7v.6c0,1-.33,1.66-1,1.93v0a1.17,1.17,0,0,1,.79.69,3.29,3.29,0,0,1,.24,1.38v1.72c0,.28,0,.51,0,.68a1.75,1.75,0,0,0,.14.51h-1.56a2,2,0,0,1-.12-.45c0-.13,0-.39,0-.75v-1.79a1.56,1.56,0,0,0-.22-.94.93.93,0,0,0-.75-.27H176v4.2h-1.54Zm2.1,4.2a.94.94,0,0,0,.69-.23,1.16,1.16,0,0,0,.23-.8v-.76a1.23,1.23,0,0,0-.19-.77.69.69,0,0,0-.59-.24H176v2.8Z"/><path class="cls-3" d="M180.12,906h1.93l1.5,5.87h0V906H185v9.8h-1.58l-1.85-7.15h0v7.15h-1.37Z"/><path class="cls-3" d="M188.34,906h1.54v9.8h-1.54Z"/><path class="cls-3" d="M191,906H193l1.5,5.87h0V906h1.38v9.8h-1.59l-1.84-7.15h0v7.15H191Z"/><path class="cls-3" d="M198.21,907.44H196.6V906h4.76v1.4h-1.61v8.4h-1.54Z"/><path class="cls-3" d="M202.53,915.34a2.58,2.58,0,0,1-.6-1.82v-5.15a2.56,2.56,0,0,1,.6-1.82,2.65,2.65,0,0,1,3.48,0,2.56,2.56,0,0,1,.6,1.82v5.15a2.58,2.58,0,0,1-.6,1.82,2.69,2.69,0,0,1-3.48,0Zm2.54-1.72v-5.35c0-.64-.27-1-.8-1s-.8.33-.8,1v5.35c0,.64.27,1,.8,1S205.07,914.26,205.07,913.62Z"/><path class="cls-3" d="M127.27,921.44h-1.61V920h4.76v1.4h-1.61v8.4h-1.54Z"/><path class="cls-3" d="M131.16,920h1.54v4h1.65v-4h1.54v9.8h-1.54v-4.41H132.7v4.41h-1.54Z"/><path class="cls-3" d="M137,920h4.2v1.4h-2.66V924h2.12v1.4h-2.12v3h2.66v1.4H137Z"/><path class="cls-3" d="M144.36,920h1.54v4h1.66v-4h1.54v9.8h-1.54v-4.41H145.9v4.41h-1.54Z"/><path class="cls-3" d="M150.78,929.35a2.58,2.58,0,0,1-.59-1.83V920h1.54v7.59a1.1,1.1,0,0,0,.2.73.75.75,0,0,0,.58.22.73.73,0,0,0,.58-.22,1,1,0,0,0,.21-.73V920h1.48v7.48a2.63,2.63,0,0,1-.59,1.83,2.62,2.62,0,0,1-3.41,0Z"/><path class="cls-3" d="M155.87,920h1.54v8.4H160v1.4h-4.08Z"/><path class="cls-3" d="M160.69,920h1.54v4.13l2-4.13h1.54l-1.84,3.6,1.87,6.2h-1.61l-1.31-4.37-.61,1.25v3.12h-1.54Z"/></g></g></g></g></svg>