<svg xmlns="http://www.w3.org/2000/svg" viewBox="0 0 228.15 972"><defs><style>.cls-1{fill:#d52a24;}.cls-2{opacity:0.25;}.cls-3{fill:#fff;}.cls-4{fill:#141414;}.cls-5{fill:#af1e1e;}.cls-6{fill:#8e1c1c;}.cls-7{fill:#d33d3d;}.cls-10,.cls-8{fill:none;}.cls-8,.cls-9{stroke:#000;stroke-linejoin:round;}.cls-10,.cls-8,.cls-9{stroke-linecap:round;}.cls-8{stroke-width:6px;}.cls-9{stroke-width:3px;}.cls-10{stroke:#fff;stroke-miterlimit:10;}</style></defs><title>iron-man-info</title><g id="Layer_2" data-name="Layer 2"><g id="poster"><g id="bg"><rect id="_2" data-name="2" class="cls-1" x="0.15" width="228" height="972"/><rect id="shade1" class="cls-2" x="1" y="310" width="227" height="102"/><rect id="shade2" class="cls-2" y="679" width="227" height="184"/></g><g id="stats-ironman"><g id="stats"><rect class="cls-3" x="21.63" y="110.86" width="187.31" height="24.04"/><rect x="21.29" y="110.65" width="156.26" height="24.04"/><path class="cls-3" d="M25.67,127.3a3,3,0,0,1-.66-2.09v-.64h1.67v.77c0,.73.31,1.09.91,1.09a.9.9,0,0,0,.69-.26,1.32,1.32,0,0,0,.23-.86,2.41,2.41,0,0,0-.32-1.24A6,6,0,0,0,27,122.78,7,7,0,0,1,25.48,121a3.53,3.53,0,0,1-.43-1.76,2.94,2.94,0,0,1,.67-2.06,2.55,2.55,0,0,1,2-.73,2.45,2.45,0,0,1,1.92.73,3.09,3.09,0,0,1,.65,2.1v.46H28.57v-.58a1.3,1.3,0,0,0-.22-.84.84.84,0,0,0-.66-.26c-.59,0-.88.36-.88,1.07a2.1,2.1,0,0,0,.33,1.14,6.19,6.19,0,0,0,1.19,1.28,6.43,6.43,0,0,1,1.52,1.75,3.84,3.84,0,0,1,.42,1.84,3,3,0,0,1-.68,2.12,2.55,2.55,0,0,1-2,.73A2.48,2.48,0,0,1,25.67,127.3Z"/><path class="cls-3" d="M32.66,118.26H30.82v-1.6h5.44v1.6H34.42v9.61H32.66Z"/><path class="cls-3" d="M37.11,116.66h2.62a2.69,2.69,0,0,1,2,.63,2.66,2.66,0,0,1,.63,1.95v.69a2.12,2.12,0,0,1-1.15,2.21v0a1.4,1.4,0,0,1,.9.78,3.92,3.92,0,0,1,.27,1.59v2q0,.48,0,.78a1.73,1.73,0,0,0,.16.58h-1.8a3.83,3.83,0,0,1-.13-.51,8.2,8.2,0,0,1,0-.86v-2.06a1.7,1.7,0,0,0-.25-1.07,1,1,0,0,0-.85-.3h-.61v4.8H37.11Zm2.41,4.8a1,1,0,0,0,.79-.27,1.25,1.25,0,0,0,.27-.91v-.87a1.45,1.45,0,0,0-.22-.88.81.81,0,0,0-.68-.27h-.8v3.2Z"/><path class="cls-3" d="M43.57,116.66h4.81v1.6h-3v3h2.42v1.61H45.34v3.44h3v1.6H43.57Z"/><path class="cls-3" d="M49.39,116.66H51.6l1.72,6.71h0v-6.71h1.57v11.21H53.11L51,119.68h0v8.19H49.39Z"/><path class="cls-3" d="M56.78,127.3a3,3,0,0,1-.68-2.09v-5.89a3,3,0,0,1,.68-2.1,3,3,0,0,1,3.91,0,3,3,0,0,1,.67,2.1v1H59.69V119.2c0-.73-.3-1.1-.91-1.1s-.91.37-.91,1.1v6.14c0,.73.3,1.09.91,1.09s.91-.36.91-1.09v-2.19h-.88v-1.61h2.55v3.67a3,3,0,0,1-.67,2.09,3,3,0,0,1-3.91,0Z"/><path class="cls-3" d="M63.88,118.26H62v-1.6h5.45v1.6H65.64v9.61H63.88Z"/><path class="cls-3" d="M68.33,116.66H70.1v4.56H72v-4.56h1.76v11.21H72v-5H70.1v5H68.33Z"/><rect class="cls-3" x="21.63" y="147.93" width="187.31" height="24.04"/><rect x="21.29" y="147.71" width="165.71" height="24.04"/><path class="cls-3" d="M25.67,164.37a3,3,0,0,1-.66-2.1v-.64h1.67v.77c0,.73.31,1.09.91,1.09a.9.9,0,0,0,.69-.26,1.32,1.32,0,0,0,.23-.86,2.41,2.41,0,0,0-.32-1.24A6,6,0,0,0,27,159.84a7,7,0,0,1-1.52-1.74,3.52,3.52,0,0,1-.43-1.75,2.9,2.9,0,0,1,.67-2.06,2.51,2.51,0,0,1,2-.73,2.42,2.42,0,0,1,1.92.73,3,3,0,0,1,.65,2.09v.46H28.57v-.57a1.31,1.31,0,0,0-.22-.85.84.84,0,0,0-.66-.26c-.59,0-.88.36-.88,1.07a2.1,2.1,0,0,0,.33,1.14,6.19,6.19,0,0,0,1.19,1.28,6.43,6.43,0,0,1,1.52,1.75,3.84,3.84,0,0,1,.42,1.84,3,3,0,0,1-.68,2.12,2.56,2.56,0,0,1-2,.74A2.51,2.51,0,0,1,25.67,164.37Z"/><path class="cls-3" d="M31.28,153.72h2.6a2.57,2.57,0,0,1,2,.7,2.92,2.92,0,0,1,.66,2.07v1.11a2.91,2.91,0,0,1-.66,2.06,2.58,2.58,0,0,1-2,.71H33v4.57H31.28Zm2.6,5.05a.81.81,0,0,0,.65-.25,1.21,1.21,0,0,0,.21-.81v-1.33a1.24,1.24,0,0,0-.21-.82.84.84,0,0,0-.65-.24H33v3.45Z"/><path class="cls-3" d="M37.47,153.72h4.8v1.6h-3v3h2.42v1.61H39.23v3.44h3v1.61h-4.8Z"/><path class="cls-3" d="M43.28,153.72h4.81v1.6h-3v3h2.42v1.61H45.05v3.44h3v1.61H43.28Z"/><path class="cls-3" d="M49.1,153.72h2.69a2.58,2.58,0,0,1,2,.7,3,3,0,0,1,.65,2.07v5.67a3,3,0,0,1-.65,2.07,2.59,2.59,0,0,1-2,.71H49.1Zm2.66,9.61a.87.87,0,0,0,.67-.25,1.26,1.26,0,0,0,.23-.84v-5.83a1.23,1.23,0,0,0-.23-.83.87.87,0,0,0-.67-.26h-.9v8Z"/><rect class="cls-3" x="21.63" y="184.99" width="187.31" height="24.04"/><rect x="21.29" y="184.77" width="141.71" height="24.04"/><path class="cls-3" d="M25.67,201.43a3,3,0,0,1-.66-2.09v-.64h1.67v.76c0,.73.31,1.09.91,1.09a.87.87,0,0,0,.69-.26,1.32,1.32,0,0,0,.23-.86,2.41,2.41,0,0,0-.32-1.24A6,6,0,0,0,27,196.9a7,7,0,0,1-1.52-1.74,3.52,3.52,0,0,1-.43-1.75,2.9,2.9,0,0,1,.67-2.06,2.51,2.51,0,0,1,2-.73,2.42,2.42,0,0,1,1.92.73,3,3,0,0,1,.65,2.09v.46H28.57v-.57a1.26,1.26,0,0,0-.22-.84.81.81,0,0,0-.66-.27c-.59,0-.88.36-.88,1.07a2.1,2.1,0,0,0,.33,1.14,6.19,6.19,0,0,0,1.19,1.28,6.58,6.58,0,0,1,1.52,1.75,3.87,3.87,0,0,1,.42,1.84,3,3,0,0,1-.68,2.12,2.56,2.56,0,0,1-2,.74A2.51,2.51,0,0,1,25.67,201.43Z"/><path class="cls-3" d="M32.66,192.38H30.82v-1.6h5.44v1.6H34.42V202H32.66Z"/><path class="cls-3" d="M37.11,190.78h2.62a2.69,2.69,0,0,1,2,.63,2.66,2.66,0,0,1,.63,2v.69a2.12,2.12,0,0,1-1.15,2.21v0a1.39,1.39,0,0,1,.9.79,3.84,3.84,0,0,1,.27,1.58v2c0,.33,0,.58,0,.78a1.86,1.86,0,0,0,.16.59h-1.8a4,4,0,0,1-.13-.52,8.07,8.07,0,0,1,0-.86v-2.05a1.73,1.73,0,0,0-.25-1.08,1,1,0,0,0-.85-.3h-.61V202H37.11Zm2.41,4.81a1,1,0,0,0,.79-.28,1.25,1.25,0,0,0,.27-.91v-.87a1.48,1.48,0,0,0-.22-.88.81.81,0,0,0-.68-.27h-.8v3.21Z"/><path class="cls-3" d="M44.94,190.78h2.38L49.15,202H47.39l-.32-2.23v0h-2l-.32,2.2H43.11Zm1.92,7.5-.79-5.55h0l-.77,5.55Z"/><path class="cls-3" d="M50.64,192.38H48.8v-1.6h5.45v1.6H52.4V202H50.64Z"/><path class="cls-3" d="M55.1,190.78h4.8v1.6h-3v3h2.42V197H56.86v3.44h3V202H55.1Z"/><path class="cls-3" d="M61.46,201.43a3,3,0,0,1-.67-2.09v-5.9a3,3,0,0,1,.67-2.09,3,3,0,0,1,3.91,0,3,3,0,0,1,.67,2.09v1H64.37v-1.07c0-.74-.3-1.11-.91-1.11s-.91.37-.91,1.11v6.13c0,.73.3,1.09.91,1.09s.91-.36.91-1.09v-2.19h-.88v-1.6H66v3.67a3,3,0,0,1-.67,2.09,3,3,0,0,1-3.91,0Z"/><path class="cls-3" d="M68.56,197.22l-2.13-6.44H68.3l1.2,4.12h0l1.2-4.12h1.71l-2.13,6.44V202H68.56Z"/><rect class="cls-3" x="21.63" y="222.05" width="187.31" height="24.04"/><rect x="21.29" y="221.83" width="176.71" height="24.04"/><path class="cls-3" d="M25.32,227.84H28a2.6,2.6,0,0,1,2,.7,2.94,2.94,0,0,1,.66,2.07v5.68a2.91,2.91,0,0,1-.66,2.06,2.56,2.56,0,0,1-2,.71H25.32ZM28,237.46a.84.84,0,0,0,.66-.26,1.19,1.19,0,0,0,.24-.83v-5.84a1.19,1.19,0,0,0-.24-.83.84.84,0,0,0-.66-.26h-.9v8Z"/><path class="cls-3" d="M31.83,227.84h4.8v1.6h-3v3H36V234H33.59v3.45h3v1.6h-4.8Z"/><path class="cls-3" d="M37.64,227.84h4.67v1.6h-2.9v3.13h2.27v1.6H39.41v4.89H37.64Z"/><path class="cls-3" d="M43.16,227.84H48v1.6h-3v3h2.42V234H44.92v3.45h3v1.6h-4.8Z"/><path class="cls-3" d="M49,227.84h2.21l1.72,6.71h0v-6.71H54.5v11.22H52.69l-2.11-8.19h0v8.19H49Z"/><path class="cls-3" d="M56.37,238.5a2.91,2.91,0,0,1-.67-2v-6a2.91,2.91,0,0,1,.67-2,2.95,2.95,0,0,1,3.86,0,2.91,2.91,0,0,1,.67,2v1.18H59.23v-1.3c0-.69-.29-1-.88-1s-.88.35-.88,1v6.27c0,.68.29,1,.88,1s.88-.35.88-1v-1.71H60.9v1.58a2.91,2.91,0,0,1-.67,2,2.95,2.95,0,0,1-3.86,0Z"/><path class="cls-3" d="M62,227.84h4.81v1.6h-3v3h2.42V234H63.72v3.45h3v1.6H62Z"/><rect class="cls-3" x="21.63" y="259.11" width="187.31" height="24.04"/><rect x="21.29" y="258.89" width="145.71" height="24.04"/><path class="cls-3" d="M25.67,275.55a3,3,0,0,1-.66-2.09v-.64h1.67v.77c0,.72.31,1.09.91,1.09a.87.87,0,0,0,.69-.27,1.29,1.29,0,0,0,.23-.85,2.45,2.45,0,0,0-.32-1.25A6.45,6.45,0,0,0,27,271a7,7,0,0,1-1.52-1.74,3.49,3.49,0,0,1-.43-1.75,2.92,2.92,0,0,1,.67-2.06,2.51,2.51,0,0,1,2-.73,2.42,2.42,0,0,1,1.92.73,3.06,3.06,0,0,1,.65,2.09V268H28.57v-.58a1.26,1.26,0,0,0-.22-.84.81.81,0,0,0-.66-.27c-.59,0-.88.36-.88,1.08a2.15,2.15,0,0,0,.33,1.14,6.19,6.19,0,0,0,1.19,1.28,6.41,6.41,0,0,1,1.52,1.74,3.89,3.89,0,0,1,.42,1.85,3,3,0,0,1-.68,2.11,2.56,2.56,0,0,1-2,.74A2.48,2.48,0,0,1,25.67,275.55Z"/><path class="cls-3" d="M31.28,264.9H33v4.73l2.25-4.73h1.76L35,269l2.13,7.1H35.24l-1.49-5L33,272.55v3.57H31.28Z"/><path class="cls-3" d="M37.92,264.9h1.76v11.22H37.92Z"/><path class="cls-3" d="M41,264.9h1.77v9.62h2.9v1.6H41Z"/><path class="cls-3" d="M46.5,264.9h1.77v9.62h2.9v1.6H46.5Z"/></g><g id="weapon"><path class="cls-3" d="M16.38,331.13H20.2L22,350.5H22l1.88-19.37h4.32L30.1,350.5h.07l1.76-19.37h3.42l-2.55,25.2H27.87l-1.8-17H26l-1.8,17H18.94Z"/><path class="cls-3" d="M37.37,331.13h10.8v3.6H41.33v6.66h5.44V345H41.33v7.74h6.84v3.6H37.37Z"/><path class="cls-3" d="M53.5,331.13h5.36l4.1,25.2H59l-.71-5v.07h-4.5l-.73,4.93H49.39ZM57.82,348l-1.77-12.46H56L54.25,348Z"/><path class="cls-3" d="M64.87,331.13H70.7a5.78,5.78,0,0,1,4.43,1.58,6.57,6.57,0,0,1,1.48,4.65v2.48a6.57,6.57,0,0,1-1.48,4.65,5.78,5.78,0,0,1-4.43,1.58H68.83v10.26h-4Zm5.83,11.34a1.86,1.86,0,0,0,1.46-.54,2.7,2.7,0,0,0,.49-1.84v-3a2.7,2.7,0,0,0-.49-1.84,1.86,1.86,0,0,0-1.46-.54H68.83v7.74Z"/><path class="cls-3" d="M80,355a6.59,6.59,0,0,1-1.55-4.68V337.11A6.59,6.59,0,0,1,80,332.43a6.83,6.83,0,0,1,8.93,0,6.59,6.59,0,0,1,1.54,4.68v13.24A6.59,6.59,0,0,1,89,355,6.83,6.83,0,0,1,80,355Zm6.51-4.42V336.85c0-1.65-.68-2.48-2.05-2.48s-2,.83-2,2.48v13.76c0,1.65.68,2.48,2,2.48S86.54,352.26,86.54,350.61Z"/><path class="cls-3" d="M93.17,331.13h5L102,346.21h.07V331.13h3.53v25.2h-4.07l-4.75-18.4H96.7v18.4H93.17Z"/><path d="M33,369.72H25.42v-3.6l7.2-17h4.32v17h1.88v3.6H36.94v4.57H33Zm0-3.6v-9.83h-.07L29,366.12Z"/><path d="M48.5,352.69h-8v-3.6H52.39v3.46L46.2,374.29h-4Z"/><path d="M64,349.09h5.36l4.11,25.2h-4l-.72-5v.07h-4.5l-.72,4.93H59.88Zm4.32,16.85-1.76-12.46h-.08l-1.72,12.46Z"/><path d="M75.36,349.09h5.86a6.11,6.11,0,0,1,4.47,1.42,6,6,0,0,1,1.4,4.38v1.55c0,2.61-.86,4.27-2.59,5v.08a3,3,0,0,1,2,1.76,8.81,8.81,0,0,1,.6,3.56v4.43A16.62,16.62,0,0,0,87.2,373a4.49,4.49,0,0,0,.36,1.31h-4a5.54,5.54,0,0,1-.29-1.15,17,17,0,0,1-.07-1.94v-4.61a3.91,3.91,0,0,0-.56-2.41,2.36,2.36,0,0,0-1.93-.69H79.32v10.8h-4Zm5.4,10.8a2.37,2.37,0,0,0,1.78-.61,2.92,2.92,0,0,0,.59-2v-2a3.24,3.24,0,0,0-.48-2,1.87,1.87,0,0,0-1.53-.61h-1.8v7.2Z"/><path d="M89.86,349.09h5.65l2.52,18h.08l2.52-18h5.65v25.2h-3.75V355.21h-.07l-2.88,19.08H96.27l-2.88-19.08h-.07v19.08H89.86Z"/><path d="M110.49,373a6.62,6.62,0,0,1-1.55-4.68V355.07a6.59,6.59,0,0,1,1.55-4.68,6.83,6.83,0,0,1,8.93,0,6.59,6.59,0,0,1,1.55,4.68v13.25a6.62,6.62,0,0,1-1.55,4.68,6.87,6.87,0,0,1-8.93,0Zm6.52-4.43V354.82c0-1.66-.69-2.49-2.06-2.49s-2,.83-2,2.49v13.75c0,1.65.69,2.48,2,2.48S117,370.22,117,368.57Z"/><path d="M123.63,349.09h5.87a6.07,6.07,0,0,1,4.46,1.42,6,6,0,0,1,1.41,4.38v1.55c0,2.61-.87,4.27-2.6,5v.08a3.08,3.08,0,0,1,2,1.76,9,9,0,0,1,.59,3.56v4.43c0,.72,0,1.3.07,1.75a4.49,4.49,0,0,0,.36,1.31h-4a6.25,6.25,0,0,1-.29-1.15c0-.36-.07-1-.07-1.94v-4.61a3.84,3.84,0,0,0-.56-2.41,2.34,2.34,0,0,0-1.92-.69h-1.37v10.8h-4Zm5.4,10.8a2.36,2.36,0,0,0,1.78-.61,2.87,2.87,0,0,0,.6-2v-2a3.23,3.23,0,0,0-.49-2,1.85,1.85,0,0,0-1.53-.61h-1.8v7.2Z"/><path d="M138.93,373a6.78,6.78,0,0,1-1.48-4.69v-1.44h3.75v1.72c0,1.64.68,2.45,2.05,2.45a2,2,0,0,0,1.53-.59,2.89,2.89,0,0,0,.52-1.93,5.37,5.37,0,0,0-.72-2.79,13.57,13.57,0,0,0-2.66-2.9,16.1,16.1,0,0,1-3.42-3.9,8,8,0,0,1-1-3.94,6.55,6.55,0,0,1,1.51-4.63,5.69,5.69,0,0,1,4.39-1.64,5.45,5.45,0,0,1,4.3,1.64,6.85,6.85,0,0,1,1.46,4.7v1h-3.74v-1.29a2.85,2.85,0,0,0-.51-1.89,1.81,1.81,0,0,0-1.47-.6c-1.32,0-2,.81-2,2.41a4.76,4.76,0,0,0,.73,2.56,14.42,14.42,0,0,0,2.69,2.88,15.13,15.13,0,0,1,3.42,3.92,8.78,8.78,0,0,1,.93,4.14,6.78,6.78,0,0,1-1.53,4.76,5.76,5.76,0,0,1-4.44,1.65A5.54,5.54,0,0,1,138.93,373Z"/><path class="cls-4" d="M198.9,347.4s-.19-4.81-1.41-6.08c0,0-.68-.89-1,.15l-.64,1-.68-.93s1.63,0,.8-1.4l-1.59-3,0-.59-.79-1.89,3.38,1.19s1.31.4,0-.53l-3.87-1.86,0-.3,3.42,1.36s.71.29,0-.45L192.3,332l0-.33,2.56,1.06s1.11.23-.16-.51a40,40,0,0,1-4.78-3.29s-1.79-1.48-3.18-.8l-1,.76.12.3-.34.65-1.95-.12-3-3a5.9,5.9,0,0,0,.43-1.78s.59-1.08-.43-1.29a1.07,1.07,0,0,0-.88-1.19s2.08-.91-.52-1.86c0,0-5.6-2.33-6.94,2.37a7.63,7.63,0,0,0,.3,4.15l1.06,1.47.21.38.68.74s1,.12,1.24-.28l.05.38-2.25.94a2.53,2.53,0,0,0-2,.76h-1.05l-.86,1.25a5.06,5.06,0,0,0-2.08,2.54l-.95,2.12-.32,1.21s.68,3.34,2.74,4.34l.32,1.78.38.61s-3.22,4.61-6.94,15.6c0,0,.61-.3.11,1l-1.62,3.48.1.48-.23.63s.27.69,1.48.51l.81-.89.31,0,0,.29-.23.32s-.31.37.73.42l.9-1.86a7.72,7.72,0,0,0,1-1.22,9.12,9.12,0,0,0,1.67-3.46l-.07,3.17-.18,2.74-.07,1.53,1.19.81v1.82s-1.35-.72-1.35.83l0,3.55s2.27,11.42,3.67,13.76l.45.06.78,1.15a2,2,0,0,0-.06,1.34,20.47,20.47,0,0,1-1.66,3l.07.49-.62.91s-.94-.37-.94.73c0,0-1.53,1.88-2,2.34,0,0-1.55-.22-1.46.88l-.48.48-1.17,0s-.88.46.16.82l2.37.64,4.64-.58s1.76-.18.13-1l.52-.58,2.41-.21a1.57,1.57,0,0,0,1.35.82l3-.26s1,.11.54-1.29c0,0,.23-4.22-1.07-4.43a4.45,4.45,0,0,0,.11-2.43s.45-1.31-.91-1.27l.36-.56-.36-.92.21-.82.15-.67s.24-1.73-.64-2.45c0,0,.69-4.93-.67-6l-.06-.48a3.1,3.1,0,0,0-.34-2.8,6.17,6.17,0,0,1-.82-2.86l-.1-.73.07-1.49,1.12-.54a62.23,62.23,0,0,0,1.39-6.23s.55,4.07,1.26,5.24a4,4,0,0,0,1.77-.08c-.09,0-.33.25-.11,1.36l.07,3.11a6.21,6.21,0,0,0,1.53,3.81l.34,1.24,0,.61,0,.86s-.78.5-.24,2.32c0,0,.34,3,1.23,3.94l1.12,3,.2.86-.07.45.58,1.08-.63,1.47s-.86,3.39-.11,5.62l-.51.73v.7l.06.47-.51.48.07.59-1.48.9s-1.14.8.33.86l5.3.35,1.9-1s1.06-.27-.6-1.29l0-.47s1.51.74,1.56-.59h.33s.07,1.3,1.18,1.23l1.89-.61s0-3.16-.56-3.85v-.9a12.24,12.24,0,0,1-1.14-4.45l-1.19-.36a.71.71,0,0,0-.77-.48,1.17,1.17,0,0,0-.45-1.56l.59-.59s.33-5-.3-6a3.19,3.19,0,0,0,.16-2.18l-.89-5.6a1.42,1.42,0,0,0-1.44-1.07s.48-1.62-1.67-3.91c0,0,.85.28.85-2l-.4-9.64s0-1.66-.45-2a6.1,6.1,0,0,0,.89-3.57s.07-3.8-1.7-4.42a.82.82,0,0,0-.23-1.15s-.16-.25-.82-.06a3.29,3.29,0,0,1-1-2,38.69,38.69,0,0,1,2.94-4.08l.21-1.31a2.37,2.37,0,0,0,.72-2s1,1.56,2.18,1.14l-.66.72,3.4,3.88a4,4,0,0,1,.72,2.52,26.44,26.44,0,0,0,.41,4l.09,3.9-.31.38-1.39,2.69.73.72v1.46l.32.53s-.05,1.34,1.2.53v1.23a1.83,1.83,0,0,0-.59,1.36l0,1.25,1.39.7.54-1s2.88-.57,3.24-2.39v-2.08l.64-4.32S199.19,348.44,198.9,347.4Z"/><path d="M194.91,347.4s-.15-4.81-1.2-6.08c0,0-.59-.89-.9.15l-.54,1-.59-.93s1.4,0,.68-1.4l-1.36-3,0-.59-.68-1.89,2.9,1.19s1.13.4,0-.53l-3.33-1.86,0-.3,2.94,1.36s.6.29,0-.45L189.25,332l0-.33,2.2,1.06s.95.23-.14-.51a35.63,35.63,0,0,1-4.11-3.29s-1.54-1.48-2.72-.8l-.88.76.1.3-.29.65-1.68-.12-2.61-3a6.8,6.8,0,0,0,.37-1.78s.51-1.08-.37-1.29a1.09,1.09,0,0,0-.76-1.19s1.79-.91-.44-1.86c0,0-4.81-2.33-6,2.37a8.85,8.85,0,0,0,.25,4.15l.92,1.47.17.38.58.74s.86.12,1.08-.28l0,.38-1.92.94a2,2,0,0,0-1.74.76h-.89l-.74,1.25a4.9,4.9,0,0,0-1.79,2.54l-.82,2.12-.27,1.21s.58,3.34,2.35,4.34l.28,1.78.33.61s-2.77,4.61-6,15.6c0,0,.52-.3.09,1l-1.39,3.48.09.48-.2.63s.23.69,1.27.51l.7-.89.26,0,0,.29-.2.32s-.26.37.63.42l.78-1.86a7.79,7.79,0,0,0,.86-1.22,9.8,9.8,0,0,0,1.44-3.46l-.07,3.17-.15,2.74-.06,1.53,1,.81v1.82s-1.15-.72-1.15.83l0,3.55s2,11.42,3.15,13.76l.39.06.67,1.15a2.23,2.23,0,0,0,0,1.34,21,21,0,0,1-1.43,3l.06.49-.53.91s-.81-.37-.81.73c0,0-1.31,1.88-1.73,2.34,0,0-1.34-.22-1.26.88l-.41.48-1,0s-.75.46.14.82l2,.64,4-.58s1.5-.18.11-1l.45-.58,2.06-.21a1.38,1.38,0,0,0,1.17.82l2.56-.26s.87.11.46-1.29c0,0,.19-4.22-.92-4.43a5.14,5.14,0,0,0,.09-2.43s.39-1.31-.78-1.27l.31-.56-.31-.92.18-.82.13-.67s.21-1.73-.55-2.45c0,0,.6-4.93-.57-6l-.06-.48a3.57,3.57,0,0,0-.29-2.8,6.93,6.93,0,0,1-.7-2.86l-.09-.73.06-1.49,1-.54s1.2-5.24,1.2-6.23c0,0,.47,4.07,1.08,5.24a3,3,0,0,0,1.52-.08c-.07,0-.28.25-.09,1.36l.06,3.11a6.89,6.89,0,0,0,1.31,3.81l.29,1.24,0,.61,0,.86s-.67.5-.2,2.32c0,0,.29,3,1.05,3.94l1,3,.17.86-.06.45.5,1.08-.55,1.47a14.17,14.17,0,0,0-.09,5.62l-.44.73v.7l.06.47-.44.48.06.59-1.28.9s-1,.8.28.86l4.56.35,1.64-1s.91-.27-.53-1.29l0-.47s1.3.74,1.34-.59h.29s.06,1.3,1,1.23l1.62-.61s0-3.16-.47-3.85v-.9a13.83,13.83,0,0,1-1-4.45l-1-.36a.65.65,0,0,0-.67-.48,1.3,1.3,0,0,0-.38-1.56l.51-.59s.27-5-.26-6a3.73,3.73,0,0,0,.13-2.18l-.76-5.6a1.31,1.31,0,0,0-1.24-1.07s.41-1.62-1.43-3.91c0,0,.73.28.73-2l-.35-9.64s0-1.66-.38-2a6.91,6.91,0,0,0,.76-3.57s.06-3.8-1.46-4.42c0,0,.39-.75-.19-1.15,0,0-.15-.25-.71-.06a3.49,3.49,0,0,1-.9-2,40.62,40.62,0,0,1,2.53-4.08l.18-1.31a2.6,2.6,0,0,0,.62-2s.84,1.56,1.87,1.14l-.57.72,2.92,3.88a4.47,4.47,0,0,1,.63,2.52,29.69,29.69,0,0,0,.35,4l.08,3.9-.28.38-1.18,2.69.62.72v1.46l.27.53s0,1.34,1,.53v1.23a2,2,0,0,0-.5,1.36l0,1.25,1.19.7.46-1s2.48-.57,2.79-2.39v-2.08l.54-4.32A77.67,77.67,0,0,0,194.91,347.4Z"/></g><g id="personality"><path class="cls-3" d="M20.05,433.05h5.34a5.32,5.32,0,0,1,4.06,1.45,6.05,6.05,0,0,1,1.35,4.26V441a6.05,6.05,0,0,1-1.35,4.26,5.32,5.32,0,0,1-4.06,1.45H23.68v9.4H20.05Zm5.34,10.4a1.71,1.71,0,0,0,1.34-.5,2.54,2.54,0,0,0,.44-1.68v-2.74a2.54,2.54,0,0,0-.44-1.68,1.71,1.71,0,0,0-1.34-.5H23.68v7.1Z"/><path class="cls-3" d="M32.78,433.05h9.9v3.3H36.41v6.11h5v3.3h-5v7.09h6.27v3.3h-9.9Z"/><path class="cls-3" d="M44.76,433.05h5.38a5.55,5.55,0,0,1,4.09,1.31,5.49,5.49,0,0,1,1.29,4v1.42q0,3.58-2.38,4.55v.07A2.83,2.83,0,0,1,55,446a8.25,8.25,0,0,1,.54,3.27v4.06a13.87,13.87,0,0,0,.07,1.6,3.71,3.71,0,0,0,.33,1.2h-3.7a5,5,0,0,1-.26-1,14.33,14.33,0,0,1-.07-1.78v-4.23a3.61,3.61,0,0,0-.51-2.21,2.15,2.15,0,0,0-1.76-.63H48.39v9.9H44.76Zm5,9.9a2.18,2.18,0,0,0,1.64-.56,2.66,2.66,0,0,0,.54-1.88v-1.78a2.93,2.93,0,0,0-.45-1.82,1.68,1.68,0,0,0-1.4-.56H48.39V443Z"/><path class="cls-3" d="M58.79,455a6.16,6.16,0,0,1-1.36-4.3v-1.32h3.44v1.58c0,1.5.62,2.24,1.88,2.24a1.78,1.78,0,0,0,1.4-.54,2.64,2.64,0,0,0,.48-1.77,4.87,4.87,0,0,0-.66-2.55,12.23,12.23,0,0,0-2.44-2.66,14.43,14.43,0,0,1-3.14-3.58,7.36,7.36,0,0,1-.89-3.62,6,6,0,0,1,1.39-4.24,5.19,5.19,0,0,1,4-1.5,5,5,0,0,1,4,1.5,6.3,6.3,0,0,1,1.33,4.31v1H64.76V438.3a2.63,2.63,0,0,0-.46-1.73,1.7,1.7,0,0,0-1.36-.55c-1.21,0-1.81.74-1.81,2.21a4.4,4.4,0,0,0,.68,2.35,13.37,13.37,0,0,0,2.45,2.64,13.66,13.66,0,0,1,3.14,3.59,8,8,0,0,1,.86,3.8,6.2,6.2,0,0,1-1.4,4.35,5.27,5.27,0,0,1-4.08,1.52A5.09,5.09,0,0,1,58.79,455Z"/><path class="cls-3" d="M71.49,455a6.06,6.06,0,0,1-1.42-4.28V438.53a6.07,6.07,0,0,1,1.42-4.29,6.28,6.28,0,0,1,8.19,0,6.06,6.06,0,0,1,1.41,4.29v12.15A6.05,6.05,0,0,1,79.68,455a6.28,6.28,0,0,1-8.19,0Zm6-4V438.3c0-1.52-.62-2.28-1.88-2.28s-1.88.76-1.88,2.28v12.61c0,1.51.63,2.27,1.88,2.27S77.46,452.42,77.46,450.91Z"/><path class="cls-3" d="M83.54,433.05h4.55l3.53,13.83h.07V433.05h3.23v23.1H91.19l-4.35-16.86h-.07v16.86H83.54Z"/><path class="cls-3" d="M100.43,433.05h4.92l3.76,23.1h-3.63l-.66-4.58v.06H100.7l-.66,4.52H96.67Zm4,15.45-1.62-11.42h-.06l-1.59,11.42Z"/><path class="cls-3" d="M110.86,433.05h3.63v19.8h6v3.3h-9.6Z"/><path class="cls-3" d="M122.21,433.05h3.63v23.1h-3.63Z"/><path class="cls-3" d="M131.38,436.35h-3.79v-3.3h11.22v3.3H135v19.8h-3.63Z"/><path class="cls-3" d="M144,446.32l-4.39-13.27h3.87l2.47,8.48H146l2.47-8.48H152l-4.39,13.27v9.83H144Z"/><circle class="cls-5" cx="114.11" cy="564" r="89"/><path class="cls-6" d="M112.61,564l-78.3-39.73A90.28,90.28,0,0,0,25.11,564c0,48.82,39.49,89,87.5,89s87.5-40.18,87.5-89Z"/><path class="cls-7" d="M112.11,565l54.6,70.28a89,89,0,0,0-21.69-153Z"/><path class="cls-3" d="M71.76,508.46H76v1.4H73.3v2.59h2.12v1.4H73.3v3H76v1.4h-4.2Z"/><path class="cls-3" d="M76.84,508.46h1.94l1.49,5.86h0v-5.86h1.37v9.8H80.09l-1.85-7.16h0v7.16H76.84Z"/><path class="cls-3" d="M83.3,517.76a2.61,2.61,0,0,1-.59-1.83v-5.15A2.63,2.63,0,0,1,83.3,509a2.62,2.62,0,0,1,3.41,0,2.58,2.58,0,0,1,.59,1.83v.84H85.85v-.94c0-.64-.27-1-.8-1s-.8.32-.8,1V516c0,.64.27,1,.8,1s.8-.32.8-1v-1.91h-.77v-1.4H87.3v3.2a2.57,2.57,0,0,1-.59,1.83,2.59,2.59,0,0,1-3.41,0Z"/><path class="cls-3" d="M88.3,508.46h1.54v9.8H88.3Z"/><path class="cls-3" d="M91,508.46h1.94l1.49,5.86h0v-5.86h1.37v9.8H94.23l-1.85-7.16h0v7.16H91Z"/><path class="cls-3" d="M97,508.46h4.2v1.4H98.5v2.59h2.12v1.4H98.5v3h2.66v1.4H97Z"/><path class="cls-3" d="M102,508.46h4.2v1.4h-2.66v2.59h2.12v1.4h-2.12v3h2.66v1.4H102Z"/><path class="cls-3" d="M107.13,508.46h2.28a2.33,2.33,0,0,1,1.73.55,2.3,2.3,0,0,1,.55,1.7v.6c0,1-.34,1.66-1,1.93v0a1.19,1.19,0,0,1,.79.69,3.33,3.33,0,0,1,.23,1.38v1.73a6.26,6.26,0,0,0,0,.68,1.94,1.94,0,0,0,.14.51H110.3a2.93,2.93,0,0,1-.11-.45,6.3,6.3,0,0,1,0-.76v-1.79a1.57,1.57,0,0,0-.21-.94.92.92,0,0,0-.75-.26h-.54v4.2h-1.53Zm2.09,4.2a.94.94,0,0,0,.7-.24,1.16,1.16,0,0,0,.23-.8v-.76a1.23,1.23,0,0,0-.19-.77.74.74,0,0,0-.6-.23h-.7v2.8Z"/><path class="cls-3" d="M68.24,604.76a2.61,2.61,0,0,1-.59-1.83v-5.15a2.63,2.63,0,0,1,.59-1.83,2.62,2.62,0,0,1,3.41,0,2.58,2.58,0,0,1,.59,1.83v.84H70.79v-.94c0-.64-.27-1-.8-1s-.8.32-.8,1V603c0,.64.27,1,.8,1s.8-.32.8-1v-1.91H70v-1.4h2.22v3.2a2.57,2.57,0,0,1-.59,1.83,2.59,2.59,0,0,1-3.41,0Z"/><path class="cls-3" d="M73.24,595.46h4.2v1.4H74.78v2.59h2.11v1.4H74.78v3h2.66v1.4h-4.2Z"/><path class="cls-3" d="M78.32,595.46h1.93l1.5,5.86h0v-5.86h1.37v9.8H81.57l-1.85-7.16h0v7.16H78.32Z"/><path class="cls-3" d="M84.3,595.46h1.54v9.8H84.3Z"/><path class="cls-3" d="M87.52,604.76a2.57,2.57,0,0,1-.59-1.83v-7.47h1.54V603a1,1,0,0,0,.2.73.75.75,0,0,0,.58.23.74.74,0,0,0,.58-.23A1,1,0,0,0,90,603v-7.58h1.48v7.47a2.61,2.61,0,0,1-.59,1.83,2.59,2.59,0,0,1-3.41,0Z"/><path class="cls-3" d="M92.92,604.76a2.66,2.66,0,0,1-.57-1.83v-.56H93.8V603c0,.64.27,1,.8,1a.72.72,0,0,0,.59-.24,1.07,1.07,0,0,0,.21-.74,2.15,2.15,0,0,0-.28-1.09,5.24,5.24,0,0,0-1-1.13,6.3,6.3,0,0,1-1.33-1.51,3.17,3.17,0,0,1-.38-1.54A2.58,2.58,0,0,1,93,596a2.22,2.22,0,0,1,1.71-.63,2.13,2.13,0,0,1,1.67.63,2.67,2.67,0,0,1,.57,1.83v.41H95.45v-.51a1.12,1.12,0,0,0-.19-.73.69.69,0,0,0-.58-.23c-.51,0-.77.31-.77.93a1.88,1.88,0,0,0,.29,1,5.51,5.51,0,0,0,1,1.12,5.71,5.71,0,0,1,1.33,1.52,3.33,3.33,0,0,1,.37,1.61,2.61,2.61,0,0,1-.6,1.85,2.22,2.22,0,0,1-1.73.65A2.18,2.18,0,0,1,92.92,604.76Z"/><path class="cls-3" d="M152,549.71h1.54v8.4h2.54v1.4H152Z"/><path class="cls-3" d="M157.22,559a2.58,2.58,0,0,1-.6-1.82V552a2.56,2.56,0,0,1,.6-1.82,2.64,2.64,0,0,1,3.47,0,2.56,2.56,0,0,1,.61,1.82v5.15a2.58,2.58,0,0,1-.61,1.82,2.67,2.67,0,0,1-3.47,0Zm2.54-1.72v-5.35c0-.64-.27-1-.8-1s-.8.33-.8,1v5.35c0,.64.27,1,.8,1S159.76,557.93,159.76,557.29Z"/><path class="cls-3" d="M161.9,549.71h1.55l1,7.61h0l1-7.61h1.41l-1.48,9.8h-2.05Z"/><path class="cls-3" d="M167.65,549.71h4.2v1.4h-2.66v2.6h2.12v1.39h-2.12v3h2.66v1.4h-4.2Z"/></g><g id="frenemies_copy" data-name="frenemies copy"><line class="cls-8" x1="20" y1="843" x2="208" y2="843"/><rect class="cls-9" x="143" y="710.5" width="50.5" height="130.5"/><path class="cls-3" d="M24.69,831.2v-4.65h1.6v2.89h3.12v-2.27H31v2.27h4.88v1.76Z"/><path class="cls-3" d="M24.69,825.7v-2.61a2.67,2.67,0,0,1,.63-2,2.66,2.66,0,0,1,1.95-.63H28a2.1,2.1,0,0,1,2.2,1.15h0a1.39,1.39,0,0,1,.79-.9,3.85,3.85,0,0,1,1.58-.26h2a5.57,5.57,0,0,0,.78,0,1.8,1.8,0,0,0,.58-.16v1.8a2.67,2.67,0,0,1-.51.12,5.67,5.67,0,0,1-.86,0H32.47a1.77,1.77,0,0,0-1.07.24,1,1,0,0,0-.31.86v.61h4.8v1.76Zm4.8-2.4a1,1,0,0,0-.27-.79,1.27,1.27,0,0,0-.91-.27h-.87a1.39,1.39,0,0,0-.88.22.81.81,0,0,0-.27.68v.8h3.2Z"/><path class="cls-3" d="M24.69,819.25v-1.76h11.2v1.76Z"/><path class="cls-3" d="M24.69,816.18v-4.8h1.6v3h3V812h1.6v2.42h3.44v-3h1.6v4.8Z"/><path class="cls-3" d="M24.69,810.37v-2.21l6.71-1.71v0H24.69v-1.57h11.2v1.81l-8.17,2.11v0h8.17v1.57Z"/><path class="cls-3" d="M24.69,803.54v-2.69a2.58,2.58,0,0,1,.71-2,2.92,2.92,0,0,1,2.06-.65h5.66a3,3,0,0,1,2.07.65,2.57,2.57,0,0,1,.7,2v2.69Zm9.6-2.66a.82.82,0,0,0-.26-.66,1.18,1.18,0,0,0-.83-.23H27.38a1.18,1.18,0,0,0-.83.23.85.85,0,0,0-.26.66v.9h8Z"/><path class="cls-3" d="M35.32,796.69a3,3,0,0,1-2.09.66H32.6v-1.67h.76c.73,0,1.09-.3,1.09-.91a.88.88,0,0,0-.26-.68,1.32,1.32,0,0,0-.86-.23,2.41,2.41,0,0,0-1.24.32,5.86,5.86,0,0,0-1.29,1.18,6.94,6.94,0,0,1-1.73,1.52,3.54,3.54,0,0,1-1.76.44,2.9,2.9,0,0,1-2-.68,2.5,2.5,0,0,1-.73-1.95,2.41,2.41,0,0,1,.73-1.91,3,3,0,0,1,2.09-.65h.46v1.66h-.58a1.25,1.25,0,0,0-.83.23.81.81,0,0,0-.27.66c0,.58.36.87,1.07.87a2.09,2.09,0,0,0,1.14-.32A6.49,6.49,0,0,0,29.62,794a6.41,6.41,0,0,1,1.74-1.52,3.87,3.87,0,0,1,1.84-.42,3,3,0,0,1,2.11.68,2.52,2.52,0,0,1,.74,2A2.45,2.45,0,0,1,35.32,796.69Z"/><path class="cls-3" d="M24.69,788.53V786l8-1.12v0l-8-1.12v-2.51h11.2v1.66H27.41v0l8.48,1.28v1.47L27.41,787v0h8.48v1.53Z"/><path class="cls-3" d="M24.69,778.56v-2.38l11.2-1.82v1.76l-2.22.32h0v2l2.19.32v1.63Zm7.49-1.92-5.54.79v0l5.54.77Z"/><path class="cls-3" d="M24.69,773.51v-2.69a2.58,2.58,0,0,1,.71-2,2.92,2.92,0,0,1,2.06-.65h5.66a3,3,0,0,1,2.07.65,2.57,2.57,0,0,1,.7,2v2.69Zm9.6-2.66a.8.8,0,0,0-.26-.66,1.18,1.18,0,0,0-.83-.23H27.38a1.18,1.18,0,0,0-.83.23.84.84,0,0,0-.26.66v.9h8Z"/><path class="cls-3" d="M24.69,767v-4.8h1.6v3h3v-2.41h1.6v2.41h3.44v-3h1.6V767Z"/><path class="cls-3" d="M121.69,831.2v-4.8h1.6v3h3V827h1.6v2.41h3.44v-3h1.6v4.8Z"/><path class="cls-3" d="M121.69,825.39v-2.2l6.71-1.72v0h-6.71v-1.56h11.2v1.8l-8.17,2.11v0h8.17v1.56Z"/><path class="cls-3" d="M121.69,818.56v-4.8h1.6v3h3v-2.41h1.6v2.41h3.44v-3h1.6v4.8Z"/><path class="cls-3" d="M121.69,812.76v-2.52l8-1.12v0l-8-1.12v-2.51h11.2v1.66h-8.48v0l8.48,1.28v1.47l-8.48,1.28v0h8.48v1.54Z"/><path class="cls-3" d="M121.69,804.15v-1.76h11.2v1.76Z"/><path class="cls-3" d="M121.69,801.08v-4.8h1.6v3h3V796.9h1.6v2.42h3.44v-3h1.6v4.8Z"/><path class="cls-3" d="M132.32,794.88a3,3,0,0,1-2.09.66h-.63v-1.66h.76c.73,0,1.09-.31,1.09-.92a.9.9,0,0,0-.26-.68,1.32,1.32,0,0,0-.86-.23,2.41,2.41,0,0,0-1.24.32,5.7,5.7,0,0,0-1.29,1.19,7.38,7.38,0,0,1-1.73,1.52,3.64,3.64,0,0,1-1.76.43,2.94,2.94,0,0,1-2-.67,2.52,2.52,0,0,1-.73-2,2.41,2.41,0,0,1,.73-1.91,3,3,0,0,1,2.09-.65h.46V792h-.58a1.25,1.25,0,0,0-.83.22.81.81,0,0,0-.27.66c0,.59.36.88,1.07.88a2.1,2.1,0,0,0,1.14-.33,6.49,6.49,0,0,0,1.28-1.19,6.41,6.41,0,0,1,1.74-1.52,3.87,3.87,0,0,1,1.84-.42,3,3,0,0,1,2.11.68,2.54,2.54,0,0,1,.74,2A2.44,2.44,0,0,1,132.32,794.88Z"/><path class="cls-3" d="M121.69,786.72v-2.51l8-1.12v0l-8-1.12v-2.51h11.2v1.66h-8.48v0l8.48,1.28v1.48l-8.48,1.28v0h8.48v1.53Z"/><path class="cls-3" d="M121.69,776.76v-2.39l11.2-1.82v1.76l-2.22.32h0v2l2.19.32v1.63Zm7.49-1.92-5.54.78v0l5.54.77Z"/><path class="cls-3" d="M121.69,771.7V769a2.58,2.58,0,0,1,.71-2,2.92,2.92,0,0,1,2.06-.65h5.66a3,3,0,0,1,2.07.65,2.57,2.57,0,0,1,.7,2v2.69Zm9.6-2.66a.83.83,0,0,0-.26-.66,1.23,1.23,0,0,0-.83-.23h-5.82a1.23,1.23,0,0,0-.83.23.87.87,0,0,0-.26.66v.9h8Z"/><path class="cls-3" d="M121.69,765.21V760.4h1.6v3h3V761h1.6v2.41h3.44v-3h1.6v4.81Z"/><rect class="cls-9" x="48.26" y="753.5" width="50.5" height="89.5"/><path d="M168,695h-3.1v-2.1a7.49,7.49,0,0,0,2-.22,2.59,2.59,0,0,0,1.23-.71,4.73,4.73,0,0,0,.81-1.45h2v18.9h-3Z"/><path d="M179.58,706h-5.67v-2.7l5.4-12.77h3.24v12.77H184V706h-1.41v3.43h-3Zm0-2.7v-7.37h-.05l-2.92,7.37Z"/><path d="M186.47,708.46a5,5,0,0,1-1.14-3.52v-1.48h2.81v1.7c0,1.22.52,1.83,1.54,1.83s1.54-.61,1.54-1.83v-4.24c0-1.25-.51-1.87-1.54-1.87s-1.54.62-1.54,1.87v.16h-2.81l.55-10.56h7.83v2.7h-5.19l-.24,4.51h.05a2.81,2.81,0,0,1,2.57-1.38,2.86,2.86,0,0,1,2.45,1.11,5.25,5.25,0,0,1,.84,3.21v4.27a5,5,0,0,1-1.13,3.52,5,5,0,0,1-6.59,0Z"/><path d="M81.87,751.46a5,5,0,0,1-1.13-3.52v-1.48h2.8v1.7c0,1.22.52,1.83,1.54,1.83s1.54-.61,1.54-1.83v-4.24c0-1.25-.51-1.87-1.54-1.87s-1.54.62-1.54,1.87v.16h-2.8l.54-10.56h7.83v2.7H83.92l-.24,4.51h0a2.81,2.81,0,0,1,2.57-1.38,2.86,2.86,0,0,1,2.45,1.11,5.25,5.25,0,0,1,.84,3.21v4.27a5,5,0,0,1-1.13,3.52,5,5,0,0,1-6.59,0Z"/><path d="M96.58,749H90.91v-2.7l5.4-12.77h3.24v12.77H101V749H99.55v3.43h-3Zm0-2.7v-7.37h0l-2.92,7.37Z"/></g><g id="strength-weakness"><line class="cls-10" x1="113.4" y1="887.46" x2="113.4" y2="937.46"/><path class="cls-3" d="M25.47,901.35a2.67,2.67,0,0,1-.57-1.83V899h1.46v.67c0,.64.26,1,.79,1a.74.74,0,0,0,.6-.23,1.14,1.14,0,0,0,.2-.75,2,2,0,0,0-.28-1.08,5.14,5.14,0,0,0-1-1.13,6.1,6.1,0,0,1-1.33-1.52,3,3,0,0,1-.38-1.53,2.52,2.52,0,0,1,.59-1.8,2.22,2.22,0,0,1,1.7-.64,2.16,2.16,0,0,1,1.68.64,2.66,2.66,0,0,1,.56,1.83v.4H28v-.5a1.15,1.15,0,0,0-.2-.74.72.72,0,0,0-.57-.23c-.51,0-.77.32-.77.94a1.74,1.74,0,0,0,.29,1,5,5,0,0,0,1,1.12,5.91,5.91,0,0,1,1.33,1.53,3.44,3.44,0,0,1,.36,1.61,2.67,2.67,0,0,1-.59,1.85,2.25,2.25,0,0,1-1.73.64A2.2,2.2,0,0,1,25.47,901.35Z"/><path class="cls-3" d="M30.38,892h4.19v1.4H31.91V896H34v1.4H31.91v3h2.66v1.4H30.38Z"/><path class="cls-3" d="M35.94,901.35a2.5,2.5,0,0,1-.58-1.77v-5.27a2.53,2.53,0,0,1,.58-1.78,2.19,2.19,0,0,1,1.69-.63,2.17,2.17,0,0,1,1.68.63,2.53,2.53,0,0,1,.59,1.78v1H38.44v-1.14c0-.6-.26-.91-.77-.91s-.77.31-.77.91v5.48c0,.59.26.89.77.89s.77-.3.77-.89v-1.5H39.9v1.39a2.51,2.51,0,0,1-.59,1.77,2.17,2.17,0,0,1-1.68.63A2.19,2.19,0,0,1,35.94,901.35Z"/><path class="cls-3" d="M40.82,892H43.1a2.38,2.38,0,0,1,1.74.56,2.34,2.34,0,0,1,.54,1.7v.6c0,1-.33,1.66-1,1.93v0a1.2,1.2,0,0,1,.8.69,3.47,3.47,0,0,1,.23,1.38v1.72c0,.28,0,.51,0,.68a1.75,1.75,0,0,0,.14.51H44a2,2,0,0,1-.12-.45c0-.13,0-.39,0-.75v-1.79a1.56,1.56,0,0,0-.22-.94.91.91,0,0,0-.75-.27h-.53v4.2H40.82Zm2.1,4.2a.94.94,0,0,0,.69-.23,1.11,1.11,0,0,0,.23-.8v-.76a1.23,1.23,0,0,0-.19-.77.69.69,0,0,0-.59-.24h-.7v2.8Z"/><path class="cls-3" d="M46.46,892h4.2v1.4H48V896h2.11v1.4H48v3h2.66v1.4h-4.2Z"/><path class="cls-3" d="M52.75,893.44H51.14V892H55.9v1.4H54.29v8.4H52.75Z"/><path class="cls-3" d="M59.19,901.35a2.63,2.63,0,0,1-.58-1.83V899h1.46v.67c0,.64.26,1,.8,1a.71.71,0,0,0,.59-.23,1.09,1.09,0,0,0,.2-.75,2,2,0,0,0-.28-1.08,5.14,5.14,0,0,0-1-1.13A6.1,6.1,0,0,1,59,895.87a3.1,3.1,0,0,1-.38-1.53,2.57,2.57,0,0,1,.59-1.8,2.22,2.22,0,0,1,1.71-.64,2.15,2.15,0,0,1,1.67.64,2.66,2.66,0,0,1,.57,1.83v.4H61.72v-.5a1.09,1.09,0,0,0-.2-.74.72.72,0,0,0-.57-.23c-.51,0-.77.32-.77.94a1.82,1.82,0,0,0,.29,1,5.26,5.26,0,0,0,1,1.12,5.91,5.91,0,0,1,1.33,1.53,3.44,3.44,0,0,1,.36,1.61,2.62,2.62,0,0,1-.59,1.85,2.23,2.23,0,0,1-1.73.64A2.16,2.16,0,0,1,59.19,901.35Z"/><path class="cls-3" d="M65.29,893.44H63.68V892h4.76v1.4H66.83v8.4H65.29Z"/><path class="cls-3" d="M69.18,892h2.28a2,2,0,0,1,2.29,2.26v.6c0,1-.34,1.66-1,1.93v0a1.19,1.19,0,0,1,.79.69,3.47,3.47,0,0,1,.23,1.38v1.72a6.13,6.13,0,0,0,0,.68,1.49,1.49,0,0,0,.14.51H72.36a2,2,0,0,1-.11-.45,6.11,6.11,0,0,1,0-.75v-1.79a1.49,1.49,0,0,0-.22-.94.9.9,0,0,0-.75-.27h-.53v4.2H69.18Zm2.1,4.2A1,1,0,0,0,72,896a1.16,1.16,0,0,0,.23-.8v-.76a1.3,1.3,0,0,0-.19-.77.73.73,0,0,0-.6-.24h-.7v2.8Z"/><path class="cls-3" d="M74.83,892H79v1.4H76.36V896h2.12v1.4H76.36v3H79v1.4H74.83Z"/><path class="cls-3" d="M79.91,892h1.93l1.5,5.87h0V892h1.37v9.8H83.15l-1.84-7.15h0v7.15H79.91Z"/><path class="cls-3" d="M86.36,901.35a2.63,2.63,0,0,1-.59-1.83v-5.15a2.61,2.61,0,0,1,.59-1.83,2.6,2.6,0,0,1,3.42,0,2.61,2.61,0,0,1,.59,1.83v.84H88.91v-.94c0-.64-.27-1-.8-1s-.8.33-.8,1v5.36c0,.64.27,1,.8,1s.8-.31.8-1v-1.92h-.77v-1.4h2.23v3.21a2.63,2.63,0,0,1-.59,1.83,2.64,2.64,0,0,1-3.42,0Z"/><path class="cls-3" d="M92.56,893.44H91V892h4.76v1.4H94.1v8.4H92.56Z"/><path class="cls-3" d="M96.46,892H98v4h1.66v-4h1.54v9.8H99.65v-4.41H98v4.41H96.46Z"/><path class="cls-3" d="M102.33,895h1.49v1.49h-1.49Zm0,5.34h1.49v1.48h-1.49Z"/><path class="cls-3" d="M24.54,907.44H22.93V906h4.76v1.4H26.08v8.4H24.54Z"/><path class="cls-3" d="M28.43,906H30v4h1.65v-4h1.54v9.8H31.62v-4.41H30v4.41H28.43Z"/><path class="cls-3" d="M34.31,906h4.2v1.4H35.85V910H38v1.4H35.85v3h2.66v1.4h-4.2Z"/><path class="cls-3" d="M41.94,915.35a2.68,2.68,0,0,1-.58-1.83V913h1.46v.67c0,.64.27,1,.8,1a.71.71,0,0,0,.59-.23,1.08,1.08,0,0,0,.21-.75,2.12,2.12,0,0,0-.28-1.08,5.52,5.52,0,0,0-1-1.13,6.31,6.31,0,0,1-1.33-1.52,3.1,3.1,0,0,1-.38-1.53,2.57,2.57,0,0,1,.59-1.8,2.22,2.22,0,0,1,1.71-.64,2.13,2.13,0,0,1,1.67.64,2.66,2.66,0,0,1,.57,1.83v.4H44.47v-.5a1.15,1.15,0,0,0-.19-.74.74.74,0,0,0-.58-.23c-.51,0-.77.32-.77.94a1.82,1.82,0,0,0,.29,1,5.26,5.26,0,0,0,1,1.12,5.72,5.72,0,0,1,1.33,1.53,3.33,3.33,0,0,1,.37,1.61,2.62,2.62,0,0,1-.6,1.85,2.23,2.23,0,0,1-1.73.64A2.17,2.17,0,0,1,41.94,915.35Z"/><path class="cls-3" d="M46.84,906H49l1,7h0l1-7h2.2v9.8H51.77v-7.42h0l-1.12,7.42H49.33l-1.12-7.42h0v7.42H46.84Z"/><path class="cls-3" d="M55.56,906h2.09l1.59,9.8H57.7l-.28-1.94v0H55.67l-.28,1.91H54Zm1.68,6.56-.69-4.85h0l-.68,4.85Z"/><path class="cls-3" d="M60,906h2.29a2.33,2.33,0,0,1,1.73.56,2.3,2.3,0,0,1,.55,1.7v.6c0,1-.34,1.66-1,1.93v0a1.19,1.19,0,0,1,.79.69,3.3,3.3,0,0,1,.23,1.38v1.72a6.13,6.13,0,0,0,0,.68,1.75,1.75,0,0,0,.14.51H63.16a2.68,2.68,0,0,1-.11-.45,6.11,6.11,0,0,1,0-.75v-1.79a1.57,1.57,0,0,0-.21-.94.93.93,0,0,0-.75-.27h-.54v4.2H60Zm2.1,4.2a1,1,0,0,0,.7-.23,1.16,1.16,0,0,0,.23-.8v-.76a1.23,1.23,0,0,0-.19-.77.73.73,0,0,0-.6-.24h-.7v2.8Z"/><path class="cls-3" d="M66.8,907.44H65.19V906H70v1.4H68.34v8.4H66.8Z"/><path class="cls-3" d="M70.69,906h4.2v1.4H72.23V910h2.12v1.4H72.23v3h2.66v1.4h-4.2Z"/><path class="cls-3" d="M76.11,915.35a2.67,2.67,0,0,1-.57-1.83V913H77v.67c0,.64.27,1,.8,1a.75.75,0,0,0,.6-.23,1.14,1.14,0,0,0,.2-.75,2,2,0,0,0-.28-1.08,5.24,5.24,0,0,0-1-1.13,6.54,6.54,0,0,1-1.33-1.52,3.09,3.09,0,0,1-.37-1.53,2.56,2.56,0,0,1,.58-1.8,2.25,2.25,0,0,1,1.71-.64,2.16,2.16,0,0,1,1.68.64,2.71,2.71,0,0,1,.56,1.83v.4H78.65v-.5a1.15,1.15,0,0,0-.2-.74.72.72,0,0,0-.57-.23c-.52,0-.77.32-.77.94a1.81,1.81,0,0,0,.28,1,5.1,5.1,0,0,0,1,1.12,6.11,6.11,0,0,1,1.33,1.53,3.44,3.44,0,0,1,.36,1.61,2.67,2.67,0,0,1-.59,1.85,2.25,2.25,0,0,1-1.73.64A2.2,2.2,0,0,1,76.11,915.35Z"/><path class="cls-3" d="M82.22,907.44H80.61V906h4.76v1.4H83.76v8.4H82.22Z"/><path class="cls-3" d="M88.82,915.35a2.63,2.63,0,0,1-.58-1.83v-5.15a2.61,2.61,0,0,1,.58-1.83,2.25,2.25,0,0,1,1.71-.64,2.22,2.22,0,0,1,1.71.64,2.61,2.61,0,0,1,.59,1.83v.84H91.37v-.94c0-.64-.26-1-.8-1s-.79.33-.79,1v5.36c0,.64.26,1,.79,1s.8-.31.8-1v-1.92H90.6v-1.4h2.23v3.21a2.63,2.63,0,0,1-.59,1.83,2.22,2.22,0,0,1-1.71.63A2.25,2.25,0,0,1,88.82,915.35Z"/><path class="cls-3" d="M94.35,915.35a2.63,2.63,0,0,1-.58-1.83V906h1.54v7.59a1,1,0,0,0,.2.73.87.87,0,0,0,1.16,0,1,1,0,0,0,.2-.73V906h1.49v7.48a2.63,2.63,0,0,1-.59,1.83,2.22,2.22,0,0,1-1.71.63A2.25,2.25,0,0,1,94.35,915.35Z"/><path class="cls-3" d="M100.86,911.67,99,906h1.64l1,3.6h0l1-3.6h1.5l-1.87,5.63v4.17h-1.54Z"/><path class="cls-3" d="M51.39,920h1.54v9.8H51.39Z"/><path class="cls-3" d="M54.08,920H56l1.5,5.87h0V920h1.37v9.8H57.32l-1.84-7.15h0v7.15H54.08Z"/><path class="cls-3" d="M63.5,921.44H61.89V920h4.76v1.4H65v8.4H63.5Z"/><path class="cls-3" d="M67.39,920h1.54v4h1.65v-4h1.54v9.8H70.58v-4.41H68.93v4.41H67.39Z"/><path class="cls-3" d="M73.27,920h4.2v1.4H74.81V924h2.11v1.4H74.81v3h2.66v1.4h-4.2Z"/><path class="cls-3" d="M80.59,920h2.28a2,2,0,0,1,2.29,2.26v.6c0,1-.34,1.66-1,1.93v0a1.19,1.19,0,0,1,.79.69,3.47,3.47,0,0,1,.23,1.38v1.72a6.13,6.13,0,0,0,0,.68,1.49,1.49,0,0,0,.14.51H83.77a2,2,0,0,1-.11-.45,6.11,6.11,0,0,1,0-.75v-1.79a1.49,1.49,0,0,0-.22-.94.9.9,0,0,0-.75-.27h-.53v4.2H80.59Zm2.1,4.2a1,1,0,0,0,.7-.23,1.16,1.16,0,0,0,.23-.8v-.76a1.3,1.3,0,0,0-.19-.77.73.73,0,0,0-.6-.24h-.7v2.8Z"/><path class="cls-3" d="M86.72,929.34a2.58,2.58,0,0,1-.6-1.82v-5.15a2.56,2.56,0,0,1,.6-1.82,2.65,2.65,0,0,1,3.48,0,2.56,2.56,0,0,1,.6,1.82v5.15a2.58,2.58,0,0,1-.6,1.82,2.69,2.69,0,0,1-3.48,0Zm2.54-1.72v-5.35c0-.64-.27-1-.8-1s-.8.33-.8,1v5.35c0,.64.27,1,.8,1S89.26,928.26,89.26,927.62Z"/><path class="cls-3" d="M92.32,929.34a2.58,2.58,0,0,1-.6-1.82v-5.15a2.56,2.56,0,0,1,.6-1.82,2.65,2.65,0,0,1,3.48,0,2.56,2.56,0,0,1,.6,1.82v5.15a2.58,2.58,0,0,1-.6,1.82,2.69,2.69,0,0,1-3.48,0Zm2.54-1.72v-5.35c0-.64-.27-1-.8-1s-.8.33-.8,1v5.35c0,.64.27,1,.8,1S94.86,928.26,94.86,927.62Z"/><path class="cls-3" d="M97.44,920h2.19l1,7h0l1-7h2.2v9.8h-1.46v-7.42h0l-1.12,7.42H99.93l-1.12-7.42h0v7.42H97.44Z"/><path class="cls-3" d="M124.36,901.35a2.63,2.63,0,0,1-.58-1.83V899h1.46v.67c0,.64.27,1,.8,1a.71.71,0,0,0,.59-.23,1.08,1.08,0,0,0,.21-.75,2.12,2.12,0,0,0-.28-1.08,5.52,5.52,0,0,0-1-1.13,6.1,6.1,0,0,1-1.33-1.52,3.1,3.1,0,0,1-.38-1.53,2.57,2.57,0,0,1,.59-1.8,2.22,2.22,0,0,1,1.71-.64,2.15,2.15,0,0,1,1.67.64,2.66,2.66,0,0,1,.57,1.83v.4h-1.46v-.5a1.15,1.15,0,0,0-.19-.74.75.75,0,0,0-.58-.23c-.51,0-.77.32-.77.94a1.82,1.82,0,0,0,.29,1,5.26,5.26,0,0,0,1,1.12,5.72,5.72,0,0,1,1.33,1.53,3.44,3.44,0,0,1,.37,1.61,2.62,2.62,0,0,1-.6,1.85,2.23,2.23,0,0,1-1.73.64A2.16,2.16,0,0,1,124.36,901.35Z"/><path class="cls-3" d="M129.26,892h4.2v1.4H130.8V896h2.11v1.4H130.8v3h2.66v1.4h-4.2Z"/><path class="cls-3" d="M134.82,901.35a2.55,2.55,0,0,1-.58-1.77v-5.27a2.58,2.58,0,0,1,.58-1.78,2.58,2.58,0,0,1,3.38,0,2.58,2.58,0,0,1,.58,1.78v1h-1.46v-1.14c0-.6-.26-.91-.77-.91s-.77.31-.77.91v5.48c0,.59.26.89.77.89s.77-.3.77-.89v-1.5h1.46v1.39a2.55,2.55,0,0,1-.58,1.77,2.58,2.58,0,0,1-3.38,0Z"/><path class="cls-3" d="M139.7,892H142a2,2,0,0,1,2.29,2.26v.6c0,1-.34,1.66-1,1.93v0a1.21,1.21,0,0,1,.79.69,3.47,3.47,0,0,1,.23,1.38v1.72a6.13,6.13,0,0,0,0,.68,1.49,1.49,0,0,0,.14.51h-1.57a2,2,0,0,1-.11-.45,6.11,6.11,0,0,1,0-.75v-1.79a1.49,1.49,0,0,0-.22-.94.9.9,0,0,0-.75-.27h-.53v4.2H139.7Zm2.1,4.2a.94.94,0,0,0,.69-.23,1.11,1.11,0,0,0,.24-.8v-.76a1.3,1.3,0,0,0-.19-.77.73.73,0,0,0-.6-.24h-.7v2.8Z"/><path class="cls-3" d="M145.34,892h4.2v1.4h-2.66V896H149v1.4h-2.12v3h2.66v1.4h-4.2Z"/><path class="cls-3" d="M151.63,893.44H150V892h4.76v1.4h-1.61v8.4h-1.54Z"/><path class="cls-3" d="M157.4,892h1.48l.69,7.54h0l.72-7.54H162l.73,7.54h0l.69-7.54h1.33l-1,9.8h-1.92l-.7-6.61h0l-.7,6.61h-2.05Z"/><path class="cls-3" d="M165.56,892h4.2v1.4H167.1V896h2.11v1.4H167.1v3h2.66v1.4h-4.2Z"/><path class="cls-3" d="M171.83,892h2.09l1.59,9.8H174l-.28-1.94v0h-1.75l-.28,1.91h-1.42Zm1.68,6.56-.68-4.85h0l-.67,4.85Z"/><path class="cls-3" d="M176.26,892h1.53v4.13l2-4.13h1.53l-1.83,3.6,1.86,6.2h-1.61l-1.3-4.37-.62,1.25v3.12h-1.53Z"/><path class="cls-3" d="M182.05,892H184l1.5,5.87h0V892h1.37v9.8H185.3l-1.85-7.15h0v7.15h-1.37Z"/><path class="cls-3" d="M188,892h4.2v1.4h-2.66V896h2.11v1.4h-2.11v3h2.66v1.4H188Z"/><path class="cls-3" d="M193.45,901.35a2.63,2.63,0,0,1-.58-1.83V899h1.46v.67c0,.64.26,1,.8,1a.71.71,0,0,0,.59-.23,1.09,1.09,0,0,0,.2-.75,2.11,2.11,0,0,0-.27-1.08,5.52,5.52,0,0,0-1-1.13,6.1,6.1,0,0,1-1.33-1.52,3.1,3.1,0,0,1-.38-1.53,2.57,2.57,0,0,1,.59-1.8,2.22,2.22,0,0,1,1.71-.64,2.15,2.15,0,0,1,1.67.64,2.66,2.66,0,0,1,.57,1.83v.4H196v-.5a1.15,1.15,0,0,0-.19-.74.75.75,0,0,0-.58-.23c-.51,0-.77.32-.77.94a1.82,1.82,0,0,0,.29,1,5.26,5.26,0,0,0,1,1.12,5.72,5.72,0,0,1,1.33,1.53,3.44,3.44,0,0,1,.36,1.61,2.62,2.62,0,0,1-.59,1.85,2.23,2.23,0,0,1-1.73.64A2.16,2.16,0,0,1,193.45,901.35Z"/><path class="cls-3" d="M198.65,901.35a2.67,2.67,0,0,1-.57-1.83V899h1.46v.67c0,.64.26,1,.79,1a.74.74,0,0,0,.6-.23,1.14,1.14,0,0,0,.2-.75,2,2,0,0,0-.28-1.08,5.14,5.14,0,0,0-1-1.13,6.1,6.1,0,0,1-1.33-1.52,3,3,0,0,1-.38-1.53,2.57,2.57,0,0,1,.59-1.8,2.22,2.22,0,0,1,1.7-.64,2.16,2.16,0,0,1,1.68.64,2.66,2.66,0,0,1,.57,1.83v.4h-1.46v-.5a1.15,1.15,0,0,0-.2-.74.72.72,0,0,0-.57-.23c-.51,0-.77.32-.77.94a1.74,1.74,0,0,0,.29,1,5.26,5.26,0,0,0,1,1.12,5.91,5.91,0,0,1,1.33,1.53,3.44,3.44,0,0,1,.36,1.61,2.67,2.67,0,0,1-.59,1.85,2.25,2.25,0,0,1-1.73.64A2.2,2.2,0,0,1,198.65,901.35Z"/><path class="cls-3" d="M203.56,895H205v1.49h-1.48Zm0,5.34H205v1.48h-1.48Z"/><path class="cls-3" d="M124.05,906h1.54v4.13l2-4.13h1.54l-1.83,3.6,1.86,6.2h-1.61l-1.3-4.37-.62,1.25v3.12h-1.54Z"/><path class="cls-3" d="M129.85,906h1.93l1.5,5.87h0V906h1.38v9.8h-1.59l-1.84-7.15h0v7.15h-1.37Z"/><path class="cls-3" d="M136.31,915.34a2.58,2.58,0,0,1-.6-1.82v-5.15a2.56,2.56,0,0,1,.6-1.82,2.65,2.65,0,0,1,3.48,0,2.56,2.56,0,0,1,.6,1.82v5.15a2.58,2.58,0,0,1-.6,1.82,2.69,2.69,0,0,1-3.48,0Zm2.54-1.72v-5.35c0-.64-.27-1-.8-1s-.8.33-.8,1v5.35c0,.64.27,1,.8,1S138.85,914.26,138.85,913.62Z"/><path class="cls-3" d="M141.06,906h1.48l.69,7.54h0L144,906h1.68l.72,7.54h0l.69-7.54h1.33l-1,9.8h-1.91l-.7-6.61h0l-.7,6.61h-2Z"/><path class="cls-3" d="M149.53,915.35a2.67,2.67,0,0,1-.57-1.83V913h1.45v.67c0,.64.27,1,.8,1a.71.71,0,0,0,.59-.23,1.08,1.08,0,0,0,.21-.75,2.12,2.12,0,0,0-.28-1.08,5.24,5.24,0,0,0-1-1.13,6.31,6.31,0,0,1-1.33-1.52,3.1,3.1,0,0,1-.38-1.53,2.57,2.57,0,0,1,.59-1.8,2.22,2.22,0,0,1,1.71-.64,2.13,2.13,0,0,1,1.67.64,2.66,2.66,0,0,1,.57,1.83v.4h-1.46v-.5a1.15,1.15,0,0,0-.19-.74.72.72,0,0,0-.58-.23c-.51,0-.77.32-.77.94a1.82,1.82,0,0,0,.29,1,5.26,5.26,0,0,0,1,1.12,5.72,5.72,0,0,1,1.33,1.53,3.33,3.33,0,0,1,.37,1.61,2.62,2.62,0,0,1-.6,1.85,2.22,2.22,0,0,1-1.73.64A2.17,2.17,0,0,1,149.53,915.35Z"/><path class="cls-3" d="M156.67,906h1.54v9.8h-1.54Z"/><path class="cls-3" d="M160.56,907.44H159V906h4.76v1.4H162.1v8.4h-1.54Z"/></g></g></g></g></svg>