<svg xmlns="http://www.w3.org/2000/svg" viewBox="0 0 228.84 972"><defs><style>.cls-1{fill:#e4ab28;}.cls-2{opacity:0.25;}.cls-3{fill:#fff;}.cls-11,.cls-4,.cls-5,.cls-9{fill:none;}.cls-10,.cls-4,.cls-5,.cls-9{stroke:#000;}.cls-10,.cls-11,.cls-4,.cls-5,.cls-9{stroke-linecap:round;}.cls-4,.cls-5{stroke-linejoin:bevel;}.cls-5{stroke-width:2px;}.cls-6{fill:#b5790f;}.cls-7{fill:#db9f35;}.cls-8{fill:#eab259;}.cls-10,.cls-9{stroke-linejoin:round;}.cls-9{stroke-width:6px;}.cls-10{stroke-width:3px;}.cls-11{stroke:#fff;stroke-miterlimit:10;}</style></defs><title>thor-info</title><g id="Layer_2" data-name="Layer 2"><g id="poster"><g id="bg"><rect id="_5" data-name="5" class="cls-1" width="228" height="972"/><rect id="shade1" class="cls-2" x="1.84" y="310" width="227" height="102"/><rect id="shade2" class="cls-2" x="0.84" y="679" width="227" height="184"/></g><g id="stats-thor"><g id="stats"><rect class="cls-3" x="24.47" y="110.86" width="187.31" height="24.04"/><rect x="24.13" y="110.65" width="187.71" height="24.04"/><path class="cls-3" d="M28.51,127.3a3,3,0,0,1-.66-2.09v-.64h1.67v.77c0,.73.3,1.09.91,1.09a.87.87,0,0,0,.68-.26,1.26,1.26,0,0,0,.24-.86,2.32,2.32,0,0,0-.33-1.24,5.61,5.61,0,0,0-1.18-1.29A6.79,6.79,0,0,1,28.32,121a3.54,3.54,0,0,1-.44-1.76,2.94,2.94,0,0,1,.68-2.06,2.55,2.55,0,0,1,2-.73,2.46,2.46,0,0,1,1.92.73,3.09,3.09,0,0,1,.65,2.1v.46H31.41v-.58a1.36,1.36,0,0,0-.22-.84.85.85,0,0,0-.66-.26c-.59,0-.88.36-.88,1.07a2.1,2.1,0,0,0,.33,1.14,5.92,5.92,0,0,0,1.19,1.28,6.61,6.61,0,0,1,1.52,1.75,3.84,3.84,0,0,1,.42,1.84,3,3,0,0,1-.68,2.12,2.58,2.58,0,0,1-2,.73A2.46,2.46,0,0,1,28.51,127.3Z"/><path class="cls-3" d="M35.5,118.26H33.65v-1.6H39.1v1.6H37.26v9.61H35.5Z"/><path class="cls-3" d="M40,116.66h2.61a2.71,2.71,0,0,1,2,.63,2.66,2.66,0,0,1,.63,1.95v.69A2.11,2.11,0,0,1,44,122.14v0a1.4,1.4,0,0,1,.91.78,4.12,4.12,0,0,1,.26,1.59v2q0,.48,0,.78a2.38,2.38,0,0,0,.16.58H43.59a2.73,2.73,0,0,1-.13-.51,8.2,8.2,0,0,1,0-.86v-2.06a1.7,1.7,0,0,0-.25-1.07,1.07,1.07,0,0,0-.86-.3h-.61v4.8H40Zm2.41,4.8a1.07,1.07,0,0,0,.79-.27,1.3,1.3,0,0,0,.26-.91v-.87a1.46,1.46,0,0,0-.21-.88.83.83,0,0,0-.68-.27h-.81v3.2Z"/><path class="cls-3" d="M46.41,116.66h4.81v1.6h-3v3h2.42v1.61H48.17v3.44h3v1.6H46.41Z"/><path class="cls-3" d="M52.23,116.66h2.21l1.71,6.71h0v-6.71h1.57v11.21H56l-2.12-8.19h0v8.19H52.23Z"/><path class="cls-3" d="M59.62,127.3a3,3,0,0,1-.68-2.09v-5.89a3,3,0,0,1,.68-2.1,3,3,0,0,1,3.91,0,3,3,0,0,1,.67,2.1v1H62.53V119.2c0-.73-.3-1.1-.91-1.1s-.91.37-.91,1.1v6.14c0,.73.3,1.09.91,1.09s.91-.36.91-1.09v-2.19h-.88v-1.61H64.2v3.67a3,3,0,0,1-.67,2.09,3,3,0,0,1-3.91,0Z"/><path class="cls-3" d="M66.72,118.26H64.87v-1.6h5.45v1.6H68.48v9.61H66.72Z"/><path class="cls-3" d="M71.17,116.66h1.76v4.56h1.89v-4.56h1.77v11.21H74.82v-5H72.93v5H71.17Z"/><rect class="cls-3" x="24.47" y="147.93" width="187.31" height="24.04"/><rect x="24.13" y="147.71" width="156.26" height="24.04"/><path class="cls-3" d="M28.51,164.37a3,3,0,0,1-.66-2.1v-.64h1.67v.77c0,.73.3,1.09.91,1.09a.87.87,0,0,0,.68-.26,1.26,1.26,0,0,0,.24-.86,2.32,2.32,0,0,0-.33-1.24,5.61,5.61,0,0,0-1.18-1.29,6.79,6.79,0,0,1-1.52-1.74,3.53,3.53,0,0,1-.44-1.75,2.91,2.91,0,0,1,.68-2.06,2.51,2.51,0,0,1,2-.73,2.43,2.43,0,0,1,1.92.73,3,3,0,0,1,.65,2.09v.46H31.41v-.57a1.37,1.37,0,0,0-.22-.85.85.85,0,0,0-.66-.26c-.59,0-.88.36-.88,1.07a2.1,2.1,0,0,0,.33,1.14,5.92,5.92,0,0,0,1.19,1.28,6.61,6.61,0,0,1,1.52,1.75,3.84,3.84,0,0,1,.42,1.84,3,3,0,0,1-.68,2.12,2.59,2.59,0,0,1-2,.74A2.5,2.5,0,0,1,28.51,164.37Z"/><path class="cls-3" d="M34.12,153.72h2.59a2.58,2.58,0,0,1,2,.7,3,3,0,0,1,.65,2.07v1.11a3,3,0,0,1-.65,2.06,2.59,2.59,0,0,1-2,.71h-.83v4.57H34.12Zm2.59,5.05a.8.8,0,0,0,.65-.25,1.16,1.16,0,0,0,.22-.81v-1.33a1.18,1.18,0,0,0-.22-.82.82.82,0,0,0-.65-.24h-.83v3.45Z"/><path class="cls-3" d="M40.3,153.72h4.81v1.6h-3v3h2.42v1.61H42.07v3.44h3v1.61H40.3Z"/><path class="cls-3" d="M46.12,153.72h4.81v1.6h-3v3H50.3v1.61H47.88v3.44h3v1.61H46.12Z"/><path class="cls-3" d="M51.94,153.72h2.69a2.56,2.56,0,0,1,2,.7,2.92,2.92,0,0,1,.66,2.07v5.67a2.92,2.92,0,0,1-.66,2.07,2.56,2.56,0,0,1-2,.71H51.94Zm2.66,9.61a.83.83,0,0,0,.66-.25,1.2,1.2,0,0,0,.24-.84v-5.83a1.18,1.18,0,0,0-.24-.83.84.84,0,0,0-.66-.26h-.9v8Z"/><rect class="cls-3" x="24.47" y="184.99" width="187.31" height="24.04"/><rect x="24.13" y="184.77" width="114.71" height="24.04"/><path class="cls-3" d="M28.51,201.43a3,3,0,0,1-.66-2.09v-.64h1.67v.76c0,.73.3,1.09.91,1.09a.83.83,0,0,0,.68-.26,1.26,1.26,0,0,0,.24-.86,2.32,2.32,0,0,0-.33-1.24,5.61,5.61,0,0,0-1.18-1.29,6.79,6.79,0,0,1-1.52-1.74,3.53,3.53,0,0,1-.44-1.75,2.91,2.91,0,0,1,.68-2.06,2.51,2.51,0,0,1,2-.73,2.43,2.43,0,0,1,1.92.73,3,3,0,0,1,.65,2.09v.46H31.41v-.57a1.32,1.32,0,0,0-.22-.84.82.82,0,0,0-.66-.27c-.59,0-.88.36-.88,1.07a2.1,2.1,0,0,0,.33,1.14,5.92,5.92,0,0,0,1.19,1.28,6.77,6.77,0,0,1,1.52,1.75,3.87,3.87,0,0,1,.42,1.84,3,3,0,0,1-.68,2.12,2.59,2.59,0,0,1-2,.74A2.5,2.5,0,0,1,28.51,201.43Z"/><path class="cls-3" d="M35.5,192.38H33.65v-1.6H39.1v1.6H37.26V202H35.5Z"/><path class="cls-3" d="M40,190.78h2.61a2.71,2.71,0,0,1,2,.63,2.66,2.66,0,0,1,.63,2v.69A2.11,2.11,0,0,1,44,196.26v0a1.39,1.39,0,0,1,.91.79,4,4,0,0,1,.26,1.58v2c0,.33,0,.58,0,.78a2.59,2.59,0,0,0,.16.59H43.59a2.82,2.82,0,0,1-.13-.52,8.07,8.07,0,0,1,0-.86v-2.05a1.73,1.73,0,0,0-.25-1.08,1.07,1.07,0,0,0-.86-.3h-.61V202H40Zm2.41,4.81a1,1,0,0,0,.79-.28,1.3,1.3,0,0,0,.26-.91v-.87a1.48,1.48,0,0,0-.21-.88.83.83,0,0,0-.68-.27h-.81v3.21Z"/><path class="cls-3" d="M47.77,190.78h2.39L52,202H50.22l-.32-2.23v0h-2l-.32,2.2H45.94Zm1.93,7.5-.79-5.55h0l-.77,5.55Z"/><path class="cls-3" d="M53.48,192.38H51.63v-1.6h5.45v1.6H55.24V202H53.48Z"/><path class="cls-3" d="M57.93,190.78h4.81v1.6h-3v3h2.42V197H59.7v3.44h3V202H57.93Z"/><path class="cls-3" d="M64.3,201.43a3,3,0,0,1-.68-2.09v-5.9a3,3,0,0,1,.68-2.09,3,3,0,0,1,3.91,0,3,3,0,0,1,.67,2.09v1H67.21v-1.07c0-.74-.3-1.11-.91-1.11s-.91.37-.91,1.11v6.13c0,.73.3,1.09.91,1.09s.91-.36.91-1.09v-2.19h-.88v-1.6h2.55v3.67a3,3,0,0,1-.67,2.09,3,3,0,0,1-3.91,0Z"/><path class="cls-3" d="M71.4,197.22l-2.14-6.44h1.88l1.2,4.12h0l1.21-4.12h1.71l-2.13,6.44V202H71.4Z"/><rect class="cls-3" x="24.47" y="222.05" width="187.31" height="24.04"/><rect x="24.13" y="221.83" width="162.71" height="24.04"/><path class="cls-3" d="M28.16,227.84h2.69a2.61,2.61,0,0,1,2,.7,2.94,2.94,0,0,1,.66,2.07v5.68a2.91,2.91,0,0,1-.66,2.06,2.58,2.58,0,0,1-2,.71H28.16Zm2.66,9.62a.85.85,0,0,0,.66-.26,1.19,1.19,0,0,0,.23-.83v-5.84a1.19,1.19,0,0,0-.23-.83.85.85,0,0,0-.66-.26h-.9v8Z"/><path class="cls-3" d="M34.66,227.84h4.81v1.6h-3v3h2.42V234H36.43v3.45h3v1.6H34.66Z"/><path class="cls-3" d="M40.48,227.84h4.66v1.6h-2.9v3.13h2.28v1.6H42.24v4.89H40.48Z"/><path class="cls-3" d="M46,227.84H50.8v1.6h-3v3h2.42V234H47.76v3.45h3v1.6H46Z"/><path class="cls-3" d="M51.81,227.84H54l1.72,6.71h0v-6.71h1.57v11.22H55.53l-2.12-8.19h0v8.19H51.81Z"/><path class="cls-3" d="M59.21,238.5a2.87,2.87,0,0,1-.67-2v-6a2.87,2.87,0,0,1,.67-2,2.95,2.95,0,0,1,3.86,0,2.91,2.91,0,0,1,.66,2v1.18H62.07v-1.3c0-.69-.3-1-.88-1s-.89.35-.89,1v6.27c0,.68.3,1,.89,1s.88-.35.88-1v-1.71h1.66v1.58a2.91,2.91,0,0,1-.66,2,2.95,2.95,0,0,1-3.86,0Z"/><path class="cls-3" d="M64.79,227.84H69.6v1.6h-3v3H69V234H66.55v3.45h3v1.6H64.79Z"/><rect class="cls-3" x="24.47" y="259.11" width="187.31" height="24.04"/><rect x="24.13" y="258.89" width="146.71" height="24.04"/><path class="cls-3" d="M28.51,275.55a3,3,0,0,1-.66-2.09v-.64h1.67v.77c0,.72.3,1.09.91,1.09a.84.84,0,0,0,.68-.27,1.23,1.23,0,0,0,.24-.85,2.36,2.36,0,0,0-.33-1.25A6.05,6.05,0,0,0,29.84,271a6.79,6.79,0,0,1-1.52-1.74,3.5,3.5,0,0,1-.44-1.75,2.92,2.92,0,0,1,.68-2.06,2.51,2.51,0,0,1,2-.73,2.43,2.43,0,0,1,1.92.73,3.06,3.06,0,0,1,.65,2.09V268H31.41v-.58a1.32,1.32,0,0,0-.22-.84.82.82,0,0,0-.66-.27c-.59,0-.88.36-.88,1.08a2.15,2.15,0,0,0,.33,1.14,5.92,5.92,0,0,0,1.19,1.28,6.6,6.6,0,0,1,1.52,1.74,3.89,3.89,0,0,1,.42,1.85,3,3,0,0,1-.68,2.11,2.59,2.59,0,0,1-2,.74A2.46,2.46,0,0,1,28.51,275.55Z"/><path class="cls-3" d="M34.12,264.9h1.76v4.73l2.24-4.73h1.77L37.79,269l2.13,7.1H38.08l-1.49-5-.71,1.43v3.57H34.12Z"/><path class="cls-3" d="M40.75,264.9h1.77v11.22H40.75Z"/><path class="cls-3" d="M43.83,264.9h1.76v9.62h2.9v1.6H43.83Z"/><path class="cls-3" d="M49.34,264.9h1.77v9.62H54v1.6H49.34Z"/></g><g id="weapon"><path class="cls-3" d="M22.35,331.13h3.81l1.77,19.37H28l1.87-19.37h4.32l1.87,19.37h.07l1.77-19.37h3.42l-2.56,25.2H33.83l-1.8-17H32l-1.8,17H24.9Z"/><path class="cls-3" d="M43.33,331.13h10.8v3.6H47.29v6.66h5.44V345H47.29v7.74h6.84v3.6H43.33Z"/><path class="cls-3" d="M59.46,331.13h5.37l4.1,25.2H65l-.72-5v.07h-4.5L59,356.33H55.36ZM63.78,348,62,335.52H62L60.22,348Z"/><path class="cls-3" d="M70.84,331.13h5.83a5.8,5.8,0,0,1,4.43,1.58,6.62,6.62,0,0,1,1.47,4.65v2.48a6.62,6.62,0,0,1-1.47,4.65,5.8,5.8,0,0,1-4.43,1.58H74.8v10.26h-4Zm5.83,11.34a1.87,1.87,0,0,0,1.46-.54,2.76,2.76,0,0,0,.48-1.84v-3a2.76,2.76,0,0,0-.48-1.84,1.87,1.87,0,0,0-1.46-.54H74.8v7.74Z"/><path class="cls-3" d="M86,355a6.59,6.59,0,0,1-1.55-4.68V337.11A6.59,6.59,0,0,1,86,332.43a6.83,6.83,0,0,1,8.93,0,6.59,6.59,0,0,1,1.55,4.68v13.24A6.59,6.59,0,0,1,94.92,355,6.83,6.83,0,0,1,86,355Zm6.52-4.42V336.85c0-1.65-.69-2.48-2.05-2.48s-2.06.83-2.06,2.48v13.76c0,1.65.69,2.48,2.06,2.48S92.51,352.26,92.51,350.61Z"/><path class="cls-3" d="M99.13,331.13h5L108,346.21H108V331.13h3.52v25.2h-4.07l-4.75-18.4h-.07v18.4H99.13Z"/><path d="M124.11,345.59h4.55l2,14.53h.06l2-14.53h4.55v20.3h-3V350.52h-.06l-2.32,15.37h-2.67L127,350.52h-.06v15.37h-2.78Z"/><path d="M139,365.89V363a4.13,4.13,0,0,0,1,.12,1.89,1.89,0,0,0,1.42-.48,2,2,0,0,0,.46-1.46V345.59h3.2v15.49a5.27,5.27,0,0,1-1.15,3.71,4.58,4.58,0,0,1-3.49,1.22A7.75,7.75,0,0,1,139,365.89Z"/><path d="M148.41,364.85a5.33,5.33,0,0,1-1.25-3.77V350.41a5.31,5.31,0,0,1,1.25-3.77,5.49,5.49,0,0,1,7.19,0,5.31,5.31,0,0,1,1.25,3.77v10.67a5.33,5.33,0,0,1-1.25,3.77,5.52,5.52,0,0,1-7.19,0Zm5.25-3.57V350.21q0-2-1.65-2c-1.11,0-1.66.67-1.66,2v11.07c0,1.34.55,2,1.66,2S153.66,362.62,153.66,361.28Z"/><path d="M159,345.59h3.19V363h5.24v2.9H159Z"/><path d="M169,345.59h4l3.11,12.16h0V345.59H179v20.3H175.7l-3.83-14.81h-.06v14.81H169Z"/><path d="M181.35,345.59h3.19v20.3h-3.19Z"/><path d="M186.92,345.59h4.73a4.88,4.88,0,0,1,3.59,1.15,4.81,4.81,0,0,1,1.13,3.52v1.25q0,3.17-2.08,4v.06a2.51,2.51,0,0,1,1.64,1.42,7.34,7.34,0,0,1,.47,2.87v3.57a13.29,13.29,0,0,0,.06,1.41,3.66,3.66,0,0,0,.29,1.05H193.5a5,5,0,0,1-.23-.92,13.63,13.63,0,0,1-.06-1.57v-3.71a3.12,3.12,0,0,0-.45-1.94,1.88,1.88,0,0,0-1.55-.56h-1.1v8.7h-3.19Zm4.35,8.7a1.92,1.92,0,0,0,1.44-.49,2.32,2.32,0,0,0,.48-1.65v-1.57a2.57,2.57,0,0,0-.4-1.59,1.47,1.47,0,0,0-1.23-.5h-1.45v5.8Z"/><path d="M206,345.59h2.76l-8,20.3H198Z"/><path d="M70.92,384.87a5.5,5.5,0,0,1-1.19-3.79v-1.16h3v1.39c0,1.32.55,2,1.65,2a1.56,1.56,0,0,0,1.24-.47,2.35,2.35,0,0,0,.42-1.56,4.34,4.34,0,0,0-.58-2.24,10.67,10.67,0,0,0-2.15-2.34,13,13,0,0,1-2.75-3.14,6.36,6.36,0,0,1-.79-3.18A5.32,5.32,0,0,1,71,366.62a4.57,4.57,0,0,1,3.54-1.32A4.41,4.41,0,0,1,78,366.62a5.55,5.55,0,0,1,1.17,3.79v.84h-3v-1a2.36,2.36,0,0,0-.4-1.53,1.47,1.47,0,0,0-1.19-.48c-1.06,0-1.6.65-1.6,1.95a3.83,3.83,0,0,0,.6,2.06,11.24,11.24,0,0,0,2.16,2.32,11.88,11.88,0,0,1,2.75,3.16,6.91,6.91,0,0,1,.76,3.33A5.44,5.44,0,0,1,78,384.85a4.66,4.66,0,0,1-3.59,1.33A4.5,4.5,0,0,1,70.92,384.87Z"/><path d="M83.57,368.49H80.23v-2.9h9.86v2.9H86.76v17.4H83.57Z"/><path d="M92.53,384.85a5.33,5.33,0,0,1-1.25-3.77V370.41a5.31,5.31,0,0,1,1.25-3.77,5.49,5.49,0,0,1,7.19,0,5.31,5.31,0,0,1,1.25,3.77v10.67a5.33,5.33,0,0,1-1.25,3.77,5.52,5.52,0,0,1-7.19,0Zm5.25-3.57V370.21c0-1.34-.55-2-1.66-2s-1.65.67-1.65,2v11.07c0,1.34.55,2,1.65,2S97.78,382.62,97.78,381.28Z"/><path d="M103.11,365.59h4.73a4.92,4.92,0,0,1,3.6,1.15,4.85,4.85,0,0,1,1.13,3.52v1.25q0,3.17-2.09,4v.06a2.51,2.51,0,0,1,1.64,1.42,7.14,7.14,0,0,1,.48,2.87v3.57c0,.58,0,1.05.05,1.41a3.66,3.66,0,0,0,.29,1.05H109.7a4.32,4.32,0,0,1-.24-.92c0-.29,0-.82,0-1.57v-3.71a3.12,3.12,0,0,0-.45-1.94,1.9,1.9,0,0,0-1.55-.56H106.3v8.7h-3.19Zm4.35,8.7a1.92,1.92,0,0,0,1.44-.49,2.32,2.32,0,0,0,.48-1.65v-1.57A2.58,2.58,0,0,0,109,369a1.49,1.49,0,0,0-1.24-.5H106.3v5.8Z"/><path d="M114.8,365.59h4.55l2,14.53h.06l2-14.53H128v20.3h-3V370.52H125l-2.32,15.37H120l-2.32-15.37h-.06v15.37H114.8Z"/><path d="M130.4,365.59h4.82a4.88,4.88,0,0,1,3.59,1.15,4.81,4.81,0,0,1,1.13,3.52v.82a5.7,5.7,0,0,1-.5,2.55,3,3,0,0,1-1.56,1.42v.06q2.38.81,2.38,4.23v1.74a4.84,4.84,0,0,1-1.23,3.58,4.9,4.9,0,0,1-3.61,1.23h-5Zm4.44,8.27a1.89,1.89,0,0,0,1.43-.49,2.34,2.34,0,0,0,.48-1.66v-1.13a2.58,2.58,0,0,0-.39-1.59,1.47,1.47,0,0,0-1.23-.5h-1.54v5.37Zm.58,9.13a1.62,1.62,0,0,0,1.25-.45,2.29,2.29,0,0,0,.4-1.55v-1.77a2.9,2.9,0,0,0-.48-1.92,2,2,0,0,0-1.58-.54h-1.42V383Z"/><path d="M142.12,365.59h4.72a4.08,4.08,0,0,1,4.73,4.67v1.25c0,2.11-.69,3.44-2.09,4v.06a2.49,2.49,0,0,1,1.64,1.42,7.14,7.14,0,0,1,.48,2.87v3.57a13.29,13.29,0,0,0,.06,1.41,3.36,3.36,0,0,0,.29,1.05H148.7a4.27,4.27,0,0,1-.23-.92,13.63,13.63,0,0,1-.06-1.57v-3.71a3.12,3.12,0,0,0-.45-1.94,1.9,1.9,0,0,0-1.55-.56h-1.1v8.7h-3.19Zm4.35,8.7a1.89,1.89,0,0,0,1.43-.49,2.32,2.32,0,0,0,.48-1.65v-1.57A2.58,2.58,0,0,0,148,369a1.47,1.47,0,0,0-1.23-.5h-1.45v5.8Z"/><path d="M153.8,365.59h8.7v2.9H157v5.37h4.38v2.9H157V383h5.51v2.9h-8.7Z"/><path d="M166.8,365.59h4.32l3.3,20.3h-3.19l-.58-4v.06H167l-.58,4h-3Zm3.48,13.58-1.43-10h0l-1.4,10Z"/><path d="M176,365.59h3.19v8.56l4.06-8.56h3.19l-3.8,7.46,3.86,12.84h-3.34l-2.69-9-1.28,2.58v6.46H176Z"/><path d="M188,365.59h8.69v2.9h-5.51v5.37h4.38v2.9h-4.38V383h5.51v2.9H188Z"/><path d="M198.49,365.59h4.73a4.88,4.88,0,0,1,3.59,1.15,4.81,4.81,0,0,1,1.13,3.52v1.25q0,3.17-2.08,4v.06A2.51,2.51,0,0,1,207.5,377a7.16,7.16,0,0,1,.47,2.87v3.57a13.29,13.29,0,0,0,.06,1.41,3.66,3.66,0,0,0,.29,1.05h-3.25a5,5,0,0,1-.23-.92,13.63,13.63,0,0,1-.06-1.57v-3.71a3.12,3.12,0,0,0-.45-1.94,1.88,1.88,0,0,0-1.55-.56h-1.1v8.7h-3.19Zm4.35,8.7a1.92,1.92,0,0,0,1.44-.49,2.32,2.32,0,0,0,.48-1.65v-1.57a2.57,2.57,0,0,0-.4-1.59,1.47,1.47,0,0,0-1.23-.5h-1.45v5.8Z"/><line class="cls-4" x1="52.49" y1="373.5" x2="47.41" y2="372.26"/><polyline class="cls-5" points="27.99 341 29.99 351 28.99 358 33.99 362 30.99 369 33.32 371.06 39.49 376.5 43.49 383.5"/><polyline class="cls-5" points="48.49 375.5 45.49 366.5 42.49 368.5 37.49 368.5 32.47 365.54"/><polyline class="cls-5" points="71.49 358.5 57.49 345.5 52.49 349.5 48.49 347.5 41.49 351.5 29.49 350.5"/><polyline class="cls-4" points="63.49 361.5 61.49 357.5 62.49 351.5 59.47 347.34"/><polyline class="cls-4" points="48.49 360 42.49 355.5 43.49 349.5"/><polyline class="cls-4" points="52.49 356.5 48.49 355.5 44.52 357.02"/></g><g id="personality"><path class="cls-3" d="M27.17,432.05h5.35a5.34,5.34,0,0,1,4.06,1.45,6.05,6.05,0,0,1,1.35,4.26V440a6.05,6.05,0,0,1-1.35,4.26,5.34,5.34,0,0,1-4.06,1.45H30.8v9.4H27.17Zm5.35,10.4a1.69,1.69,0,0,0,1.33-.5,2.49,2.49,0,0,0,.45-1.68v-2.74a2.49,2.49,0,0,0-.45-1.68,1.69,1.69,0,0,0-1.33-.5H30.8v7.1Z"/><path class="cls-3" d="M39.91,432.05h9.9v3.3H43.54v6.11h5v3.3h-5v7.09h6.27v3.3h-9.9Z"/><path class="cls-3" d="M51.89,432.05h5.38a5.55,5.55,0,0,1,4.09,1.31,5.49,5.49,0,0,1,1.28,4v1.42q0,3.58-2.37,4.55v.07A2.81,2.81,0,0,1,62.13,445a8.06,8.06,0,0,1,.55,3.27v4.06c0,.66,0,1.19.06,1.6a4.29,4.29,0,0,0,.33,1.2H59.38a5.81,5.81,0,0,1-.27-1,17.53,17.53,0,0,1-.06-1.78v-4.23a3.61,3.61,0,0,0-.51-2.21,2.16,2.16,0,0,0-1.77-.63H55.52v9.9H51.89Zm5,9.9a2.15,2.15,0,0,0,1.63-.56,2.66,2.66,0,0,0,.54-1.88v-1.78a2.94,2.94,0,0,0-.44-1.82,1.7,1.7,0,0,0-1.4-.56H55.52V442Z"/><path class="cls-3" d="M65.91,454a6.21,6.21,0,0,1-1.35-4.3v-1.32H68v1.58c0,1.5.63,2.24,1.88,2.24a1.75,1.75,0,0,0,1.4-.54,2.64,2.64,0,0,0,.48-1.77,4.87,4.87,0,0,0-.66-2.55,12,12,0,0,0-2.44-2.66,14.36,14.36,0,0,1-3.13-3.58,7.25,7.25,0,0,1-.9-3.62A6.07,6.07,0,0,1,66,433.22a5.21,5.21,0,0,1,4-1.5,5,5,0,0,1,3.94,1.5,6.3,6.3,0,0,1,1.34,4.31v1H71.88V437.3a2.63,2.63,0,0,0-.46-1.73,1.69,1.69,0,0,0-1.35-.55c-1.21,0-1.82.74-1.82,2.21a4.4,4.4,0,0,0,.68,2.35,13.17,13.17,0,0,0,2.46,2.64,13.59,13.59,0,0,1,3.13,3.59,7.92,7.92,0,0,1,.86,3.8A6.15,6.15,0,0,1,74,454a5.25,5.25,0,0,1-4.08,1.52A5.09,5.09,0,0,1,65.91,454Z"/><path class="cls-3" d="M78.62,454a6,6,0,0,1-1.42-4.28V437.53a6,6,0,0,1,1.42-4.29,6.26,6.26,0,0,1,8.18,0,6,6,0,0,1,1.42,4.29v12.15A6,6,0,0,1,86.8,454a6.26,6.26,0,0,1-8.18,0Zm6-4V437.3c0-1.52-.63-2.28-1.88-2.28s-1.88.76-1.88,2.28v12.61c0,1.51.62,2.27,1.88,2.27S84.59,451.42,84.59,449.91Z"/><path class="cls-3" d="M90.66,432.05h4.56l3.53,13.83h.06V432.05h3.24v23.1H98.32L94,438.29H93.9v16.86H90.66Z"/><path class="cls-3" d="M107.56,432.05h4.91l3.77,23.1h-3.63l-.66-4.58v.06h-4.13l-.66,4.52h-3.37Zm4,15.45-1.62-11.42h-.07l-1.58,11.42Z"/><path class="cls-3" d="M118,432.05h3.63v19.8h6v3.3H118Z"/><path class="cls-3" d="M129.34,432.05H133v23.1h-3.63Z"/><path class="cls-3" d="M138.51,435.35h-3.8v-3.3h11.22v3.3h-3.79v19.8h-3.63Z"/><path class="cls-3" d="M151.15,445.32l-4.39-13.27h3.86l2.47,8.48h.07l2.48-8.48h3.53l-4.39,13.27v9.83h-3.63Z"/><circle class="cls-6" cx="113.23" cy="563" r="89"/><path class="cls-7" d="M111.73,563,29.41,532.84A90.26,90.26,0,0,0,24.23,563c0,48.82,39.5,89,87.5,89s87.5-40.18,87.5-89a90.35,90.35,0,0,0-4.94-29.48Z"/><path class="cls-8" d="M108.73,562,68.91,641.92A91.83,91.83,0,0,0,108.73,651c49.65,0,90.5-40.18,90.5-89a87.54,87.54,0,0,0-4.34-27.23Z"/><path class="cls-3" d="M94.88,520.51a2.56,2.56,0,0,1-.58-1.78v-5.26a2.56,2.56,0,0,1,.58-1.78,2.58,2.58,0,0,1,3.38,0,2.51,2.51,0,0,1,.58,1.78v1H97.38v-1.13c0-.61-.25-.91-.77-.91s-.77.3-.77.91v5.47c0,.6.26.9.77.9s.77-.3.77-.9v-1.49h1.46v1.38a2.51,2.51,0,0,1-.58,1.78,2.58,2.58,0,0,1-3.38,0Z"/><path class="cls-3" d="M100.28,520.5a2.58,2.58,0,0,1-.6-1.82v-5.15a2.54,2.54,0,0,1,.6-1.82,2.64,2.64,0,0,1,3.47,0,2.54,2.54,0,0,1,.6,1.82v5.15a2.58,2.58,0,0,1-.6,1.82,2.67,2.67,0,0,1-3.47,0Zm2.53-1.72v-5.35c0-.65-.26-1-.79-1s-.8.32-.8,1v5.35c0,.64.26,1,.8,1S102.81,519.42,102.81,518.78Z"/><path class="cls-3" d="M105.92,520.5a2.59,2.59,0,0,1-.59-1.82V511.2h1.54v7.59a1,1,0,0,0,.21.73.73.73,0,0,0,.58.22.75.75,0,0,0,.58-.22,1,1,0,0,0,.2-.73V511.2h1.49v7.48a2.59,2.59,0,0,1-.59,1.82,2.6,2.6,0,0,1-3.42,0Z"/><path class="cls-3" d="M111,511.2h2.28a2.42,2.42,0,0,1,1.74.55,2.37,2.37,0,0,1,.54,1.71v.6c0,1-.33,1.66-1,1.93v0a1.22,1.22,0,0,1,.8.68,3.56,3.56,0,0,1,.23,1.39v1.72c0,.28,0,.51,0,.68a1.65,1.65,0,0,0,.15.51H114.2a2.16,2.16,0,0,1-.12-.45c0-.14,0-.39,0-.75V518a1.46,1.46,0,0,0-.22-.93.9.9,0,0,0-.75-.27h-.53V521H111Zm2.1,4.2a.9.9,0,0,0,.69-.24,1.08,1.08,0,0,0,.23-.79v-.76a1.21,1.21,0,0,0-.19-.77.69.69,0,0,0-.59-.24h-.7v2.8Z"/><path class="cls-3" d="M117.85,511.2h2.09l1.59,9.8H120l-.28-2v0H118l-.28,1.92h-1.43Zm1.68,6.55-.69-4.84h0l-.68,4.84Z"/><path class="cls-3" d="M122.72,520.5a2.59,2.59,0,0,1-.59-1.82v-5.15a2.6,2.6,0,0,1,.59-1.83,2.6,2.6,0,0,1,3.42,0,2.6,2.6,0,0,1,.59,1.83v.84h-1.46v-.94c0-.65-.27-1-.8-1s-.8.32-.8,1v5.36c0,.63.27,1,.8,1s.8-.32.8-1v-1.92h-.77v-1.4h2.23v3.21a2.59,2.59,0,0,1-.59,1.82,2.6,2.6,0,0,1-3.42,0Z"/><path class="cls-3" d="M127.72,511.2h4.2v1.4h-2.66v2.59h2.11v1.4h-2.11v3h2.66V521h-4.2Z"/><path class="cls-3" d="M132.4,587.2h1.54v4h1.65v-4h1.54V597h-1.54v-4.41h-1.65V597H132.4Z"/><path class="cls-3" d="M138.77,596.5a2.58,2.58,0,0,1-.6-1.82v-5.15a2.54,2.54,0,0,1,.6-1.82,2.64,2.64,0,0,1,3.47,0,2.54,2.54,0,0,1,.6,1.82v5.15a2.58,2.58,0,0,1-.6,1.82,2.67,2.67,0,0,1-3.47,0Zm2.53-1.72v-5.35c0-.65-.26-1-.79-1s-.8.32-.8,1v5.35c0,.64.26,1,.8,1S141.3,595.42,141.3,594.78Z"/><path class="cls-3" d="M143.88,587.2h1.93l1.5,5.87h0V587.2h1.37V597h-1.58l-1.85-7.15h0V597h-1.37Z"/><path class="cls-3" d="M150.35,596.5a2.58,2.58,0,0,1-.6-1.82v-5.15a2.54,2.54,0,0,1,.6-1.82,2.64,2.64,0,0,1,3.47,0,2.54,2.54,0,0,1,.6,1.82v5.15a2.58,2.58,0,0,1-.6,1.82,2.67,2.67,0,0,1-3.47,0Zm2.53-1.72v-5.35c0-.65-.26-1-.8-1s-.79.32-.79,1v5.35c0,.64.26,1,.79,1S152.88,595.42,152.88,594.78Z"/><path class="cls-3" d="M155.46,587.2h2.28a2.42,2.42,0,0,1,1.74.55,2.37,2.37,0,0,1,.54,1.71v.6c0,1-.33,1.66-1,1.93v0a1.22,1.22,0,0,1,.8.68,3.56,3.56,0,0,1,.23,1.39v1.72c0,.28,0,.51,0,.68a1.94,1.94,0,0,0,.14.51h-1.56a2.16,2.16,0,0,1-.12-.45c0-.14,0-.39,0-.75V594a1.52,1.52,0,0,0-.22-.93.91.91,0,0,0-.75-.27H157V597h-1.54Zm2.1,4.2a.9.9,0,0,0,.69-.24,1.08,1.08,0,0,0,.23-.79v-.76a1.21,1.21,0,0,0-.19-.77.69.69,0,0,0-.59-.24H157v2.8Z"/><path class="cls-3" d="M44.4,571.2h1.54v4h1.65v-4h1.54V581H47.59v-4.41H45.94V581H44.4Z"/><path class="cls-3" d="M50.81,580.5a2.59,2.59,0,0,1-.59-1.82V571.2h1.54v7.59a1,1,0,0,0,.21.73.73.73,0,0,0,.58.22.75.75,0,0,0,.58-.22,1,1,0,0,0,.2-.73V571.2h1.49v7.48a2.59,2.59,0,0,1-.59,1.82,2.6,2.6,0,0,1-3.42,0Z"/><path class="cls-3" d="M55.91,571.2h2.2l1,7h0l1-7h2.2V581H60.84v-7.42h0L59.69,581H58.4l-1.12-7.42h0V581H55.91Z"/><path class="cls-3" d="M63.93,580.5a2.58,2.58,0,0,1-.6-1.82v-5.15a2.54,2.54,0,0,1,.6-1.82,2.64,2.64,0,0,1,3.47,0,2.54,2.54,0,0,1,.6,1.82v5.15a2.58,2.58,0,0,1-.6,1.82,2.67,2.67,0,0,1-3.47,0Zm2.53-1.72v-5.35c0-.65-.26-1-.79-1s-.8.32-.8,1v5.35c0,.64.26,1,.8,1S66.46,579.42,66.46,578.78Z"/><path class="cls-3" d="M69.57,580.5a2.59,2.59,0,0,1-.59-1.82V571.2h1.54v7.59a1,1,0,0,0,.21.73.73.73,0,0,0,.58.22.75.75,0,0,0,.58-.22,1,1,0,0,0,.2-.73V571.2h1.49v7.48A2.59,2.59,0,0,1,73,580.5a2.6,2.6,0,0,1-3.42,0Z"/><path class="cls-3" d="M74.67,571.2H77a2.42,2.42,0,0,1,1.74.55,2.37,2.37,0,0,1,.54,1.71v.6c0,1-.33,1.66-1,1.93v0a1.22,1.22,0,0,1,.8.68,3.56,3.56,0,0,1,.23,1.39v1.72c0,.28,0,.51,0,.68a1.94,1.94,0,0,0,.14.51H77.85a2.16,2.16,0,0,1-.12-.45c0-.14,0-.39,0-.75V578a1.52,1.52,0,0,0-.22-.93.91.91,0,0,0-.75-.27h-.53V581H74.67Zm2.1,4.2a.9.9,0,0,0,.69-.24,1.08,1.08,0,0,0,.23-.79v-.76a1.21,1.21,0,0,0-.19-.77.69.69,0,0,0-.59-.24h-.7v2.8Z"/></g><g id="frenemies"><line class="cls-9" x1="22.84" y1="843" x2="210.84" y2="843"/><rect class="cls-10" x="145.84" y="780.5" width="50.5" height="60.5"/><path class="cls-3" d="M27.53,831.2v-4.65h1.6v2.89h3.12v-2.27h1.6v2.27h4.88v1.76Z"/><path class="cls-3" d="M27.53,825.7v-2.61a2.67,2.67,0,0,1,.63-2,2.65,2.65,0,0,1,1.94-.63h.69A2.12,2.12,0,0,1,33,821.63h0a1.39,1.39,0,0,1,.79-.9,3.85,3.85,0,0,1,1.58-.26h2a5.32,5.32,0,0,0,.77,0,1.79,1.79,0,0,0,.59-.16v1.8a2.67,2.67,0,0,1-.51.12,5.74,5.74,0,0,1-.87,0H35.3a1.8,1.8,0,0,0-1.07.24,1.08,1.08,0,0,0-.3.86v.61h4.8v1.76Zm4.8-2.4a1,1,0,0,0-.27-.79,1.3,1.3,0,0,0-.92-.27h-.86a1.37,1.37,0,0,0-.88.22.81.81,0,0,0-.27.68v.8h3.2Z"/><path class="cls-3" d="M27.53,819.25v-1.76h11.2v1.76Z"/><path class="cls-3" d="M27.53,816.18v-4.8h1.6v3h3V812h1.6v2.42h3.44v-3h1.6v4.8Z"/><path class="cls-3" d="M27.53,810.37v-2.21l6.7-1.71v0h-6.7v-1.57h11.2v1.81l-8.18,2.11v0h8.18v1.57Z"/><path class="cls-3" d="M27.53,803.54v-2.69a2.57,2.57,0,0,1,.7-2,3,3,0,0,1,2.07-.65H36a2.92,2.92,0,0,1,2.06.65,2.58,2.58,0,0,1,.71,2v2.69Zm9.6-2.66a.85.85,0,0,0-.26-.66A1.19,1.19,0,0,0,36,800H30.22a1.22,1.22,0,0,0-.84.23.85.85,0,0,0-.25.66v.9h8Z"/><path class="cls-3" d="M38.16,796.69a3,3,0,0,1-2.09.66h-.64v-1.67h.77c.73,0,1.09-.3,1.09-.91a.85.85,0,0,0-.27-.68,1.29,1.29,0,0,0-.85-.23,2.41,2.41,0,0,0-1.24.32,5.86,5.86,0,0,0-1.29,1.18,6.79,6.79,0,0,1-1.74,1.52,3.5,3.5,0,0,1-1.75.44,2.9,2.9,0,0,1-2-.68,2.5,2.5,0,0,1-.73-1.95,2.41,2.41,0,0,1,.73-1.91,3,3,0,0,1,2.08-.65h.47v1.66h-.58a1.3,1.3,0,0,0-.84.23.84.84,0,0,0-.26.66c0,.58.36.87,1.07.87a2.12,2.12,0,0,0,1.14-.32A6.78,6.78,0,0,0,32.46,794a6.41,6.41,0,0,1,1.74-1.52A3.84,3.84,0,0,1,36,792.1a3,3,0,0,1,2.11.68,2.56,2.56,0,0,1,.74,2A2.45,2.45,0,0,1,38.16,796.69Z"/><path class="cls-3" d="M27.53,788.53V786l8-1.12v0l-8-1.12v-2.51h11.2v1.66H30.25v0l8.48,1.28v1.47L30.25,787v0h8.48v1.53Z"/><path class="cls-3" d="M27.53,778.56v-2.38l11.2-1.82v1.76l-2.23.32h0v2l2.19.32v1.63ZM35,776.64l-5.54.79v0l5.54.77Z"/><path class="cls-3" d="M27.53,773.51v-2.69a2.57,2.57,0,0,1,.7-2,3,3,0,0,1,2.07-.65H36a2.92,2.92,0,0,1,2.06.65,2.58,2.58,0,0,1,.71,2v2.69Zm9.6-2.66a.84.84,0,0,0-.26-.66A1.19,1.19,0,0,0,36,770H30.22a1.22,1.22,0,0,0-.84.23.83.83,0,0,0-.25.66v.9h8Z"/><path class="cls-3" d="M27.53,767v-4.8h1.6v3h3v-2.41h1.6v2.41h3.44v-3h1.6V767Z"/><path class="cls-3" d="M124.53,831.2v-4.8h1.6v3h3V827h1.6v2.41h3.44v-3h1.6v4.8Z"/><path class="cls-3" d="M124.53,825.39v-2.2l6.7-1.72v0h-6.7v-1.56h11.2v1.8l-8.18,2.11v0h8.18v1.56Z"/><path class="cls-3" d="M124.53,818.56v-4.8h1.6v3h3v-2.41h1.6v2.41h3.44v-3h1.6v4.8Z"/><path class="cls-3" d="M124.53,812.76v-2.52l8-1.12v0l-8-1.12v-2.51h11.2v1.66h-8.48v0l8.48,1.28v1.47l-8.48,1.28v0h8.48v1.54Z"/><path class="cls-3" d="M124.53,804.15v-1.76h11.2v1.76Z"/><path class="cls-3" d="M124.53,801.08v-4.8h1.6v3h3V796.9h1.6v2.42h3.44v-3h1.6v4.8Z"/><path class="cls-3" d="M135.16,794.88a3,3,0,0,1-2.09.66h-.64v-1.66h.77c.73,0,1.09-.31,1.09-.92a.87.87,0,0,0-.27-.68,1.29,1.29,0,0,0-.85-.23,2.41,2.41,0,0,0-1.24.32,5.7,5.7,0,0,0-1.29,1.19,7.21,7.21,0,0,1-1.74,1.52,3.6,3.6,0,0,1-1.75.43,2.94,2.94,0,0,1-2.05-.67,2.52,2.52,0,0,1-.73-2,2.41,2.41,0,0,1,.73-1.91,3,3,0,0,1,2.08-.65h.47V792h-.58a1.3,1.3,0,0,0-.84.22.84.84,0,0,0-.26.66c0,.59.36.88,1.07.88a2.13,2.13,0,0,0,1.14-.33,6.78,6.78,0,0,0,1.28-1.19,6.41,6.41,0,0,1,1.74-1.52,3.84,3.84,0,0,1,1.84-.42,3,3,0,0,1,2.11.68,2.57,2.57,0,0,1,.74,2A2.44,2.44,0,0,1,135.16,794.88Z"/><path class="cls-3" d="M124.53,786.72v-2.51l8-1.12v0l-8-1.12v-2.51h11.2v1.66h-8.48v0l8.48,1.28v1.48l-8.48,1.28v0h8.48v1.53Z"/><path class="cls-3" d="M124.53,776.76v-2.39l11.2-1.82v1.76l-2.23.32h0v2l2.19.32v1.63Zm7.49-1.92-5.54.78v0l5.54.77Z"/><path class="cls-3" d="M124.53,771.7V769a2.57,2.57,0,0,1,.7-2,3,3,0,0,1,2.07-.65H133A2.92,2.92,0,0,1,135,767a2.58,2.58,0,0,1,.71,2v2.69Zm9.6-2.66a.87.87,0,0,0-.26-.66,1.25,1.25,0,0,0-.83-.23h-5.82a1.28,1.28,0,0,0-.84.23.86.86,0,0,0-.25.66v.9h8Z"/><path class="cls-3" d="M124.53,765.21V760.4h1.6v3h3V761h1.6v2.41h3.44v-3h1.6v4.81Z"/><rect class="cls-10" x="51.1" y="756.5" width="50.5" height="86.5"/><path d="M178.6,777.37a8.46,8.46,0,0,1,.65-3.47,11.9,11.9,0,0,1,2.32-3.2,13.91,13.91,0,0,0,2.28-3,5.64,5.64,0,0,0,.64-2.59,2.73,2.73,0,0,0-.4-1.69A1.41,1.41,0,0,0,183,763c-1,0-1.54.62-1.54,1.86v2H178.6V765a5,5,0,0,1,1.13-3.52,5,5,0,0,1,6.59,0,5,5,0,0,1,1.14,3.52,7.46,7.46,0,0,1-.83,3.38,16.6,16.6,0,0,1-2.85,3.78,11.65,11.65,0,0,0-1.78,2.28,4.08,4.08,0,0,0-.46,1.88v.4h5.65v2.7H178.6Z"/><path d="M189.4,777.37a8.46,8.46,0,0,1,.65-3.47,11.9,11.9,0,0,1,2.32-3.2,13.91,13.91,0,0,0,2.28-3,5.64,5.64,0,0,0,.64-2.59,2.73,2.73,0,0,0-.4-1.69,1.41,1.41,0,0,0-1.14-.47c-1,0-1.54.62-1.54,1.86v2H189.4V765a5,5,0,0,1,1.13-3.52,5,5,0,0,1,6.59,0,5,5,0,0,1,1.14,3.52,7.46,7.46,0,0,1-.83,3.38,16.6,16.6,0,0,1-2.85,3.78,11.65,11.65,0,0,0-1.78,2.28,4.08,4.08,0,0,0-.46,1.88v.4H198v2.7H189.4Z"/><path d="M84.71,755.46a5,5,0,0,1-1.14-3.52v-1.48h2.81v1.7c0,1.22.51,1.83,1.54,1.83s1.54-.61,1.54-1.83v-4.24c0-1.25-.51-1.87-1.54-1.87s-1.54.62-1.54,1.87v.16H83.57l.54-10.56h7.83v2.7H86.76l-.24,4.51h0a2.8,2.8,0,0,1,2.57-1.38,2.88,2.88,0,0,1,2.45,1.11,5.25,5.25,0,0,1,.84,3.21v4.27a5,5,0,0,1-1.13,3.52,5,5,0,0,1-6.59,0Z"/><path d="M95.35,755.46a5,5,0,0,1-1.14-3.52v-.35H97v.54c0,1.24.51,1.86,1.54,1.86a1.48,1.48,0,0,0,1.24-.51,3,3,0,0,0,.4-1.81v-3.62h0a2.75,2.75,0,0,1-2.7,1.65A2.89,2.89,0,0,1,95,748.59a5.32,5.32,0,0,1-.83-3.21V742a4.92,4.92,0,0,1,1.16-3.51,5.13,5.13,0,0,1,6.69,0,4.93,4.93,0,0,1,1.17,3.51v9.78c0,3.27-1.52,4.91-4.54,4.91A4.24,4.24,0,0,1,95.35,755.46Zm4.85-10.32v-3.35c0-1.23-.51-1.84-1.53-1.84s-1.54.61-1.54,1.84v3.35c0,1.24.51,1.86,1.54,1.86S100.2,746.38,100.2,745.14Z"/></g><g id="strength-weakness"><line class="cls-11" x1="114.57" y1="887.46" x2="114.57" y2="937.46"/><path class="cls-3" d="M26.64,901.35a2.68,2.68,0,0,1-.58-1.83V899h1.46v.67c0,.64.27,1,.8,1a.71.71,0,0,0,.59-.23,1.08,1.08,0,0,0,.21-.75,2.12,2.12,0,0,0-.28-1.08,5.52,5.52,0,0,0-1-1.13,6.31,6.31,0,0,1-1.33-1.52,3.1,3.1,0,0,1-.38-1.53,2.57,2.57,0,0,1,.59-1.8,2.22,2.22,0,0,1,1.71-.64,2.13,2.13,0,0,1,1.67.64,2.66,2.66,0,0,1,.57,1.83v.4H29.17v-.5a1.15,1.15,0,0,0-.19-.74.74.74,0,0,0-.58-.23c-.51,0-.77.32-.77.94a1.82,1.82,0,0,0,.29,1,5.26,5.26,0,0,0,1,1.12,5.72,5.72,0,0,1,1.33,1.53,3.33,3.33,0,0,1,.37,1.61,2.62,2.62,0,0,1-.6,1.85,2.22,2.22,0,0,1-1.73.64A2.17,2.17,0,0,1,26.64,901.35Z"/><path class="cls-3" d="M31.54,892h4.2v1.4H33.08V896h2.11v1.4H33.08v3h2.66v1.4h-4.2Z"/><path class="cls-3" d="M37.1,901.35a2.55,2.55,0,0,1-.58-1.77v-5.27a2.58,2.58,0,0,1,.58-1.78,2.58,2.58,0,0,1,3.38,0,2.58,2.58,0,0,1,.58,1.78v1H39.6v-1.14c0-.6-.25-.91-.77-.91s-.77.31-.77.91v5.48c0,.59.26.89.77.89s.77-.3.77-.89v-1.5h1.46v1.39a2.55,2.55,0,0,1-.58,1.77,2.58,2.58,0,0,1-3.38,0Z"/><path class="cls-3" d="M42,892h2.29a2,2,0,0,1,2.28,2.26v.6c0,1-.34,1.66-1,1.93v0a1.19,1.19,0,0,1,.79.69,3.47,3.47,0,0,1,.23,1.38v1.72a6.13,6.13,0,0,0,0,.68,1.49,1.49,0,0,0,.14.51H45.16a2.68,2.68,0,0,1-.11-.45,6.11,6.11,0,0,1,0-.75v-1.79a1.49,1.49,0,0,0-.22-.94.9.9,0,0,0-.75-.27h-.53v4.2H42Zm2.1,4.2a1,1,0,0,0,.7-.23,1.16,1.16,0,0,0,.23-.8v-.76a1.3,1.3,0,0,0-.19-.77.73.73,0,0,0-.6-.24h-.7v2.8Z"/><path class="cls-3" d="M47.62,892h4.2v1.4H49.16V896h2.12v1.4H49.16v3h2.66v1.4h-4.2Z"/><path class="cls-3" d="M53.91,893.44H52.3V892h4.76v1.4H55.45v8.4H53.91Z"/><path class="cls-3" d="M60.35,901.35a2.67,2.67,0,0,1-.57-1.83V899h1.45v.67c0,.64.27,1,.8,1a.75.75,0,0,0,.6-.23,1.14,1.14,0,0,0,.2-.75,2,2,0,0,0-.28-1.08,5.24,5.24,0,0,0-1-1.13,6.54,6.54,0,0,1-1.33-1.52,3.1,3.1,0,0,1-.38-1.53,2.57,2.57,0,0,1,.59-1.8,2.22,2.22,0,0,1,1.71-.64,2.12,2.12,0,0,1,1.67.64,2.66,2.66,0,0,1,.57,1.83v.4H62.88v-.5a1.15,1.15,0,0,0-.19-.74.72.72,0,0,0-.58-.23c-.51,0-.76.32-.76.94a1.81,1.81,0,0,0,.28,1,5.1,5.1,0,0,0,1,1.12A6.11,6.11,0,0,1,64,897.88a3.44,3.44,0,0,1,.36,1.61,2.62,2.62,0,0,1-.6,1.85A2.22,2.22,0,0,1,62,902,2.17,2.17,0,0,1,60.35,901.35Z"/><path class="cls-3" d="M66.45,893.44h-1.6V892h4.76v1.4H68v8.4H66.45Z"/><path class="cls-3" d="M70.35,892h2.28a2.33,2.33,0,0,1,1.73.56,2.3,2.3,0,0,1,.55,1.7v.6c0,1-.34,1.66-1,1.93v0a1.17,1.17,0,0,1,.79.69,3.29,3.29,0,0,1,.24,1.38v1.72a6.55,6.55,0,0,0,0,.68,1.75,1.75,0,0,0,.14.51H73.52a2.68,2.68,0,0,1-.11-.45,6.11,6.11,0,0,1,0-.75v-1.79a1.57,1.57,0,0,0-.21-.94.93.93,0,0,0-.75-.27h-.53v4.2H70.35Zm2.1,4.2a.94.94,0,0,0,.69-.23,1.16,1.16,0,0,0,.23-.8v-.76a1.23,1.23,0,0,0-.19-.77.69.69,0,0,0-.59-.24h-.7v2.8Z"/><path class="cls-3" d="M76,892h4.2v1.4H77.53V896h2.11v1.4H77.53v3h2.66v1.4H76Z"/><path class="cls-3" d="M81.07,892H83l1.5,5.87h0V892H85.9v9.8H84.32l-1.85-7.15h0v7.15H81.07Z"/><path class="cls-3" d="M87.52,901.35a2.63,2.63,0,0,1-.58-1.83v-5.15a2.61,2.61,0,0,1,.58-1.83,2.25,2.25,0,0,1,1.71-.64,2.22,2.22,0,0,1,1.71.64,2.61,2.61,0,0,1,.59,1.83v.84H90.07v-.94c0-.64-.26-1-.8-1s-.79.33-.79,1v5.36c0,.64.26,1,.79,1s.8-.31.8-1v-1.92H89.3v-1.4h2.23v3.21a2.63,2.63,0,0,1-.59,1.83,2.22,2.22,0,0,1-1.71.63A2.25,2.25,0,0,1,87.52,901.35Z"/><path class="cls-3" d="M93.73,893.44H92.12V892h4.76v1.4H95.27v8.4H93.73Z"/><path class="cls-3" d="M97.62,892h1.54v4h1.65v-4h1.54v9.8h-1.54v-4.41H99.16v4.41H97.62Z"/><path class="cls-3" d="M103.5,895H105v1.49H103.5Zm0,5.34H105v1.48H103.5Z"/><path class="cls-3" d="M32.59,907.44H31V906h4.76v1.4H34.13v8.4H32.59Z"/><path class="cls-3" d="M36.48,906H38v4h1.65v-4h1.54v9.8H39.67v-4.41H38v4.41H36.48Z"/><path class="cls-3" d="M42.36,906h2.28a2,2,0,0,1,2.29,2.26v.6c0,1-.34,1.66-1,1.93v0a1.21,1.21,0,0,1,.79.69,3.47,3.47,0,0,1,.23,1.38v1.72a6.13,6.13,0,0,0,0,.68,1.49,1.49,0,0,0,.14.51H45.54a1.56,1.56,0,0,1-.11-.45,6.11,6.11,0,0,1,0-.75v-1.79a1.49,1.49,0,0,0-.22-.94.9.9,0,0,0-.75-.27H43.9v4.2H42.36Zm2.1,4.2a.94.94,0,0,0,.69-.23,1.11,1.11,0,0,0,.23-.8v-.76a1.3,1.3,0,0,0-.18-.77.73.73,0,0,0-.6-.24h-.7v2.8Z"/><path class="cls-3" d="M48.49,915.34a2.58,2.58,0,0,1-.6-1.82v-5.15a2.56,2.56,0,0,1,.6-1.82,2.64,2.64,0,0,1,3.47,0,2.52,2.52,0,0,1,.61,1.82v5.15a2.54,2.54,0,0,1-.61,1.82,2.67,2.67,0,0,1-3.47,0ZM51,913.62v-5.35c0-.64-.27-1-.8-1s-.8.33-.8,1v5.35c0,.64.27,1,.8,1S51,914.26,51,913.62Z"/><path class="cls-3" d="M53.24,906h1.48l.69,7.54h0l.73-7.54h1.68l.72,7.54h0l.69-7.54h1.33l-1,9.8H57.7L57,909.23h0l-.7,6.61H54.23Z"/><path class="cls-3" d="M61.71,915.35a2.68,2.68,0,0,1-.58-1.83V913h1.46v.67c0,.64.27,1,.8,1a.71.71,0,0,0,.59-.23,1.08,1.08,0,0,0,.21-.75,2.12,2.12,0,0,0-.28-1.08,5.52,5.52,0,0,0-1-1.13,6.31,6.31,0,0,1-1.33-1.52,3.1,3.1,0,0,1-.38-1.53,2.57,2.57,0,0,1,.59-1.8,2.22,2.22,0,0,1,1.71-.64,2.13,2.13,0,0,1,1.67.64,2.66,2.66,0,0,1,.57,1.83v.4H64.24v-.5a1.15,1.15,0,0,0-.19-.74.74.74,0,0,0-.58-.23c-.51,0-.77.32-.77.94a1.82,1.82,0,0,0,.29,1,5.26,5.26,0,0,0,1,1.12,5.72,5.72,0,0,1,1.33,1.53,3.33,3.33,0,0,1,.37,1.61,2.62,2.62,0,0,1-.6,1.85,2.23,2.23,0,0,1-1.73.64A2.17,2.17,0,0,1,61.71,915.35Z"/><path class="cls-3" d="M68.85,906h1.54v4H72v-4h1.54v9.8H72v-4.41H70.39v4.41H68.85Z"/><path class="cls-3" d="M75.92,906H78l1.6,9.8H78.06l-.28-1.94v0H76l-.28,1.91H74.32Zm1.68,6.56-.69-4.85h0l-.67,4.85Z"/><path class="cls-3" d="M80.34,906h2.2l1,7h0l1-7h2.2v9.8H85.27v-7.42h0l-1.12,7.42H82.83l-1.12-7.42h0v7.42H80.34Z"/><path class="cls-3" d="M87.87,906h2.2l1,7h0l1-7h2.2v9.8H92.8v-7.42h0l-1.12,7.42H90.37l-1.12-7.42h0v7.42H87.87Z"/><path class="cls-3" d="M95.41,906h4.2v1.4H96.94V910h2.12v1.4H96.94v3h2.67v1.4h-4.2Z"/><path class="cls-3" d="M100.49,906h2.28a2.38,2.38,0,0,1,1.74.56,2.34,2.34,0,0,1,.54,1.7v.6c0,1-.33,1.66-1,1.93v0a1.17,1.17,0,0,1,.79.69,3.29,3.29,0,0,1,.24,1.38v1.72a6.55,6.55,0,0,0,0,.68,1.75,1.75,0,0,0,.14.51h-1.56a2,2,0,0,1-.12-.45,6.11,6.11,0,0,1,0-.75v-1.79a1.57,1.57,0,0,0-.21-.94.93.93,0,0,0-.75-.27H102v4.2h-1.54Zm2.1,4.2a.94.94,0,0,0,.69-.23,1.11,1.11,0,0,0,.23-.8v-.76a1.23,1.23,0,0,0-.19-.77.69.69,0,0,0-.59-.24H102v2.8Z"/><path class="cls-3" d="M125.52,901.35a2.67,2.67,0,0,1-.57-1.83V899h1.45v.67c0,.64.27,1,.8,1a.75.75,0,0,0,.6-.23,1.14,1.14,0,0,0,.2-.75,2,2,0,0,0-.28-1.08,5.24,5.24,0,0,0-1-1.13,6.54,6.54,0,0,1-1.33-1.52,3.09,3.09,0,0,1-.37-1.53,2.56,2.56,0,0,1,.58-1.8,2.22,2.22,0,0,1,1.71-.64,2.12,2.12,0,0,1,1.67.64,2.66,2.66,0,0,1,.57,1.83v.4h-1.45v-.5a1.15,1.15,0,0,0-.2-.74.72.72,0,0,0-.58-.23c-.51,0-.76.32-.76.94a1.81,1.81,0,0,0,.28,1,5.1,5.1,0,0,0,1,1.12,6.11,6.11,0,0,1,1.33,1.53,3.44,3.44,0,0,1,.36,1.61,2.62,2.62,0,0,1-.6,1.85,2.21,2.21,0,0,1-1.72.64A2.18,2.18,0,0,1,125.52,901.35Z"/><path class="cls-3" d="M130.42,892h4.2v1.4H132V896h2.12v1.4H132v3h2.66v1.4h-4.2Z"/><path class="cls-3" d="M136,901.35a2.5,2.5,0,0,1-.58-1.77v-5.27a2.53,2.53,0,0,1,.58-1.78,2.17,2.17,0,0,1,1.68-.63,2.19,2.19,0,0,1,1.69.63,2.53,2.53,0,0,1,.58,1.78v1h-1.45v-1.14c0-.6-.26-.91-.77-.91s-.78.31-.78.91v5.48c0,.59.26.89.78.89s.77-.3.77-.89v-1.5h1.45v1.39a2.5,2.5,0,0,1-.58,1.77,2.19,2.19,0,0,1-1.69.63A2.17,2.17,0,0,1,136,901.35Z"/><path class="cls-3" d="M140.86,892h2.29a2.33,2.33,0,0,1,1.73.56,2.3,2.3,0,0,1,.55,1.7v.6c0,1-.34,1.66-1,1.93v0a1.19,1.19,0,0,1,.79.69,3.3,3.3,0,0,1,.23,1.38v1.72a6.13,6.13,0,0,0,0,.68,1.75,1.75,0,0,0,.14.51H144a2.68,2.68,0,0,1-.11-.45,6.11,6.11,0,0,1,0-.75v-1.79a1.57,1.57,0,0,0-.21-.94.93.93,0,0,0-.75-.27h-.54v4.2h-1.54Zm2.1,4.2a1,1,0,0,0,.7-.23,1.16,1.16,0,0,0,.23-.8v-.76a1.23,1.23,0,0,0-.19-.77.71.71,0,0,0-.59-.24h-.71v2.8Z"/><path class="cls-3" d="M146.51,892h4.2v1.4h-2.66V896h2.11v1.4h-2.11v3h2.66v1.4h-4.2Z"/><path class="cls-3" d="M152.79,893.44h-1.61V892h4.76v1.4h-1.61v8.4h-1.54Z"/><path class="cls-3" d="M158.56,892H160l.69,7.54h0l.73-7.54h1.68l.73,7.54h0l.69-7.54h1.33l-1,9.8H163l-.7-6.61h0l-.7,6.61h-2Z"/><path class="cls-3" d="M166.72,892h4.2v1.4h-2.66V896h2.12v1.4h-2.12v3h2.66v1.4h-4.2Z"/><path class="cls-3" d="M173,892h2.08l1.6,9.8h-1.54l-.28-1.94v0h-1.75l-.28,1.91H171.4Zm1.68,6.56-.69-4.85h0l-.67,4.85Z"/><path class="cls-3" d="M177.42,892H179v4.13l2-4.13h1.54l-1.84,3.6,1.87,6.2h-1.61l-1.31-4.37-.61,1.25v3.12h-1.54Z"/><path class="cls-3" d="M183.21,892h1.94l1.49,5.87h0V892H188v9.8h-1.58l-1.85-7.15h0v7.15h-1.38Z"/><path class="cls-3" d="M189.19,892h4.2v1.4h-2.66V896h2.12v1.4h-2.12v3h2.66v1.4h-4.2Z"/><path class="cls-3" d="M194.61,901.35a2.67,2.67,0,0,1-.57-1.83V899h1.45v.67c0,.64.27,1,.8,1a.75.75,0,0,0,.6-.23,1.14,1.14,0,0,0,.2-.75,2,2,0,0,0-.28-1.08,5.24,5.24,0,0,0-1-1.13,6.31,6.31,0,0,1-1.33-1.52,3.1,3.1,0,0,1-.38-1.53,2.57,2.57,0,0,1,.59-1.8,2.22,2.22,0,0,1,1.71-.64,2.12,2.12,0,0,1,1.67.64,2.66,2.66,0,0,1,.57,1.83v.4h-1.46v-.5a1.15,1.15,0,0,0-.19-.74.72.72,0,0,0-.58-.23c-.51,0-.76.32-.76.94a1.81,1.81,0,0,0,.28,1,5.1,5.1,0,0,0,1.05,1.12,6.11,6.11,0,0,1,1.33,1.53,3.44,3.44,0,0,1,.36,1.61,2.62,2.62,0,0,1-.6,1.85,2.22,2.22,0,0,1-1.73.64A2.17,2.17,0,0,1,194.61,901.35Z"/><path class="cls-3" d="M199.82,901.35a2.68,2.68,0,0,1-.58-1.83V899h1.46v.67c0,.64.27,1,.8,1a.71.71,0,0,0,.59-.23,1.08,1.08,0,0,0,.21-.75,2.12,2.12,0,0,0-.28-1.08,5.52,5.52,0,0,0-1-1.13,6.31,6.31,0,0,1-1.33-1.52,3.1,3.1,0,0,1-.38-1.53,2.57,2.57,0,0,1,.59-1.8,2.22,2.22,0,0,1,1.71-.64,2.13,2.13,0,0,1,1.67.64,2.66,2.66,0,0,1,.57,1.83v.4h-1.46v-.5a1.15,1.15,0,0,0-.19-.74.74.74,0,0,0-.58-.23c-.51,0-.77.32-.77.94a1.82,1.82,0,0,0,.29,1,5.26,5.26,0,0,0,1,1.12,5.72,5.72,0,0,1,1.33,1.53,3.33,3.33,0,0,1,.37,1.61,2.62,2.62,0,0,1-.6,1.85,2.22,2.22,0,0,1-1.73.64A2.17,2.17,0,0,1,199.82,901.35Z"/><path class="cls-3" d="M204.72,895h1.48v1.49h-1.48Zm0,5.34h1.48v1.48h-1.48Z"/><path class="cls-3" d="M125.21,906h1.54v8.4h2.54v1.4h-4.08Z"/><path class="cls-3" d="M130.46,915.34a2.58,2.58,0,0,1-.6-1.82v-5.15a2.56,2.56,0,0,1,.6-1.82,2.26,2.26,0,0,1,1.74-.65,2.29,2.29,0,0,1,1.74.65,2.56,2.56,0,0,1,.6,1.82v5.15a2.58,2.58,0,0,1-.6,1.82,2.29,2.29,0,0,1-1.74.64A2.26,2.26,0,0,1,130.46,915.34Zm2.54-1.72v-5.35c0-.64-.27-1-.8-1s-.8.33-.8,1v5.35c0,.64.27,1,.8,1S133,914.26,133,913.62Z"/><path class="cls-3" d="M135.88,915.35a2.67,2.67,0,0,1-.57-1.83V913h1.45v.67c0,.64.27,1,.8,1a.75.75,0,0,0,.6-.23,1.14,1.14,0,0,0,.2-.75,2,2,0,0,0-.28-1.08,5.24,5.24,0,0,0-1-1.13,6.31,6.31,0,0,1-1.33-1.52,3.09,3.09,0,0,1-.37-1.53,2.56,2.56,0,0,1,.58-1.8,2.22,2.22,0,0,1,1.71-.64,2.12,2.12,0,0,1,1.67.64,2.66,2.66,0,0,1,.57,1.83v.4h-1.45v-.5a1.15,1.15,0,0,0-.2-.74.72.72,0,0,0-.57-.23c-.52,0-.78.32-.78.94a1.82,1.82,0,0,0,.29,1,5.26,5.26,0,0,0,1,1.12,5.72,5.72,0,0,1,1.33,1.53,3.33,3.33,0,0,1,.37,1.61,2.62,2.62,0,0,1-.6,1.85,2.21,2.21,0,0,1-1.72.64A2.18,2.18,0,0,1,135.88,915.35Z"/><path class="cls-3" d="M140.78,906H145v1.4h-2.66V910h2.12v1.4h-2.12v3H145v1.4h-4.2Z"/><path class="cls-3" d="M146.2,915.35a2.67,2.67,0,0,1-.57-1.83V913h1.45v.67c0,.64.27,1,.8,1a.71.71,0,0,0,.59-.23,1.08,1.08,0,0,0,.21-.75,2.12,2.12,0,0,0-.28-1.08,5.52,5.52,0,0,0-1-1.13,6.31,6.31,0,0,1-1.33-1.52,3.1,3.1,0,0,1-.38-1.53,2.57,2.57,0,0,1,.59-1.8,2.22,2.22,0,0,1,1.71-.64,2.13,2.13,0,0,1,1.67.64,2.66,2.66,0,0,1,.57,1.83v.4h-1.46v-.5a1.15,1.15,0,0,0-.19-.74.72.72,0,0,0-.58-.23c-.51,0-.77.32-.77.94a1.82,1.82,0,0,0,.29,1,5.26,5.26,0,0,0,1,1.12,5.72,5.72,0,0,1,1.33,1.53,3.33,3.33,0,0,1,.37,1.61,2.62,2.62,0,0,1-.6,1.85,2.22,2.22,0,0,1-1.73.64A2.17,2.17,0,0,1,146.2,915.35Z"/><path class="cls-3" d="M153.34,906h1.54v4h1.65v-4h1.54v9.8h-1.54v-4.41h-1.65v4.41h-1.54Z"/><path class="cls-3" d="M160.41,906h2.09l1.59,9.8h-1.54l-.28-1.94v0h-1.75l-.28,1.91h-1.43Zm1.68,6.56-.69-4.85h0l-.67,4.85Z"/><path class="cls-3" d="M164.83,906H167l1,7h0l1-7h2.2v9.8h-1.46v-7.42h0l-1.12,7.42h-1.29l-1.12-7.42h0v7.42h-1.35Z"/><path class="cls-3" d="M172.36,906h2.2l1,7h0l1-7h2.2v9.8h-1.46v-7.42h0l-1.13,7.42h-1.28l-1.12-7.42h0v7.42h-1.35Z"/><path class="cls-3" d="M179.9,906h4.2v1.4h-2.66V910h2.11v1.4h-2.11v3h2.66v1.4h-4.2Z"/><path class="cls-3" d="M185,906h2.28a2.38,2.38,0,0,1,1.74.56,2.34,2.34,0,0,1,.54,1.7v.6c0,1-.33,1.66-1,1.93v0a1.2,1.2,0,0,1,.8.69,3.47,3.47,0,0,1,.23,1.38v1.72c0,.28,0,.51,0,.68a1.75,1.75,0,0,0,.14.51h-1.56a2,2,0,0,1-.12-.45,6.81,6.81,0,0,1,0-.75v-1.79a1.56,1.56,0,0,0-.22-.94.93.93,0,0,0-.75-.27h-.53v4.2H185Zm2.1,4.2a.94.94,0,0,0,.69-.23,1.11,1.11,0,0,0,.23-.8v-.76a1.23,1.23,0,0,0-.19-.77.69.69,0,0,0-.59-.24h-.7v2.8Z"/></g></g></g></g></svg>