<svg xmlns="http://www.w3.org/2000/svg" viewBox="0 0 172 172"><defs><style>.cls-1{fill:#f4f4f4;}.cls-2{fill:#fff;}</style></defs><title>Asset 5</title><g id="Layer_2" data-name="Layer 2"><g id="poster"><g id="symbols"><polygon class="cls-1" points="101.84 35 118.84 43 118.84 39 103.84 32 101.84 35"/><circle cx="86" cy="86" r="86"/><circle class="cls-2" cx="86" cy="86" r="72.53"/><polygon points="68.71 24 60.71 26 33.71 76 37.71 86 68.71 24"/><polygon points="142.71 59 72.71 24 39.71 89 111.71 126 142.71 59"/><rect x="54.71" y="102" width="18" height="56" transform="translate(67.76 -14.72) rotate(27.71)"/><rect class="cls-2" x="73" y="92.58" width="1.83" height="30" rx="0.92" transform="translate(-55.34 125.73) rotate(-63.5)"/><rect class="cls-2" x="72.7" y="102.67" width="2.16" height="30" rx="0.92" transform="translate(-51.09 56.87) rotate(-31.95)"/><rect class="cls-2" x="62.21" y="110.81" width="2.69" height="30" rx="0.92" transform="translate(-56.95 52.69) rotate(-31.95)"/><path class="cls-2" d="M47.47,127.17l1.18-.73c.15-.09.49.18.75.61l16.31,26c.27.43-.09.43-.24.53l-2.13-.9c.53,0-.27-.13-.54-.56L47.68,128.12C47.41,127.69,47.32,127.27,47.47,127.17Z"/><polygon points="145.84 62 114.84 126 127.84 121 149.84 76 145.84 62"/></g></g></g></svg>