<svg xmlns="http://www.w3.org/2000/svg" viewBox="0 0 114.56 158.21"><defs><style>.cls-1{fill:#fff;}</style></defs><title>Asset 2</title><g id="Layer_2" data-name="Layer 2"><g id="poster"><g id="symbols"><path d="M6.44,94.21l-5-5s-9-65,18-79,73-18,90,17c0,0,8,40,4,61l-5,8-3,23-24,35-9,4h-31l-8-4-25-33Z"/><path class="cls-1" d="M12.94,20.71s17-9,27-8l5,43,12,2,13-2,5-43s24,3,27,9v49l5,18s-23,40-23,42-6,9-6,9l-4-4h-32l-5,4-29-51,5-18Z"/><polygon points="18.94 75.71 17.94 82.71 23.94 90.71 41.94 94.71 44.94 89.71 18.94 75.71"/><polygon points="72.94 94.71 68.94 89.71 95.94 75.71 95.94 83.71 90.94 90.71 72.94 94.71"/><polygon class="cls-1" points="29.94 133.71 29.94 139.71 36.94 151.71 43.94 148.71 53.94 148.71 55.94 147.71 59.94 147.71 61.94 148.71 71.94 148.71 77.94 151.71 85.94 140.71 84.94 133.71 77.94 142.71 73.94 137.71 41.94 137.71 36.94 143.71 29.94 133.71"/></g></g></g></svg>