<svg xmlns="http://www.w3.org/2000/svg" viewBox="0 0 228.89 972"><defs><style>.cls-1{fill:#474747;}.cls-2{opacity:0.25;}.cls-3{fill:#fff;}.cls-4{fill:#5b5959;}.cls-5{fill:#777;}.cls-6{fill:#333;}.cls-7,.cls-9{fill:none;}.cls-7,.cls-8{stroke:#000;stroke-linejoin:round;}.cls-7,.cls-8,.cls-9{stroke-linecap:round;}.cls-7{stroke-width:6px;}.cls-8{stroke-width:3px;}.cls-9{stroke:#fff;stroke-miterlimit:10;}</style></defs><title>widow-info</title><g id="Layer_2" data-name="Layer 2"><g id="poster"><g id="bg"><rect id="_3" data-name="3" class="cls-1" width="228" height="972"/><rect id="shade1" class="cls-2" x="1.89" y="310" width="227" height="102"/><rect id="shade2" class="cls-2" x="0.89" y="679" width="227" height="184"/></g><g id="stats-widow"><g id="stats"><rect class="cls-3" x="22.52" y="110.86" width="187.31" height="24.04"/><rect x="22.18" y="110.65" width="125.71" height="24.04"/><path class="cls-3" d="M26.56,127.3a3,3,0,0,1-.66-2.09v-.64h1.67v.77c0,.73.3,1.09.91,1.09a.87.87,0,0,0,.68-.26,1.26,1.26,0,0,0,.23-.86,2.32,2.32,0,0,0-.32-1.24,5.61,5.61,0,0,0-1.18-1.29A6.79,6.79,0,0,1,26.37,121a3.54,3.54,0,0,1-.44-1.76,2.94,2.94,0,0,1,.68-2.06,2.53,2.53,0,0,1,1.95-.73,2.46,2.46,0,0,1,1.92.73,3.09,3.09,0,0,1,.65,2.1v.46H29.46v-.58a1.3,1.3,0,0,0-.23-.84.81.81,0,0,0-.65-.26c-.59,0-.88.36-.88,1.07a2.18,2.18,0,0,0,.32,1.14,6.29,6.29,0,0,0,1.2,1.28,6.61,6.61,0,0,1,1.52,1.75,3.84,3.84,0,0,1,.42,1.84,3,3,0,0,1-.68,2.12,2.58,2.58,0,0,1-2,.73A2.46,2.46,0,0,1,26.56,127.3Z"/><path class="cls-3" d="M33.55,118.26H31.7v-1.6h5.45v1.6H35.31v9.61H33.55Z"/><path class="cls-3" d="M38,116.66h2.61a2.71,2.71,0,0,1,2,.63,2.66,2.66,0,0,1,.63,1.95v.69a2.11,2.11,0,0,1-1.16,2.21v0A1.4,1.4,0,0,1,43,123a4.12,4.12,0,0,1,.26,1.59v2q0,.48,0,.78a2,2,0,0,0,.16.58H41.64a2.13,2.13,0,0,1-.13-.51,8.2,8.2,0,0,1,0-.86v-2.06a1.7,1.7,0,0,0-.25-1.07,1.07,1.07,0,0,0-.86-.3h-.61v4.8H38Zm2.4,4.8a1.07,1.07,0,0,0,.8-.27,1.3,1.3,0,0,0,.26-.91v-.87a1.46,1.46,0,0,0-.21-.88.85.85,0,0,0-.69-.27h-.8v3.2Z"/><path class="cls-3" d="M44.46,116.66h4.81v1.6H46.22v3h2.42v1.61H46.22v3.44h3.05v1.6H44.46Z"/><path class="cls-3" d="M50.28,116.66h2.21l1.71,6.71h0v-6.71h1.57v11.21H54l-2.12-8.19h0v8.19H50.28Z"/><path class="cls-3" d="M57.66,127.3a3,3,0,0,1-.67-2.09v-5.89a3,3,0,0,1,.67-2.1,3,3,0,0,1,3.92,0,3,3,0,0,1,.67,2.1v1H60.58V119.2c0-.73-.3-1.1-.91-1.1s-.92.37-.92,1.1v6.14c0,.73.31,1.09.92,1.09s.91-.36.91-1.09v-2.19H59.7v-1.61h2.55v3.67a3,3,0,0,1-.67,2.09,3,3,0,0,1-3.92,0Z"/><path class="cls-3" d="M64.76,118.26H62.92v-1.6h5.45v1.6H66.53v9.61H64.76Z"/><path class="cls-3" d="M69.22,116.66H71v4.56h1.89v-4.56h1.77v11.21H72.87v-5H71v5H69.22Z"/><rect class="cls-3" x="22.52" y="147.93" width="187.31" height="24.04"/><rect x="22.18" y="147.71" width="135.71" height="24.04"/><path class="cls-3" d="M26.56,164.37a3,3,0,0,1-.66-2.1v-.64h1.67v.77c0,.73.3,1.09.91,1.09a.87.87,0,0,0,.68-.26,1.26,1.26,0,0,0,.23-.86,2.32,2.32,0,0,0-.32-1.24,5.61,5.61,0,0,0-1.18-1.29,6.79,6.79,0,0,1-1.52-1.74,3.53,3.53,0,0,1-.44-1.75,2.91,2.91,0,0,1,.68-2.06,2.5,2.5,0,0,1,1.95-.73,2.43,2.43,0,0,1,1.92.73,3,3,0,0,1,.65,2.09v.46H29.46v-.57a1.31,1.31,0,0,0-.23-.85.81.81,0,0,0-.65-.26c-.59,0-.88.36-.88,1.07a2.18,2.18,0,0,0,.32,1.14,6.29,6.29,0,0,0,1.2,1.28,6.61,6.61,0,0,1,1.52,1.75,3.84,3.84,0,0,1,.42,1.84,3,3,0,0,1-.68,2.12,2.59,2.59,0,0,1-2,.74A2.5,2.5,0,0,1,26.56,164.37Z"/><path class="cls-3" d="M32.17,153.72h2.59a2.55,2.55,0,0,1,2,.7,2.92,2.92,0,0,1,.66,2.07v1.11a2.91,2.91,0,0,1-.66,2.06,2.55,2.55,0,0,1-2,.71h-.83v4.57H32.17Zm2.59,5.05a.8.8,0,0,0,.65-.25,1.16,1.16,0,0,0,.22-.81v-1.33a1.18,1.18,0,0,0-.22-.82.82.82,0,0,0-.65-.24h-.83v3.45Z"/><path class="cls-3" d="M38.35,153.72h4.81v1.6h-3v3h2.42v1.61H40.12v3.44h3v1.61H38.35Z"/><path class="cls-3" d="M44.17,153.72H49v1.6h-3v3h2.42v1.61H45.93v3.44h3v1.61H44.17Z"/><path class="cls-3" d="M50,153.72h2.69a2.56,2.56,0,0,1,2,.7,2.92,2.92,0,0,1,.66,2.07v5.67a2.92,2.92,0,0,1-.66,2.07,2.56,2.56,0,0,1-2,.71H50Zm2.66,9.61a.83.83,0,0,0,.66-.25,1.2,1.2,0,0,0,.24-.84v-5.83a1.18,1.18,0,0,0-.24-.83.84.84,0,0,0-.66-.26h-.9v8Z"/><rect class="cls-3" x="22.52" y="184.99" width="187.31" height="24.04"/><rect x="22.18" y="184.77" width="156.26" height="24.04"/><path class="cls-3" d="M26.56,201.43a3,3,0,0,1-.66-2.09v-.64h1.67v.76c0,.73.3,1.09.91,1.09a.83.83,0,0,0,.68-.26,1.26,1.26,0,0,0,.23-.86,2.32,2.32,0,0,0-.32-1.24,5.61,5.61,0,0,0-1.18-1.29,6.79,6.79,0,0,1-1.52-1.74,3.53,3.53,0,0,1-.44-1.75,2.91,2.91,0,0,1,.68-2.06,2.5,2.5,0,0,1,1.95-.73,2.43,2.43,0,0,1,1.92.73,3,3,0,0,1,.65,2.09v.46H29.46v-.57a1.26,1.26,0,0,0-.23-.84.79.79,0,0,0-.65-.27c-.59,0-.88.36-.88,1.07a2.18,2.18,0,0,0,.32,1.14,6.29,6.29,0,0,0,1.2,1.28,6.77,6.77,0,0,1,1.52,1.75,3.87,3.87,0,0,1,.42,1.84,3,3,0,0,1-.68,2.12,2.59,2.59,0,0,1-2,.74A2.5,2.5,0,0,1,26.56,201.43Z"/><path class="cls-3" d="M33.55,192.38H31.7v-1.6h5.45v1.6H35.31V202H33.55Z"/><path class="cls-3" d="M38,190.78h2.61a2.71,2.71,0,0,1,2,.63,2.66,2.66,0,0,1,.63,2v.69a2.11,2.11,0,0,1-1.16,2.21v0a1.39,1.39,0,0,1,.91.79,4,4,0,0,1,.26,1.58v2c0,.33,0,.58,0,.78a2.16,2.16,0,0,0,.16.59H41.64a2.2,2.2,0,0,1-.13-.52,8.07,8.07,0,0,1,0-.86v-2.05a1.73,1.73,0,0,0-.25-1.08,1.07,1.07,0,0,0-.86-.3h-.61V202H38Zm2.4,4.81a1,1,0,0,0,.8-.28,1.3,1.3,0,0,0,.26-.91v-.87a1.48,1.48,0,0,0-.21-.88.85.85,0,0,0-.69-.27h-.8v3.21Z"/><path class="cls-3" d="M45.82,190.78h2.39L50,202H48.27L48,199.77v0H46l-.32,2.2H44Zm1.92,7.5L47,192.73h0l-.77,5.55Z"/><path class="cls-3" d="M51.53,192.38H49.68v-1.6h5.45v1.6H53.29V202H51.53Z"/><path class="cls-3" d="M56,190.78h4.81v1.6h-3v3h2.42V197H57.75v3.44h3V202H56Z"/><path class="cls-3" d="M62.35,201.43a3,3,0,0,1-.68-2.09v-5.9a3,3,0,0,1,.68-2.09,2.5,2.5,0,0,1,1.95-.73,2.54,2.54,0,0,1,2,.73,3,3,0,0,1,.67,2.09v1H65.26v-1.07c0-.74-.3-1.11-.91-1.11s-.92.37-.92,1.11v6.13c0,.73.31,1.09.92,1.09s.91-.36.91-1.09v-2.19h-.88v-1.6h2.55v3.67a3,3,0,0,1-.67,2.09,2.57,2.57,0,0,1-2,.73A2.53,2.53,0,0,1,62.35,201.43Z"/><path class="cls-3" d="M69.44,197.22l-2.13-6.44h1.88l1.2,4.12h0l1.2-4.12h1.72l-2.13,6.44V202H69.44Z"/><rect class="cls-3" x="22.52" y="222.05" width="187.31" height="24.04"/><rect x="22.18" y="221.83" width="125.71" height="24.04"/><path class="cls-3" d="M26.21,227.84H28.9a2.61,2.61,0,0,1,2,.7,2.94,2.94,0,0,1,.66,2.07v5.68a2.91,2.91,0,0,1-.66,2.06,2.58,2.58,0,0,1-2,.71H26.21Zm2.66,9.62a.85.85,0,0,0,.66-.26,1.19,1.19,0,0,0,.23-.83v-5.84a1.19,1.19,0,0,0-.23-.83.85.85,0,0,0-.66-.26H28v8Z"/><path class="cls-3" d="M32.71,227.84h4.81v1.6h-3v3H36.9V234H34.48v3.45h3v1.6H32.71Z"/><path class="cls-3" d="M38.53,227.84h4.66v1.6h-2.9v3.13h2.28v1.6H40.29v4.89H38.53Z"/><path class="cls-3" d="M44,227.84h4.81v1.6h-3v3h2.42V234H45.81v3.45h3v1.6H44Z"/><path class="cls-3" d="M49.86,227.84h2.21l1.72,6.71h0v-6.71h1.57v11.22H53.58l-2.12-8.19h0v8.19H49.86Z"/><path class="cls-3" d="M57.26,238.5a2.87,2.87,0,0,1-.67-2v-6a2.87,2.87,0,0,1,.67-2,2.48,2.48,0,0,1,1.93-.72,2.51,2.51,0,0,1,1.93.72,2.91,2.91,0,0,1,.66,2v1.18H60.12v-1.3c0-.69-.3-1-.88-1s-.89.35-.89,1v6.27c0,.68.3,1,.89,1s.88-.35.88-1v-1.71h1.66v1.58a2.91,2.91,0,0,1-.66,2,2.51,2.51,0,0,1-1.93.72A2.48,2.48,0,0,1,57.26,238.5Z"/><path class="cls-3" d="M62.84,227.84h4.81v1.6H64.6v3H67V234H64.6v3.45h3.05v1.6H62.84Z"/><rect class="cls-3" x="22.52" y="259.11" width="187.31" height="24.04"/><rect x="22.18" y="258.89" width="168.71" height="24.04"/><path class="cls-3" d="M26.56,275.55a3,3,0,0,1-.66-2.09v-.64h1.67v.77c0,.72.3,1.09.91,1.09a.84.84,0,0,0,.68-.27,1.24,1.24,0,0,0,.23-.85,2.35,2.35,0,0,0-.32-1.25A6.05,6.05,0,0,0,27.89,271a6.79,6.79,0,0,1-1.52-1.74,3.5,3.5,0,0,1-.44-1.75,2.92,2.92,0,0,1,.68-2.06,2.5,2.5,0,0,1,1.95-.73,2.43,2.43,0,0,1,1.92.73,3.06,3.06,0,0,1,.65,2.09V268H29.46v-.58a1.26,1.26,0,0,0-.23-.84.79.79,0,0,0-.65-.27c-.59,0-.88.36-.88,1.08a2.23,2.23,0,0,0,.32,1.14,6.29,6.29,0,0,0,1.2,1.28,6.6,6.6,0,0,1,1.52,1.74,3.89,3.89,0,0,1,.42,1.85,3,3,0,0,1-.68,2.11,2.59,2.59,0,0,1-2,.74A2.46,2.46,0,0,1,26.56,275.55Z"/><path class="cls-3" d="M32.17,264.9h1.76v4.73l2.24-4.73h1.77L35.84,269l2.13,7.1H36.13l-1.49-5-.71,1.43v3.57H32.17Z"/><path class="cls-3" d="M38.8,264.9h1.76v11.22H38.8Z"/><path class="cls-3" d="M41.88,264.9h1.76v9.62h2.9v1.6H41.88Z"/><path class="cls-3" d="M47.39,264.9h1.76v9.62h2.91v1.6H47.39Z"/></g><g id="weapon"><path class="cls-3" d="M22.79,331.13H26.6l1.77,19.37h.07l1.87-19.37h4.32L36.5,350.5h.07l1.77-19.37h3.42l-2.56,25.2H34.27l-1.8-17H32.4l-1.8,17H25.34Z"/><path class="cls-3" d="M43.77,331.13h10.8v3.6H47.73v6.66h5.44V345H47.73v7.74h6.84v3.6H43.77Z"/><path class="cls-3" d="M59.9,331.13h5.37l4.1,25.2h-4l-.72-5v.07h-4.5l-.72,4.93H55.8ZM64.22,348l-1.76-12.46h-.07L60.66,348Z"/><path class="cls-3" d="M71.28,331.13h5.83a5.8,5.8,0,0,1,4.43,1.58A6.62,6.62,0,0,1,83,337.36v2.48a6.62,6.62,0,0,1-1.47,4.65,5.8,5.8,0,0,1-4.43,1.58H75.24v10.26h-4Zm5.83,11.34a1.87,1.87,0,0,0,1.46-.54,2.76,2.76,0,0,0,.48-1.84v-3a2.76,2.76,0,0,0-.48-1.84,1.87,1.87,0,0,0-1.46-.54H75.24v7.74Z"/><path class="cls-3" d="M86.43,355a6.59,6.59,0,0,1-1.55-4.68V337.11a6.59,6.59,0,0,1,1.55-4.68,6.83,6.83,0,0,1,8.93,0,6.59,6.59,0,0,1,1.55,4.68v13.24A6.59,6.59,0,0,1,95.36,355a6.83,6.83,0,0,1-8.93,0ZM93,350.61V336.85c0-1.65-.69-2.48-2-2.48s-2.06.83-2.06,2.48v13.76c0,1.65.69,2.48,2.06,2.48S93,352.26,93,350.61Z"/><path class="cls-3" d="M99.57,331.13h5l3.85,15.08h.07V331.13H112v25.2h-4.07l-4.75-18.4h-.07v18.4H99.57Z"/><rect x="154.88" y="368.49" width="12" height="4" rx="2" transform="translate(203.15 -31.21) rotate(29.48)"/><rect x="165.46" y="373.9" width="10" height="4" rx="2" transform="translate(207.06 -35.22) rotate(29.48)"/><rect x="157.72" y="365.5" width="12" height="4" rx="2" transform="translate(202.05 -32.99) rotate(29.48)"/><rect x="168.3" y="370.91" width="10" height="4" rx="2" transform="translate(205.95 -37) rotate(29.48)"/><rect x="160.56" y="362.51" width="12" height="4" rx="2" transform="translate(200.94 -34.77) rotate(29.48)"/><rect x="171.14" y="367.92" width="10" height="4" rx="2" transform="translate(204.85 -38.79) rotate(29.48)"/><rect x="164.27" y="360.01" width="12" height="4" rx="2" transform="translate(200.19 -36.92) rotate(29.48)"/><rect x="174.85" y="365.42" width="10" height="4" rx="2" transform="translate(204.1 -40.93) rotate(29.48)"/><rect x="167.98" y="357.51" width="12" height="4" rx="2" transform="translate(199.45 -39.07) rotate(29.48)"/><rect x="178.56" y="362.93" width="10" height="4" rx="2" transform="translate(203.35 -43.08) rotate(29.48)"/><rect x="171.69" y="355.02" width="12" height="4" rx="2" transform="matrix(0.87, 0.49, -0.49, 0.87, 198.7, -41.22)"/><rect x="182.27" y="360.43" width="10" height="4" rx="2" transform="translate(202.6 -45.23) rotate(29.48)"/><rect x="175.4" y="352.52" width="12" height="4" rx="2" transform="translate(197.95 -43.37) rotate(29.48)"/><rect x="185.97" y="357.93" width="10" height="4" rx="2" transform="translate(201.85 -47.38) rotate(29.48)"/><rect x="176.5" y="348.54" width="12" height="4" rx="2" transform="translate(196.13 -44.42) rotate(29.48)"/><rect x="187.07" y="353.96" width="10" height="4" rx="2" transform="translate(200.04 -48.44) rotate(29.48)"/><rect x="176.72" y="344.08" width="12" height="4" rx="2" transform="translate(193.97 -45.11) rotate(29.48)"/><rect x="187.3" y="349.49" width="10" height="4" rx="2" transform="translate(197.87 -49.13) rotate(29.48)"/><rect x="176.95" y="339.61" width="12" height="4" rx="2" transform="translate(191.8 -45.8) rotate(29.48)"/><rect x="187.53" y="345.02" width="10" height="4" rx="2" transform="translate(195.7 -49.82) rotate(29.48)"/><rect x="177.18" y="335.14" width="12" height="4" rx="2" transform="translate(189.63 -46.5) rotate(29.48)"/><rect x="187.75" y="340.56" width="10" height="4" rx="2" transform="translate(193.53 -50.51) rotate(29.48)"/><path d="M107.69,377.68l-6.78-20.35s-10.48.93-4-4.2,44.32-23.95,44.32-23.95,8.31,9.67-4.57,15.09-23.93,11.12-23.93,11.12,9.68,3.81,5.61,6.86-3.05-4.07-5.59-3.22-1.53,10.68,4.24,12.72S107.69,377.68,107.69,377.68Z"/><path d="M122.53,382.06,121,360.67s-10.38-1.68-2.81-5.05S167,343.32,167,343.32s5.67,11.42-8.15,13.5-25.93,4.89-25.93,4.89,8.45,6.07,3.75,8-2-4.7-4.63-4.5-4.11,10,1,13.37S122.53,382.06,122.53,382.06Z"/></g><g id="personality"><path class="cls-3" d="M21.54,433.05h5.34a5.31,5.31,0,0,1,4.06,1.45,6.05,6.05,0,0,1,1.36,4.26V441a6.05,6.05,0,0,1-1.36,4.26,5.31,5.31,0,0,1-4.06,1.45H25.17v9.4H21.54Zm5.34,10.4a1.71,1.71,0,0,0,1.34-.5,2.49,2.49,0,0,0,.45-1.68v-2.74a2.49,2.49,0,0,0-.45-1.68,1.71,1.71,0,0,0-1.34-.5H25.17v7.1Z"/><path class="cls-3" d="M34.28,433.05h9.9v3.3H37.91v6.11h5v3.3h-5v7.09h6.27v3.3h-9.9Z"/><path class="cls-3" d="M46.25,433.05h5.38a5.57,5.57,0,0,1,4.1,1.31,5.53,5.53,0,0,1,1.28,4v1.42q0,3.58-2.37,4.55v.07A2.81,2.81,0,0,1,56.5,446a8.24,8.24,0,0,1,.55,3.27v4.06c0,.66,0,1.19.06,1.6a4.29,4.29,0,0,0,.33,1.2H53.75a5.08,5.08,0,0,1-.27-1,17.53,17.53,0,0,1-.06-1.78v-4.23a3.6,3.6,0,0,0-.52-2.21,2.15,2.15,0,0,0-1.76-.63H49.88v9.9H46.25Zm5,9.9a2.16,2.16,0,0,0,1.64-.56,2.66,2.66,0,0,0,.54-1.88v-1.78a3,3,0,0,0-.44-1.82,1.71,1.71,0,0,0-1.41-.56H49.88V443Z"/><path class="cls-3" d="M60.28,455a6.21,6.21,0,0,1-1.35-4.3v-1.32h3.43v1.58c0,1.5.63,2.24,1.88,2.24a1.77,1.77,0,0,0,1.4-.54,2.64,2.64,0,0,0,.48-1.77,4.87,4.87,0,0,0-.66-2.55A12,12,0,0,0,63,445.66a14.64,14.64,0,0,1-3.14-3.58,7.36,7.36,0,0,1-.89-3.62,6,6,0,0,1,1.39-4.24,5.19,5.19,0,0,1,4-1.5,5,5,0,0,1,3.95,1.5,6.3,6.3,0,0,1,1.33,4.31v1H66.25V438.3a2.63,2.63,0,0,0-.46-1.73,1.69,1.69,0,0,0-1.35-.55c-1.21,0-1.82.74-1.82,2.21a4.4,4.4,0,0,0,.68,2.35,13.17,13.17,0,0,0,2.46,2.64,13.59,13.59,0,0,1,3.13,3.59,8,8,0,0,1,.86,3.8,6.2,6.2,0,0,1-1.4,4.35,5.27,5.27,0,0,1-4.08,1.52A5.09,5.09,0,0,1,60.28,455Z"/><path class="cls-3" d="M73,455a6.05,6.05,0,0,1-1.41-4.28V438.53A6.06,6.06,0,0,1,73,434.24a6.28,6.28,0,0,1,8.19,0,6.07,6.07,0,0,1,1.42,4.29v12.15A6.06,6.06,0,0,1,81.17,455,6.28,6.28,0,0,1,73,455Zm6-4V438.3c0-1.52-.63-2.28-1.88-2.28s-1.88.76-1.88,2.28v12.61c0,1.51.62,2.27,1.88,2.27S79,452.42,79,450.91Z"/><path class="cls-3" d="M85,433.05h4.55l3.53,13.83h.07V433.05h3.23v23.1H92.68l-4.35-16.86h-.07v16.86H85Z"/><path class="cls-3" d="M101.92,433.05h4.92l3.76,23.1H107l-.66-4.58v.06h-4.12l-.66,4.52H98.16Zm4,15.45-1.61-11.42h-.07l-1.58,11.42Z"/><path class="cls-3" d="M112.35,433.05H116v19.8h6v3.3h-9.6Z"/><path class="cls-3" d="M123.7,433.05h3.63v23.1H123.7Z"/><path class="cls-3" d="M132.88,436.35h-3.8v-3.3H140.3v3.3h-3.79v19.8h-3.63Z"/><path class="cls-3" d="M145.52,446.32l-4.39-13.27H145l2.47,8.48h.07l2.47-8.48h3.53l-4.38,13.27v9.83h-3.63Z"/><circle class="cls-4" cx="110.6" cy="564" r="89"/><path class="cls-5" d="M112.1,564,29.93,533.41A90.26,90.26,0,0,0,24.6,564c0,48.82,39.5,89,87.5,89s87.5-40.18,87.5-89A90.06,90.06,0,0,0,185,514.77Z"/><path class="cls-6" d="M112.1,565,72.28,644.92A91.8,91.8,0,0,0,112.1,654c49.65,0,90.5-40.18,90.5-89,0-46.72-37.4-85.89-84.81-88.82Z"/><path class="cls-3" d="M50.24,579h2.35a2.21,2.21,0,0,1,1.72.62,2.56,2.56,0,0,1,.57,1.8v5a2.56,2.56,0,0,1-.57,1.8,2.25,2.25,0,0,1-1.72.62H50.24Zm2.32,8.4a.78.78,0,0,0,.58-.22,1.06,1.06,0,0,0,.2-.73v-5.1a1,1,0,0,0-.2-.73.75.75,0,0,0-.58-.22h-.79v7Z"/><path class="cls-3" d="M56.45,588.33a2.6,2.6,0,0,1-.59-1.83V579H57.4v7.59a1,1,0,0,0,.21.72.74.74,0,0,0,.58.23.75.75,0,0,0,.58-.23,1.07,1.07,0,0,0,.2-.72V579h1.49v7.47a2.6,2.6,0,0,1-.59,1.83,2.6,2.6,0,0,1-3.42,0Z"/><path class="cls-3" d="M62.75,580.43H61.14V579H65.9v1.4H64.29v8.4H62.75Z"/><path class="cls-3" d="M68.11,584.66,66.25,579h1.64l1,3.6h0l1-3.6h1.5l-1.87,5.63v4.17H68.11Z"/><path class="cls-3" d="M54.51,522.66a2.51,2.51,0,0,1-.58-1.78v-5.26a2.51,2.51,0,0,1,.58-1.78,2.57,2.57,0,0,1,3.37,0,2.51,2.51,0,0,1,.58,1.78v1H57v-1.13c0-.61-.26-.91-.77-.91s-.77.3-.77.91V521c0,.6.25.9.77.9s.77-.3.77-.9v-1.5h1.45v1.39a2.51,2.51,0,0,1-.58,1.78,2.57,2.57,0,0,1-3.37,0Z"/><path class="cls-3" d="M59.9,522.64a2.56,2.56,0,0,1-.6-1.82v-5.15a2.58,2.58,0,0,1,.6-1.82,2.69,2.69,0,0,1,3.48,0,2.58,2.58,0,0,1,.6,1.82v5.15a2.56,2.56,0,0,1-.6,1.82,2.65,2.65,0,0,1-3.48,0Zm2.54-1.72v-5.35c0-.64-.27-1-.8-1s-.8.32-.8,1v5.35c0,.65.27,1,.8,1S62.44,521.57,62.44,520.92Z"/><path class="cls-3" d="M65,513.35H67l1.49,5.86h0v-5.86h1.37v9.8H68.26L66.41,516h0v7.16H65Z"/><path class="cls-3" d="M71,513.35h4.08v1.4H72.53v2.73h2v1.4h-2v4.27H71Z"/><path class="cls-3" d="M75.81,513.35h1.54v9.8H75.81Z"/><path class="cls-3" d="M78.5,513.35h2.35a2.24,2.24,0,0,1,1.72.61,2.6,2.6,0,0,1,.57,1.81v5a2.56,2.56,0,0,1-.57,1.8,2.25,2.25,0,0,1-1.72.62H78.5Zm2.32,8.4a.74.74,0,0,0,.58-.23,1,1,0,0,0,.2-.72v-5.1a1,1,0,0,0-.2-.73.73.73,0,0,0-.58-.22H80v7Z"/><path class="cls-3" d="M84.18,513.35h4.2v1.4H85.72v2.59h2.11v1.4H85.72v3h2.66v1.4h-4.2Z"/><path class="cls-3" d="M89.26,513.35h1.93l1.5,5.86h0v-5.86h1.37v9.8H92.51L90.66,516h0v7.16H89.26Z"/><path class="cls-3" d="M95.72,522.66a2.56,2.56,0,0,1-.58-1.78v-5.26a2.56,2.56,0,0,1,.58-1.78,2.58,2.58,0,0,1,3.38,0,2.56,2.56,0,0,1,.58,1.78v1H98.22v-1.13c0-.61-.26-.91-.77-.91s-.77.3-.77.91V521c0,.6.26.9.77.9s.77-.3.77-.9v-1.5h1.46v1.39a2.56,2.56,0,0,1-.58,1.78,2.58,2.58,0,0,1-3.38,0Z"/><path class="cls-3" d="M100.6,513.35h4.2v1.4h-2.66v2.59h2.12v1.4h-2.12v3h2.66v1.4h-4.2Z"/><path class="cls-3" d="M132,569.35h1.54v9.8H132Z"/><path class="cls-3" d="M134.71,569.35h1.93l1.5,5.86h0v-5.86h1.37v9.8H138L136.11,572h0v7.16h-1.37Z"/><path class="cls-3" d="M141.89,570.75h-1.61v-1.4H145v1.4h-1.61v8.4h-1.54Z"/><path class="cls-3" d="M145.79,569.35H150v1.4h-2.66v2.59h2.11v1.4h-2.11v3H150v1.4h-4.2Z"/><path class="cls-3" d="M150.87,569.35h1.54v8.4h2.53v1.4h-4.07Z"/><path class="cls-3" d="M155.68,569.35h1.54v8.4h2.54v1.4h-4.08Z"/><path class="cls-3" d="M160.5,569.35H162v9.8H160.5Z"/><path class="cls-3" d="M163.66,578.65a2.59,2.59,0,0,1-.58-1.83v-5.15a2.58,2.58,0,0,1,.58-1.82,2.22,2.22,0,0,1,1.71-.64,2.19,2.19,0,0,1,1.71.64,2.59,2.59,0,0,1,.59,1.82v.84h-1.46v-.94c0-.64-.26-1-.8-1s-.79.32-.79,1v5.37c0,.63.26.95.79.95s.8-.32.8-.95V575h-.77v-1.4h2.23v3.2a2.6,2.6,0,0,1-.59,1.83,2.19,2.19,0,0,1-1.71.64A2.22,2.22,0,0,1,163.66,578.65Z"/><path class="cls-3" d="M168.66,569.35h4.2v1.4H170.2v2.59h2.12v1.4H170.2v3h2.66v1.4h-4.2Z"/><path class="cls-3" d="M173.74,569.35h1.94l1.49,5.86h0v-5.86h1.37v9.8H177L175.14,572h0v7.16h-1.38Z"/><path class="cls-3" d="M180.2,578.66a2.56,2.56,0,0,1-.58-1.78v-5.26a2.56,2.56,0,0,1,.58-1.78,2.58,2.58,0,0,1,3.38,0,2.51,2.51,0,0,1,.58,1.78v1H182.7v-1.13c0-.61-.25-.91-.77-.91s-.77.3-.77.91V577c0,.6.26.9.77.9s.77-.3.77-.9v-1.5h1.46v1.39a2.51,2.51,0,0,1-.58,1.78,2.58,2.58,0,0,1-3.38,0Z"/><path class="cls-3" d="M185.08,569.35h4.2v1.4h-2.66v2.59h2.12v1.4h-2.12v3h2.66v1.4h-4.2Z"/></g><g id="frenemies"><line class="cls-7" x1="17.89" y1="843" x2="205.89" y2="843"/><rect class="cls-8" x="140.89" y="813.5" width="50.5" height="27.5"/><path class="cls-3" d="M22.58,831.2v-4.65h1.6v2.89H27.3v-2.27h1.6v2.27h4.88v1.76Z"/><path class="cls-3" d="M22.58,825.7v-2.61a2.67,2.67,0,0,1,.63-2,2.65,2.65,0,0,1,1.94-.63h.69a2.12,2.12,0,0,1,2.21,1.15h0a1.39,1.39,0,0,1,.79-.9,3.85,3.85,0,0,1,1.58-.26h2a5.32,5.32,0,0,0,.77,0,1.79,1.79,0,0,0,.59-.16v1.8a2.67,2.67,0,0,1-.51.12,5.74,5.74,0,0,1-.87,0h-2a1.77,1.77,0,0,0-1.07.24,1.08,1.08,0,0,0-.3.86v.61h4.8v1.76Zm4.8-2.4a1,1,0,0,0-.27-.79,1.3,1.3,0,0,0-.92-.27h-.86a1.37,1.37,0,0,0-.88.22.81.81,0,0,0-.27.68v.8h3.2Z"/><path class="cls-3" d="M22.58,819.25v-1.76h11.2v1.76Z"/><path class="cls-3" d="M22.58,816.18v-4.8h1.6v3h3V812h1.6v2.42h3.44v-3h1.6v4.8Z"/><path class="cls-3" d="M22.58,810.37v-2.21l6.7-1.71v0h-6.7v-1.57h11.2v1.81l-8.18,2.11v0h8.18v1.57Z"/><path class="cls-3" d="M22.58,803.54v-2.69a2.57,2.57,0,0,1,.7-2,3,3,0,0,1,2.07-.65H31a2.94,2.94,0,0,1,2.06.65,2.58,2.58,0,0,1,.71,2v2.69Zm9.6-2.66a.85.85,0,0,0-.26-.66,1.19,1.19,0,0,0-.83-.23H25.27a1.21,1.21,0,0,0-.84.23.85.85,0,0,0-.25.66v.9h8Z"/><path class="cls-3" d="M33.21,796.69a3,3,0,0,1-2.09.66h-.64v-1.67h.77c.72,0,1.09-.3,1.09-.91a.85.85,0,0,0-.27-.68,1.29,1.29,0,0,0-.85-.23,2.41,2.41,0,0,0-1.24.32,5.86,5.86,0,0,0-1.29,1.18A6.79,6.79,0,0,1,27,796.88a3.5,3.5,0,0,1-1.75.44,2.9,2.9,0,0,1-2.05-.68,2.5,2.5,0,0,1-.73-1.95,2.41,2.41,0,0,1,.73-1.91,3,3,0,0,1,2.08-.65h.47v1.66h-.58a1.3,1.3,0,0,0-.84.23.84.84,0,0,0-.26.66c0,.58.36.87,1.07.87a2.12,2.12,0,0,0,1.14-.32A6.78,6.78,0,0,0,27.51,794a6.41,6.41,0,0,1,1.74-1.52,3.84,3.84,0,0,1,1.84-.42,3,3,0,0,1,2.11.68,2.56,2.56,0,0,1,.74,2A2.45,2.45,0,0,1,33.21,796.69Z"/><path class="cls-3" d="M22.58,788.53V786l8-1.12v0l-8-1.12v-2.51h11.2v1.66H25.3v0l8.48,1.28v1.47L25.3,787v0h8.48v1.53Z"/><path class="cls-3" d="M22.58,778.56v-2.38l11.2-1.82v1.76l-2.23.32h0v2l2.19.32v1.63Zm7.49-1.92-5.54.79v0l5.54.77Z"/><path class="cls-3" d="M22.58,773.51v-2.69a2.57,2.57,0,0,1,.7-2,3,3,0,0,1,2.07-.65H31a2.94,2.94,0,0,1,2.06.65,2.58,2.58,0,0,1,.71,2v2.69Zm9.6-2.66a.84.84,0,0,0-.26-.66,1.19,1.19,0,0,0-.83-.23H25.27a1.21,1.21,0,0,0-.84.23.83.83,0,0,0-.25.66v.9h8Z"/><path class="cls-3" d="M22.58,767v-4.8h1.6v3h3v-2.41h1.6v2.41h3.44v-3h1.6V767Z"/><path class="cls-3" d="M119.58,831.2v-4.8h1.6v3h3V827h1.6v2.41h3.44v-3h1.6v4.8Z"/><path class="cls-3" d="M119.58,825.39v-2.2l6.7-1.72v0h-6.7v-1.56h11.2v1.8l-8.18,2.11v0h8.18v1.56Z"/><path class="cls-3" d="M119.58,818.56v-4.8h1.6v3h3v-2.41h1.6v2.41h3.44v-3h1.6v4.8Z"/><path class="cls-3" d="M119.58,812.76v-2.52l8-1.12v0l-8-1.12v-2.51h11.2v1.66H122.3v0l8.48,1.28v1.47l-8.48,1.28v0h8.48v1.54Z"/><path class="cls-3" d="M119.58,804.15v-1.76h11.2v1.76Z"/><path class="cls-3" d="M119.58,801.08v-4.8h1.6v3h3V796.9h1.6v2.42h3.44v-3h1.6v4.8Z"/><path class="cls-3" d="M130.21,794.88a3,3,0,0,1-2.09.66h-.64v-1.66h.77c.72,0,1.09-.31,1.09-.92a.87.87,0,0,0-.27-.68,1.29,1.29,0,0,0-.85-.23,2.41,2.41,0,0,0-1.24.32,5.7,5.7,0,0,0-1.29,1.19,7.21,7.21,0,0,1-1.74,1.52,3.6,3.6,0,0,1-1.75.43,2.94,2.94,0,0,1-2-.67,2.52,2.52,0,0,1-.73-2,2.41,2.41,0,0,1,.73-1.91,3,3,0,0,1,2.08-.65h.47V792h-.58a1.3,1.3,0,0,0-.84.22.84.84,0,0,0-.26.66c0,.59.36.88,1.07.88a2.13,2.13,0,0,0,1.14-.33,6.78,6.78,0,0,0,1.28-1.19,6.41,6.41,0,0,1,1.74-1.52,3.84,3.84,0,0,1,1.84-.42,3,3,0,0,1,2.11.68,2.57,2.57,0,0,1,.74,2A2.44,2.44,0,0,1,130.21,794.88Z"/><path class="cls-3" d="M119.58,786.72v-2.51l8-1.12v0l-8-1.12v-2.51h11.2v1.66H122.3v0l8.48,1.28v1.48l-8.48,1.28v0h8.48v1.53Z"/><path class="cls-3" d="M119.58,776.76v-2.39l11.2-1.82v1.76l-2.23.32h0v2l2.19.32v1.63Zm7.49-1.92-5.54.78v0l5.54.77Z"/><path class="cls-3" d="M119.58,771.7V769a2.57,2.57,0,0,1,.7-2,3,3,0,0,1,2.07-.65H128a2.94,2.94,0,0,1,2.06.65,2.58,2.58,0,0,1,.71,2v2.69Zm9.6-2.66a.87.87,0,0,0-.26-.66,1.25,1.25,0,0,0-.83-.23h-5.82a1.26,1.26,0,0,0-.84.23.86.86,0,0,0-.25.66v.9h8Z"/><path class="cls-3" d="M119.58,765.21V760.4h1.6v3h3V761h1.6v2.41h3.44v-3h1.6v4.81Z"/><rect class="cls-8" x="46.15" y="778.5" width="50.5" height="64.5"/><path d="M187.51,795.22h-6v-2.7h8.91v2.59l-4.64,16.31h-3Z"/><path d="M79.65,775.37a8.46,8.46,0,0,1,.65-3.47,11.9,11.9,0,0,1,2.32-3.2,13.91,13.91,0,0,0,2.28-3,5.64,5.64,0,0,0,.64-2.59,2.73,2.73,0,0,0-.4-1.69A1.41,1.41,0,0,0,84,761c-1,0-1.54.62-1.54,1.86v2H79.65V763a5,5,0,0,1,1.13-3.52,5,5,0,0,1,6.59,0A5,5,0,0,1,88.51,763a7.46,7.46,0,0,1-.83,3.38,16.6,16.6,0,0,1-2.85,3.78,11.65,11.65,0,0,0-1.78,2.28,4.08,4.08,0,0,0-.46,1.88v.4h5.65v2.7H79.65Z"/><path d="M91.41,776.48A5,5,0,0,1,90.29,773v-1.53H93.1v1.67q0,1.86,1.53,1.86a1.41,1.41,0,0,0,1.15-.47,2.66,2.66,0,0,0,.39-1.66v-1.54a2.9,2.9,0,0,0-.46-1.85,1.81,1.81,0,0,0-1.48-.55h-1v-2.7h1.08a1.83,1.83,0,0,0,1.34-.46,2.21,2.21,0,0,0,.44-1.54v-1.38a2.12,2.12,0,0,0-.4-1.43,1.39,1.39,0,0,0-1.08-.46c-1,0-1.43.59-1.43,1.76V764H90.37v-1a4.94,4.94,0,0,1,1.12-3.48,4.92,4.92,0,0,1,6.46,0,4.94,4.94,0,0,1,1.11,3.47v.68a5.16,5.16,0,0,1-.51,2.47A3,3,0,0,1,97,767.41v.05a3,3,0,0,1,1.67,1.4,5.35,5.35,0,0,1,.51,2.49V773A4.89,4.89,0,0,1,98,776.49a5.13,5.13,0,0,1-6.61,0Z"/></g><g id="strength-weakness"><line class="cls-9" x1="113.07" y1="887.46" x2="113.07" y2="937.46"/><path class="cls-3" d="M25.15,901.35a2.63,2.63,0,0,1-.58-1.83V899H26v.67c0,.64.26,1,.8,1a.71.71,0,0,0,.59-.23,1.09,1.09,0,0,0,.2-.75,2,2,0,0,0-.28-1.08,5.14,5.14,0,0,0-1-1.13A6.1,6.1,0,0,1,25,895.87a3.1,3.1,0,0,1-.38-1.53,2.57,2.57,0,0,1,.59-1.8,2.22,2.22,0,0,1,1.71-.64,2.15,2.15,0,0,1,1.67.64,2.66,2.66,0,0,1,.57,1.83v.4H27.68v-.5a1.15,1.15,0,0,0-.2-.74.72.72,0,0,0-.57-.23c-.51,0-.77.32-.77.94a1.82,1.82,0,0,0,.29,1,5.26,5.26,0,0,0,1,1.12,5.91,5.91,0,0,1,1.33,1.53,3.44,3.44,0,0,1,.36,1.61,2.62,2.62,0,0,1-.59,1.85,2.23,2.23,0,0,1-1.73.64A2.16,2.16,0,0,1,25.15,901.35Z"/><path class="cls-3" d="M30.05,892h4.2v1.4H31.59V896H33.7v1.4H31.59v3h2.66v1.4h-4.2Z"/><path class="cls-3" d="M35.61,901.35a2.5,2.5,0,0,1-.58-1.77v-5.27a2.53,2.53,0,0,1,.58-1.78,2.19,2.19,0,0,1,1.69-.63,2.17,2.17,0,0,1,1.68.63,2.53,2.53,0,0,1,.59,1.78v1H38.11v-1.14c0-.6-.26-.91-.77-.91s-.77.31-.77.91v5.48c0,.59.26.89.77.89s.77-.3.77-.89v-1.5h1.46v1.39a2.51,2.51,0,0,1-.59,1.77,2.17,2.17,0,0,1-1.68.63A2.19,2.19,0,0,1,35.61,901.35Z"/><path class="cls-3" d="M40.49,892h2.28a2.38,2.38,0,0,1,1.74.56,2.34,2.34,0,0,1,.54,1.7v.6c0,1-.33,1.66-1,1.93v0a1.21,1.21,0,0,1,.79.69,3.47,3.47,0,0,1,.23,1.38v1.72a6.13,6.13,0,0,0,0,.68,1.29,1.29,0,0,0,.14.51H43.67a1.56,1.56,0,0,1-.11-.45,6.11,6.11,0,0,1,0-.75v-1.79a1.56,1.56,0,0,0-.22-.94.9.9,0,0,0-.75-.27H42v4.2H40.49Zm2.1,4.2a.94.94,0,0,0,.69-.23,1.11,1.11,0,0,0,.23-.8v-.76a1.23,1.23,0,0,0-.19-.77.69.69,0,0,0-.59-.24H42v2.8Z"/><path class="cls-3" d="M46.13,892h4.2v1.4H47.67V896h2.12v1.4H47.67v3h2.66v1.4h-4.2Z"/><path class="cls-3" d="M52.42,893.44H50.81V892h4.76v1.4H54v8.4H52.42Z"/><path class="cls-3" d="M58.86,901.35a2.63,2.63,0,0,1-.58-1.83V899h1.46v.67c0,.64.27,1,.8,1a.71.71,0,0,0,.59-.23,1.08,1.08,0,0,0,.21-.75,2.12,2.12,0,0,0-.28-1.08,5.52,5.52,0,0,0-1-1.13,6.1,6.1,0,0,1-1.33-1.52,3.1,3.1,0,0,1-.38-1.53,2.57,2.57,0,0,1,.59-1.8,2.22,2.22,0,0,1,1.71-.64,2.15,2.15,0,0,1,1.67.64,2.66,2.66,0,0,1,.57,1.83v.4H61.39v-.5a1.15,1.15,0,0,0-.19-.74.75.75,0,0,0-.58-.23c-.51,0-.77.32-.77.94a1.82,1.82,0,0,0,.29,1,5.26,5.26,0,0,0,1,1.12,5.72,5.72,0,0,1,1.33,1.53,3.44,3.44,0,0,1,.37,1.61,2.62,2.62,0,0,1-.6,1.85,2.23,2.23,0,0,1-1.73.64A2.16,2.16,0,0,1,58.86,901.35Z"/><path class="cls-3" d="M65,893.44H63.35V892h4.76v1.4H66.5v8.4H65Z"/><path class="cls-3" d="M68.85,892h2.29a2.33,2.33,0,0,1,1.73.56,2.3,2.3,0,0,1,.55,1.7v.6c0,1-.34,1.66-1,1.93v0a1.19,1.19,0,0,1,.79.69,3.47,3.47,0,0,1,.23,1.38v1.72a6.13,6.13,0,0,0,0,.68,1.49,1.49,0,0,0,.14.51H72a2.68,2.68,0,0,1-.11-.45,6.11,6.11,0,0,1,0-.75v-1.79a1.49,1.49,0,0,0-.22-.94.89.89,0,0,0-.74-.27h-.54v4.2H68.85Zm2.1,4.2a1,1,0,0,0,.7-.23,1.16,1.16,0,0,0,.23-.8v-.76a1.3,1.3,0,0,0-.19-.77.73.73,0,0,0-.6-.24h-.7v2.8Z"/><path class="cls-3" d="M74.5,892h4.2v1.4H76V896h2.11v1.4H76v3H78.7v1.4H74.5Z"/><path class="cls-3" d="M79.58,892h1.93l1.5,5.87h0V892h1.37v9.8H82.83L81,894.69h0v7.15H79.58Z"/><path class="cls-3" d="M86,901.35a2.63,2.63,0,0,1-.59-1.83v-5.15a2.61,2.61,0,0,1,.59-1.83,2.6,2.6,0,0,1,3.42,0,2.61,2.61,0,0,1,.59,1.83v.84H88.58v-.94c0-.64-.27-1-.8-1s-.8.33-.8,1v5.36c0,.64.27,1,.8,1s.8-.31.8-1v-1.92h-.77v-1.4H90v3.21a2.63,2.63,0,0,1-.59,1.83,2.64,2.64,0,0,1-3.42,0Z"/><path class="cls-3" d="M92.23,893.44H90.62V892h4.76v1.4H93.77v8.4H92.23Z"/><path class="cls-3" d="M96.13,892h1.54v4h1.65v-4h1.54v9.8H99.32v-4.41H97.67v4.41H96.13Z"/><path class="cls-3" d="M102,895h1.48v1.49H102Zm0,5.34h1.48v1.48H102Z"/><path class="cls-3" d="M57.94,915.35a2.5,2.5,0,0,1-.58-1.77v-5.27a2.53,2.53,0,0,1,.58-1.78,2.19,2.19,0,0,1,1.69-.63,2.17,2.17,0,0,1,1.68.63,2.53,2.53,0,0,1,.59,1.78v1H60.44v-1.14c0-.6-.26-.91-.77-.91s-.77.31-.77.91v5.48c0,.59.26.89.77.89s.77-.3.77-.89v-1.5H61.9v1.39a2.51,2.51,0,0,1-.59,1.77,2.17,2.17,0,0,1-1.68.63A2.19,2.19,0,0,1,57.94,915.35Z"/><path class="cls-3" d="M62.82,906h1.54v8.4h2.53v1.4H62.82Z"/><path class="cls-3" d="M68.88,906H71l1.59,9.8H71l-.28-1.94v0H69l-.28,1.91H67.29Zm1.68,6.56-.68-4.85h0l-.67,4.85Z"/><path class="cls-3" d="M73.57,915.35a2.67,2.67,0,0,1-.57-1.83V913h1.45v.67c0,.64.27,1,.8,1a.75.75,0,0,0,.6-.23,1.14,1.14,0,0,0,.2-.75,2,2,0,0,0-.28-1.08,5.24,5.24,0,0,0-1-1.13,6.54,6.54,0,0,1-1.33-1.52,3.09,3.09,0,0,1-.37-1.53,2.56,2.56,0,0,1,.58-1.8,2.24,2.24,0,0,1,1.71-.64,2.12,2.12,0,0,1,1.67.64,2.66,2.66,0,0,1,.57,1.83v.4H76.11v-.5a1.15,1.15,0,0,0-.2-.74.72.72,0,0,0-.57-.23c-.52,0-.77.32-.77.94a1.81,1.81,0,0,0,.28,1,5.1,5.1,0,0,0,1.05,1.12,6.11,6.11,0,0,1,1.33,1.53,3.44,3.44,0,0,1,.36,1.61,2.62,2.62,0,0,1-.6,1.85,2.21,2.21,0,0,1-1.72.64A2.18,2.18,0,0,1,73.57,915.35Z"/><path class="cls-3" d="M78.78,915.35a2.67,2.67,0,0,1-.57-1.83V913h1.45v.67c0,.64.27,1,.8,1a.71.71,0,0,0,.59-.23,1.08,1.08,0,0,0,.21-.75,2.12,2.12,0,0,0-.28-1.08,5.24,5.24,0,0,0-1-1.13,6.31,6.31,0,0,1-1.33-1.52,3.1,3.1,0,0,1-.38-1.53,2.57,2.57,0,0,1,.59-1.8,2.22,2.22,0,0,1,1.71-.64,2.13,2.13,0,0,1,1.67.64,2.66,2.66,0,0,1,.57,1.83v.4H81.31v-.5a1.15,1.15,0,0,0-.19-.74.72.72,0,0,0-.58-.23c-.51,0-.77.32-.77.94a1.82,1.82,0,0,0,.29,1,5.26,5.26,0,0,0,1,1.12,5.72,5.72,0,0,1,1.33,1.53,3.33,3.33,0,0,1,.37,1.61,2.62,2.62,0,0,1-.6,1.85,2.22,2.22,0,0,1-1.73.64A2.17,2.17,0,0,1,78.78,915.35Z"/><path class="cls-3" d="M83.68,906h1.54v9.8H83.68Z"/><path class="cls-3" d="M86.37,906h4.07v1.4H87.91v2.73h2v1.4h-2v4.27H86.37Z"/><path class="cls-3" d="M91.18,906h1.54v9.8H91.18Z"/><path class="cls-3" d="M93.87,906h4.2v1.4H95.41V910h2.12v1.4H95.41v3h2.66v1.4h-4.2Z"/><path class="cls-3" d="M99,906h2.36a2.26,2.26,0,0,1,1.72.62,2.57,2.57,0,0,1,.57,1.81v4.95a2.59,2.59,0,0,1-.57,1.81,2.26,2.26,0,0,1-1.72.61H99Zm2.33,8.4a.75.75,0,0,0,.58-.22,1.1,1.1,0,0,0,.2-.73v-5.1a1.09,1.09,0,0,0-.2-.72.75.75,0,0,0-.58-.23h-.79v7Z"/><path class="cls-3" d="M124,901.35a2.68,2.68,0,0,1-.58-1.83V899h1.46v.67c0,.64.27,1,.8,1a.71.71,0,0,0,.59-.23,1.08,1.08,0,0,0,.21-.75,2.12,2.12,0,0,0-.28-1.08,5.52,5.52,0,0,0-1-1.13,6.31,6.31,0,0,1-1.33-1.52,3.1,3.1,0,0,1-.38-1.53,2.57,2.57,0,0,1,.59-1.8,2.22,2.22,0,0,1,1.71-.64,2.13,2.13,0,0,1,1.67.64,2.66,2.66,0,0,1,.57,1.83v.4h-1.46v-.5a1.15,1.15,0,0,0-.19-.74.74.74,0,0,0-.58-.23c-.51,0-.77.32-.77.94a1.82,1.82,0,0,0,.29,1,5.26,5.26,0,0,0,1,1.12,5.72,5.72,0,0,1,1.33,1.53,3.33,3.33,0,0,1,.37,1.61,2.62,2.62,0,0,1-.6,1.85,2.23,2.23,0,0,1-1.73.64A2.17,2.17,0,0,1,124,901.35Z"/><path class="cls-3" d="M128.93,892h4.2v1.4h-2.66V896h2.11v1.4h-2.11v3h2.66v1.4h-4.2Z"/><path class="cls-3" d="M134.49,901.35a2.55,2.55,0,0,1-.58-1.77v-5.27a2.58,2.58,0,0,1,.58-1.78,2.58,2.58,0,0,1,3.38,0,2.58,2.58,0,0,1,.58,1.78v1H137v-1.14c0-.6-.25-.91-.77-.91s-.77.31-.77.91v5.48c0,.59.26.89.77.89s.77-.3.77-.89v-1.5h1.46v1.39a2.55,2.55,0,0,1-.58,1.77,2.58,2.58,0,0,1-3.38,0Z"/><path class="cls-3" d="M139.37,892h2.28a2,2,0,0,1,2.29,2.26v.6c0,1-.34,1.66-1,1.93v0a1.19,1.19,0,0,1,.79.69,3.47,3.47,0,0,1,.23,1.38v1.72a6.13,6.13,0,0,0,0,.68,1.49,1.49,0,0,0,.14.51h-1.57a2,2,0,0,1-.11-.45,6.11,6.11,0,0,1,0-.75v-1.79a1.49,1.49,0,0,0-.22-.94.9.9,0,0,0-.75-.27h-.53v4.2h-1.54Zm2.1,4.2a1,1,0,0,0,.7-.23,1.16,1.16,0,0,0,.23-.8v-.76a1.3,1.3,0,0,0-.19-.77.73.73,0,0,0-.6-.24h-.7v2.8Z"/><path class="cls-3" d="M145,892h4.2v1.4h-2.66V896h2.12v1.4h-2.12v3h2.66v1.4H145Z"/><path class="cls-3" d="M151.3,893.44h-1.61V892h4.76v1.4h-1.61v8.4H151.3Z"/><path class="cls-3" d="M157.07,892h1.48l.69,7.54h0L160,892h1.68l.73,7.54h0l.69-7.54h1.33l-1,9.8h-1.92l-.7-6.61h0l-.7,6.61h-2.05Z"/><path class="cls-3" d="M165.23,892h4.2v1.4h-2.66V896h2.11v1.4h-2.11v3h2.66v1.4h-4.2Z"/><path class="cls-3" d="M171.5,892h2.09l1.59,9.8h-1.54l-.28-1.94v0h-1.75l-.28,1.91h-1.42Zm1.68,6.56-.68-4.85h0l-.67,4.85Z"/><path class="cls-3" d="M175.93,892h1.54v4.13l2-4.13H181l-1.84,3.6,1.86,6.2h-1.61l-1.3-4.37-.61,1.25v3.12h-1.54Z"/><path class="cls-3" d="M181.72,892h1.93l1.5,5.87h0V892h1.37v9.8H185l-1.85-7.15h0v7.15h-1.37Z"/><path class="cls-3" d="M187.7,892h4.2v1.4h-2.66V896h2.11v1.4h-2.11v3h2.66v1.4h-4.2Z"/><path class="cls-3" d="M193.12,901.35a2.63,2.63,0,0,1-.58-1.83V899H194v.67c0,.64.27,1,.8,1a.71.71,0,0,0,.59-.23,1.08,1.08,0,0,0,.21-.75,2.12,2.12,0,0,0-.28-1.08,5.52,5.52,0,0,0-1-1.13,6.1,6.1,0,0,1-1.33-1.52,3.1,3.1,0,0,1-.38-1.53,2.57,2.57,0,0,1,.59-1.8,2.22,2.22,0,0,1,1.71-.64,2.15,2.15,0,0,1,1.67.64,2.66,2.66,0,0,1,.57,1.83v.4h-1.46v-.5a1.15,1.15,0,0,0-.19-.74.74.74,0,0,0-.58-.23c-.51,0-.77.32-.77.94a1.82,1.82,0,0,0,.29,1,5.26,5.26,0,0,0,1,1.12,5.72,5.72,0,0,1,1.33,1.53,3.44,3.44,0,0,1,.37,1.61,2.62,2.62,0,0,1-.6,1.85,2.23,2.23,0,0,1-1.73.64A2.16,2.16,0,0,1,193.12,901.35Z"/><path class="cls-3" d="M198.33,901.35a2.63,2.63,0,0,1-.58-1.83V899h1.46v.67c0,.64.26,1,.8,1a.71.71,0,0,0,.59-.23,1.09,1.09,0,0,0,.2-.75,2,2,0,0,0-.28-1.08,5.14,5.14,0,0,0-1-1.13,6.1,6.1,0,0,1-1.33-1.52,3.1,3.1,0,0,1-.38-1.53,2.57,2.57,0,0,1,.59-1.8,2.22,2.22,0,0,1,1.71-.64,2.15,2.15,0,0,1,1.67.64,2.66,2.66,0,0,1,.57,1.83v.4h-1.46v-.5a1.15,1.15,0,0,0-.2-.74.72.72,0,0,0-.57-.23c-.51,0-.77.32-.77.94a1.82,1.82,0,0,0,.29,1,5.26,5.26,0,0,0,1,1.12,5.91,5.91,0,0,1,1.33,1.53,3.44,3.44,0,0,1,.36,1.61,2.62,2.62,0,0,1-.59,1.85A2.23,2.23,0,0,1,200,902,2.16,2.16,0,0,1,198.33,901.35Z"/><path class="cls-3" d="M203.23,895h1.48v1.49h-1.48Zm0,5.34h1.48v1.48h-1.48Z"/><path class="cls-3" d="M124.2,915.35a2.55,2.55,0,0,1-.58-1.77v-5.27a2.58,2.58,0,0,1,.58-1.78,2.58,2.58,0,0,1,3.38,0,2.58,2.58,0,0,1,.58,1.78v1H126.7v-1.14c0-.6-.25-.91-.77-.91s-.77.31-.77.91v5.48c0,.59.26.89.77.89s.77-.3.77-.89v-1.5h1.46v1.39a2.55,2.55,0,0,1-.58,1.77,2.58,2.58,0,0,1-3.38,0Z"/><path class="cls-3" d="M129.08,906h1.54v8.4h2.54v1.4h-4.08Z"/><path class="cls-3" d="M135.14,906h2.09l1.6,9.8h-1.54L137,913.9v0h-1.75l-.28,1.91h-1.43Zm1.68,6.56-.68-4.85h0l-.67,4.85Z"/><path class="cls-3" d="M139.83,915.35a2.67,2.67,0,0,1-.57-1.83V913h1.46v.67c0,.64.26,1,.79,1a.74.74,0,0,0,.6-.23,1.14,1.14,0,0,0,.2-.75,2,2,0,0,0-.28-1.08,5.14,5.14,0,0,0-1-1.13,6.1,6.1,0,0,1-1.33-1.52,3,3,0,0,1-.38-1.53,2.52,2.52,0,0,1,.59-1.8,2.22,2.22,0,0,1,1.7-.64,2.16,2.16,0,0,1,1.68.64,2.66,2.66,0,0,1,.56,1.83v.4h-1.45v-.5a1.15,1.15,0,0,0-.2-.74.72.72,0,0,0-.57-.23c-.52,0-.77.32-.77.94a1.74,1.74,0,0,0,.29,1,5,5,0,0,0,1,1.12,5.91,5.91,0,0,1,1.33,1.53,3.44,3.44,0,0,1,.36,1.61,2.67,2.67,0,0,1-.59,1.85,2.25,2.25,0,0,1-1.73.64A2.2,2.2,0,0,1,139.83,915.35Z"/><path class="cls-3" d="M145,915.35a2.67,2.67,0,0,1-.57-1.83V913h1.45v.67c0,.64.27,1,.8,1a.75.75,0,0,0,.6-.23,1.14,1.14,0,0,0,.2-.75,2,2,0,0,0-.28-1.08,5.24,5.24,0,0,0-1-1.13,6.54,6.54,0,0,1-1.33-1.52,3.09,3.09,0,0,1-.37-1.53,2.56,2.56,0,0,1,.58-1.8,2.25,2.25,0,0,1,1.71-.64,2.16,2.16,0,0,1,1.68.64,2.71,2.71,0,0,1,.56,1.83v.4h-1.45v-.5a1.15,1.15,0,0,0-.2-.74.72.72,0,0,0-.57-.23c-.52,0-.77.32-.77.94a1.81,1.81,0,0,0,.28,1,5.1,5.1,0,0,0,1.05,1.12,6.11,6.11,0,0,1,1.33,1.53,3.44,3.44,0,0,1,.36,1.61,2.67,2.67,0,0,1-.59,1.85,2.25,2.25,0,0,1-1.73.64A2.18,2.18,0,0,1,145,915.35Z"/><path class="cls-3" d="M149.94,906h1.54v9.8h-1.54Z"/><path class="cls-3" d="M152.63,906h4.07v1.4h-2.53v2.73h2v1.4h-2v4.27h-1.54Z"/><path class="cls-3" d="M157.45,906H159v9.8h-1.54Z"/><path class="cls-3" d="M160.13,906h4.2v1.4h-2.66V910h2.12v1.4h-2.12v3h2.66v1.4h-4.2Z"/><path class="cls-3" d="M165.22,906h2.35a2.25,2.25,0,0,1,1.72.62,2.57,2.57,0,0,1,.57,1.81v4.95a2.59,2.59,0,0,1-.57,1.81,2.24,2.24,0,0,1-1.72.61h-2.35Zm2.32,8.4a.73.73,0,0,0,.58-.22,1,1,0,0,0,.2-.73v-5.1a1,1,0,0,0-.2-.72.74.74,0,0,0-.58-.23h-.78v7Z"/></g></g></g></g></svg>